<?xml version="1.0" encoding="UTF-8" standalone="no"?>
<!DOCTYPE svg PUBLIC "-//W3C//DTD SVG 1.1//EN"
 "http://www.w3.org/Graphics/SVG/1.1/DTD/svg11.dtd">
<!-- Generated by graphviz version 2.42.4 (0)
 -->
<!-- Title: src_agent/ACLMessage.cpp Pages: 1 -->
<svg width="212pt" height="192pt"
 viewBox="0.00 0.00 211.50 192.00" xmlns="http://www.w3.org/2000/svg" xmlns:xlink="http://www.w3.org/1999/xlink">

<svg id="main" version="1.1" xmlns="http://www.w3.org/2000/svg" xmlns:xlink="http://www.w3.org/1999/xlink" xml:space="preserve" onload="init(evt)">
<style type="text/css"><![CDATA[
.node, .edge {opacity: 0.7;}
.node.selected, .edge.selected {opacity: 1;}
.edge:hover path { stroke: red; }
.edge:hover polygon { stroke: red; fill: red; }
]]></style>
<script type="application/ecmascript" xlink:href="svg.min.js"/>
<svg id="graph" class="graph">
<g id="graph0" class="graph" transform="scale(1 1) rotate(0) translate(4 188)">
<title>src_agent/ACLMessage.cpp</title>
<!-- Node1 -->
<g id="Node000001" class="node">
<title>Node1</title>
<g id="a_Node000001"><a xlink:title=" ">
<polygon fill="#999999" stroke="#666666" points="149,-184 0,-184 0,-165 149,-165 149,-184"/>
<text text-anchor="middle" x="74.5" y="-172" font-family="Helvetica,sans-Serif" font-size="10.00">src_agent/ACLMessage.cpp</text>
</a>
</g>
</g>
<!-- Node2 -->
<g id="Node000002" class="node">
<title>Node2</title>
<g id="a_Node000002"><a xlink:href="ACLMessage_8hpp.html" target="_top" xlink:title=" ">
<polygon fill="white" stroke="#666666" points="124.5,-129 24.5,-129 24.5,-110 124.5,-110 124.5,-129"/>
<text text-anchor="middle" x="74.5" y="-117" font-family="Helvetica,sans-Serif" font-size="10.00">ACLMessage.hpp</text>
</a>
</g>
</g>
<!-- Node1&#45;&gt;Node2 -->
<g id="edge1_Node000001_Node000002" class="edge">
<title>Node1&#45;&gt;Node2</title>
<g id="a_edge1_Node000001_Node000002"><a xlink:title=" ">
<path fill="none" stroke="#63b8ff" d="M74.5,-164.75C74.5,-157.8 74.5,-147.85 74.5,-139.13"/>
<polygon fill="#63b8ff" stroke="#63b8ff" points="78,-139.09 74.5,-129.09 71,-139.09 78,-139.09"/>
</a>
</g>
</g>
<!-- Node3 -->
<g id="Node000003" class="node">
<title>Node3</title>
<g id="a_Node000003"><a xlink:title=" ">
<polygon fill="#e0e0e0" stroke="#999999" points="58,-74 11,-74 11,-55 58,-55 58,-74"/>
<text text-anchor="middle" x="34.5" y="-62" font-family="Helvetica,sans-Serif" font-size="10.00">vector</text>
</a>
</g>
</g>
<!-- Node2&#45;&gt;Node3 -->
<g id="edge2_Node000002_Node000003" class="edge">
<title>Node2&#45;&gt;Node3</title>
<g id="a_edge2_Node000002_Node000003"><a xlink:title=" ">
<path fill="none" stroke="#63b8ff" d="M67.89,-109.75C62.24,-102.26 53.96,-91.28 47.05,-82.13"/>
<polygon fill="#63b8ff" stroke="#63b8ff" points="49.8,-79.96 40.98,-74.09 44.21,-84.18 49.8,-79.96"/>
</a>
</g>
</g>
<!-- Node4 -->
<g id="Node000004" class="node">
<title>Node4</title>
<g id="a_Node000004"><a xlink:href="AgentID_8hpp.html" target="_top" xlink:title=" ">
<polygon fill="white" stroke="#666666" points="153,-74 76,-74 76,-55 153,-55 153,-74"/>
<text text-anchor="middle" x="114.5" y="-62" font-family="Helvetica,sans-Serif" font-size="10.00">AgentID.hpp</text>
</a>
</g>
</g>
<!-- Node2&#45;&gt;Node4 -->
<g id="edge3_Node000002_Node000004" class="edge">
<title>Node2&#45;&gt;Node4</title>
<g id="a_edge3_Node000002_Node000004"><a xlink:title=" ">
<path fill="none" stroke="#63b8ff" d="M81.11,-109.75C86.76,-102.26 95.04,-91.28 101.95,-82.13"/>
<polygon fill="#63b8ff" stroke="#63b8ff" points="104.79,-84.18 108.02,-74.09 99.2,-79.96 104.79,-84.18"/>
</a>
</g>
</g>
<!-- Node5 -->
<g id="Node000005" class="node">
<title>Node5</title>
<g id="a_Node000005"><a xlink:title=" ">
<polygon fill="#e0e0e0" stroke="#999999" points="69.5,-19 19.5,-19 19.5,0 69.5,0 69.5,-19"/>
<text text-anchor="middle" x="44.5" y="-7" font-family="Helvetica,sans-Serif" font-size="10.00">chrono</text>
</a>
</g>
</g>
<!-- Node4&#45;&gt;Node5 -->
<g id="edge4_Node000004_Node000005" class="edge">
<title>Node4&#45;&gt;Node5</title>
<g id="a_edge4_Node000004_Node000005"><a xlink:title=" ">
<path fill="none" stroke="#63b8ff" d="M103.25,-54.98C92.7,-47 76.7,-34.88 64.06,-25.31"/>
<polygon fill="#63b8ff" stroke="#63b8ff" points="66.04,-22.42 55.95,-19.17 61.81,-28 66.04,-22.42"/>
</a>
</g>
</g>
<!-- Node6 -->
<g id="Node000006" class="node">
<title>Node6</title>
<g id="a_Node000006"><a xlink:title=" ">
<polygon fill="#e0e0e0" stroke="#999999" points="141.5,-19 87.5,-19 87.5,0 141.5,0 141.5,-19"/>
<text text-anchor="middle" x="114.5" y="-7" font-family="Helvetica,sans-Serif" font-size="10.00">random</text>
</a>
</g>
</g>
<!-- Node4&#45;&gt;Node6 -->
<g id="edge5_Node000004_Node000006" class="edge">
<title>Node4&#45;&gt;Node6</title>
<g id="a_edge5_Node000004_Node000006"><a xlink:title=" ">
<path fill="none" stroke="#63b8ff" d="M114.5,-54.75C114.5,-47.8 114.5,-37.85 114.5,-29.13"/>
<polygon fill="#63b8ff" stroke="#63b8ff" points="118,-29.09 114.5,-19.09 111,-29.09 118,-29.09"/>
</a>
</g>
</g>
<!-- Node7 -->
<g id="Node000007" class="node">
<title>Node7</title>
<g id="a_Node000007"><a xlink:title=" ">
<polygon fill="#e0e0e0" stroke="#999999" points="203.5,-19 159.5,-19 159.5,0 203.5,0 203.5,-19"/>
<text text-anchor="middle" x="181.5" y="-7" font-family="Helvetica,sans-Serif" font-size="10.00">string</text>
</a>
</g>
</g>
<!-- Node4&#45;&gt;Node7 -->
<g id="edge6_Node000004_Node000007" class="edge">
<title>Node4&#45;&gt;Node7</title>
<g id="a_edge6_Node000004_Node000007"><a xlink:title=" ">
<path fill="none" stroke="#63b8ff" d="M125.26,-54.98C135.27,-47.07 150.39,-35.11 162.43,-25.58"/>
<polygon fill="#63b8ff" stroke="#63b8ff" points="164.87,-28.12 170.54,-19.17 160.53,-22.63 164.87,-28.12"/>
</a>
</g>
</g>
</g>
</svg>
</svg>

<style type='text/css'>
<![CDATA[
[data-mouse-over-selected='false'] { opacity: 0.7; }
[data-mouse-over-selected='true']  { opacity: 1.0; }
]]>
</style>
<script type="application/ecmascript"><![CDATA[
document.addEventListener('DOMContentLoaded', (event) => {
  highlightEdges();
  highlightAdjacentNodes();
});
]]></script>
</svg>
