<?xml version="1.0" encoding="UTF-8" standalone="no"?>
<!DOCTYPE svg PUBLIC "-//W3C//DTD SVG 1.1//EN"
 "http://www.w3.org/Graphics/SVG/1.1/DTD/svg11.dtd">
<!-- Generated by graphviz version 2.42.4 (0)
 -->
<!-- Title: src_agent/Agent.hpp Pages: 1 -->
<!--zoomable 192 -->

<svg id="main" version="1.1" xmlns="http://www.w3.org/2000/svg" xmlns:xlink="http://www.w3.org/1999/xlink" xml:space="preserve" onload="init(evt)">
<style type="text/css"><![CDATA[
.node, .edge {opacity: 0.7;}
.node.selected, .edge.selected {opacity: 1;}
.edge:hover path { stroke: red; }
.edge:hover polygon { stroke: red; fill: red; }
]]></style>

<defs>
  <circle id="rim" cx="0" cy="0" r="7"/>
  <circle id="rim2" cx="0" cy="0" r="3.5"/>
  <g id="zoomPlus">
    <use xlink:href="#rim" fill="#404040"><set attributeName="fill" to="#808080" begin="zoomplus.mouseover" end="zoomplus.mouseout"/></use>
    <path d="M-4,0h8M0,-4v8" fill="none" stroke="white" stroke-width="1.5" pointer-events="none"/>
  </g>
  <g id="zoomMin">
    <use xlink:href="#rim" fill="#404040"><set attributeName="fill" to="#808080" begin="zoomminus.mouseover" end="zoomminus.mouseout"/></use>
    <path d="M-4,0h8" fill="none" stroke="white" stroke-width="1.5" pointer-events="none"/>
  </g>
  <g id="arrowUp" transform="translate(30 24)">
    <use xlink:href="#rim"/>
    <path pointer-events="none" fill="none" stroke="white" stroke-width="1.5" d="M0,-3.0v7 M-2.5,-0.5L0,-3.0L2.5,-0.5"/>
  </g>
  <g id="arrowRight" transform="rotate(90) translate(36 -43)">
    <use xlink:href="#rim"/>
    <path pointer-events="none" fill="none" stroke="white" stroke-width="1.5" d="M0,-3.0v7 M-2.5,-0.5L0,-3.0L2.5,-0.5"/>
  </g>
  <g id="arrowDown" transform="rotate(180) translate(-30 -48)">
    <use xlink:href="#rim"/>
    <path pointer-events="none" fill="none" stroke="white" stroke-width="1.5" d="M0,-3.0v7 M-2.5,-0.5L0,-3.0L2.5,-0.5"/>
  </g>
  <g id="arrowLeft" transform="rotate(270) translate(-36 17)">
    <use xlink:href="#rim"/>
    <path pointer-events="none" fill="none" stroke="white" stroke-width="1.5" d="M0,-3.0v7 M-2.5,-0.5L0,-3.0L2.5,-0.5"/>
  </g>
  <g id="resetDef">
    <use xlink:href="#rim2" fill="#404040"><set attributeName="fill" to="#808080" begin="reset.mouseover" end="reset.mouseout"/></use>
  </g>
</defs>
<script type="application/ecmascript">
var viewWidth = 1776;
var viewHeight = 192;
var sectionId = 'dynsection-0';
</script>
<script type="application/ecmascript" xlink:href="svg.min.js"/>
<svg id="graph" class="graph">
<g id="viewport">
<title>src_agent/Agent.hpp</title>
<!-- Node1 -->
<g id="Node000001" class="node">
<title>Node1</title>
<g id="a_Node000001"><a xlink:title=" ">
<polygon fill="#999999" stroke="#666666" points="689,-184 573,-184 573,-165 689,-165 689,-184"/>
<text text-anchor="middle" x="631" y="-172" font-family="Helvetica,sans-Serif" font-size="10.00">src_agent/Agent.hpp</text>
</a>
</g>
</g>
<!-- Node2 -->
<g id="Node000002" class="node">
<title>Node2</title>
<g id="a_Node000002"><a xlink:title=" ">
<polygon fill="#e0e0e0" stroke="#999999" points="66.5,-74 13.5,-74 13.5,-55 66.5,-55 66.5,-74"/>
<text text-anchor="middle" x="40" y="-62" font-family="Helvetica,sans-Serif" font-size="10.00">stdlib.h</text>
</a>
</g>
</g>
<!-- Node1&#45;&gt;Node2 -->
<g id="edge1_Node000001_Node000002" class="edge">
<title>Node1&#45;&gt;Node2</title>
<g id="a_edge1_Node000001_Node000002"><a xlink:title=" ">
<path fill="none" stroke="#63b8ff" d="M572.74,-173.08C487.59,-171.23 324.73,-163.07 191,-129 144.94,-117.27 94.67,-93.79 65.31,-78.91"/>
<polygon fill="#63b8ff" stroke="#63b8ff" points="66.69,-75.68 56.19,-74.22 63.49,-81.9 66.69,-75.68"/>
</a>
</g>
</g>
<!-- Node3 -->
<g id="Node000003" class="node">
<title>Node3</title>
<g id="a_Node000003"><a xlink:title=" ">
<polygon fill="#e0e0e0" stroke="#999999" points="141,-74 85,-74 85,-55 141,-55 141,-74"/>
<text text-anchor="middle" x="113" y="-62" font-family="Helvetica,sans-Serif" font-size="10.00">unistd.h</text>
</a>
</g>
</g>
<!-- Node1&#45;&gt;Node3 -->
<g id="edge2_Node000001_Node000003" class="edge">
<title>Node1&#45;&gt;Node3</title>
<g id="a_edge2_Node000001_Node000003"><a xlink:title=" ">
<path fill="none" stroke="#63b8ff" d="M572.92,-172.94C495.98,-170.83 356.73,-162.23 243,-129 203.23,-117.38 160.75,-94.38 135.55,-79.48"/>
<polygon fill="#63b8ff" stroke="#63b8ff" points="137.16,-76.36 126.78,-74.21 133.55,-82.36 137.16,-76.36"/>
</a>
</g>
</g>
<!-- Node4 -->
<g id="Node000004" class="node">
<title>Node4</title>
<g id="a_Node000004"><a xlink:title=" ">
<polygon fill="#e0e0e0" stroke="#999999" points="219,-74 159,-74 159,-55 219,-55 219,-74"/>
<text text-anchor="middle" x="189" y="-62" font-family="Helvetica,sans-Serif" font-size="10.00">iostream</text>
</a>
</g>
</g>
<!-- Node1&#45;&gt;Node4 -->
<g id="edge3_Node000001_Node000004" class="edge">
<title>Node1&#45;&gt;Node4</title>
<g id="a_edge3_Node000001_Node000004"><a xlink:title=" ">
<path fill="none" stroke="#63b8ff" d="M572.79,-174.3C501.84,-173.44 379.35,-165.97 282,-129 252.63,-117.85 223.48,-95.67 205.85,-80.71"/>
<polygon fill="#63b8ff" stroke="#63b8ff" points="208.01,-77.95 198.17,-74.02 203.42,-83.23 208.01,-77.95"/>
</a>
</g>
</g>
<!-- Node5 -->
<g id="Node000005" class="node">
<title>Node5</title>
<g id="a_Node000005"><a xlink:title=" ">
<polygon fill="#e0e0e0" stroke="#999999" points="290.5,-74 237.5,-74 237.5,-55 290.5,-55 290.5,-74"/>
<text text-anchor="middle" x="264" y="-62" font-family="Helvetica,sans-Serif" font-size="10.00">string.h</text>
</a>
</g>
</g>
<!-- Node1&#45;&gt;Node5 -->
<g id="edge4_Node000001_Node000005" class="edge">
<title>Node1&#45;&gt;Node5</title>
<g id="a_edge4_Node000001_Node000005"><a xlink:title=" ">
<path fill="none" stroke="#63b8ff" d="M572.77,-171.43C491,-167.54 347.29,-156.87 304,-129 287.6,-118.44 276.7,-98.53 270.48,-83.8"/>
<polygon fill="#63b8ff" stroke="#63b8ff" points="273.64,-82.27 266.76,-74.2 267.11,-84.79 273.64,-82.27"/>
</a>
</g>
</g>
<!-- Node6 -->
<g id="Node000006" class="node">
<title>Node6</title>
<g id="a_Node000006"><a xlink:title=" ">
<polygon fill="#e0e0e0" stroke="#999999" points="359,-74 309,-74 309,-55 359,-55 359,-74"/>
<text text-anchor="middle" x="334" y="-62" font-family="Helvetica,sans-Serif" font-size="10.00">stdio.h</text>
</a>
</g>
</g>
<!-- Node1&#45;&gt;Node6 -->
<g id="edge5_Node000001_Node000006" class="edge">
<title>Node1&#45;&gt;Node6</title>
<g id="a_edge5_Node000001_Node000006"><a xlink:title=" ">
<path fill="none" stroke="#63b8ff" d="M572.95,-174.08C490.56,-173.51 346.01,-166.96 313,-129 301.62,-115.92 310.65,-96.5 320.16,-82.58"/>
<polygon fill="#63b8ff" stroke="#63b8ff" points="323.12,-84.47 326.27,-74.35 317.5,-80.3 323.12,-84.47"/>
</a>
</g>
</g>
<!-- Node7 -->
<g id="Node000007" class="node">
<title>Node7</title>
<g id="a_Node000007"><a xlink:title=" ">
<polygon fill="#e0e0e0" stroke="#999999" points="426.5,-74 377.5,-74 377.5,-55 426.5,-55 426.5,-74"/>
<text text-anchor="middle" x="402" y="-62" font-family="Helvetica,sans-Serif" font-size="10.00">cstdlib</text>
</a>
</g>
</g>
<!-- Node1&#45;&gt;Node7 -->
<g id="edge6_Node000001_Node000007" class="edge">
<title>Node1&#45;&gt;Node7</title>
<g id="a_edge6_Node000001_Node000007"><a xlink:title=" ">
<path fill="none" stroke="#63b8ff" d="M572.91,-173.8C492.56,-172.83 353.8,-165.72 322,-129 303.64,-107.81 338.48,-88.57 367.81,-76.95"/>
<polygon fill="#63b8ff" stroke="#63b8ff" points="369.33,-80.12 377.46,-73.32 366.86,-73.57 369.33,-80.12"/>
</a>
</g>
</g>
<!-- Node8 -->
<g id="Node000008" class="node">
<title>Node8</title>
<g id="a_Node000008"><a xlink:title=" ">
<polygon fill="#e0e0e0" stroke="#999999" points="491,-19 419,-19 419,0 491,0 491,-19"/>
<text text-anchor="middle" x="455" y="-7" font-family="Helvetica,sans-Serif" font-size="10.00">sys/types.h</text>
</a>
</g>
</g>
<!-- Node1&#45;&gt;Node8 -->
<g id="edge7_Node000001_Node000008" class="edge">
<title>Node1&#45;&gt;Node8</title>
<g id="a_edge7_Node000001_Node000008"><a xlink:title=" ">
<path fill="none" stroke="#63b8ff" d="M572.76,-174.22C478.61,-174.08 287.79,-168.35 132,-129 71.96,-113.84 38.06,-125.71 4,-74 -0.65,-66.95 -1.67,-61.26 4,-55 30.83,-25.38 299.2,-14.75 408.77,-11.62"/>
<polygon fill="#63b8ff" stroke="#63b8ff" points="408.97,-15.11 418.87,-11.34 408.77,-8.12 408.97,-15.11"/>
</a>
</g>
</g>
<!-- Node9 -->
<g id="Node000009" class="node">
<title>Node9</title>
<g id="a_Node000009"><a xlink:title=" ">
<polygon fill="#e0e0e0" stroke="#999999" points="397,-129 331,-129 331,-110 397,-110 397,-129"/>
<text text-anchor="middle" x="364" y="-117" font-family="Helvetica,sans-Serif" font-size="10.00">sys/wait.h</text>
</a>
</g>
</g>
<!-- Node1&#45;&gt;Node9 -->
<g id="edge8_Node000001_Node000009" class="edge">
<title>Node1&#45;&gt;Node9</title>
<g id="a_edge8_Node000001_Node000009"><a xlink:title=" ">
<path fill="none" stroke="#63b8ff" d="M587.43,-164.94C544.22,-156.44 475.84,-142.96 407.14,-129.22"/>
<polygon fill="#63b8ff" stroke="#63b8ff" points="407.5,-125.72 397.01,-127.2 406.13,-132.59 407.5,-125.72"/>
</a>
</g>
</g>
<!-- Node10 -->
<g id="Node000010" class="node">
<title>Node10</title>
<g id="a_Node000010"><a xlink:title=" ">
<polygon fill="#e0e0e0" stroke="#999999" points="619.5,-74 564.5,-74 564.5,-55 619.5,-55 619.5,-74"/>
<text text-anchor="middle" x="592" y="-62" font-family="Helvetica,sans-Serif" font-size="10.00">signal.h</text>
</a>
</g>
</g>
<!-- Node1&#45;&gt;Node10 -->
<g id="edge9_Node000001_Node000010" class="edge">
<title>Node1&#45;&gt;Node10</title>
<g id="a_edge9_Node000001_Node000010"><a xlink:title=" ">
<path fill="none" stroke="#63b8ff" d="M617.21,-164.82C606.18,-156.99 591.5,-144.35 585,-129 578.91,-114.64 581.62,-96.9 585.3,-83.82"/>
<polygon fill="#63b8ff" stroke="#63b8ff" points="588.7,-84.7 588.45,-74.11 582.04,-82.54 588.7,-84.7"/>
</a>
</g>
</g>
<!-- Node11 -->
<g id="Node000011" class="node">
<title>Node11</title>
<g id="a_Node000011"><a xlink:title=" ">
<polygon fill="#e0e0e0" stroke="#999999" points="684.5,-74 637.5,-74 637.5,-55 684.5,-55 684.5,-74"/>
<text text-anchor="middle" x="661" y="-62" font-family="Helvetica,sans-Serif" font-size="10.00">vector</text>
</a>
</g>
</g>
<!-- Node1&#45;&gt;Node11 -->
<g id="edge10_Node000001_Node000011" class="edge">
<title>Node1&#45;&gt;Node11</title>
<g id="a_edge10_Node000001_Node000011"><a xlink:title=" ">
<path fill="none" stroke="#63b8ff" d="M618.75,-164.87C603.27,-152.83 579.89,-130.21 591,-110 598.94,-95.54 613.79,-85.11 627.78,-78"/>
<polygon fill="#63b8ff" stroke="#63b8ff" points="629.64,-80.99 637.23,-73.6 626.69,-74.65 629.64,-80.99"/>
</a>
</g>
</g>
<!-- Node12 -->
<g id="Node000012" class="node">
<title>Node12</title>
<g id="a_Node000012"><a xlink:title=" ">
<polygon fill="#e0e0e0" stroke="#999999" points="1627,-74 1583,-74 1583,-55 1627,-55 1627,-74"/>
<text text-anchor="middle" x="1605" y="-62" font-family="Helvetica,sans-Serif" font-size="10.00">string</text>
</a>
</g>
</g>
<!-- Node1&#45;&gt;Node12 -->
<g id="edge11_Node000001_Node000012" class="edge">
<title>Node1&#45;&gt;Node12</title>
<g id="a_edge11_Node000001_Node000012"><a xlink:title=" ">
<path fill="none" stroke="#63b8ff" d="M689.06,-173.82C881.36,-174.47 1489.59,-173 1565,-129 1581.84,-119.17 1592.66,-99.13 1598.74,-84.18"/>
<polygon fill="#63b8ff" stroke="#63b8ff" points="1602.17,-85 1602.36,-74.41 1595.61,-82.57 1602.17,-85"/>
</a>
</g>
</g>
<!-- Node13 -->
<g id="Node000013" class="node">
<title>Node13</title>
<g id="a_Node000013"><a xlink:title=" ">
<polygon fill="#e0e0e0" stroke="#999999" points="827.5,-74 702.5,-74 702.5,-55 827.5,-55 827.5,-74"/>
<text text-anchor="middle" x="765" y="-62" font-family="Helvetica,sans-Serif" font-size="10.00">boost/lexical_cast.hpp</text>
</a>
</g>
</g>
<!-- Node1&#45;&gt;Node13 -->
<g id="edge12_Node000001_Node000013" class="edge">
<title>Node1&#45;&gt;Node13</title>
<g id="a_edge12_Node000001_Node000013"><a xlink:title=" ">
<path fill="none" stroke="#63b8ff" d="M626.59,-164.73C620.64,-151.51 612.06,-126.28 624,-110 634.39,-95.82 674.03,-84.07 708.64,-76.22"/>
<polygon fill="#63b8ff" stroke="#63b8ff" points="709.7,-79.57 718.71,-74.01 708.19,-72.73 709.7,-79.57"/>
</a>
</g>
</g>
<!-- Node14 -->
<g id="Node000014" class="node">
<title>Node14</title>
<g id="a_Node000014"><a xlink:title=" ">
<polygon fill="#e0e0e0" stroke="#999999" points="681,-129 633,-129 633,-110 681,-110 681,-129"/>
<text text-anchor="middle" x="657" y="-117" font-family="Helvetica,sans-Serif" font-size="10.00">thread</text>
</a>
</g>
</g>
<!-- Node1&#45;&gt;Node14 -->
<g id="edge13_Node000001_Node000014" class="edge">
<title>Node1&#45;&gt;Node14</title>
<g id="a_edge13_Node000001_Node000014"><a xlink:title=" ">
<path fill="none" stroke="#63b8ff" d="M635.29,-164.75C638.81,-157.57 643.91,-147.18 648.28,-138.27"/>
<polygon fill="#63b8ff" stroke="#63b8ff" points="651.52,-139.61 652.78,-129.09 645.24,-136.53 651.52,-139.61"/>
</a>
</g>
</g>
<!-- Node15 -->
<g id="Node000015" class="node">
<title>Node15</title>
<g id="a_Node000015"><a xlink:title=" ">
<polygon fill="#e0e0e0" stroke="#999999" points="764.5,-129 699.5,-129 699.5,-110 764.5,-110 764.5,-129"/>
<text text-anchor="middle" x="732" y="-117" font-family="Helvetica,sans-Serif" font-size="10.00">functional</text>
</a>
</g>
</g>
<!-- Node1&#45;&gt;Node15 -->
<g id="edge14_Node000001_Node000015" class="edge">
<title>Node1&#45;&gt;Node15</title>
<g id="a_edge14_Node000001_Node000015"><a xlink:title=" ">
<path fill="none" stroke="#63b8ff" d="M647.22,-164.98C663.18,-156.61 687.78,-143.7 706.37,-133.95"/>
<polygon fill="#63b8ff" stroke="#63b8ff" points="708.25,-136.92 715.47,-129.17 704.99,-130.72 708.25,-136.92"/>
</a>
</g>
</g>
<!-- Node16 -->
<g id="Node000016" class="node">
<title>Node16</title>
<g id="a_Node000016"><a xlink:title=" ">
<polygon fill="#e0e0e0" stroke="#999999" points="831,-129 783,-129 783,-110 831,-110 831,-129"/>
<text text-anchor="middle" x="807" y="-117" font-family="Helvetica,sans-Serif" font-size="10.00">mutex</text>
</a>
</g>
</g>
<!-- Node1&#45;&gt;Node16 -->
<g id="edge15_Node000001_Node000016" class="edge">
<title>Node1&#45;&gt;Node16</title>
<g id="a_edge15_Node000001_Node000016"><a xlink:title=" ">
<path fill="none" stroke="#63b8ff" d="M659.27,-164.98C690.27,-155.65 739.99,-140.68 773.06,-130.72"/>
<polygon fill="#63b8ff" stroke="#63b8ff" points="774.19,-134.03 782.76,-127.8 772.17,-127.33 774.19,-134.03"/>
</a>
</g>
</g>
<!-- Node17 -->
<g id="Node000017" class="node">
<title>Node17</title>
<g id="a_Node000017"><a xlink:title=" ">
<polygon fill="#e0e0e0" stroke="#999999" points="956.5,-129 849.5,-129 849.5,-110 956.5,-110 956.5,-129"/>
<text text-anchor="middle" x="903" y="-117" font-family="Helvetica,sans-Serif" font-size="10.00">condition_variable</text>
</a>
</g>
</g>
<!-- Node1&#45;&gt;Node17 -->
<g id="edge16_Node000001_Node000017" class="edge">
<title>Node1&#45;&gt;Node17</title>
<g id="a_edge16_Node000001_Node000017"><a xlink:title=" ">
<path fill="none" stroke="#63b8ff" d="M674.7,-164.98C722.14,-155.74 797.96,-140.97 849.08,-131.01"/>
<polygon fill="#63b8ff" stroke="#63b8ff" points="849.81,-134.43 858.95,-129.08 848.47,-127.56 849.81,-134.43"/>
</a>
</g>
</g>
<!-- Node18 -->
<g id="Node000018" class="node">
<title>Node18</title>
<g id="a_Node000018"><a xlink:title=" ">
<polygon fill="#e0e0e0" stroke="#999999" points="1027.5,-129 974.5,-129 974.5,-110 1027.5,-110 1027.5,-129"/>
<text text-anchor="middle" x="1001" y="-117" font-family="Helvetica,sans-Serif" font-size="10.00">cstddef</text>
</a>
</g>
</g>
<!-- Node1&#45;&gt;Node18 -->
<g id="edge17_Node000001_Node000018" class="edge">
<title>Node1&#45;&gt;Node18</title>
<g id="a_edge17_Node000001_Node000018"><a xlink:title=" ">
<path fill="none" stroke="#63b8ff" d="M689.2,-167.52C753.97,-160.47 861.91,-147.54 964.42,-128.93"/>
<polygon fill="#63b8ff" stroke="#63b8ff" points="965.12,-132.36 974.32,-127.11 963.85,-125.47 965.12,-132.36"/>
</a>
</g>
</g>
<!-- Node19 -->
<g id="Node000019" class="node">
<title>Node19</title>
<g id="a_Node000019"><a xlink:title=" ">
<polygon fill="#e0e0e0" stroke="#999999" points="1134,-129 1046,-129 1046,-110 1134,-110 1134,-129"/>
<text text-anchor="middle" x="1090" y="-117" font-family="Helvetica,sans-Serif" font-size="10.00">boost/asio.hpp</text>
</a>
</g>
</g>
<!-- Node1&#45;&gt;Node19 -->
<g id="edge18_Node000001_Node000019" class="edge">
<title>Node1&#45;&gt;Node19</title>
<g id="a_edge18_Node000001_Node000019"><a xlink:title=" ">
<path fill="none" stroke="#63b8ff" d="M689.11,-167.97C765.86,-160.49 905.46,-146.21 1035.66,-128.98"/>
<polygon fill="#63b8ff" stroke="#63b8ff" points="1036.37,-132.42 1045.82,-127.63 1035.44,-125.48 1036.37,-132.42"/>
</a>
</g>
</g>
<!-- Node20 -->
<g id="Node000020" class="node">
<title>Node20</title>
<g id="a_Node000020"><a xlink:title=" ">
<polygon fill="#e0e0e0" stroke="#999999" points="1240.5,-129 1151.5,-129 1151.5,-110 1240.5,-110 1240.5,-129"/>
<text text-anchor="middle" x="1196" y="-117" font-family="Helvetica,sans-Serif" font-size="10.00">boost/bind.hpp</text>
</a>
</g>
</g>
<!-- Node1&#45;&gt;Node20 -->
<g id="edge19_Node000001_Node000020" class="edge">
<title>Node1&#45;&gt;Node20</title>
<g id="a_edge19_Node000001_Node000020"><a xlink:title=" ">
<path fill="none" stroke="#63b8ff" d="M689.11,-169.82C782.36,-163.62 971.39,-149.81 1141.09,-129.16"/>
<polygon fill="#63b8ff" stroke="#63b8ff" points="1141.71,-132.61 1151.21,-127.92 1140.86,-125.66 1141.71,-132.61"/>
</a>
</g>
</g>
<!-- Node21 -->
<g id="Node000021" class="node">
<title>Node21</title>
<g id="a_Node000021"><a xlink:title=" ">
<polygon fill="#e0e0e0" stroke="#999999" points="1399,-129 1259,-129 1259,-110 1399,-110 1399,-129"/>
<text text-anchor="middle" x="1329" y="-117" font-family="Helvetica,sans-Serif" font-size="10.00">boost/asio/signal_set.hpp</text>
</a>
</g>
</g>
<!-- Node1&#45;&gt;Node21 -->
<g id="edge20_Node000001_Node000021" class="edge">
<title>Node1&#45;&gt;Node21</title>
<g id="a_edge20_Node000001_Node000021"><a xlink:title=" ">
<path fill="none" stroke="#63b8ff" d="M689.42,-169.96C797.44,-163.26 1035.94,-147.8 1248.66,-129"/>
<polygon fill="#63b8ff" stroke="#63b8ff" points="1249.12,-132.47 1258.77,-128.1 1248.5,-125.5 1249.12,-132.47"/>
</a>
</g>
</g>
<!-- Node22 -->
<g id="Node000022" class="node">
<title>Node22</title>
<g id="a_Node000022"><a xlink:title=" ">
<polygon fill="#e0e0e0" stroke="#999999" points="1482.5,-129 1417.5,-129 1417.5,-110 1482.5,-110 1482.5,-129"/>
<text text-anchor="middle" x="1450" y="-117" font-family="Helvetica,sans-Serif" font-size="10.00">mqueue.h</text>
</a>
</g>
</g>
<!-- Node1&#45;&gt;Node22 -->
<g id="edge21_Node000001_Node000022" class="edge">
<title>Node1&#45;&gt;Node22</title>
<g id="a_edge21_Node000001_Node000022"><a xlink:title=" ">
<path fill="none" stroke="#63b8ff" d="M689.25,-172.99C817.34,-171.27 1133.16,-163.67 1406.93,-128.93"/>
<polygon fill="#63b8ff" stroke="#63b8ff" points="1407.58,-132.37 1417.06,-127.63 1406.69,-125.43 1407.58,-132.37"/>
</a>
</g>
</g>
<!-- Node23 -->
<g id="Node000023" class="node">
<title>Node23</title>
<g id="a_Node000023"><a xlink:title=" ">
<polygon fill="#e0e0e0" stroke="#999999" points="1539,-129 1501,-129 1501,-110 1539,-110 1539,-129"/>
<text text-anchor="middle" x="1520" y="-117" font-family="Helvetica,sans-Serif" font-size="10.00">map</text>
</a>
</g>
</g>
<!-- Node1&#45;&gt;Node23 -->
<g id="edge22_Node000001_Node000023" class="edge">
<title>Node1&#45;&gt;Node23</title>
<g id="a_edge22_Node000001_Node000023"><a xlink:title=" ">
<path fill="none" stroke="#63b8ff" d="M689.03,-172.26C856.1,-168.42 1336.14,-155.33 1491,-129 1491.1,-128.98 1491.2,-128.97 1491.3,-128.95"/>
<polygon fill="#63b8ff" stroke="#63b8ff" points="1491.81,-132.42 1500.8,-126.81 1490.28,-125.59 1491.81,-132.42"/>
</a>
</g>
</g>
<!-- Node24 -->
<g id="Node000024" class="node">
<title>Node24</title>
<g id="a_Node000024"><a xlink:href="udp__client__server_8hpp.html" target="_top" xlink:title=" ">
<polygon fill="white" stroke="#666666" points="968.5,-74 845.5,-74 845.5,-55 968.5,-55 968.5,-74"/>
<text text-anchor="middle" x="907" y="-62" font-family="Helvetica,sans-Serif" font-size="10.00">udp_client_server.hpp</text>
</a>
</g>
</g>
<!-- Node1&#45;&gt;Node24 -->
<g id="edge23_Node000001_Node000024" class="edge">
<title>Node1&#45;&gt;Node24</title>
<g id="a_edge23_Node000001_Node000024"><a xlink:title=" ">
<path fill="none" stroke="#63b8ff" d="M689.33,-172.86C886.63,-170.41 1518.33,-160.14 1548,-129 1553.82,-122.89 1553.76,-116.17 1548,-110 1509.83,-69.1 1137.91,-64.97 978.71,-65.1"/>
<polygon fill="#63b8ff" stroke="#63b8ff" points="978.53,-61.6 968.54,-65.12 978.54,-68.6 978.53,-61.6"/>
</a>
</g>
</g>
<!-- Node30 -->
<g id="Node000030" class="node">
<title>Node30</title>
<g id="a_Node000030"><a xlink:href="Behaviour_8hpp.html" target="_top" xlink:title=" ">
<polygon fill="white" stroke="#666666" points="501,-129 415,-129 415,-110 501,-110 501,-129"/>
<text text-anchor="middle" x="458" y="-117" font-family="Helvetica,sans-Serif" font-size="10.00">Behaviour.hpp</text>
</a>
</g>
</g>
<!-- Node1&#45;&gt;Node30 -->
<g id="edge30_Node000001_Node000030" class="edge">
<title>Node1&#45;&gt;Node30</title>
<g id="a_edge30_Node000001_Node000030"><a xlink:title=" ">
<path fill="none" stroke="#63b8ff" d="M598.09,-164.98C567.21,-156.13 521.52,-142.19 490.71,-132.28"/>
<polygon fill="#63b8ff" stroke="#63b8ff" points="491.47,-128.84 480.88,-129.08 489.31,-135.5 491.47,-128.84"/>
</a>
</g>
</g>
<!-- Node32 -->
<g id="Node000032" class="node">
<title>Node32</title>
<g id="a_Node000032"><a xlink:href="AgentID_8hpp.html" target="_top" xlink:title=" ">
<polygon fill="white" stroke="#666666" points="1710.5,-129 1633.5,-129 1633.5,-110 1710.5,-110 1710.5,-129"/>
<text text-anchor="middle" x="1672" y="-117" font-family="Helvetica,sans-Serif" font-size="10.00">AgentID.hpp</text>
</a>
</g>
</g>
<!-- Node1&#45;&gt;Node32 -->
<g id="edge44_Node000001_Node000032" class="edge">
<title>Node1&#45;&gt;Node32</title>
<g id="a_edge44_Node000001_Node000032"><a xlink:title=" ">
<path fill="none" stroke="#63b8ff" d="M689.07,-173.19C841.8,-171.89 1267.13,-165.02 1619,-129 1620.3,-128.87 1621.62,-128.72 1622.95,-128.57"/>
<polygon fill="#63b8ff" stroke="#63b8ff" points="1623.81,-131.99 1633.28,-127.23 1622.91,-125.04 1623.81,-131.99"/>
</a>
</g>
</g>
<!-- Node24&#45;&gt;Node8 -->
<g id="edge24_Node000024_Node000008" class="edge">
<title>Node24&#45;&gt;Node8</title>
<g id="a_edge24_Node000024_Node000008"><a xlink:title=" ">
<path fill="none" stroke="#63b8ff" d="M845.42,-56.12C842.24,-55.74 839.08,-55.36 836,-55 715.29,-40.72 573.03,-24.18 501.31,-15.87"/>
<polygon fill="#63b8ff" stroke="#63b8ff" points="501.58,-12.37 491.25,-14.7 500.78,-19.33 501.58,-12.37"/>
</a>
</g>
</g>
<!-- Node25 -->
<g id="Node000025" class="node">
<title>Node25</title>
<g id="a_Node000025"><a xlink:title=" ">
<polygon fill="#e0e0e0" stroke="#999999" points="945.5,-19 868.5,-19 868.5,0 945.5,0 945.5,-19"/>
<text text-anchor="middle" x="907" y="-7" font-family="Helvetica,sans-Serif" font-size="10.00">sys/socket.h</text>
</a>
</g>
</g>
<!-- Node24&#45;&gt;Node25 -->
<g id="edge25_Node000024_Node000025" class="edge">
<title>Node24&#45;&gt;Node25</title>
<g id="a_edge25_Node000024_Node000025"><a xlink:title=" ">
<path fill="none" stroke="#63b8ff" d="M907,-54.75C907,-47.8 907,-37.85 907,-29.13"/>
<polygon fill="#63b8ff" stroke="#63b8ff" points="910.5,-29.09 907,-19.09 903.5,-29.09 910.5,-29.09"/>
</a>
</g>
</g>
<!-- Node26 -->
<g id="Node000026" class="node">
<title>Node26</title>
<g id="a_Node000026"><a xlink:title=" ">
<polygon fill="#e0e0e0" stroke="#999999" points="1016.5,-19 963.5,-19 963.5,0 1016.5,0 1016.5,-19"/>
<text text-anchor="middle" x="990" y="-7" font-family="Helvetica,sans-Serif" font-size="10.00">netdb.h</text>
</a>
</g>
</g>
<!-- Node24&#45;&gt;Node26 -->
<g id="edge26_Node000024_Node000026" class="edge">
<title>Node24&#45;&gt;Node26</title>
<g id="a_edge26_Node000024_Node000026"><a xlink:title=" ">
<path fill="none" stroke="#63b8ff" d="M920.33,-54.98C933.08,-46.84 952.55,-34.41 967.67,-24.76"/>
<polygon fill="#63b8ff" stroke="#63b8ff" points="969.87,-27.5 976.42,-19.17 966.11,-21.6 969.87,-27.5"/>
</a>
</g>
</g>
<!-- Node27 -->
<g id="Node000027" class="node">
<title>Node27</title>
<g id="a_Node000027"><a xlink:title=" ">
<polygon fill="#e0e0e0" stroke="#999999" points="1099.5,-19 1034.5,-19 1034.5,0 1099.5,0 1099.5,-19"/>
<text text-anchor="middle" x="1067" y="-7" font-family="Helvetica,sans-Serif" font-size="10.00">stdexcept</text>
</a>
</g>
</g>
<!-- Node24&#45;&gt;Node27 -->
<g id="edge27_Node000024_Node000027" class="edge">
<title>Node24&#45;&gt;Node27</title>
<g id="a_edge27_Node000024_Node000027"><a xlink:title=" ">
<path fill="none" stroke="#63b8ff" d="M932.7,-54.98C959.45,-46.13 1001.52,-32.19 1031.45,-22.28"/>
<polygon fill="#63b8ff" stroke="#63b8ff" points="1032.7,-25.55 1041.09,-19.08 1030.49,-18.9 1032.7,-25.55"/>
</a>
</g>
</g>
<!-- Node28 -->
<g id="Node000028" class="node">
<title>Node28</title>
<g id="a_Node000028"><a xlink:title=" ">
<polygon fill="#e0e0e0" stroke="#999999" points="781,-19 733,-19 733,0 781,0 781,-19"/>
<text text-anchor="middle" x="757" y="-7" font-family="Helvetica,sans-Serif" font-size="10.00">error.h</text>
</a>
</g>
</g>
<!-- Node24&#45;&gt;Node28 -->
<g id="edge28_Node000024_Node000028" class="edge">
<title>Node24&#45;&gt;Node28</title>
<g id="a_edge28_Node000024_Node000028"><a xlink:title=" ">
<path fill="none" stroke="#63b8ff" d="M882.9,-54.98C857.97,-46.18 818.83,-32.35 790.81,-22.45"/>
<polygon fill="#63b8ff" stroke="#63b8ff" points="791.63,-19.03 781.04,-18.99 789.3,-25.63 791.63,-19.03"/>
</a>
</g>
</g>
<!-- Node29 -->
<g id="Node000029" class="node">
<title>Node29</title>
<g id="a_Node000029"><a xlink:title=" ">
<polygon fill="#e0e0e0" stroke="#999999" points="850.5,-19 799.5,-19 799.5,0 850.5,0 850.5,-19"/>
<text text-anchor="middle" x="825" y="-7" font-family="Helvetica,sans-Serif" font-size="10.00">errno.h</text>
</a>
</g>
</g>
<!-- Node24&#45;&gt;Node29 -->
<g id="edge29_Node000024_Node000029" class="edge">
<title>Node24&#45;&gt;Node29</title>
<g id="a_edge29_Node000024_Node000029"><a xlink:title=" ">
<path fill="none" stroke="#63b8ff" d="M893.82,-54.98C881.22,-46.84 861.99,-34.41 847.06,-24.76"/>
<polygon fill="#63b8ff" stroke="#63b8ff" points="848.71,-21.66 838.41,-19.17 844.91,-27.54 848.71,-21.66"/>
</a>
</g>
</g>
<!-- Node30&#45;&gt;Node1 -->
<g id="edge43_Node000030_Node000001" class="edge">
<title>Node30&#45;&gt;Node1</title>
<g id="a_edge43_Node000030_Node000001"><a xlink:title=" ">
<path fill="none" stroke="#63b8ff" d="M491.14,-129.08C522.09,-137.97 567.78,-151.91 598.51,-161.8"/>
<polygon fill="#63b8ff" stroke="#63b8ff" points="597.72,-165.22 608.32,-164.98 599.89,-158.57 597.72,-165.22"/>
</a>
</g>
</g>
<!-- Node30&#45;&gt;Node2 -->
<g id="edge31_Node000030_Node000002" class="edge">
<title>Node30&#45;&gt;Node2</title>
<g id="a_edge31_Node000030_Node000002"><a xlink:title=" ">
<path fill="none" stroke="#63b8ff" d="M414.89,-111.27C411.88,-110.82 408.9,-110.39 406,-110 263.09,-90.54 223.18,-98.61 76.91,-73.93"/>
<polygon fill="#63b8ff" stroke="#63b8ff" points="77.1,-70.42 66.66,-72.18 75.92,-77.32 77.1,-70.42"/>
</a>
</g>
</g>
<!-- Node30&#45;&gt;Node3 -->
<g id="edge32_Node000030_Node000003" class="edge">
<title>Node30&#45;&gt;Node3</title>
<g id="a_edge32_Node000030_Node000003"><a xlink:title=" ">
<path fill="none" stroke="#63b8ff" d="M414.88,-111.38C411.87,-110.9 408.89,-110.44 406,-110 295.62,-93.22 264.71,-94.78 151.35,-74.11"/>
<polygon fill="#63b8ff" stroke="#63b8ff" points="151.69,-70.62 141.23,-72.25 150.43,-77.5 151.69,-70.62"/>
</a>
</g>
</g>
<!-- Node30&#45;&gt;Node4 -->
<g id="edge33_Node000030_Node000004" class="edge">
<title>Node30&#45;&gt;Node4</title>
<g id="a_edge33_Node000030_Node000004"><a xlink:title=" ">
<path fill="none" stroke="#63b8ff" d="M414.7,-110.44C370.5,-102.14 299.65,-88.64 229.16,-74.2"/>
<polygon fill="#63b8ff" stroke="#63b8ff" points="229.72,-70.74 219.22,-72.16 228.31,-77.6 229.72,-70.74"/>
</a>
</g>
</g>
<!-- Node30&#45;&gt;Node5 -->
<g id="edge34_Node000030_Node000005" class="edge">
<title>Node30&#45;&gt;Node5</title>
<g id="a_edge34_Node000030_Node000005"><a xlink:title=" ">
<path fill="none" stroke="#63b8ff" d="M426.83,-109.98C392.37,-100.57 336.91,-85.42 300.46,-75.46"/>
<polygon fill="#63b8ff" stroke="#63b8ff" points="301.29,-72.06 290.72,-72.8 299.44,-78.81 301.29,-72.06"/>
</a>
</g>
</g>
<!-- Node30&#45;&gt;Node6 -->
<g id="edge35_Node000030_Node000006" class="edge">
<title>Node30&#45;&gt;Node6</title>
<g id="a_edge35_Node000030_Node000006"><a xlink:title=" ">
<path fill="none" stroke="#63b8ff" d="M438.07,-109.98C417.95,-101.38 386.62,-87.99 363.59,-78.15"/>
<polygon fill="#63b8ff" stroke="#63b8ff" points="364.85,-74.88 354.28,-74.17 362.1,-81.32 364.85,-74.88"/>
</a>
</g>
</g>
<!-- Node30&#45;&gt;Node7 -->
<g id="edge36_Node000030_Node000007" class="edge">
<title>Node30&#45;&gt;Node7</title>
<g id="a_edge36_Node000030_Node000007"><a xlink:title=" ">
<path fill="none" stroke="#63b8ff" d="M449,-109.98C440.8,-102.23 428.49,-90.58 418.52,-81.14"/>
<polygon fill="#63b8ff" stroke="#63b8ff" points="420.83,-78.5 411.16,-74.17 416.01,-83.59 420.83,-78.5"/>
</a>
</g>
</g>
<!-- Node30&#45;&gt;Node8 -->
<g id="edge37_Node000030_Node000008" class="edge">
<title>Node30&#45;&gt;Node8</title>
<g id="a_edge37_Node000030_Node000008"><a xlink:title=" ">
<path fill="none" stroke="#63b8ff" d="M457.75,-109.66C457.27,-92.17 456.17,-52.8 455.52,-29.27"/>
<polygon fill="#63b8ff" stroke="#63b8ff" points="459.01,-29.06 455.24,-19.16 452.02,-29.25 459.01,-29.06"/>
</a>
</g>
</g>
<!-- Node30&#45;&gt;Node10 -->
<g id="edge38_Node000030_Node000010" class="edge">
<title>Node30&#45;&gt;Node10</title>
<g id="a_edge38_Node000030_Node000010"><a xlink:title=" ">
<path fill="none" stroke="#63b8ff" d="M479.53,-109.98C501.47,-101.3 535.74,-87.75 560.68,-77.88"/>
<polygon fill="#63b8ff" stroke="#63b8ff" points="562.06,-81.1 570.08,-74.17 559.49,-74.59 562.06,-81.1"/>
</a>
</g>
</g>
<!-- Node30&#45;&gt;Node11 -->
<g id="edge40_Node000030_Node000011" class="edge">
<title>Node30&#45;&gt;Node11</title>
<g id="a_edge40_Node000030_Node000011"><a xlink:title=" ">
<path fill="none" stroke="#63b8ff" d="M490.61,-109.98C528.11,-100.2 589.35,-84.21 627.29,-74.3"/>
<polygon fill="#63b8ff" stroke="#63b8ff" points="628.55,-77.59 637.34,-71.68 626.78,-70.82 628.55,-77.59"/>
</a>
</g>
</g>
<!-- Node30&#45;&gt;Node13 -->
<g id="edge41_Node000030_Node000013" class="edge">
<title>Node30&#45;&gt;Node13</title>
<g id="a_edge41_Node000030_Node000013"><a xlink:title=" ">
<path fill="none" stroke="#63b8ff" d="M501.01,-111.07C554.36,-101.86 645.59,-86.11 705.59,-75.76"/>
<polygon fill="#63b8ff" stroke="#63b8ff" points="706.42,-79.16 715.68,-74.01 705.23,-72.27 706.42,-79.16"/>
</a>
</g>
</g>
<!-- Node30&#45;&gt;Node24 -->
<g id="edge42_Node000030_Node000024" class="edge">
<title>Node30&#45;&gt;Node24</title>
<g id="a_edge42_Node000030_Node000024"><a xlink:title=" ">
<path fill="none" stroke="#63b8ff" d="M501.08,-113.46C569.48,-105.44 707.37,-89.26 835.44,-74.06"/>
<polygon fill="#63b8ff" stroke="#63b8ff" points="835.91,-77.53 845.42,-72.88 835.08,-70.58 835.91,-77.53"/>
</a>
</g>
</g>
<!-- Node31 -->
<g id="Node000031" class="node">
<title>Node31</title>
<g id="a_Node000031"><a xlink:title=" ">
<polygon fill="#e0e0e0" stroke="#999999" points="546.5,-74 483.5,-74 483.5,-55 546.5,-55 546.5,-74"/>
<text text-anchor="middle" x="515" y="-62" font-family="Helvetica,sans-Serif" font-size="10.00">pthread.h</text>
</a>
</g>
</g>
<!-- Node30&#45;&gt;Node31 -->
<g id="edge39_Node000030_Node000031" class="edge">
<title>Node30&#45;&gt;Node31</title>
<g id="a_edge39_Node000030_Node000031"><a xlink:title=" ">
<path fill="none" stroke="#63b8ff" d="M467.15,-109.98C475.5,-102.23 488.03,-90.58 498.17,-81.14"/>
<polygon fill="#63b8ff" stroke="#63b8ff" points="500.73,-83.54 505.67,-74.17 495.97,-78.42 500.73,-83.54"/>
</a>
</g>
</g>
<!-- Node32&#45;&gt;Node12 -->
<g id="edge47_Node000032_Node000012" class="edge">
<title>Node32&#45;&gt;Node12</title>
<g id="a_edge47_Node000032_Node000012"><a xlink:title=" ">
<path fill="none" stroke="#63b8ff" d="M1661.23,-109.98C1651.23,-102.07 1636.11,-90.11 1624.07,-80.58"/>
<polygon fill="#63b8ff" stroke="#63b8ff" points="1625.97,-77.63 1615.96,-74.17 1621.63,-83.12 1625.97,-77.63"/>
</a>
</g>
</g>
<!-- Node33 -->
<g id="Node000033" class="node">
<title>Node33</title>
<g id="a_Node000033"><a xlink:title=" ">
<polygon fill="#e0e0e0" stroke="#999999" points="1696,-74 1646,-74 1646,-55 1696,-55 1696,-74"/>
<text text-anchor="middle" x="1671" y="-62" font-family="Helvetica,sans-Serif" font-size="10.00">chrono</text>
</a>
</g>
</g>
<!-- Node32&#45;&gt;Node33 -->
<g id="edge45_Node000032_Node000033" class="edge">
<title>Node32&#45;&gt;Node33</title>
<g id="a_edge45_Node000032_Node000033"><a xlink:title=" ">
<path fill="none" stroke="#63b8ff" d="M1671.83,-109.75C1671.7,-102.8 1671.51,-92.85 1671.35,-84.13"/>
<polygon fill="#63b8ff" stroke="#63b8ff" points="1674.85,-84.02 1671.16,-74.09 1667.85,-84.15 1674.85,-84.02"/>
</a>
</g>
</g>
<!-- Node34 -->
<g id="Node000034" class="node">
<title>Node34</title>
<g id="a_Node000034"><a xlink:title=" ">
<polygon fill="#e0e0e0" stroke="#999999" points="1768,-74 1714,-74 1714,-55 1768,-55 1768,-74"/>
<text text-anchor="middle" x="1741" y="-62" font-family="Helvetica,sans-Serif" font-size="10.00">random</text>
</a>
</g>
</g>
<!-- Node32&#45;&gt;Node34 -->
<g id="edge46_Node000032_Node000034" class="edge">
<title>Node32&#45;&gt;Node34</title>
<g id="a_edge46_Node000032_Node000034"><a xlink:title=" ">
<path fill="none" stroke="#63b8ff" d="M1683.08,-109.98C1693.48,-102 1709.26,-89.88 1721.72,-80.31"/>
<polygon fill="#63b8ff" stroke="#63b8ff" points="1723.91,-83.04 1729.71,-74.17 1719.65,-77.49 1723.91,-83.04"/>
</a>
</g>
</g>
</g>
</svg>

<g id="navigator" transform="translate(0 0)" fill="#404254">
  <rect fill="#f2f5e9" fill-opacity="0.5" stroke="#606060" stroke-width=".5" x="0" y="0" width="60" height="60"/>
  <use id="zoomplus" xlink:href="#zoomPlus" x="17" y="9" onmousedown="handleZoom(evt,'in')"/>
  <use id="zoomminus" xlink:href="#zoomMin" x="42" y="9" onmousedown="handleZoom(evt,'out')"/>
  <use id="reset" xlink:href="#resetDef" x="30" y="36" onmousedown="handleReset()"/>
   <use id="arrowup" xlink:href="#arrowUp" x="0" y="0" onmousedown="handlePan(0,-1)"/>
  <use id="arrowright" xlink:href="#arrowRight" x="0" y="0" onmousedown="handlePan(1,0)"/>
  <use id="arrowdown" xlink:href="#arrowDown" x="0" y="0" onmousedown="handlePan(0,1)"/>
  <use id="arrowleft" xlink:href="#arrowLeft" x="0" y="0" onmousedown="handlePan(-1,0)"/>
</g>
<svg viewBox="0 0 15 15" width="100%" height="30px" preserveAspectRatio="xMaxYMin meet">
 <g id="arrow_out" transform="scale(0.3 0.3)">
  <a xlink:href="Agent_8hpp__incl_org.svg" target="_base">
   <rect id="button" ry="5" rx="5" y="6" x="6" height="38" width="38"
        fill="#f2f5e9" fill-opacity="0.5" stroke="#606060" stroke-width="1.0"/>
   <path id="arrow"
     d="M 11.500037,31.436501 C 11.940474,20.09759 22.043105,11.32322 32.158766,21.979434 L 37.068811,17.246167 C 37.068811,17.246167 37.088388,32 37.088388,32 L 22.160133,31.978069 C 22.160133,31.978069 26.997745,27.140456 26.997745,27.140456 C 18.528582,18.264221 13.291696,25.230495 11.500037,31.436501 z"
     style="fill:#404040;"/>
  </a>
 </g>
</svg>

<style type='text/css'>
<![CDATA[
[data-mouse-over-selected='false'] { opacity: 0.7; }
[data-mouse-over-selected='true']  { opacity: 1.0; }
]]>
</style>
<script type="application/ecmascript"><![CDATA[
document.addEventListener('DOMContentLoaded', (event) => {
  highlightEdges();
  highlightAdjacentNodes();
});
]]></script>
</svg>
