<?xml version="1.0" encoding="UTF-8" standalone="no"?>
<!DOCTYPE svg PUBLIC "-//W3C//DTD SVG 1.1//EN"
 "http://www.w3.org/Graphics/SVG/1.1/DTD/svg11.dtd">
<!-- Generated by graphviz version 2.42.4 (0)
 -->
<!-- Title: gagent::Logger::error Pages: 1 -->
<svg width="281pt" height="86pt"
 viewBox="0.00 0.00 281.00 86.00" xmlns="http://www.w3.org/2000/svg" xmlns:xlink="http://www.w3.org/1999/xlink">
<g id="graph0" class="graph" transform="scale(1 1) rotate(0) translate(4 82)">
<title>gagent::Logger::error</title>
<!-- Node1 -->
<g id="Node000001" class="node">
<title>Node1</title>
<g id="a_Node000001"><a xlink:title=" ">
<polygon fill="#999999" stroke="#666666" points="273,-48.5 154,-48.5 154,-29.5 273,-29.5 273,-48.5"/>
<text text-anchor="middle" x="213.5" y="-36.5" font-family="Helvetica,sans-Serif" font-size="10.00">gagent::Logger::error</text>
</a>
</g>
</g>
<!-- Node2 -->
<g id="Node000002" class="node">
<title>Node2</title>
<g id="a_Node000002"><a xlink:href="classgagent_1_1ErrorHandler.html#a37e7b39df8195694577f73b66dd632b1" target="_top" xlink:title="Handle exception and log error.">
<polygon fill="white" stroke="#666666" points="118,-78 0,-78 0,-48 118,-48 118,-78"/>
<text text-anchor="start" x="8" y="-66" font-family="Helvetica,sans-Serif" font-size="10.00">gagent::ErrorHandler</text>
<text text-anchor="middle" x="59" y="-55" font-family="Helvetica,sans-Serif" font-size="10.00">::handleException</text>
</a>
</g>
</g>
<!-- Node1&#45;&gt;Node2 -->
<g id="edge1_Node000001_Node000002" class="edge">
<title>Node1&#45;&gt;Node2</title>
<g id="a_edge1_Node000001_Node000002"><a xlink:title=" ">
<path fill="none" stroke="#63b8ff" d="M143.94,-49.79C135.31,-51.15 126.56,-52.53 118.12,-53.85"/>
<polygon fill="#63b8ff" stroke="#63b8ff" points="144.64,-53.22 153.98,-48.21 143.55,-46.31 144.64,-53.22"/>
</a>
</g>
</g>
<!-- Node3 -->
<g id="Node000003" class="node">
<title>Node3</title>
<g id="a_Node000003"><a xlink:href="classgagent_1_1ErrorHandler.html#ac527e0862262779d50871af77e08b828" target="_top" xlink:title="Log system error with errno.">
<polygon fill="white" stroke="#666666" points="118,-30 0,-30 0,0 118,0 118,-30"/>
<text text-anchor="start" x="8" y="-18" font-family="Helvetica,sans-Serif" font-size="10.00">gagent::ErrorHandler</text>
<text text-anchor="middle" x="59" y="-7" font-family="Helvetica,sans-Serif" font-size="10.00">::logSystemError</text>
</a>
</g>
</g>
<!-- Node1&#45;&gt;Node3 -->
<g id="edge2_Node000001_Node000003" class="edge">
<title>Node1&#45;&gt;Node3</title>
<g id="a_edge2_Node000001_Node000003"><a xlink:title=" ">
<path fill="none" stroke="#63b8ff" d="M143.94,-28.21C135.31,-26.85 126.56,-25.47 118.12,-24.15"/>
<polygon fill="#63b8ff" stroke="#63b8ff" points="143.55,-31.69 153.98,-29.79 144.64,-24.78 143.55,-31.69"/>
</a>
</g>
</g>
</g>
</svg>
