<?xml version="1.0" encoding="UTF-8" standalone="no"?>
<!DOCTYPE svg PUBLIC "-//W3C//DTD SVG 1.1//EN"
 "http://www.w3.org/Graphics/SVG/1.1/DTD/svg11.dtd">
<!-- Generated by graphviz version 2.42.4 (0)
 -->
<!-- Title: gagent::Agent::_init Pages: 1 -->
<svg width="1038pt" height="349pt"
 viewBox="0.00 0.00 1038.00 348.53" xmlns="http://www.w3.org/2000/svg" xmlns:xlink="http://www.w3.org/1999/xlink">
<g id="graph0" class="graph" transform="scale(1 1) rotate(0) translate(4 344.53)">
<title>gagent::Agent::_init</title>
<!-- Node1 -->
<g id="Node000001" class="node">
<title>Node1</title>
<g id="a_Node000001"><a xlink:title=" ">
<polygon fill="#999999" stroke="#666666" points="112,-182.5 0,-182.5 0,-163.5 112,-163.5 112,-182.5"/>
<text text-anchor="middle" x="56" y="-170.5" font-family="Helvetica,sans-Serif" font-size="10.00">gagent::Agent::_init</text>
</a>
</g>
</g>
<!-- Node2 -->
<g id="Node000002" class="node">
<title>Node2</title>
<g id="a_Node000002"><a xlink:href="classgagent_1_1Agent.html#ae77080facfe908469f798d68f2b0e524" target="_top" xlink:title=" ">
<polygon fill="white" stroke="#666666" points="625.5,-336 500.5,-336 500.5,-306 625.5,-306 625.5,-336"/>
<text text-anchor="start" x="508.5" y="-324" font-family="Helvetica,sans-Serif" font-size="10.00">gagent::Agent::control</text>
<text text-anchor="middle" x="563" y="-313" font-family="Helvetica,sans-Serif" font-size="10.00">_message</text>
</a>
</g>
</g>
<!-- Node1&#45;&gt;Node2 -->
<g id="edge1_Node000001_Node000002" class="edge">
<title>Node1&#45;&gt;Node2</title>
<g id="a_edge1_Node000001_Node000002"><a xlink:title=" ">
<path fill="none" stroke="#63b8ff" d="M60.96,-182.62C71.24,-206.21 101.29,-266.85 148,-292 256.16,-350.24 403.89,-343.77 490.5,-332.95"/>
<polygon fill="#63b8ff" stroke="#63b8ff" points="491.03,-336.41 500.5,-331.64 490.13,-329.47 491.03,-336.41"/>
</a>
</g>
</g>
<!-- Node3 -->
<g id="Node000003" class="node">
<title>Node3</title>
<g id="a_Node000003"><a xlink:href="classgagent_1_1Agent.html#a75fe7cd3b9ae5ea318c0df53c189f429" target="_top" xlink:title=" ">
<polygon fill="white" stroke="#666666" points="838,-287.5 666,-287.5 666,-268.5 838,-268.5 838,-287.5"/>
<text text-anchor="middle" x="752" y="-275.5" font-family="Helvetica,sans-Serif" font-size="10.00">gagent::Agent::sendMsgMonitor</text>
</a>
</g>
</g>
<!-- Node1&#45;&gt;Node3 -->
<g id="edge17_Node000001_Node000003" class="edge">
<title>Node1&#45;&gt;Node3</title>
<g id="a_edge17_Node000001_Node000003"><a xlink:title=" ">
<path fill="none" stroke="#63b8ff" d="M63.37,-182.55C76.55,-201.34 108.87,-242.72 148,-259 236.89,-295.99 509.07,-289.65 655.46,-283.14"/>
<polygon fill="#63b8ff" stroke="#63b8ff" points="655.95,-286.62 665.78,-282.67 655.63,-279.63 655.95,-286.62"/>
</a>
</g>
</g>
<!-- Node6 -->
<g id="Node000006" class="node">
<title>Node6</title>
<g id="a_Node000006"><a xlink:href="classgagent_1_1Agent.html#a7424d735b8ee663b93c3c63bc25798ad" target="_top" xlink:title=" ">
<polygon fill="white" stroke="#666666" points="280.5,-250 155.5,-250 155.5,-220 280.5,-220 280.5,-250"/>
<text text-anchor="start" x="163.5" y="-238" font-family="Helvetica,sans-Serif" font-size="10.00">gagent::Agent::control</text>
<text text-anchor="middle" x="218" y="-227" font-family="Helvetica,sans-Serif" font-size="10.00">_Thread</text>
</a>
</g>
</g>
<!-- Node1&#45;&gt;Node6 -->
<g id="edge5_Node000001_Node000006" class="edge">
<title>Node1&#45;&gt;Node6</title>
<g id="a_edge5_Node000001_Node000006"><a xlink:title=" ">
<path fill="none" stroke="#63b8ff" d="M81.65,-182.55C104.72,-191.49 139.85,-205.1 168.54,-216.22"/>
<polygon fill="#63b8ff" stroke="#63b8ff" points="167.4,-219.53 177.99,-219.88 169.93,-213.01 167.4,-219.53"/>
</a>
</g>
</g>
<!-- Node7 -->
<g id="Node000007" class="node">
<title>Node7</title>
<g id="a_Node000007"><a xlink:href="classgagent_1_1Agent.html#a623fb6a1692d2311f6bdbbad2d6743f0" target="_top" xlink:title=" ">
<polygon fill="white" stroke="#666666" points="459.5,-249.5 324.5,-249.5 324.5,-230.5 459.5,-230.5 459.5,-249.5"/>
<text text-anchor="middle" x="392" y="-237.5" font-family="Helvetica,sans-Serif" font-size="10.00">gagent::Agent::doDelete</text>
</a>
</g>
</g>
<!-- Node1&#45;&gt;Node7 -->
<g id="edge6_Node000001_Node000007" class="edge">
<title>Node1&#45;&gt;Node7</title>
<g id="a_edge6_Node000001_Node000007"><a xlink:title=" ">
<path fill="none" stroke="#63b8ff" d="M112.41,-180.35C159.41,-187 228.49,-197.77 288,-211 289.58,-211.35 319.97,-219.92 347.34,-227.65"/>
<polygon fill="#63b8ff" stroke="#63b8ff" points="346.64,-231.09 357.22,-230.44 348.55,-224.35 346.64,-231.09"/>
</a>
</g>
</g>
<!-- Node9 -->
<g id="Node000009" class="node">
<title>Node9</title>
<g id="a_Node000009"><a xlink:href="classgagent_1_1Agent.html#ad2e6b90fc5e7eb9467834beb0ba4bb0d" target="_top" xlink:title=" ">
<polygon fill="white" stroke="#666666" points="285,-163.5 151,-163.5 151,-144.5 285,-144.5 285,-163.5"/>
<text text-anchor="middle" x="218" y="-151.5" font-family="Helvetica,sans-Serif" font-size="10.00">gagent::Agent::exthread</text>
</a>
</g>
</g>
<!-- Node1&#45;&gt;Node9 -->
<g id="edge9_Node000001_Node000009" class="edge">
<title>Node1&#45;&gt;Node9</title>
<g id="a_edge9_Node000001_Node000009"><a xlink:title=" ">
<path fill="none" stroke="#63b8ff" d="M112.06,-166.46C121.32,-165.36 131.07,-164.2 140.75,-163.05"/>
<polygon fill="#63b8ff" stroke="#63b8ff" points="141.27,-166.52 150.79,-161.86 140.45,-159.57 141.27,-166.52"/>
</a>
</g>
</g>
<!-- Node14 -->
<g id="Node000014" class="node">
<title>Node14</title>
<g id="a_Node000014"><a xlink:href="classgagent_1_1Agent.html#af94dfd6cedd04a148979b18b86f9e157" target="_top" xlink:title=" ">
<polygon fill="white" stroke="#666666" points="284,-126 152,-126 152,-96 284,-96 284,-126"/>
<text text-anchor="start" x="160" y="-114" font-family="Helvetica,sans-Serif" font-size="10.00">gagent::Agent::listener</text>
<text text-anchor="middle" x="218" y="-103" font-family="Helvetica,sans-Serif" font-size="10.00">_extern_signals_Thread</text>
</a>
</g>
</g>
<!-- Node1&#45;&gt;Node14 -->
<g id="edge14_Node000001_Node000014" class="edge">
<title>Node1&#45;&gt;Node14</title>
<g id="a_edge14_Node000001_Node000014"><a xlink:title=" ">
<path fill="none" stroke="#63b8ff" d="M79.72,-163.48C98.07,-155.86 124.6,-144.99 148,-136 153.49,-133.89 159.23,-131.73 164.97,-129.61"/>
<polygon fill="#63b8ff" stroke="#63b8ff" points="166.4,-132.81 174.58,-126.08 163.98,-126.24 166.4,-132.81"/>
</a>
</g>
</g>
<!-- Node16 -->
<g id="Node000016" class="node">
<title>Node16</title>
<g id="a_Node000016"><a xlink:href="classgagent_1_1Agent.html#a27fbc025d5756daf0acb2b8b61f11d94" target="_top" xlink:title=" ">
<polygon fill="white" stroke="#666666" points="277,-77.5 159,-77.5 159,-58.5 277,-58.5 277,-77.5"/>
<text text-anchor="middle" x="218" y="-65.5" font-family="Helvetica,sans-Serif" font-size="10.00">gagent::Agent::setup</text>
</a>
</g>
</g>
<!-- Node1&#45;&gt;Node16 -->
<g id="edge18_Node000001_Node000016" class="edge">
<title>Node1&#45;&gt;Node16</title>
<g id="a_edge18_Node000001_Node000016"><a xlink:title=" ">
<path fill="none" stroke="#63b8ff" d="M64.4,-163.4C78.63,-145.62 111.64,-107.48 148,-87 151.94,-84.78 156.16,-82.81 160.5,-81.05"/>
<polygon fill="#63b8ff" stroke="#63b8ff" points="161.9,-84.27 170.11,-77.56 159.52,-77.69 161.9,-84.27"/>
</a>
</g>
</g>
<!-- Node17 -->
<g id="Node000017" class="node">
<title>Node17</title>
<g id="a_Node000017"><a xlink:href="classgagent_1_1Agent.html#a36880197d290077a199870ab1ecf6cce" target="_top" xlink:title=" ">
<polygon fill="white" stroke="#666666" points="288,-40.5 148,-40.5 148,-21.5 288,-21.5 288,-40.5"/>
<text text-anchor="middle" x="218" y="-28.5" font-family="Helvetica,sans-Serif" font-size="10.00">gagent::Agent::takeDown</text>
</a>
</g>
</g>
<!-- Node1&#45;&gt;Node17 -->
<g id="edge19_Node000001_Node000017" class="edge">
<title>Node1&#45;&gt;Node17</title>
<g id="a_edge19_Node000001_Node000017"><a xlink:title=" ">
<path fill="none" stroke="#63b8ff" d="M61.32,-163.17C72.21,-139.58 103.15,-79.45 148,-49 150.27,-47.46 152.67,-46.04 155.16,-44.75"/>
<polygon fill="#63b8ff" stroke="#63b8ff" points="156.76,-47.87 164.46,-40.59 153.9,-41.48 156.76,-47.87"/>
</a>
</g>
</g>
<!-- Node2&#45;&gt;Node3 -->
<g id="edge2_Node000002_Node000003" class="edge">
<title>Node2&#45;&gt;Node3</title>
<g id="a_edge2_Node000002_Node000003"><a xlink:title=" ">
<path fill="none" stroke="#63b8ff" d="M625.75,-306.8C649.75,-301.28 676.92,-295.03 699.81,-289.77"/>
<polygon fill="#63b8ff" stroke="#63b8ff" points="700.7,-293.16 709.66,-287.51 699.13,-286.34 700.7,-293.16"/>
</a>
</g>
</g>
<!-- Node4 -->
<g id="Node000004" class="node">
<title>Node4</title>
<g id="a_Node000004"><a xlink:href="classgagent_1_1AgentID.html#ad7ae9a1a0cc27ee349da0c86d315b37f" target="_top" xlink:title=" ">
<polygon fill="white" stroke="#666666" points="1030,-309.5 874,-309.5 874,-290.5 1030,-290.5 1030,-309.5"/>
<text text-anchor="middle" x="952" y="-297.5" font-family="Helvetica,sans-Serif" font-size="10.00">gagent::AgentID::getAgentID</text>
</a>
</g>
</g>
<!-- Node3&#45;&gt;Node4 -->
<g id="edge3_Node000003_Node000004" class="edge">
<title>Node3&#45;&gt;Node4</title>
<g id="a_edge3_Node000003_Node000004"><a xlink:title=" ">
<path fill="none" stroke="#63b8ff" d="M838.12,-287.46C846.63,-288.4 855.28,-289.36 863.82,-290.31"/>
<polygon fill="#63b8ff" stroke="#63b8ff" points="863.44,-293.79 873.77,-291.42 864.21,-286.84 863.44,-293.79"/>
</a>
</g>
</g>
<!-- Node5 -->
<g id="Node000005" class="node">
<title>Node5</title>
<g id="a_Node000005"><a xlink:href="classudp__client__server_1_1udp__client.html#ac296d1fb6a6006bec5f8f14a81367d0a" target="_top" xlink:title="Send a message through this UDP client.">
<polygon fill="white" stroke="#666666" points="1006.5,-272 897.5,-272 897.5,-242 1006.5,-242 1006.5,-272"/>
<text text-anchor="start" x="905.5" y="-260" font-family="Helvetica,sans-Serif" font-size="10.00">udp_client_server::</text>
<text text-anchor="middle" x="952" y="-249" font-family="Helvetica,sans-Serif" font-size="10.00">udp_client::send</text>
</a>
</g>
</g>
<!-- Node3&#45;&gt;Node5 -->
<g id="edge4_Node000003_Node000005" class="edge">
<title>Node3&#45;&gt;Node5</title>
<g id="a_edge4_Node000003_Node000005"><a xlink:title=" ">
<path fill="none" stroke="#63b8ff" d="M838.12,-268.97C854.63,-267.22 871.66,-265.41 887.33,-263.75"/>
<polygon fill="#63b8ff" stroke="#63b8ff" points="887.84,-267.22 897.42,-262.68 887.1,-260.26 887.84,-267.22"/>
</a>
</g>
</g>
<!-- Node8 -->
<g id="Node000008" class="node">
<title>Node8</title>
<g id="a_Node000008"><a xlink:href="classgagent_1_1Agent.html#a433c7a2f49fe92944f1567324cc8694f" target="_top" xlink:title=" ">
<polygon fill="white" stroke="#666666" points="630,-249.5 496,-249.5 496,-230.5 630,-230.5 630,-249.5"/>
<text text-anchor="middle" x="563" y="-237.5" font-family="Helvetica,sans-Serif" font-size="10.00">gagent::Agent::doAction</text>
</a>
</g>
</g>
<!-- Node7&#45;&gt;Node8 -->
<g id="edge7_Node000007_Node000008" class="edge">
<title>Node7&#45;&gt;Node8</title>
<g id="a_edge7_Node000007_Node000008"><a xlink:title=" ">
<path fill="none" stroke="#63b8ff" d="M459.79,-240C468.35,-240 477.16,-240 485.84,-240"/>
<polygon fill="#63b8ff" stroke="#63b8ff" points="485.97,-243.5 495.97,-240 485.97,-236.5 485.97,-243.5"/>
</a>
</g>
</g>
<!-- Node8&#45;&gt;Node3 -->
<g id="edge8_Node000008_Node000003" class="edge">
<title>Node8&#45;&gt;Node3</title>
<g id="a_edge8_Node000008_Node000003"><a xlink:title=" ">
<path fill="none" stroke="#63b8ff" d="M611.19,-249.59C636.42,-254.72 667.67,-261.07 694.23,-266.46"/>
<polygon fill="#63b8ff" stroke="#63b8ff" points="693.65,-269.92 704.15,-268.48 695.05,-263.06 693.65,-269.92"/>
</a>
</g>
</g>
<!-- Node10 -->
<g id="Node000010" class="node">
<title>Node10</title>
<g id="a_Node000010"><a xlink:href="classgagent_1_1Behaviour.html#a3037e2db4cafd7392b4ba379b1f0c215" target="_top" xlink:title=" ">
<polygon fill="white" stroke="#666666" points="448,-212 336,-212 336,-182 448,-182 448,-212"/>
<text text-anchor="start" x="344" y="-200" font-family="Helvetica,sans-Serif" font-size="10.00">gagent::Behaviour::</text>
<text text-anchor="middle" x="392" y="-189" font-family="Helvetica,sans-Serif" font-size="10.00">action</text>
</a>
</g>
</g>
<!-- Node9&#45;&gt;Node10 -->
<g id="edge10_Node000009_Node000010" class="edge">
<title>Node9&#45;&gt;Node10</title>
<g id="a_edge10_Node000009_Node000010"><a xlink:title=" ">
<path fill="none" stroke="#63b8ff" d="M257.17,-163.54C277.44,-168.61 302.9,-174.97 326.15,-180.79"/>
<polygon fill="#63b8ff" stroke="#63b8ff" points="325.41,-184.21 335.96,-183.24 327.11,-177.42 325.41,-184.21"/>
</a>
</g>
</g>
<!-- Node11 -->
<g id="Node000011" class="node">
<title>Node11</title>
<g id="a_Node000011"><a xlink:href="classgagent_1_1Behaviour.html#ac9e3710a014d023101d6595ee143b997" target="_top" xlink:title=" ">
<polygon fill="white" stroke="#666666" points="460,-163.5 324,-163.5 324,-144.5 460,-144.5 460,-163.5"/>
<text text-anchor="middle" x="392" y="-151.5" font-family="Helvetica,sans-Serif" font-size="10.00">gagent::Behaviour::done</text>
</a>
</g>
</g>
<!-- Node9&#45;&gt;Node11 -->
<g id="edge11_Node000009_Node000011" class="edge">
<title>Node9&#45;&gt;Node11</title>
<g id="a_edge11_Node000009_Node000011"><a xlink:title=" ">
<path fill="none" stroke="#63b8ff" d="M285.01,-154C294.33,-154 303.98,-154 313.5,-154"/>
<polygon fill="#63b8ff" stroke="#63b8ff" points="313.75,-157.5 323.75,-154 313.75,-150.5 313.75,-157.5"/>
</a>
</g>
</g>
<!-- Node12 -->
<g id="Node000012" class="node">
<title>Node12</title>
<g id="a_Node000012"><a xlink:href="classgagent_1_1Behaviour.html#ad34989defc5d83a2ceb9dcfea3549b12" target="_top" xlink:title=" ">
<polygon fill="white" stroke="#666666" points="448,-126 336,-126 336,-96 448,-96 448,-126"/>
<text text-anchor="start" x="344" y="-114" font-family="Helvetica,sans-Serif" font-size="10.00">gagent::Behaviour::</text>
<text text-anchor="middle" x="392" y="-103" font-family="Helvetica,sans-Serif" font-size="10.00">onEnd</text>
</a>
</g>
</g>
<!-- Node9&#45;&gt;Node12 -->
<g id="edge12_Node000009_Node000012" class="edge">
<title>Node9&#45;&gt;Node12</title>
<g id="a_edge12_Node000009_Node000012"><a xlink:title=" ">
<path fill="none" stroke="#63b8ff" d="M257.17,-144.46C277.44,-139.39 302.9,-133.03 326.15,-127.21"/>
<polygon fill="#63b8ff" stroke="#63b8ff" points="327.11,-130.58 335.96,-124.76 325.41,-123.79 327.11,-130.58"/>
</a>
</g>
</g>
<!-- Node13 -->
<g id="Node000013" class="node">
<title>Node13</title>
<g id="a_Node000013"><a xlink:href="classgagent_1_1Behaviour.html#a49bd5d9aeab69165df42e0d03e6740f9" target="_top" xlink:title=" ">
<polygon fill="white" stroke="#666666" points="448,-78 336,-78 336,-48 448,-48 448,-78"/>
<text text-anchor="start" x="344" y="-66" font-family="Helvetica,sans-Serif" font-size="10.00">gagent::Behaviour::</text>
<text text-anchor="middle" x="392" y="-55" font-family="Helvetica,sans-Serif" font-size="10.00">onStart</text>
</a>
</g>
</g>
<!-- Node9&#45;&gt;Node13 -->
<g id="edge13_Node000009_Node000013" class="edge">
<title>Node9&#45;&gt;Node13</title>
<g id="a_edge13_Node000009_Node000013"><a xlink:title=" ">
<path fill="none" stroke="#63b8ff" d="M269.37,-144.37C275.95,-141.92 282.35,-138.85 288,-135 310.04,-119.99 302.54,-102.83 324,-87 325.86,-85.63 327.8,-84.33 329.81,-83.1"/>
<polygon fill="#63b8ff" stroke="#63b8ff" points="331.83,-85.99 338.95,-78.14 328.49,-79.84 331.83,-85.99"/>
</a>
</g>
</g>
<!-- Node15 -->
<g id="Node000015" class="node">
<title>Node15</title>
<g id="a_Node000015"><a xlink:href="classgagent_1_1Agent.html#ab3d0f4d902242f0f0eefabb63fec9c4e" target="_top" xlink:title=" ">
<polygon fill="white" stroke="#666666" points="452,-30 332,-30 332,0 452,0 452,-30"/>
<text text-anchor="start" x="340" y="-18" font-family="Helvetica,sans-Serif" font-size="10.00">gagent::Agent::signal</text>
<text text-anchor="middle" x="392" y="-7" font-family="Helvetica,sans-Serif" font-size="10.00">_handler</text>
</a>
</g>
</g>
<!-- Node14&#45;&gt;Node15 -->
<g id="edge15_Node000014_Node000015" class="edge">
<title>Node14&#45;&gt;Node15</title>
<g id="a_edge15_Node000014_Node000015"><a xlink:title=" ">
<path fill="none" stroke="#63b8ff" d="M272.61,-95.99C278.04,-93.42 283.29,-90.44 288,-87 309.53,-71.27 302.54,-54.83 324,-39 325.86,-37.63 327.8,-36.33 329.81,-35.1"/>
<polygon fill="#63b8ff" stroke="#63b8ff" points="331.83,-37.99 338.95,-30.14 328.49,-31.84 331.83,-37.99"/>
</a>
</g>
</g>
<!-- Node15&#45;&gt;Node8 -->
<g id="edge16_Node000015_Node000008" class="edge">
<title>Node15&#45;&gt;Node8</title>
<g id="a_edge16_Node000015_Node000008"><a xlink:title=" ">
<path fill="none" stroke="#63b8ff" d="M447.02,-30.08C451.69,-32.62 456.11,-35.57 460,-39 517.69,-89.86 546.91,-181.08 557.38,-220.73"/>
<polygon fill="#63b8ff" stroke="#63b8ff" points="554,-221.63 559.85,-230.47 560.79,-219.91 554,-221.63"/>
</a>
</g>
</g>
</g>
</svg>
