<?xml version="1.0" encoding="UTF-8" standalone="no"?>
<!DOCTYPE svg PUBLIC "-//W3C//DTD SVG 1.1//EN"
 "http://www.w3.org/Graphics/SVG/1.1/DTD/svg11.dtd">
<!-- Generated by graphviz version 2.42.4 (0)
 -->
<!-- Title: gagent::Environnement::start Pages: 1 -->
<!--zoomable 172 -->

<svg id="main" version="1.1" xmlns="http://www.w3.org/2000/svg" xmlns:xlink="http://www.w3.org/1999/xlink" xml:space="preserve" onload="init(evt)">
<style type="text/css"><![CDATA[
.node, .edge {opacity: 0.7;}
.node.selected, .edge.selected {opacity: 1;}
.edge:hover path { stroke: red; }
.edge:hover polygon { stroke: red; fill: red; }
]]></style>

<defs>
  <circle id="rim" cx="0" cy="0" r="7"/>
  <circle id="rim2" cx="0" cy="0" r="3.5"/>
  <g id="zoomPlus">
    <use xlink:href="#rim" fill="#404040"><set attributeName="fill" to="#808080" begin="zoomplus.mouseover" end="zoomplus.mouseout"/></use>
    <path d="M-4,0h8M0,-4v8" fill="none" stroke="white" stroke-width="1.5" pointer-events="none"/>
  </g>
  <g id="zoomMin">
    <use xlink:href="#rim" fill="#404040"><set attributeName="fill" to="#808080" begin="zoomminus.mouseover" end="zoomminus.mouseout"/></use>
    <path d="M-4,0h8" fill="none" stroke="white" stroke-width="1.5" pointer-events="none"/>
  </g>
  <g id="arrowUp" transform="translate(30 24)">
    <use xlink:href="#rim"/>
    <path pointer-events="none" fill="none" stroke="white" stroke-width="1.5" d="M0,-3.0v7 M-2.5,-0.5L0,-3.0L2.5,-0.5"/>
  </g>
  <g id="arrowRight" transform="rotate(90) translate(36 -43)">
    <use xlink:href="#rim"/>
    <path pointer-events="none" fill="none" stroke="white" stroke-width="1.5" d="M0,-3.0v7 M-2.5,-0.5L0,-3.0L2.5,-0.5"/>
  </g>
  <g id="arrowDown" transform="rotate(180) translate(-30 -48)">
    <use xlink:href="#rim"/>
    <path pointer-events="none" fill="none" stroke="white" stroke-width="1.5" d="M0,-3.0v7 M-2.5,-0.5L0,-3.0L2.5,-0.5"/>
  </g>
  <g id="arrowLeft" transform="rotate(270) translate(-36 17)">
    <use xlink:href="#rim"/>
    <path pointer-events="none" fill="none" stroke="white" stroke-width="1.5" d="M0,-3.0v7 M-2.5,-0.5L0,-3.0L2.5,-0.5"/>
  </g>
  <g id="resetDef">
    <use xlink:href="#rim2" fill="#404040"><set attributeName="fill" to="#808080" begin="reset.mouseover" end="reset.mouseout"/></use>
  </g>
</defs>
<script type="application/ecmascript">
var viewWidth = 696;
var viewHeight = 172;
var sectionId = 'dynsection-16';
</script>
<script type="application/ecmascript" xlink:href="svg.min.js"/>
<svg id="graph" class="graph">
<g id="viewport">
<title>gagent::Environnement::start</title>
<!-- Node1 -->
<g id="Node000001" class="node">
<title>Node1</title>
<g id="a_Node000001"><a xlink:title=" ">
<polygon fill="#999999" stroke="#666666" points="131,-79.5 0,-79.5 0,-49.5 131,-49.5 131,-79.5"/>
<text text-anchor="start" x="8" y="-67.5" font-family="Helvetica,sans-Serif" font-size="10.00">gagent::Environnement</text>
<text text-anchor="middle" x="65.5" y="-56.5" font-family="Helvetica,sans-Serif" font-size="10.00">::start</text>
</a>
</g>
</g>
<!-- Node2 -->
<g id="Node000002" class="node">
<title>Node2</title>
<g id="a_Node000002"><a xlink:href="classgagent_1_1EnvironnementGui.html#a323f72c9a589c205ad5db2f3bc19999e" target="_top" xlink:title=" ">
<polygon fill="white" stroke="#666666" points="314,-103.5 167,-103.5 167,-73.5 314,-73.5 314,-103.5"/>
<text text-anchor="start" x="175" y="-91.5" font-family="Helvetica,sans-Serif" font-size="10.00">gagent::EnvironnementGui</text>
<text text-anchor="middle" x="240.5" y="-80.5" font-family="Helvetica,sans-Serif" font-size="10.00">::createWindow</text>
</a>
</g>
</g>
<!-- Node1&#45;&gt;Node2 -->
<g id="edge1_Node000001_Node000002" class="edge">
<title>Node1&#45;&gt;Node2</title>
<g id="a_edge1_Node000001_Node000002"><a xlink:title=" ">
<path fill="none" stroke="#63b8ff" d="M131.41,-73.5C139.75,-74.66 148.37,-75.86 156.95,-77.05"/>
<polygon fill="#63b8ff" stroke="#63b8ff" points="156.58,-80.53 166.97,-78.44 157.54,-73.6 156.58,-80.53"/>
</a>
</g>
</g>
<!-- Node10 -->
<g id="Node000010" class="node">
<title>Node10</title>
<g id="a_Node000010"><a xlink:href="classgagent_1_1EnvironnementGui.html#aad6732cc840a4babd06675ad1d0002bb" target="_top" xlink:title=" ">
<polygon fill="white" stroke="#666666" points="314,-55.5 167,-55.5 167,-25.5 314,-25.5 314,-55.5"/>
<text text-anchor="start" x="175" y="-43.5" font-family="Helvetica,sans-Serif" font-size="10.00">gagent::EnvironnementGui</text>
<text text-anchor="middle" x="240.5" y="-32.5" font-family="Helvetica,sans-Serif" font-size="10.00">::setEnvPtr</text>
</a>
</g>
</g>
<!-- Node1&#45;&gt;Node10 -->
<g id="edge9_Node000001_Node000010" class="edge">
<title>Node1&#45;&gt;Node10</title>
<g id="a_edge9_Node000001_Node000010"><a xlink:title=" ">
<path fill="none" stroke="#63b8ff" d="M131.41,-55.5C139.75,-54.34 148.37,-53.14 156.95,-51.95"/>
<polygon fill="#63b8ff" stroke="#63b8ff" points="157.54,-55.4 166.97,-50.56 156.58,-48.47 157.54,-55.4"/>
</a>
</g>
</g>
<!-- Node3 -->
<g id="Node000003" class="node">
<title>Node3</title>
<g id="a_Node000003"><a xlink:href="classgagent_1_1Environnement.html#a58c0f52451d4d32f0b256f12e9feda1b" target="_top" xlink:title=" ">
<polygon fill="white" stroke="#666666" points="495.5,-157.5 351.5,-157.5 351.5,-127.5 495.5,-127.5 495.5,-157.5"/>
<text text-anchor="start" x="359.5" y="-145.5" font-family="Helvetica,sans-Serif" font-size="10.00">gagent::Environnement</text>
<text text-anchor="middle" x="423.5" y="-134.5" font-family="Helvetica,sans-Serif" font-size="10.00">::readDataFromQueueMsg</text>
</a>
</g>
</g>
<!-- Node2&#45;&gt;Node3 -->
<g id="edge2_Node000002_Node000003" class="edge">
<title>Node2&#45;&gt;Node3</title>
<g id="a_edge2_Node000002_Node000003"><a xlink:title=" ">
<path fill="none" stroke="#63b8ff" d="M291.92,-103.54C313.79,-110.07 339.58,-117.76 362.44,-124.58"/>
<polygon fill="#63b8ff" stroke="#63b8ff" points="361.45,-127.94 372.04,-127.45 363.46,-121.23 361.45,-127.94"/>
</a>
</g>
</g>
<!-- Node5 -->
<g id="Node000005" class="node">
<title>Node5</title>
<g id="a_Node000005"><a xlink:href="classgagent_1_1EnvironnementGui.html#ab3aeb4fe7ab4bb5c76936270ac530770" target="_top" xlink:title=" ">
<polygon fill="white" stroke="#666666" points="497,-103.5 350,-103.5 350,-73.5 497,-73.5 497,-103.5"/>
<text text-anchor="start" x="358" y="-91.5" font-family="Helvetica,sans-Serif" font-size="10.00">gagent::EnvironnementGui</text>
<text text-anchor="middle" x="423.5" y="-80.5" font-family="Helvetica,sans-Serif" font-size="10.00">::refresh</text>
</a>
</g>
</g>
<!-- Node2&#45;&gt;Node5 -->
<g id="edge4_Node000002_Node000005" class="edge">
<title>Node2&#45;&gt;Node5</title>
<g id="a_edge4_Node000002_Node000005"><a xlink:title=" ">
<path fill="none" stroke="#63b8ff" d="M314.08,-88.5C322.56,-88.5 331.26,-88.5 339.87,-88.5"/>
<polygon fill="#63b8ff" stroke="#63b8ff" points="339.91,-92 349.91,-88.5 339.91,-85 339.91,-92"/>
</a>
</g>
</g>
<!-- Node8 -->
<g id="Node000008" class="node">
<title>Node8</title>
<g id="a_Node000008"><a xlink:href="classUi__guiWindow.html#a4124a0eacb71bce904d53f9b78555ae5" target="_top" xlink:title=" ">
<polygon fill="white" stroke="#666666" points="488,-43 359,-43 359,-24 488,-24 488,-43"/>
<text text-anchor="middle" x="423.5" y="-31" font-family="Helvetica,sans-Serif" font-size="10.00">Ui_guiWindow::setupUi</text>
</a>
</g>
</g>
<!-- Node2&#45;&gt;Node8 -->
<g id="edge7_Node000002_Node000008" class="edge">
<title>Node2&#45;&gt;Node8</title>
<g id="a_edge7_Node000002_Node000008"><a xlink:title=" ">
<path fill="none" stroke="#63b8ff" d="M290.96,-73.47C319.27,-64.87 354.37,-54.2 381.19,-46.05"/>
<polygon fill="#63b8ff" stroke="#63b8ff" points="382.49,-49.32 391.04,-43.06 380.45,-42.62 382.49,-49.32"/>
</a>
</g>
</g>
<!-- Node4 -->
<g id="Node000004" class="node">
<title>Node4</title>
<g id="a_Node000004"><a xlink:href="classgagent_1_1MessageParser.html#aaecfba940da1afa76f961efca4a59ca9" target="_top" xlink:title=" ">
<polygon fill="white" stroke="#666666" points="675.5,-163.5 545.5,-163.5 545.5,-133.5 675.5,-133.5 675.5,-163.5"/>
<text text-anchor="start" x="553.5" y="-151.5" font-family="Helvetica,sans-Serif" font-size="10.00">gagent::MessageParser</text>
<text text-anchor="middle" x="610.5" y="-140.5" font-family="Helvetica,sans-Serif" font-size="10.00">::parsekeyValSeq</text>
</a>
</g>
</g>
<!-- Node3&#45;&gt;Node4 -->
<g id="edge3_Node000003_Node000004" class="edge">
<title>Node3&#45;&gt;Node4</title>
<g id="a_edge3_Node000003_Node000004"><a xlink:title=" ">
<path fill="none" stroke="#63b8ff" d="M495.76,-144.81C508.61,-145.23 522.04,-145.66 534.98,-146.08"/>
<polygon fill="#63b8ff" stroke="#63b8ff" points="535.13,-149.59 545.23,-146.42 535.35,-142.59 535.13,-149.59"/>
</a>
</g>
</g>
<!-- Node6 -->
<g id="Node000006" class="node">
<title>Node6</title>
<g id="a_Node000006"><a xlink:href="classgagent_1_1Environnement.html#a4987d67f0e7ca80ec9b3aef47b437077" target="_top" xlink:title=" ">
<polygon fill="white" stroke="#666666" points="676,-115.5 545,-115.5 545,-85.5 676,-85.5 676,-115.5"/>
<text text-anchor="start" x="553" y="-103.5" font-family="Helvetica,sans-Serif" font-size="10.00">gagent::Environnement</text>
<text text-anchor="middle" x="610.5" y="-92.5" font-family="Helvetica,sans-Serif" font-size="10.00">::event_loop</text>
</a>
</g>
</g>
<!-- Node5&#45;&gt;Node6 -->
<g id="edge5_Node000005_Node000006" class="edge">
<title>Node5&#45;&gt;Node6</title>
<g id="a_edge5_Node000005_Node000006"><a xlink:title=" ">
<path fill="none" stroke="#63b8ff" d="M497.09,-93.21C509.42,-94.01 522.26,-94.84 534.65,-95.64"/>
<polygon fill="#63b8ff" stroke="#63b8ff" points="534.73,-99.16 544.94,-96.31 535.19,-92.17 534.73,-99.16"/>
</a>
</g>
</g>
<!-- Node7 -->
<g id="Node000007" class="node">
<title>Node7</title>
<g id="a_Node000007"><a xlink:href="classgagent_1_1Environnement.html#a8f5e75fdf25cc3bf7af50e26270000e8" target="_top" xlink:title=" ">
<polygon fill="white" stroke="#666666" points="676,-67.5 545,-67.5 545,-37.5 676,-37.5 676,-67.5"/>
<text text-anchor="start" x="553" y="-55.5" font-family="Helvetica,sans-Serif" font-size="10.00">gagent::Environnement</text>
<text text-anchor="middle" x="610.5" y="-44.5" font-family="Helvetica,sans-Serif" font-size="10.00">::make_agent</text>
</a>
</g>
</g>
<!-- Node5&#45;&gt;Node7 -->
<g id="edge6_Node000005_Node000007" class="edge">
<title>Node5&#45;&gt;Node7</title>
<g id="a_edge6_Node000005_Node000007"><a xlink:title=" ">
<path fill="none" stroke="#63b8ff" d="M497.09,-74.38C509.55,-71.95 522.51,-69.43 535.02,-66.99"/>
<polygon fill="#63b8ff" stroke="#63b8ff" points="535.79,-70.41 544.94,-65.06 534.45,-63.54 535.79,-70.41"/>
</a>
</g>
</g>
<!-- Node9 -->
<g id="Node000009" class="node">
<title>Node9</title>
<g id="a_Node000009"><a xlink:href="classUi__guiWindow.html#a30b67e126e4df6b05a626afb4c2665c2" target="_top" xlink:title=" ">
<polygon fill="white" stroke="#666666" points="688,-19 533,-19 533,0 688,0 688,-19"/>
<text text-anchor="middle" x="610.5" y="-7" font-family="Helvetica,sans-Serif" font-size="10.00">Ui_guiWindow::retranslateUi</text>
</a>
</g>
</g>
<!-- Node8&#45;&gt;Node9 -->
<g id="edge8_Node000008_Node000009" class="edge">
<title>Node8&#45;&gt;Node9</title>
<g id="a_edge8_Node000008_Node000009"><a xlink:title=" ">
<path fill="none" stroke="#63b8ff" d="M488.17,-25.24C500.37,-23.66 513.32,-21.98 526.04,-20.33"/>
<polygon fill="#63b8ff" stroke="#63b8ff" points="526.71,-23.77 536.18,-19.01 525.81,-16.83 526.71,-23.77"/>
</a>
</g>
</g>
</g>
</svg>

<g id="navigator" transform="translate(0 0)" fill="#404254">
  <rect fill="#f2f5e9" fill-opacity="0.5" stroke="#606060" stroke-width=".5" x="0" y="0" width="60" height="60"/>
  <use id="zoomplus" xlink:href="#zoomPlus" x="17" y="9" onmousedown="handleZoom(evt,'in')"/>
  <use id="zoomminus" xlink:href="#zoomMin" x="42" y="9" onmousedown="handleZoom(evt,'out')"/>
  <use id="reset" xlink:href="#resetDef" x="30" y="36" onmousedown="handleReset()"/>
   <use id="arrowup" xlink:href="#arrowUp" x="0" y="0" onmousedown="handlePan(0,-1)"/>
  <use id="arrowright" xlink:href="#arrowRight" x="0" y="0" onmousedown="handlePan(1,0)"/>
  <use id="arrowdown" xlink:href="#arrowDown" x="0" y="0" onmousedown="handlePan(0,1)"/>
  <use id="arrowleft" xlink:href="#arrowLeft" x="0" y="0" onmousedown="handlePan(-1,0)"/>
</g>
<svg viewBox="0 0 15 15" width="100%" height="30px" preserveAspectRatio="xMaxYMin meet">
 <g id="arrow_out" transform="scale(0.3 0.3)">
  <a xlink:href="classgagent_1_1Environnement_a02dcafc7f834a9ac9f9e9b7fe62d354f_cgraph_org.svg" target="_base">
   <rect id="button" ry="5" rx="5" y="6" x="6" height="38" width="38"
        fill="#f2f5e9" fill-opacity="0.5" stroke="#606060" stroke-width="1.0"/>
   <path id="arrow"
     d="M 11.500037,31.436501 C 11.940474,20.09759 22.043105,11.32322 32.158766,21.979434 L 37.068811,17.246167 C 37.068811,17.246167 37.088388,32 37.088388,32 L 22.160133,31.978069 C 22.160133,31.978069 26.997745,27.140456 26.997745,27.140456 C 18.528582,18.264221 13.291696,25.230495 11.500037,31.436501 z"
     style="fill:#404040;"/>
  </a>
 </g>
</svg>

<style type='text/css'>
<![CDATA[
[data-mouse-over-selected='false'] { opacity: 0.7; }
[data-mouse-over-selected='true']  { opacity: 1.0; }
]]>
</style>
<script type="application/ecmascript"><![CDATA[
document.addEventListener('DOMContentLoaded', (event) => {
  highlightEdges();
  highlightAdjacentNodes();
});
]]></script>
</svg>
