<?xml version="1.0" encoding="UTF-8" standalone="no"?>
<!DOCTYPE svg PUBLIC "-//W3C//DTD SVG 1.1//EN"
 "http://www.w3.org/Graphics/SVG/1.1/DTD/svg11.dtd">
<!-- Generated by graphviz version 2.42.4 (0)
 -->
<!-- Title: gagent::Agent Pages: 1 -->
<svg width="224pt" height="383pt"
 viewBox="0.00 0.00 224.00 383.00" xmlns="http://www.w3.org/2000/svg" xmlns:xlink="http://www.w3.org/1999/xlink">
<g id="graph0" class="graph" transform="scale(1 1) rotate(0) translate(4 379)">
<title>gagent::Agent</title>
<!-- Node1 -->
<g id="Node000001" class="node">
<title>Node1</title>
<g id="a_Node000001"><a xlink:title=" ">
<polygon fill="#999999" stroke="transparent" points="135,-375 0,-375 0,0 135,0 135,-375"/>
<text text-anchor="start" x="33.5" y="-362.5" font-family="Helvetica,sans-Serif" font-size="10.00">gagent::Agent</text>
<text text-anchor="start" x="4.5" y="-347.5" font-family="Helvetica,sans-Serif" font-size="10.00">+</text>
<text text-anchor="start" x="17.5" y="-347.5" font-family="Helvetica,sans-Serif" font-size="10.00">agentStatus</text>
<text text-anchor="start" x="4.5" y="-332.5" font-family="Helvetica,sans-Serif" font-size="10.00">+</text>
<text text-anchor="start" x="17.5" y="-332.5" font-family="Helvetica,sans-Serif" font-size="10.00">chldpid</text>
<text text-anchor="start" x="4.5" y="-317.5" font-family="Helvetica,sans-Serif" font-size="10.00">+</text>
<text text-anchor="start" x="17.5" y="-317.5" font-family="Helvetica,sans-Serif" font-size="10.00">ppid</text>
<text text-anchor="start" x="4.5" y="-302.5" font-family="Helvetica,sans-Serif" font-size="10.00">+</text>
<text text-anchor="start" x="17.5" y="-302.5" font-family="Helvetica,sans-Serif" font-size="10.00">AGENT_UNKNOWN</text>
<text text-anchor="start" x="4.5" y="-287.5" font-family="Helvetica,sans-Serif" font-size="10.00">+</text>
<text text-anchor="start" x="17.5" y="-287.5" font-family="Helvetica,sans-Serif" font-size="10.00">AGENT_CREATED</text>
<text text-anchor="start" x="4.5" y="-272.5" font-family="Helvetica,sans-Serif" font-size="10.00">+</text>
<text text-anchor="start" x="17.5" y="-272.5" font-family="Helvetica,sans-Serif" font-size="10.00">AGENT_INITED</text>
<text text-anchor="start" x="4.5" y="-257.5" font-family="Helvetica,sans-Serif" font-size="10.00">+</text>
<text text-anchor="start" x="17.5" y="-257.5" font-family="Helvetica,sans-Serif" font-size="10.00">AGENT_ACTIVE</text>
<text text-anchor="start" x="4.5" y="-242.5" font-family="Helvetica,sans-Serif" font-size="10.00">+</text>
<text text-anchor="start" x="17.5" y="-242.5" font-family="Helvetica,sans-Serif" font-size="10.00">AGENT_SUSPENDED</text>
<text text-anchor="start" x="4.5" y="-227.5" font-family="Helvetica,sans-Serif" font-size="10.00">+</text>
<text text-anchor="start" x="17.5" y="-227.5" font-family="Helvetica,sans-Serif" font-size="10.00">AGENT_TRANSIT</text>
<text text-anchor="start" x="4.5" y="-212.5" font-family="Helvetica,sans-Serif" font-size="10.00">+</text>
<text text-anchor="start" x="17.5" y="-212.5" font-family="Helvetica,sans-Serif" font-size="10.00">AGENT_WAITING</text>
<text text-anchor="start" x="4.5" y="-197.5" font-family="Helvetica,sans-Serif" font-size="10.00">+</text>
<text text-anchor="start" x="17.5" y="-197.5" font-family="Helvetica,sans-Serif" font-size="10.00">AGENT_DELETED</text>
<text text-anchor="start" x="4.5" y="-182.5" font-family="Helvetica,sans-Serif" font-size="10.00">+</text>
<text text-anchor="start" x="17.5" y="-182.5" font-family="Helvetica,sans-Serif" font-size="10.00">AGENT_WAKING</text>
<text text-anchor="start" x="4.5" y="-167.5" font-family="Helvetica,sans-Serif" font-size="10.00">+</text>
<text text-anchor="start" x="17.5" y="-167.5" font-family="Helvetica,sans-Serif" font-size="10.00">Agent()</text>
<text text-anchor="start" x="4.5" y="-152.5" font-family="Helvetica,sans-Serif" font-size="10.00">+</text>
<text text-anchor="start" x="17.5" y="-152.5" font-family="Helvetica,sans-Serif" font-size="10.00">~Agent()</text>
<text text-anchor="start" x="4.5" y="-137.5" font-family="Helvetica,sans-Serif" font-size="10.00">+</text>
<text text-anchor="start" x="17.5" y="-137.5" font-family="Helvetica,sans-Serif" font-size="10.00">is_notification()</text>
<text text-anchor="start" x="4.5" y="-122.5" font-family="Helvetica,sans-Serif" font-size="10.00">+</text>
<text text-anchor="start" x="17.5" y="-122.5" font-family="Helvetica,sans-Serif" font-size="10.00">scheduler()</text>
<text text-anchor="start" x="4.5" y="-107.5" font-family="Helvetica,sans-Serif" font-size="10.00">+</text>
<text text-anchor="start" x="17.5" y="-107.5" font-family="Helvetica,sans-Serif" font-size="10.00">exthread()</text>
<text text-anchor="start" x="4.5" y="-92.5" font-family="Helvetica,sans-Serif" font-size="10.00">+</text>
<text text-anchor="start" x="17.5" y="-92.5" font-family="Helvetica,sans-Serif" font-size="10.00">control_Thread()</text>
<text text-anchor="start" x="4.5" y="-77.5" font-family="Helvetica,sans-Serif" font-size="10.00">+</text>
<text text-anchor="start" x="17.5" y="-77.5" font-family="Helvetica,sans-Serif" font-size="10.00">listener_extern_signals</text>
<text text-anchor="start" x="17.5" y="-66.5" font-family="Helvetica,sans-Serif" font-size="10.00">_Thread()</text>
<text text-anchor="start" x="4.5" y="-51.5" font-family="Helvetica,sans-Serif" font-size="10.00">+</text>
<text text-anchor="start" x="17.5" y="-51.5" font-family="Helvetica,sans-Serif" font-size="10.00">control_message()</text>
<text text-anchor="start" x="4.5" y="-36.5" font-family="Helvetica,sans-Serif" font-size="10.00">+</text>
<text text-anchor="start" x="17.5" y="-36.5" font-family="Helvetica,sans-Serif" font-size="10.00">init()</text>
<text text-anchor="start" x="4.5" y="-21.5" font-family="Helvetica,sans-Serif" font-size="10.00">+</text>
<text text-anchor="start" x="17.5" y="-21.5" font-family="Helvetica,sans-Serif" font-size="10.00">_init()</text>
<text text-anchor="start" x="17.5" y="-6.5" font-family="Helvetica,sans-Serif" font-size="10.00">and 19 more...</text>
<polygon fill="#666666" stroke="#666666" points="0.5,-357.5 0.5,-357.5 135.5,-357.5 135.5,-357.5 0.5,-357.5"/>
<polygon fill="#666666" stroke="#666666" points="0.5,-177.5 0.5,-177.5 15.5,-177.5 15.5,-177.5 0.5,-177.5"/>
<polygon fill="#666666" stroke="#666666" points="15.5,-177.5 15.5,-177.5 135.5,-177.5 135.5,-177.5 15.5,-177.5"/>
<polygon fill="none" stroke="#666666" points="0,0 0,-375 135,-375 135,0 0,0"/>
</a>
</g>
</g>
<!-- Node1&#45;&gt;Node1 -->
<g id="edge1_Node000001_Node000001" class="edge">
<title>Node1&#45;&gt;Node1</title>
<g id="a_edge1_Node000001_Node000001"><a xlink:title=" ">
<path fill="none" stroke="#63b8ff" d="M135.23,-251.77C145.8,-242.16 153,-220.74 153,-187.5 153,-162.83 149.03,-144.67 142.67,-133.02"/>
<polygon fill="none" stroke="#63b8ff" points="142.49,-132.79 135.68,-130.43 135.23,-123.23 142.05,-125.59 142.49,-132.79"/>
</a>
</g>
<text text-anchor="middle" x="184.5" y="-185" font-family="Helvetica,sans-Serif" font-size="10.00" fill="grey"> +this_agent</text>
</g>
</g>
</svg>
