<?xml version="1.0" encoding="UTF-8" standalone="no"?>
<!DOCTYPE svg PUBLIC "-//W3C//DTD SVG 1.1//EN"
 "http://www.w3.org/Graphics/SVG/1.1/DTD/svg11.dtd">
<!-- Generated by graphviz version 2.42.4 (0)
 -->
<!-- Title: gagent::Agent::setAttribut Pages: 1 -->
<svg width="304pt" height="76pt"
 viewBox="0.00 0.00 304.00 75.50" xmlns="http://www.w3.org/2000/svg" xmlns:xlink="http://www.w3.org/1999/xlink">
<g id="graph0" class="graph" transform="scale(1 1) rotate(0) translate(4 71.5)">
<title>gagent::Agent::setAttribut</title>
<!-- Node1 -->
<g id="Node000001" class="node">
<title>Node1</title>
<g id="a_Node000001"><a xlink:title=" ">
<polygon fill="#999999" stroke="#666666" points="296,-40 153,-40 153,-21 296,-21 296,-40"/>
<text text-anchor="middle" x="224.5" y="-28" font-family="Helvetica,sans-Serif" font-size="10.00">gagent::Agent::setAttribut</text>
</a>
</g>
</g>
<!-- Node2 -->
<g id="Node000002" class="node">
<title>Node2</title>
<g id="a_Node000002"><a xlink:href="classmyTickerBehaviour.html#a39747c572bcbf5c8c9854004d6bda437" target="_top" xlink:title=" ">
<polygon fill="white" stroke="#666666" points="117,-67.5 0,-67.5 0,-37.5 117,-37.5 117,-67.5"/>
<text text-anchor="start" x="8" y="-55.5" font-family="Helvetica,sans-Serif" font-size="10.00">myTickerBehaviour::</text>
<text text-anchor="middle" x="58.5" y="-44.5" font-family="Helvetica,sans-Serif" font-size="10.00">onTick</text>
</a>
</g>
</g>
<!-- Node1&#45;&gt;Node2 -->
<g id="edge1_Node000001_Node000002" class="edge">
<title>Node1&#45;&gt;Node2</title>
<g id="a_edge1_Node000001_Node000002"><a xlink:title=" ">
<path fill="none" stroke="#63b8ff" d="M142.83,-41.32C134.15,-42.49 125.44,-43.65 117.1,-44.77"/>
<polygon fill="#63b8ff" stroke="#63b8ff" points="143.55,-44.76 153,-39.96 142.62,-37.82 143.55,-44.76"/>
</a>
</g>
</g>
<!-- Node3 -->
<g id="Node000003" class="node">
<title>Node3</title>
<g id="a_Node000003"><a xlink:href="classmyAgent.html#a9d091bbdbfbb6ddfe8d1dab59f0bec10" target="_top" xlink:title=" ">
<polygon fill="white" stroke="#666666" points="105.5,-19 11.5,-19 11.5,0 105.5,0 105.5,-19"/>
<text text-anchor="middle" x="58.5" y="-7" font-family="Helvetica,sans-Serif" font-size="10.00">myAgent::setup</text>
</a>
</g>
</g>
<!-- Node1&#45;&gt;Node3 -->
<g id="edge2_Node000001_Node000003" class="edge">
<title>Node1&#45;&gt;Node3</title>
<g id="a_edge2_Node000001_Node000003"><a xlink:title=" ">
<path fill="none" stroke="#63b8ff" d="M142.83,-20.17C130.12,-18.54 117.36,-16.91 105.78,-15.43"/>
<polygon fill="#63b8ff" stroke="#63b8ff" points="142.63,-23.67 153,-21.47 143.52,-16.73 142.63,-23.67"/>
</a>
</g>
</g>
</g>
</svg>
