<?xml version="1.0" encoding="UTF-8" standalone="no"?>
<!DOCTYPE svg PUBLIC "-//W3C//DTD SVG 1.1//EN"
 "http://www.w3.org/Graphics/SVG/1.1/DTD/svg11.dtd">
<!-- Generated by graphviz version 2.42.4 (0)
 -->
<!-- Title: gagent::LifecycleException Pages: 1 -->
<svg width="150pt" height="227pt"
 viewBox="0.00 0.00 150.00 227.00" xmlns="http://www.w3.org/2000/svg" xmlns:xlink="http://www.w3.org/1999/xlink">
<g id="graph0" class="graph" transform="scale(1 1) rotate(0) translate(4 223)">
<title>gagent::LifecycleException</title>
<!-- Node1 -->
<g id="Node000001" class="node">
<title>Node1</title>
<g id="a_Node000001"><a xlink:title="Exception for lifecycle management errors.">
<polygon fill="#999999" stroke="transparent" points="142,-49 0,-49 0,0 142,0 142,-49"/>
<text text-anchor="start" x="5" y="-36.5" font-family="Helvetica,sans-Serif" font-size="10.00">gagent::LifecycleException</text>
<text text-anchor="start" x="69" y="-21.5" font-family="Helvetica,sans-Serif" font-size="10.00"> </text>
<text text-anchor="start" x="9" y="-6.5" font-family="Helvetica,sans-Serif" font-size="10.00">+</text>
<text text-anchor="start" x="27" y="-6.5" font-family="Helvetica,sans-Serif" font-size="10.00">LifecycleException()</text>
<polygon fill="#666666" stroke="#666666" points="0,-31.5 0,-31.5 142,-31.5 142,-31.5 0,-31.5"/>
<polygon fill="#666666" stroke="#666666" points="0,-16.5 0,-16.5 142,-16.5 142,-16.5 0,-16.5"/>
<polygon fill="none" stroke="#666666" points="0,0 0,-49 142,-49 142,0 0,0"/>
</a>
</g>
</g>
<!-- Node2 -->
<g id="Node000002" class="node">
<title>Node2</title>
<g id="a_Node000002"><a xlink:href="classgagent_1_1AgentException.html" target="_top" xlink:title="Base exception class for gAgent errors.">
<polygon fill="white" stroke="transparent" points="134.5,-134 7.5,-134 7.5,-85 134.5,-85 134.5,-134"/>
<text text-anchor="start" x="13" y="-121.5" font-family="Helvetica,sans-Serif" font-size="10.00">gagent::AgentException</text>
<text text-anchor="start" x="69.5" y="-106.5" font-family="Helvetica,sans-Serif" font-size="10.00"> </text>
<text text-anchor="start" x="17" y="-91.5" font-family="Helvetica,sans-Serif" font-size="10.00">+</text>
<text text-anchor="start" x="35" y="-91.5" font-family="Helvetica,sans-Serif" font-size="10.00">AgentException()</text>
<polygon fill="#666666" stroke="#666666" points="8,-116.5 8,-116.5 135,-116.5 135,-116.5 8,-116.5"/>
<polygon fill="#666666" stroke="#666666" points="8,-101.5 8,-101.5 135,-101.5 135,-101.5 8,-101.5"/>
<polygon fill="none" stroke="#666666" points="7.5,-85 7.5,-134 134.5,-134 134.5,-85 7.5,-85"/>
</a>
</g>
</g>
<!-- Node2&#45;&gt;Node1 -->
<g id="edge1_Node000001_Node000002" class="edge">
<title>Node2&#45;&gt;Node1</title>
<g id="a_edge1_Node000001_Node000002"><a xlink:title=" ">
<path fill="none" stroke="#63b8ff" d="M71,-74.77C71,-66.17 71,-57.1 71,-49.12"/>
<polygon fill="none" stroke="#63b8ff" points="67.5,-74.94 71,-84.94 74.5,-74.94 67.5,-74.94"/>
</a>
</g>
</g>
<!-- Node3 -->
<g id="Node000003" class="node">
<title>Node3</title>
<g id="a_Node000003"><a xlink:title=" ">
<polygon fill="white" stroke="transparent" points="120,-219 22,-219 22,-170 120,-170 120,-219"/>
<text text-anchor="start" x="27" y="-206.5" font-family="Helvetica,sans-Serif" font-size="10.00">std::runtime_error</text>
<text text-anchor="start" x="69" y="-191.5" font-family="Helvetica,sans-Serif" font-size="10.00"> </text>
<text text-anchor="start" x="69" y="-176.5" font-family="Helvetica,sans-Serif" font-size="10.00"> </text>
<polygon fill="#666666" stroke="#666666" points="22,-201.5 22,-201.5 120,-201.5 120,-201.5 22,-201.5"/>
<polygon fill="#666666" stroke="#666666" points="22,-186.5 22,-186.5 120,-186.5 120,-186.5 22,-186.5"/>
<polygon fill="none" stroke="#666666" points="22,-170 22,-219 120,-219 120,-170 22,-170"/>
</a>
</g>
</g>
<!-- Node3&#45;&gt;Node2 -->
<g id="edge2_Node000002_Node000003" class="edge">
<title>Node3&#45;&gt;Node2</title>
<g id="a_edge2_Node000002_Node000003"><a xlink:title=" ">
<path fill="none" stroke="#63b8ff" d="M71,-159.77C71,-151.17 71,-142.1 71,-134.12"/>
<polygon fill="none" stroke="#63b8ff" points="67.5,-159.94 71,-169.94 74.5,-159.94 67.5,-159.94"/>
</a>
</g>
</g>
</g>
</svg>
