<?xml version="1.0" encoding="UTF-8" standalone="no"?>
<!DOCTYPE svg PUBLIC "-//W3C//DTD SVG 1.1//EN"
 "http://www.w3.org/Graphics/SVG/1.1/DTD/svg11.dtd">
<!-- Generated by graphviz version 2.42.4 (0)
 -->
<!-- Title: gagent::CommunicationManager Pages: 1 -->
<svg width="178pt" height="177pt"
 viewBox="0.00 0.00 178.00 177.00" xmlns="http://www.w3.org/2000/svg" xmlns:xlink="http://www.w3.org/1999/xlink">
<g id="graph0" class="graph" transform="scale(1 1) rotate(0) translate(4 173)">
<title>gagent::CommunicationManager</title>
<!-- Node1 -->
<g id="Node000001" class="node">
<title>Node1</title>
<g id="a_Node000001"><a xlink:title="Manages multiple communication channels.">
<polygon fill="#999999" stroke="transparent" points="170,-169 0,-169 0,0 170,0 170,-169"/>
<text text-anchor="start" x="5" y="-156.5" font-family="Helvetica,sans-Serif" font-size="10.00">gagent::CommunicationManager</text>
<text text-anchor="start" x="83" y="-141.5" font-family="Helvetica,sans-Serif" font-size="10.00"> </text>
<text text-anchor="start" x="7" y="-126.5" font-family="Helvetica,sans-Serif" font-size="10.00">+</text>
<text text-anchor="start" x="23" y="-126.5" font-family="Helvetica,sans-Serif" font-size="10.00">CommunicationManager()</text>
<text text-anchor="start" x="7" y="-111.5" font-family="Helvetica,sans-Serif" font-size="10.00">+</text>
<text text-anchor="start" x="23" y="-111.5" font-family="Helvetica,sans-Serif" font-size="10.00">~CommunicationManager()</text>
<text text-anchor="start" x="7" y="-96.5" font-family="Helvetica,sans-Serif" font-size="10.00">+</text>
<text text-anchor="start" x="23" y="-96.5" font-family="Helvetica,sans-Serif" font-size="10.00">registerChannel()</text>
<text text-anchor="start" x="7" y="-81.5" font-family="Helvetica,sans-Serif" font-size="10.00">+</text>
<text text-anchor="start" x="23" y="-81.5" font-family="Helvetica,sans-Serif" font-size="10.00">send()</text>
<text text-anchor="start" x="7" y="-66.5" font-family="Helvetica,sans-Serif" font-size="10.00">+</text>
<text text-anchor="start" x="23" y="-66.5" font-family="Helvetica,sans-Serif" font-size="10.00">receive()</text>
<text text-anchor="start" x="7" y="-51.5" font-family="Helvetica,sans-Serif" font-size="10.00">+</text>
<text text-anchor="start" x="23" y="-51.5" font-family="Helvetica,sans-Serif" font-size="10.00">getChannel()</text>
<text text-anchor="start" x="7" y="-36.5" font-family="Helvetica,sans-Serif" font-size="10.00">+</text>
<text text-anchor="start" x="23" y="-36.5" font-family="Helvetica,sans-Serif" font-size="10.00">closeAll()</text>
<text text-anchor="start" x="7" y="-21.5" font-family="Helvetica,sans-Serif" font-size="10.00">+</text>
<text text-anchor="start" x="23" y="-21.5" font-family="Helvetica,sans-Serif" font-size="10.00">CommunicationManager()</text>
<text text-anchor="start" x="7" y="-6.5" font-family="Helvetica,sans-Serif" font-size="10.00">+</text>
<text text-anchor="start" x="23" y="-6.5" font-family="Helvetica,sans-Serif" font-size="10.00">operator=()</text>
<polygon fill="#666666" stroke="#666666" points="0,-151.5 0,-151.5 170,-151.5 170,-151.5 0,-151.5"/>
<polygon fill="#666666" stroke="#666666" points="0,-136.5 0,-136.5 170,-136.5 170,-136.5 0,-136.5"/>
<polygon fill="none" stroke="#666666" points="0,0 0,-169 170,-169 170,0 0,0"/>
</a>
</g>
</g>
</g>
</svg>
