<?xml version="1.0" encoding="UTF-8" standalone="no"?>
<!DOCTYPE svg PUBLIC "-//W3C//DTD SVG 1.1//EN"
 "http://www.w3.org/Graphics/SVG/1.1/DTD/svg11.dtd">
<!-- Generated by graphviz version 2.42.4 (0)
 -->
<!-- Title: gagent::Environnement::start Pages: 1 -->
<svg width="696pt" height="172pt"
 viewBox="0.00 0.00 696.00 171.50" xmlns="http://www.w3.org/2000/svg" xmlns:xlink="http://www.w3.org/1999/xlink">
<g id="graph0" class="graph" transform="scale(1 1) rotate(0) translate(4 167.5)">
<title>gagent::Environnement::start</title>
<!-- Node1 -->
<g id="Node000001" class="node">
<title>Node1</title>
<g id="a_Node000001"><a xlink:title=" ">
<polygon fill="#999999" stroke="#666666" points="131,-79.5 0,-79.5 0,-49.5 131,-49.5 131,-79.5"/>
<text text-anchor="start" x="8" y="-67.5" font-family="Helvetica,sans-Serif" font-size="10.00">gagent::Environnement</text>
<text text-anchor="middle" x="65.5" y="-56.5" font-family="Helvetica,sans-Serif" font-size="10.00">::start</text>
</a>
</g>
</g>
<!-- Node2 -->
<g id="Node000002" class="node">
<title>Node2</title>
<g id="a_Node000002"><a xlink:href="classgagent_1_1EnvironnementGui.html#a323f72c9a589c205ad5db2f3bc19999e" target="_top" xlink:title=" ">
<polygon fill="white" stroke="#666666" points="314,-103.5 167,-103.5 167,-73.5 314,-73.5 314,-103.5"/>
<text text-anchor="start" x="175" y="-91.5" font-family="Helvetica,sans-Serif" font-size="10.00">gagent::EnvironnementGui</text>
<text text-anchor="middle" x="240.5" y="-80.5" font-family="Helvetica,sans-Serif" font-size="10.00">::createWindow</text>
</a>
</g>
</g>
<!-- Node1&#45;&gt;Node2 -->
<g id="edge1_Node000001_Node000002" class="edge">
<title>Node1&#45;&gt;Node2</title>
<g id="a_edge1_Node000001_Node000002"><a xlink:title=" ">
<path fill="none" stroke="#63b8ff" d="M131.41,-73.5C139.75,-74.66 148.37,-75.86 156.95,-77.05"/>
<polygon fill="#63b8ff" stroke="#63b8ff" points="156.58,-80.53 166.97,-78.44 157.54,-73.6 156.58,-80.53"/>
</a>
</g>
</g>
<!-- Node10 -->
<g id="Node000010" class="node">
<title>Node10</title>
<g id="a_Node000010"><a xlink:href="classgagent_1_1EnvironnementGui.html#aad6732cc840a4babd06675ad1d0002bb" target="_top" xlink:title=" ">
<polygon fill="white" stroke="#666666" points="314,-55.5 167,-55.5 167,-25.5 314,-25.5 314,-55.5"/>
<text text-anchor="start" x="175" y="-43.5" font-family="Helvetica,sans-Serif" font-size="10.00">gagent::EnvironnementGui</text>
<text text-anchor="middle" x="240.5" y="-32.5" font-family="Helvetica,sans-Serif" font-size="10.00">::setEnvPtr</text>
</a>
</g>
</g>
<!-- Node1&#45;&gt;Node10 -->
<g id="edge9_Node000001_Node000010" class="edge">
<title>Node1&#45;&gt;Node10</title>
<g id="a_edge9_Node000001_Node000010"><a xlink:title=" ">
<path fill="none" stroke="#63b8ff" d="M131.41,-55.5C139.75,-54.34 148.37,-53.14 156.95,-51.95"/>
<polygon fill="#63b8ff" stroke="#63b8ff" points="157.54,-55.4 166.97,-50.56 156.58,-48.47 157.54,-55.4"/>
</a>
</g>
</g>
<!-- Node3 -->
<g id="Node000003" class="node">
<title>Node3</title>
<g id="a_Node000003"><a xlink:href="classgagent_1_1Environnement.html#a58c0f52451d4d32f0b256f12e9feda1b" target="_top" xlink:title=" ">
<polygon fill="white" stroke="#666666" points="495.5,-157.5 351.5,-157.5 351.5,-127.5 495.5,-127.5 495.5,-157.5"/>
<text text-anchor="start" x="359.5" y="-145.5" font-family="Helvetica,sans-Serif" font-size="10.00">gagent::Environnement</text>
<text text-anchor="middle" x="423.5" y="-134.5" font-family="Helvetica,sans-Serif" font-size="10.00">::readDataFromQueueMsg</text>
</a>
</g>
</g>
<!-- Node2&#45;&gt;Node3 -->
<g id="edge2_Node000002_Node000003" class="edge">
<title>Node2&#45;&gt;Node3</title>
<g id="a_edge2_Node000002_Node000003"><a xlink:title=" ">
<path fill="none" stroke="#63b8ff" d="M291.92,-103.54C313.79,-110.07 339.58,-117.76 362.44,-124.58"/>
<polygon fill="#63b8ff" stroke="#63b8ff" points="361.45,-127.94 372.04,-127.45 363.46,-121.23 361.45,-127.94"/>
</a>
</g>
</g>
<!-- Node5 -->
<g id="Node000005" class="node">
<title>Node5</title>
<g id="a_Node000005"><a xlink:href="classgagent_1_1EnvironnementGui.html#ab3aeb4fe7ab4bb5c76936270ac530770" target="_top" xlink:title=" ">
<polygon fill="white" stroke="#666666" points="497,-103.5 350,-103.5 350,-73.5 497,-73.5 497,-103.5"/>
<text text-anchor="start" x="358" y="-91.5" font-family="Helvetica,sans-Serif" font-size="10.00">gagent::EnvironnementGui</text>
<text text-anchor="middle" x="423.5" y="-80.5" font-family="Helvetica,sans-Serif" font-size="10.00">::refresh</text>
</a>
</g>
</g>
<!-- Node2&#45;&gt;Node5 -->
<g id="edge4_Node000002_Node000005" class="edge">
<title>Node2&#45;&gt;Node5</title>
<g id="a_edge4_Node000002_Node000005"><a xlink:title=" ">
<path fill="none" stroke="#63b8ff" d="M314.08,-88.5C322.56,-88.5 331.26,-88.5 339.87,-88.5"/>
<polygon fill="#63b8ff" stroke="#63b8ff" points="339.91,-92 349.91,-88.5 339.91,-85 339.91,-92"/>
</a>
</g>
</g>
<!-- Node8 -->
<g id="Node000008" class="node">
<title>Node8</title>
<g id="a_Node000008"><a xlink:href="classUi__guiWindow.html#a4124a0eacb71bce904d53f9b78555ae5" target="_top" xlink:title=" ">
<polygon fill="white" stroke="#666666" points="488,-43 359,-43 359,-24 488,-24 488,-43"/>
<text text-anchor="middle" x="423.5" y="-31" font-family="Helvetica,sans-Serif" font-size="10.00">Ui_guiWindow::setupUi</text>
</a>
</g>
</g>
<!-- Node2&#45;&gt;Node8 -->
<g id="edge7_Node000002_Node000008" class="edge">
<title>Node2&#45;&gt;Node8</title>
<g id="a_edge7_Node000002_Node000008"><a xlink:title=" ">
<path fill="none" stroke="#63b8ff" d="M290.96,-73.47C319.27,-64.87 354.37,-54.2 381.19,-46.05"/>
<polygon fill="#63b8ff" stroke="#63b8ff" points="382.49,-49.32 391.04,-43.06 380.45,-42.62 382.49,-49.32"/>
</a>
</g>
</g>
<!-- Node4 -->
<g id="Node000004" class="node">
<title>Node4</title>
<g id="a_Node000004"><a xlink:href="classgagent_1_1MessageParser.html#aaecfba940da1afa76f961efca4a59ca9" target="_top" xlink:title=" ">
<polygon fill="white" stroke="#666666" points="675.5,-163.5 545.5,-163.5 545.5,-133.5 675.5,-133.5 675.5,-163.5"/>
<text text-anchor="start" x="553.5" y="-151.5" font-family="Helvetica,sans-Serif" font-size="10.00">gagent::MessageParser</text>
<text text-anchor="middle" x="610.5" y="-140.5" font-family="Helvetica,sans-Serif" font-size="10.00">::parsekeyValSeq</text>
</a>
</g>
</g>
<!-- Node3&#45;&gt;Node4 -->
<g id="edge3_Node000003_Node000004" class="edge">
<title>Node3&#45;&gt;Node4</title>
<g id="a_edge3_Node000003_Node000004"><a xlink:title=" ">
<path fill="none" stroke="#63b8ff" d="M495.76,-144.81C508.61,-145.23 522.04,-145.66 534.98,-146.08"/>
<polygon fill="#63b8ff" stroke="#63b8ff" points="535.13,-149.59 545.23,-146.42 535.35,-142.59 535.13,-149.59"/>
</a>
</g>
</g>
<!-- Node6 -->
<g id="Node000006" class="node">
<title>Node6</title>
<g id="a_Node000006"><a xlink:href="classgagent_1_1Environnement.html#a4987d67f0e7ca80ec9b3aef47b437077" target="_top" xlink:title=" ">
<polygon fill="white" stroke="#666666" points="676,-115.5 545,-115.5 545,-85.5 676,-85.5 676,-115.5"/>
<text text-anchor="start" x="553" y="-103.5" font-family="Helvetica,sans-Serif" font-size="10.00">gagent::Environnement</text>
<text text-anchor="middle" x="610.5" y="-92.5" font-family="Helvetica,sans-Serif" font-size="10.00">::event_loop</text>
</a>
</g>
</g>
<!-- Node5&#45;&gt;Node6 -->
<g id="edge5_Node000005_Node000006" class="edge">
<title>Node5&#45;&gt;Node6</title>
<g id="a_edge5_Node000005_Node000006"><a xlink:title=" ">
<path fill="none" stroke="#63b8ff" d="M497.09,-93.21C509.42,-94.01 522.26,-94.84 534.65,-95.64"/>
<polygon fill="#63b8ff" stroke="#63b8ff" points="534.73,-99.16 544.94,-96.31 535.19,-92.17 534.73,-99.16"/>
</a>
</g>
</g>
<!-- Node7 -->
<g id="Node000007" class="node">
<title>Node7</title>
<g id="a_Node000007"><a xlink:href="classgagent_1_1Environnement.html#a8f5e75fdf25cc3bf7af50e26270000e8" target="_top" xlink:title=" ">
<polygon fill="white" stroke="#666666" points="676,-67.5 545,-67.5 545,-37.5 676,-37.5 676,-67.5"/>
<text text-anchor="start" x="553" y="-55.5" font-family="Helvetica,sans-Serif" font-size="10.00">gagent::Environnement</text>
<text text-anchor="middle" x="610.5" y="-44.5" font-family="Helvetica,sans-Serif" font-size="10.00">::make_agent</text>
</a>
</g>
</g>
<!-- Node5&#45;&gt;Node7 -->
<g id="edge6_Node000005_Node000007" class="edge">
<title>Node5&#45;&gt;Node7</title>
<g id="a_edge6_Node000005_Node000007"><a xlink:title=" ">
<path fill="none" stroke="#63b8ff" d="M497.09,-74.38C509.55,-71.95 522.51,-69.43 535.02,-66.99"/>
<polygon fill="#63b8ff" stroke="#63b8ff" points="535.79,-70.41 544.94,-65.06 534.45,-63.54 535.79,-70.41"/>
</a>
</g>
</g>
<!-- Node9 -->
<g id="Node000009" class="node">
<title>Node9</title>
<g id="a_Node000009"><a xlink:href="classUi__guiWindow.html#a30b67e126e4df6b05a626afb4c2665c2" target="_top" xlink:title=" ">
<polygon fill="white" stroke="#666666" points="688,-19 533,-19 533,0 688,0 688,-19"/>
<text text-anchor="middle" x="610.5" y="-7" font-family="Helvetica,sans-Serif" font-size="10.00">Ui_guiWindow::retranslateUi</text>
</a>
</g>
</g>
<!-- Node8&#45;&gt;Node9 -->
<g id="edge8_Node000008_Node000009" class="edge">
<title>Node8&#45;&gt;Node9</title>
<g id="a_edge8_Node000008_Node000009"><a xlink:title=" ">
<path fill="none" stroke="#63b8ff" d="M488.17,-25.24C500.37,-23.66 513.32,-21.98 526.04,-20.33"/>
<polygon fill="#63b8ff" stroke="#63b8ff" points="526.71,-23.77 536.18,-19.01 525.81,-16.83 526.71,-23.77"/>
</a>
</g>
</g>
</g>
</svg>
