<?xml version="1.0" encoding="UTF-8" standalone="no"?>
<!DOCTYPE svg PUBLIC "-//W3C//DTD SVG 1.1//EN"
 "http://www.w3.org/Graphics/SVG/1.1/DTD/svg11.dtd">
<!-- Generated by graphviz version 2.42.4 (0)
 -->
<!-- Title: gagent::Agent::listener_extern_signals_Thread Pages: 1 -->
<svg width="866pt" height="76pt"
 viewBox="0.00 0.00 866.00 75.50" xmlns="http://www.w3.org/2000/svg" xmlns:xlink="http://www.w3.org/1999/xlink">
<g id="graph0" class="graph" transform="scale(1 1) rotate(0) translate(4 71.5)">
<title>gagent::Agent::listener_extern_signals_Thread</title>
<!-- Node1 -->
<g id="Node000001" class="node">
<title>Node1</title>
<g id="a_Node000001"><a xlink:title=" ">
<polygon fill="#999999" stroke="#666666" points="132,-51 0,-51 0,-21 132,-21 132,-51"/>
<text text-anchor="start" x="8" y="-39" font-family="Helvetica,sans-Serif" font-size="10.00">gagent::Agent::listener</text>
<text text-anchor="middle" x="66" y="-28" font-family="Helvetica,sans-Serif" font-size="10.00">_extern_signals_Thread</text>
</a>
</g>
</g>
<!-- Node2 -->
<g id="Node000002" class="node">
<title>Node2</title>
<g id="a_Node000002"><a xlink:href="classgagent_1_1Agent.html#ab3d0f4d902242f0f0eefabb63fec9c4e" target="_top" xlink:title=" ">
<polygon fill="white" stroke="#666666" points="288,-51 168,-51 168,-21 288,-21 288,-51"/>
<text text-anchor="start" x="176" y="-39" font-family="Helvetica,sans-Serif" font-size="10.00">gagent::Agent::signal</text>
<text text-anchor="middle" x="228" y="-28" font-family="Helvetica,sans-Serif" font-size="10.00">_handler</text>
</a>
</g>
</g>
<!-- Node1&#45;&gt;Node2 -->
<g id="edge1_Node000001_Node000002" class="edge">
<title>Node1&#45;&gt;Node2</title>
<g id="a_edge1_Node000001_Node000002"><a xlink:title=" ">
<path fill="none" stroke="#63b8ff" d="M132.08,-36C140.5,-36 149.16,-36 157.65,-36"/>
<polygon fill="#63b8ff" stroke="#63b8ff" points="157.9,-39.5 167.9,-36 157.9,-32.5 157.9,-39.5"/>
</a>
</g>
</g>
<!-- Node3 -->
<g id="Node000003" class="node">
<title>Node3</title>
<g id="a_Node000003"><a xlink:href="classgagent_1_1Agent.html#a433c7a2f49fe92944f1567324cc8694f" target="_top" xlink:title=" ">
<polygon fill="white" stroke="#666666" points="458,-45.5 324,-45.5 324,-26.5 458,-26.5 458,-45.5"/>
<text text-anchor="middle" x="391" y="-33.5" font-family="Helvetica,sans-Serif" font-size="10.00">gagent::Agent::doAction</text>
</a>
</g>
</g>
<!-- Node2&#45;&gt;Node3 -->
<g id="edge2_Node000002_Node000003" class="edge">
<title>Node2&#45;&gt;Node3</title>
<g id="a_edge2_Node000002_Node000003"><a xlink:title=" ">
<path fill="none" stroke="#63b8ff" d="M288.04,-36C296.42,-36 305.14,-36 313.8,-36"/>
<polygon fill="#63b8ff" stroke="#63b8ff" points="313.9,-39.5 323.9,-36 313.9,-32.5 313.9,-39.5"/>
</a>
</g>
</g>
<!-- Node4 -->
<g id="Node000004" class="node">
<title>Node4</title>
<g id="a_Node000004"><a xlink:href="classgagent_1_1Agent.html#a75fe7cd3b9ae5ea318c0df53c189f429" target="_top" xlink:title=" ">
<polygon fill="white" stroke="#666666" points="666,-45.5 494,-45.5 494,-26.5 666,-26.5 666,-45.5"/>
<text text-anchor="middle" x="580" y="-33.5" font-family="Helvetica,sans-Serif" font-size="10.00">gagent::Agent::sendMsgMonitor</text>
</a>
</g>
</g>
<!-- Node3&#45;&gt;Node4 -->
<g id="edge3_Node000003_Node000004" class="edge">
<title>Node3&#45;&gt;Node4</title>
<g id="a_edge3_Node000003_Node000004"><a xlink:title=" ">
<path fill="none" stroke="#63b8ff" d="M458.19,-36C466.5,-36 475.12,-36 483.76,-36"/>
<polygon fill="#63b8ff" stroke="#63b8ff" points="483.9,-39.5 493.9,-36 483.9,-32.5 483.9,-39.5"/>
</a>
</g>
</g>
<!-- Node5 -->
<g id="Node000005" class="node">
<title>Node5</title>
<g id="a_Node000005"><a xlink:href="classgagent_1_1AgentID.html#ad7ae9a1a0cc27ee349da0c86d315b37f" target="_top" xlink:title=" ">
<polygon fill="white" stroke="#666666" points="858,-67.5 702,-67.5 702,-48.5 858,-48.5 858,-67.5"/>
<text text-anchor="middle" x="780" y="-55.5" font-family="Helvetica,sans-Serif" font-size="10.00">gagent::AgentID::getAgentID</text>
</a>
</g>
</g>
<!-- Node4&#45;&gt;Node5 -->
<g id="edge4_Node000004_Node000005" class="edge">
<title>Node4&#45;&gt;Node5</title>
<g id="a_edge4_Node000004_Node000005"><a xlink:title=" ">
<path fill="none" stroke="#63b8ff" d="M666.12,-45.46C674.63,-46.4 683.28,-47.36 691.82,-48.31"/>
<polygon fill="#63b8ff" stroke="#63b8ff" points="691.44,-51.79 701.77,-49.42 692.21,-44.84 691.44,-51.79"/>
</a>
</g>
</g>
<!-- Node6 -->
<g id="Node000006" class="node">
<title>Node6</title>
<g id="a_Node000006"><a xlink:href="classudp__client__server_1_1udp__client.html#ac296d1fb6a6006bec5f8f14a81367d0a" target="_top" xlink:title="Send a message through this UDP client.">
<polygon fill="white" stroke="#666666" points="834.5,-30 725.5,-30 725.5,0 834.5,0 834.5,-30"/>
<text text-anchor="start" x="733.5" y="-18" font-family="Helvetica,sans-Serif" font-size="10.00">udp_client_server::</text>
<text text-anchor="middle" x="780" y="-7" font-family="Helvetica,sans-Serif" font-size="10.00">udp_client::send</text>
</a>
</g>
</g>
<!-- Node4&#45;&gt;Node6 -->
<g id="edge5_Node000004_Node000006" class="edge">
<title>Node4&#45;&gt;Node6</title>
<g id="a_edge5_Node000004_Node000006"><a xlink:title=" ">
<path fill="none" stroke="#63b8ff" d="M666.12,-26.97C682.63,-25.22 699.66,-23.41 715.33,-21.75"/>
<polygon fill="#63b8ff" stroke="#63b8ff" points="715.84,-25.22 725.42,-20.68 715.1,-18.26 715.84,-25.22"/>
</a>
</g>
</g>
</g>
</svg>
