<?xml version="1.0" encoding="UTF-8" standalone="no"?>
<!DOCTYPE svg PUBLIC "-//W3C//DTD SVG 1.1//EN"
 "http://www.w3.org/Graphics/SVG/1.1/DTD/svg11.dtd">
<!-- Generated by graphviz version 2.42.4 (0)
 -->
<!-- Title: gagent::WakerBehaviour Pages: 1 -->
<svg width="142pt" height="527pt"
 viewBox="0.00 0.00 142.00 527.00" xmlns="http://www.w3.org/2000/svg" xmlns:xlink="http://www.w3.org/1999/xlink">
<g id="graph0" class="graph" transform="scale(1 1) rotate(0) translate(4 523)">
<title>gagent::WakerBehaviour</title>
<!-- Node1 -->
<g id="Node000001" class="node">
<title>Node1</title>
<g id="a_Node000001"><a xlink:title=" ">
<polygon fill="#999999" stroke="transparent" points="132,-124 2,-124 2,0 132,0 132,-124"/>
<text text-anchor="start" x="7" y="-112" font-family="Helvetica,sans-Serif" font-size="10.00">gagent::WakerBehaviour</text>
<text text-anchor="start" x="65" y="-97" font-family="Helvetica,sans-Serif" font-size="10.00"> </text>
<text text-anchor="start" x="9" y="-82" font-family="Helvetica,sans-Serif" font-size="10.00">+</text>
<text text-anchor="start" x="25" y="-82" font-family="Helvetica,sans-Serif" font-size="10.00">WakerBehaviour()</text>
<text text-anchor="start" x="9" y="-67" font-family="Helvetica,sans-Serif" font-size="10.00">+</text>
<text text-anchor="start" x="25" y="-67" font-family="Helvetica,sans-Serif" font-size="10.00">WakerBehaviour()</text>
<text text-anchor="start" x="9" y="-52" font-family="Helvetica,sans-Serif" font-size="10.00">+</text>
<text text-anchor="start" x="25" y="-52" font-family="Helvetica,sans-Serif" font-size="10.00">action()</text>
<text text-anchor="start" x="9" y="-37" font-family="Helvetica,sans-Serif" font-size="10.00">+</text>
<text text-anchor="start" x="25" y="-37" font-family="Helvetica,sans-Serif" font-size="10.00">done()</text>
<text text-anchor="start" x="9" y="-22" font-family="Helvetica,sans-Serif" font-size="10.00">+</text>
<text text-anchor="start" x="25" y="-22" font-family="Helvetica,sans-Serif" font-size="10.00">onWake()</text>
<text text-anchor="start" x="9" y="-7" font-family="Helvetica,sans-Serif" font-size="10.00">+</text>
<text text-anchor="start" x="25" y="-7" font-family="Helvetica,sans-Serif" font-size="10.00">~WakerBehaviour()</text>
<polygon fill="#666666" stroke="#666666" points="2,-107 2,-107 132,-107 132,-107 2,-107"/>
<polygon fill="#666666" stroke="#666666" points="2,-92 2,-92 132,-92 132,-92 2,-92"/>
<polygon fill="none" stroke="#666666" points="2,0 2,-124 132,-124 132,0 2,0"/>
</a>
</g>
</g>
<!-- Node2 -->
<g id="Node000002" class="node">
<title>Node2</title>
<g id="a_Node000002"><a xlink:href="classgagent_1_1SimpleBehaviour.html" target="_top" xlink:title=" ">
<polygon fill="white" stroke="transparent" points="134,-239 0,-239 0,-160 134,-160 134,-239"/>
<text text-anchor="start" x="5" y="-226.5" font-family="Helvetica,sans-Serif" font-size="10.00">gagent::SimpleBehaviour</text>
<text text-anchor="start" x="7" y="-211.5" font-family="Helvetica,sans-Serif" font-size="10.00">+</text>
<text text-anchor="start" x="23" y="-211.5" font-family="Helvetica,sans-Serif" font-size="10.00">thisAgent</text>
<text text-anchor="start" x="7" y="-196.5" font-family="Helvetica,sans-Serif" font-size="10.00">+</text>
<text text-anchor="start" x="23" y="-196.5" font-family="Helvetica,sans-Serif" font-size="10.00">SimpleBehaviour()</text>
<text text-anchor="start" x="7" y="-181.5" font-family="Helvetica,sans-Serif" font-size="10.00">+</text>
<text text-anchor="start" x="23" y="-181.5" font-family="Helvetica,sans-Serif" font-size="10.00">SimpleBehaviour()</text>
<text text-anchor="start" x="7" y="-166.5" font-family="Helvetica,sans-Serif" font-size="10.00">+</text>
<text text-anchor="start" x="23" y="-166.5" font-family="Helvetica,sans-Serif" font-size="10.00">~SimpleBehaviour()</text>
<polygon fill="#666666" stroke="#666666" points="0,-221.5 0,-221.5 134,-221.5 134,-221.5 0,-221.5"/>
<polygon fill="#666666" stroke="#666666" points="0,-206.5 0,-206.5 21,-206.5 21,-206.5 0,-206.5"/>
<polygon fill="#666666" stroke="#666666" points="21,-206.5 21,-206.5 134,-206.5 134,-206.5 21,-206.5"/>
<polygon fill="none" stroke="#666666" points="0,-160 0,-239 134,-239 134,-160 0,-160"/>
</a>
</g>
</g>
<!-- Node2&#45;&gt;Node1 -->
<g id="edge1_Node000001_Node000002" class="edge">
<title>Node2&#45;&gt;Node1</title>
<g id="a_edge1_Node000001_Node000002"><a xlink:title=" ">
<path fill="none" stroke="#63b8ff" d="M67,-149.48C67,-141.24 67,-132.59 67,-124.09"/>
<polygon fill="none" stroke="#63b8ff" points="63.5,-149.67 67,-159.67 70.5,-149.67 63.5,-149.67"/>
</a>
</g>
</g>
<!-- Node3 -->
<g id="Node000003" class="node">
<title>Node3</title>
<g id="a_Node000003"><a xlink:href="classgagent_1_1Behaviour.html" target="_top" xlink:title=" ">
<polygon fill="white" stroke="transparent" points="117,-519 17,-519 17,-275 117,-275 117,-519"/>
<text text-anchor="start" x="22" y="-507" font-family="Helvetica,sans-Serif" font-size="10.00">gagent::Behaviour</text>
<text text-anchor="start" x="24" y="-492" font-family="Helvetica,sans-Serif" font-size="10.00">+</text>
<text text-anchor="start" x="40" y="-492" font-family="Helvetica,sans-Serif" font-size="10.00">this_agent</text>
<text text-anchor="start" x="24" y="-477" font-family="Helvetica,sans-Serif" font-size="10.00">+</text>
<text text-anchor="start" x="40" y="-477" font-family="Helvetica,sans-Serif" font-size="10.00">Behaviour()</text>
<text text-anchor="start" x="24" y="-462" font-family="Helvetica,sans-Serif" font-size="10.00">+</text>
<text text-anchor="start" x="40" y="-462" font-family="Helvetica,sans-Serif" font-size="10.00">Behaviour()</text>
<text text-anchor="start" x="24" y="-447" font-family="Helvetica,sans-Serif" font-size="10.00">+</text>
<text text-anchor="start" x="40" y="-447" font-family="Helvetica,sans-Serif" font-size="10.00">action()</text>
<text text-anchor="start" x="24" y="-432" font-family="Helvetica,sans-Serif" font-size="10.00">+</text>
<text text-anchor="start" x="40" y="-432" font-family="Helvetica,sans-Serif" font-size="10.00">done()</text>
<text text-anchor="start" x="24" y="-417" font-family="Helvetica,sans-Serif" font-size="10.00">+</text>
<text text-anchor="start" x="40" y="-417" font-family="Helvetica,sans-Serif" font-size="10.00">onStart()</text>
<text text-anchor="start" x="24" y="-402" font-family="Helvetica,sans-Serif" font-size="10.00">+</text>
<text text-anchor="start" x="40" y="-402" font-family="Helvetica,sans-Serif" font-size="10.00">onEnd()</text>
<text text-anchor="start" x="24" y="-387" font-family="Helvetica,sans-Serif" font-size="10.00">+</text>
<text text-anchor="start" x="40" y="-387" font-family="Helvetica,sans-Serif" font-size="10.00">doDelete()</text>
<text text-anchor="start" x="24" y="-372" font-family="Helvetica,sans-Serif" font-size="10.00">+</text>
<text text-anchor="start" x="40" y="-372" font-family="Helvetica,sans-Serif" font-size="10.00">doActivate()</text>
<text text-anchor="start" x="24" y="-357" font-family="Helvetica,sans-Serif" font-size="10.00">+</text>
<text text-anchor="start" x="40" y="-357" font-family="Helvetica,sans-Serif" font-size="10.00">doSuspend()</text>
<text text-anchor="start" x="24" y="-342" font-family="Helvetica,sans-Serif" font-size="10.00">+</text>
<text text-anchor="start" x="40" y="-342" font-family="Helvetica,sans-Serif" font-size="10.00">doWait()</text>
<text text-anchor="start" x="24" y="-327" font-family="Helvetica,sans-Serif" font-size="10.00">+</text>
<text text-anchor="start" x="40" y="-327" font-family="Helvetica,sans-Serif" font-size="10.00">doWake()</text>
<text text-anchor="start" x="24" y="-312" font-family="Helvetica,sans-Serif" font-size="10.00">+</text>
<text text-anchor="start" x="40" y="-312" font-family="Helvetica,sans-Serif" font-size="10.00">doMove()</text>
<text text-anchor="start" x="24" y="-297" font-family="Helvetica,sans-Serif" font-size="10.00">+</text>
<text text-anchor="start" x="40" y="-297" font-family="Helvetica,sans-Serif" font-size="10.00">doAction()</text>
<text text-anchor="start" x="24" y="-282" font-family="Helvetica,sans-Serif" font-size="10.00">+</text>
<text text-anchor="start" x="40" y="-282" font-family="Helvetica,sans-Serif" font-size="10.00">~Behaviour()</text>
<polygon fill="#666666" stroke="#666666" points="17,-502 17,-502 117,-502 117,-502 17,-502"/>
<polygon fill="#666666" stroke="#666666" points="17,-487 17,-487 38,-487 38,-487 17,-487"/>
<polygon fill="#666666" stroke="#666666" points="38,-487 38,-487 117,-487 117,-487 38,-487"/>
<polygon fill="none" stroke="#666666" points="17,-275 17,-519 117,-519 117,-275 17,-275"/>
</a>
</g>
</g>
<!-- Node3&#45;&gt;Node2 -->
<g id="edge2_Node000002_Node000003" class="edge">
<title>Node3&#45;&gt;Node2</title>
<g id="a_edge2_Node000002_Node000003"><a xlink:title=" ">
<path fill="none" stroke="#63b8ff" d="M67,-264.9C67,-255.76 67,-247.06 67,-239.19"/>
<polygon fill="none" stroke="#63b8ff" points="63.5,-264.97 67,-274.97 70.5,-264.97 63.5,-264.97"/>
</a>
</g>
</g>
</g>
</svg>
