<?xml version="1.0" encoding="UTF-8" standalone="no"?>
<!DOCTYPE svg PUBLIC "-//W3C//DTD SVG 1.1//EN"
 "http://www.w3.org/Graphics/SVG/1.1/DTD/svg11.dtd">
<!-- Generated by graphviz version 2.42.4 (0)
 -->
<!-- Title: gagent::Agent::control_Thread Pages: 1 -->
<svg width="501pt" height="38pt"
 viewBox="0.00 0.00 501.00 38.00" xmlns="http://www.w3.org/2000/svg" xmlns:xlink="http://www.w3.org/1999/xlink">
<g id="graph0" class="graph" transform="scale(1 1) rotate(0) translate(4 34)">
<title>gagent::Agent::control_Thread</title>
<!-- Node1 -->
<g id="Node000001" class="node">
<title>Node1</title>
<g id="a_Node000001"><a xlink:title=" ">
<polygon fill="#999999" stroke="#666666" points="493,-30 368,-30 368,0 493,0 493,-30"/>
<text text-anchor="start" x="376" y="-18" font-family="Helvetica,sans-Serif" font-size="10.00">gagent::Agent::control</text>
<text text-anchor="middle" x="430.5" y="-7" font-family="Helvetica,sans-Serif" font-size="10.00">_Thread</text>
</a>
</g>
</g>
<!-- Node2 -->
<g id="Node000002" class="node">
<title>Node2</title>
<g id="a_Node000002"><a xlink:href="classgagent_1_1Agent.html#a728b51ac6e84ec38ce712ff30157d796" target="_top" xlink:title=" ">
<polygon fill="white" stroke="#666666" points="332,-24.5 220,-24.5 220,-5.5 332,-5.5 332,-24.5"/>
<text text-anchor="middle" x="276" y="-12.5" font-family="Helvetica,sans-Serif" font-size="10.00">gagent::Agent::_init</text>
</a>
</g>
</g>
<!-- Node1&#45;&gt;Node2 -->
<g id="edge1_Node000001_Node000002" class="edge">
<title>Node1&#45;&gt;Node2</title>
<g id="a_edge1_Node000001_Node000002"><a xlink:title=" ">
<path fill="none" stroke="#63b8ff" d="M357.64,-15C349.17,-15 340.62,-15 332.42,-15"/>
<polygon fill="#63b8ff" stroke="#63b8ff" points="357.91,-18.5 367.91,-15 357.91,-11.5 357.91,-18.5"/>
</a>
</g>
</g>
<!-- Node3 -->
<g id="Node000003" class="node">
<title>Node3</title>
<g id="a_Node000003"><a xlink:href="classgagent_1_1Agent.html#a473782cdf920c887f8d4e0fca7dfc0b7" target="_top" xlink:title=" ">
<polygon fill="white" stroke="#666666" points="184,-24.5 77,-24.5 77,-5.5 184,-5.5 184,-24.5"/>
<text text-anchor="middle" x="130.5" y="-12.5" font-family="Helvetica,sans-Serif" font-size="10.00">gagent::Agent::init</text>
</a>
</g>
</g>
<!-- Node2&#45;&gt;Node3 -->
<g id="edge2_Node000002_Node000003" class="edge">
<title>Node2&#45;&gt;Node3</title>
<g id="a_edge2_Node000002_Node000003"><a xlink:title=" ">
<path fill="none" stroke="#63b8ff" d="M209.66,-15C201.17,-15 192.55,-15 184.3,-15"/>
<polygon fill="#63b8ff" stroke="#63b8ff" points="209.93,-18.5 219.93,-15 209.93,-11.5 209.93,-18.5"/>
</a>
</g>
</g>
<!-- Node4 -->
<g id="Node000004" class="node">
<title>Node4</title>
<g id="a_Node000004"><a xlink:href="main_8cpp.html#ae66f6b31b5ad750f1fe042a706a4e3d4" target="_top" xlink:title=" ">
<polygon fill="white" stroke="#666666" points="41,-24.5 0,-24.5 0,-5.5 41,-5.5 41,-24.5"/>
<text text-anchor="middle" x="20.5" y="-12.5" font-family="Helvetica,sans-Serif" font-size="10.00">main</text>
</a>
</g>
</g>
<!-- Node3&#45;&gt;Node4 -->
<g id="edge3_Node000003_Node000004" class="edge">
<title>Node3&#45;&gt;Node4</title>
<g id="a_edge3_Node000003_Node000004"><a xlink:title=" ">
<path fill="none" stroke="#63b8ff" d="M66.64,-15C57.4,-15 48.5,-15 41.09,-15"/>
<polygon fill="#63b8ff" stroke="#63b8ff" points="66.77,-18.5 76.77,-15 66.77,-11.5 66.77,-18.5"/>
</a>
</g>
</g>
</g>
</svg>
