<?xml version="1.0" encoding="UTF-8" standalone="no"?>
<!DOCTYPE svg PUBLIC "-//W3C//DTD SVG 1.1//EN"
 "http://www.w3.org/Graphics/SVG/1.1/DTD/svg11.dtd">
<!-- Generated by graphviz version 2.42.4 (0)
 -->
<!-- Title: gagent::EnvironnementGui::refresh Pages: 1 -->
<svg width="322pt" height="86pt"
 viewBox="0.00 0.00 322.00 86.00" xmlns="http://www.w3.org/2000/svg" xmlns:xlink="http://www.w3.org/1999/xlink">
<g id="graph0" class="graph" transform="scale(1 1) rotate(0) translate(4 82)">
<title>gagent::EnvironnementGui::refresh</title>
<!-- Node1 -->
<g id="Node000001" class="node">
<title>Node1</title>
<g id="a_Node000001"><a xlink:title=" ">
<polygon fill="#999999" stroke="#666666" points="147,-54 0,-54 0,-24 147,-24 147,-54"/>
<text text-anchor="start" x="8" y="-42" font-family="Helvetica,sans-Serif" font-size="10.00">gagent::EnvironnementGui</text>
<text text-anchor="middle" x="73.5" y="-31" font-family="Helvetica,sans-Serif" font-size="10.00">::refresh</text>
</a>
</g>
</g>
<!-- Node2 -->
<g id="Node000002" class="node">
<title>Node2</title>
<g id="a_Node000002"><a xlink:href="classgagent_1_1Environnement.html#a4987d67f0e7ca80ec9b3aef47b437077" target="_top" xlink:title=" ">
<polygon fill="white" stroke="#666666" points="314,-78 183,-78 183,-48 314,-48 314,-78"/>
<text text-anchor="start" x="191" y="-66" font-family="Helvetica,sans-Serif" font-size="10.00">gagent::Environnement</text>
<text text-anchor="middle" x="248.5" y="-55" font-family="Helvetica,sans-Serif" font-size="10.00">::event_loop</text>
</a>
</g>
</g>
<!-- Node1&#45;&gt;Node2 -->
<g id="edge1_Node000001_Node000002" class="edge">
<title>Node1&#45;&gt;Node2</title>
<g id="a_edge1_Node000001_Node000002"><a xlink:title=" ">
<path fill="none" stroke="#63b8ff" d="M147.12,-49.07C155.62,-50.25 164.31,-51.46 172.85,-52.64"/>
<polygon fill="#63b8ff" stroke="#63b8ff" points="172.39,-56.11 182.77,-54.02 173.35,-49.18 172.39,-56.11"/>
</a>
</g>
</g>
<!-- Node3 -->
<g id="Node000003" class="node">
<title>Node3</title>
<g id="a_Node000003"><a xlink:href="classgagent_1_1Environnement.html#a8f5e75fdf25cc3bf7af50e26270000e8" target="_top" xlink:title=" ">
<polygon fill="white" stroke="#666666" points="314,-30 183,-30 183,0 314,0 314,-30"/>
<text text-anchor="start" x="191" y="-18" font-family="Helvetica,sans-Serif" font-size="10.00">gagent::Environnement</text>
<text text-anchor="middle" x="248.5" y="-7" font-family="Helvetica,sans-Serif" font-size="10.00">::make_agent</text>
</a>
</g>
</g>
<!-- Node1&#45;&gt;Node3 -->
<g id="edge2_Node000001_Node000003" class="edge">
<title>Node1&#45;&gt;Node3</title>
<g id="a_edge2_Node000001_Node000003"><a xlink:title=" ">
<path fill="none" stroke="#63b8ff" d="M147.12,-28.93C155.62,-27.75 164.31,-26.54 172.85,-25.36"/>
<polygon fill="#63b8ff" stroke="#63b8ff" points="173.35,-28.82 182.77,-23.98 172.39,-21.89 173.35,-28.82"/>
</a>
</g>
</g>
</g>
</svg>
