<?xml version="1.0" encoding="UTF-8" standalone="no"?>
<!DOCTYPE svg PUBLIC "-//W3C//DTD SVG 1.1//EN"
 "http://www.w3.org/Graphics/SVG/1.1/DTD/svg11.dtd">
<!-- Generated by graphviz version 2.42.4 (0)
 -->
<!-- Title: src_agent/ErrorHandler.hpp Pages: 1 -->
<svg width="571pt" height="137pt"
 viewBox="0.00 0.00 570.50 137.00" xmlns="http://www.w3.org/2000/svg" xmlns:xlink="http://www.w3.org/1999/xlink">
<g id="graph0" class="graph" transform="scale(1 1) rotate(0) translate(4 133)">
<title>src_agent/ErrorHandler.hpp</title>
<!-- Node1 -->
<g id="Node000001" class="node">
<title>Node1</title>
<g id="a_Node000001"><a xlink:title="Centralized error handling for gAgent platform.">
<polygon fill="#999999" stroke="#666666" points="367,-129 218,-129 218,-110 367,-110 367,-129"/>
<text text-anchor="middle" x="292.5" y="-117" font-family="Helvetica,sans-Serif" font-size="10.00">src_agent/ErrorHandler.hpp</text>
</a>
</g>
</g>
<!-- Node2 -->
<g id="Node000002" class="node">
<title>Node2</title>
<g id="a_Node000002"><a xlink:href="BehaviourFactory_8hpp.html" target="_top" xlink:title="Factory pattern for creating Behaviour instances.">
<polygon fill="white" stroke="#666666" points="171,-74 0,-74 0,-55 171,-55 171,-74"/>
<text text-anchor="middle" x="85.5" y="-62" font-family="Helvetica,sans-Serif" font-size="10.00">src_agent/BehaviourFactory.hpp</text>
</a>
</g>
</g>
<!-- Node1&#45;&gt;Node2 -->
<g id="edge1_Node000001_Node000002" class="edge">
<title>Node1&#45;&gt;Node2</title>
<g id="a_edge1_Node000001_Node000002"><a xlink:title=" ">
<path fill="none" stroke="#63b8ff" d="M249.29,-107.44C210.54,-97.52 154.47,-83.16 119.02,-74.08"/>
<polygon fill="#63b8ff" stroke="#63b8ff" points="248.69,-110.89 259.24,-109.98 250.42,-104.11 248.69,-110.89"/>
</a>
</g>
</g>
<!-- Node3 -->
<g id="Node000003" class="node">
<title>Node3</title>
<g id="a_Node000003"><a xlink:href="CommunicationManager_8hpp.html" target="_top" xlink:title="Manages different communication protocols (UDP, CORBA, Message Queues)">
<polygon fill="white" stroke="#666666" points="396,-74 189,-74 189,-55 396,-55 396,-74"/>
<text text-anchor="middle" x="292.5" y="-62" font-family="Helvetica,sans-Serif" font-size="10.00">src_agent/CommunicationManager.hpp</text>
</a>
</g>
</g>
<!-- Node1&#45;&gt;Node3 -->
<g id="edge2_Node000001_Node000003" class="edge">
<title>Node1&#45;&gt;Node3</title>
<g id="a_edge2_Node000001_Node000003"><a xlink:title=" ">
<path fill="none" stroke="#63b8ff" d="M292.5,-99.66C292.5,-90.93 292.5,-80.99 292.5,-74.09"/>
<polygon fill="#63b8ff" stroke="#63b8ff" points="289,-99.75 292.5,-109.75 296,-99.75 289,-99.75"/>
</a>
</g>
</g>
<!-- Node5 -->
<g id="Node000005" class="node">
<title>Node5</title>
<g id="a_Node000005"><a xlink:href="ErrorHandler_8cpp.html" target="_top" xlink:title="Implementation of error handling utilities.">
<polygon fill="white" stroke="#666666" points="562.5,-74 414.5,-74 414.5,-55 562.5,-55 562.5,-74"/>
<text text-anchor="middle" x="488.5" y="-62" font-family="Helvetica,sans-Serif" font-size="10.00">src_agent/ErrorHandler.cpp</text>
</a>
</g>
</g>
<!-- Node1&#45;&gt;Node5 -->
<g id="edge4_Node000001_Node000005" class="edge">
<title>Node1&#45;&gt;Node5</title>
<g id="a_edge4_Node000001_Node000005"><a xlink:title=" ">
<path fill="none" stroke="#63b8ff" d="M333.88,-107.31C370.55,-97.39 423.33,-83.12 456.76,-74.08"/>
<polygon fill="#63b8ff" stroke="#63b8ff" points="332.73,-104 323.99,-109.98 334.56,-110.75 332.73,-104"/>
</a>
</g>
</g>
<!-- Node4 -->
<g id="Node000004" class="node">
<title>Node4</title>
<g id="a_Node000004"><a xlink:href="CommunicationManager_8cpp.html" target="_top" xlink:title="Implementation of communication manager.">
<polygon fill="white" stroke="#666666" points="395.5,-19 189.5,-19 189.5,0 395.5,0 395.5,-19"/>
<text text-anchor="middle" x="292.5" y="-7" font-family="Helvetica,sans-Serif" font-size="10.00">src_agent/CommunicationManager.cpp</text>
</a>
</g>
</g>
<!-- Node3&#45;&gt;Node4 -->
<g id="edge3_Node000003_Node000004" class="edge">
<title>Node3&#45;&gt;Node4</title>
<g id="a_edge3_Node000003_Node000004"><a xlink:title=" ">
<path fill="none" stroke="#63b8ff" d="M292.5,-44.66C292.5,-35.93 292.5,-25.99 292.5,-19.09"/>
<polygon fill="#63b8ff" stroke="#63b8ff" points="289,-44.75 292.5,-54.75 296,-44.75 289,-44.75"/>
</a>
</g>
</g>
</g>
</svg>
