<?xml version="1.0" encoding="UTF-8" standalone="no"?>
<!DOCTYPE svg PUBLIC "-//W3C//DTD SVG 1.1//EN"
 "http://www.w3.org/Graphics/SVG/1.1/DTD/svg11.dtd">
<!-- Generated by graphviz version 2.42.4 (0)
 -->
<!-- Title: Graphical Class Hierarchy Pages: 1 -->
<svg width="348pt" height="101pt"
 viewBox="0.00 0.00 348.00 101.00" xmlns="http://www.w3.org/2000/svg" xmlns:xlink="http://www.w3.org/1999/xlink">
<g id="graph0" class="graph" transform="scale(1 1) rotate(0) translate(4 97)">
<title>Graphical Class Hierarchy</title>
<!-- Node0 -->
<g id="Node000000" class="node">
<title>Node0</title>
<g id="a_Node000000"><a xlink:href="classgagent_1_1CommunicationChannel.html" target="_top" xlink:title="Abstract base for communication channels.">
<polygon fill="white" stroke="#666666" points="173,-56 0,-56 0,-37 173,-37 173,-56"/>
<text text-anchor="middle" x="86.5" y="-44" font-family="Helvetica,sans-Serif" font-size="10.00">gagent::CommunicationChannel</text>
</a>
</g>
</g>
<!-- Node1 -->
<g id="Node000001" class="node">
<title>Node1</title>
<g id="a_Node000001"><a xlink:href="classgagent_1_1CORBAChannel.html" target="_top" xlink:title="CORBA communication channel.">
<polygon fill="white" stroke="#666666" points="340,-93 209,-93 209,-74 340,-74 340,-93"/>
<text text-anchor="middle" x="274.5" y="-81" font-family="Helvetica,sans-Serif" font-size="10.00">gagent::CORBAChannel</text>
</a>
</g>
</g>
<!-- Node0&#45;&gt;Node1 -->
<g id="edge9_Node000000_Node000001" class="edge">
<title>Node0&#45;&gt;Node1</title>
<g id="a_edge9_Node000000_Node000001"><a xlink:title=" ">
<path fill="none" stroke="#63b8ff" d="M145.39,-58.02C171.1,-63.13 200.99,-69.08 225.44,-73.94"/>
<polygon fill="#63b8ff" stroke="#63b8ff" points="145.89,-54.55 135.4,-56.03 144.52,-61.41 145.89,-54.55"/>
</a>
</g>
</g>
<!-- Node2 -->
<g id="Node000002" class="node">
<title>Node2</title>
<g id="a_Node000002"><a xlink:href="classgagent_1_1MQChannel.html" target="_top" xlink:title="Message Queue communication channel.">
<polygon fill="white" stroke="#666666" points="331,-56 218,-56 218,-37 331,-37 331,-56"/>
<text text-anchor="middle" x="274.5" y="-44" font-family="Helvetica,sans-Serif" font-size="10.00">gagent::MQChannel</text>
</a>
</g>
</g>
<!-- Node0&#45;&gt;Node2 -->
<g id="edge10_Node000000_Node000002" class="edge">
<title>Node0&#45;&gt;Node2</title>
<g id="a_edge10_Node000000_Node000002"><a xlink:title=" ">
<path fill="none" stroke="#63b8ff" d="M183.48,-46.5C195.23,-46.5 206.92,-46.5 217.79,-46.5"/>
<polygon fill="#63b8ff" stroke="#63b8ff" points="183.15,-43 173.15,-46.5 183.15,-50 183.15,-43"/>
</a>
</g>
</g>
<!-- Node3 -->
<g id="Node000003" class="node">
<title>Node3</title>
<g id="a_Node000003"><a xlink:href="classgagent_1_1UDPChannel.html" target="_top" xlink:title="UDP communication channel.">
<polygon fill="white" stroke="#666666" points="333,-19 216,-19 216,0 333,0 333,-19"/>
<text text-anchor="middle" x="274.5" y="-7" font-family="Helvetica,sans-Serif" font-size="10.00">gagent::UDPChannel</text>
</a>
</g>
</g>
<!-- Node0&#45;&gt;Node3 -->
<g id="edge11_Node000000_Node000003" class="edge">
<title>Node0&#45;&gt;Node3</title>
<g id="a_edge11_Node000000_Node000003"><a xlink:title=" ">
<path fill="none" stroke="#63b8ff" d="M145.39,-34.98C171.1,-29.87 200.99,-23.92 225.44,-19.06"/>
<polygon fill="#63b8ff" stroke="#63b8ff" points="144.52,-31.59 135.4,-36.97 145.89,-38.45 144.52,-31.59"/>
</a>
</g>
</g>
</g>
</svg>
