<?xml version="1.0" encoding="UTF-8" standalone="no"?>
<!DOCTYPE svg PUBLIC "-//W3C//DTD SVG 1.1//EN"
 "http://www.w3.org/Graphics/SVG/1.1/DTD/svg11.dtd">
<!-- Generated by graphviz version 2.42.4 (0)
 -->
<!-- Title: src_agent/Behaviour.hpp Pages: 1 -->
<!--zoomable 192 -->

<svg id="main" version="1.1" xmlns="http://www.w3.org/2000/svg" xmlns:xlink="http://www.w3.org/1999/xlink" xml:space="preserve" onload="init(evt)">
<style type="text/css"><![CDATA[
.node, .edge {opacity: 0.7;}
.node.selected, .edge.selected {opacity: 1;}
.edge:hover path { stroke: red; }
.edge:hover polygon { stroke: red; fill: red; }
]]></style>

<defs>
  <circle id="rim" cx="0" cy="0" r="7"/>
  <circle id="rim2" cx="0" cy="0" r="3.5"/>
  <g id="zoomPlus">
    <use xlink:href="#rim" fill="#404040"><set attributeName="fill" to="#808080" begin="zoomplus.mouseover" end="zoomplus.mouseout"/></use>
    <path d="M-4,0h8M0,-4v8" fill="none" stroke="white" stroke-width="1.5" pointer-events="none"/>
  </g>
  <g id="zoomMin">
    <use xlink:href="#rim" fill="#404040"><set attributeName="fill" to="#808080" begin="zoomminus.mouseover" end="zoomminus.mouseout"/></use>
    <path d="M-4,0h8" fill="none" stroke="white" stroke-width="1.5" pointer-events="none"/>
  </g>
  <g id="arrowUp" transform="translate(30 24)">
    <use xlink:href="#rim"/>
    <path pointer-events="none" fill="none" stroke="white" stroke-width="1.5" d="M0,-3.0v7 M-2.5,-0.5L0,-3.0L2.5,-0.5"/>
  </g>
  <g id="arrowRight" transform="rotate(90) translate(36 -43)">
    <use xlink:href="#rim"/>
    <path pointer-events="none" fill="none" stroke="white" stroke-width="1.5" d="M0,-3.0v7 M-2.5,-0.5L0,-3.0L2.5,-0.5"/>
  </g>
  <g id="arrowDown" transform="rotate(180) translate(-30 -48)">
    <use xlink:href="#rim"/>
    <path pointer-events="none" fill="none" stroke="white" stroke-width="1.5" d="M0,-3.0v7 M-2.5,-0.5L0,-3.0L2.5,-0.5"/>
  </g>
  <g id="arrowLeft" transform="rotate(270) translate(-36 17)">
    <use xlink:href="#rim"/>
    <path pointer-events="none" fill="none" stroke="white" stroke-width="1.5" d="M0,-3.0v7 M-2.5,-0.5L0,-3.0L2.5,-0.5"/>
  </g>
  <g id="resetDef">
    <use xlink:href="#rim2" fill="#404040"><set attributeName="fill" to="#808080" begin="reset.mouseover" end="reset.mouseout"/></use>
  </g>
</defs>
<script type="application/ecmascript">
var viewWidth = 680;
var viewHeight = 192;
var sectionId = 'dynsection-1';
</script>
<script type="application/ecmascript" xlink:href="svg.min.js"/>
<svg id="graph" class="graph">
<g id="viewport">
<title>src_agent/Behaviour.hpp</title>
<!-- Node1 -->
<g id="Node000001" class="node">
<title>Node1</title>
<g id="a_Node000001"><a xlink:title=" ">
<polygon fill="#999999" stroke="#666666" points="386.5,-184 249.5,-184 249.5,-165 386.5,-165 386.5,-184"/>
<text text-anchor="middle" x="318" y="-172" font-family="Helvetica,sans-Serif" font-size="10.00">src_agent/Behaviour.hpp</text>
</a>
</g>
</g>
<!-- Node2 -->
<g id="Node000002" class="node">
<title>Node2</title>
<g id="a_Node000002"><a xlink:href="Agent_8hpp.html" target="_top" xlink:title=" ">
<polygon fill="white" stroke="#666666" points="290,-129 174,-129 174,-110 290,-110 290,-129"/>
<text text-anchor="middle" x="232" y="-117" font-family="Helvetica,sans-Serif" font-size="10.00">src_agent/Agent.hpp</text>
</a>
</g>
</g>
<!-- Node1&#45;&gt;Node2 -->
<g id="edge1_Node000001_Node000002" class="edge">
<title>Node1&#45;&gt;Node2</title>
<g id="a_edge1_Node000001_Node000002"><a xlink:title=" ">
<path fill="none" stroke="#63b8ff" d="M290.06,-159.97C273.08,-150.28 252.66,-137.52 240.92,-129.17"/>
<polygon fill="#63b8ff" stroke="#63b8ff" points="288.63,-163.17 299.07,-164.98 292.04,-157.06 288.63,-163.17"/>
</a>
</g>
</g>
<!-- Node6 -->
<g id="Node000006" class="node">
<title>Node6</title>
<g id="a_Node000006"><a xlink:href="main_8cpp.html" target="_top" xlink:title=" ">
<polygon fill="white" stroke="#666666" points="406,-74 290,-74 290,-55 406,-55 406,-74"/>
<text text-anchor="middle" x="348" y="-62" font-family="Helvetica,sans-Serif" font-size="10.00">test_agent/main.cpp</text>
</a>
</g>
</g>
<!-- Node1&#45;&gt;Node6 -->
<g id="edge9_Node000001_Node000006" class="edge">
<title>Node1&#45;&gt;Node6</title>
<g id="a_edge9_Node000001_Node000006"><a xlink:title=" ">
<path fill="none" stroke="#63b8ff" d="M323.19,-154.8C329.75,-131.2 340.76,-91.58 345.59,-74.16"/>
<polygon fill="#63b8ff" stroke="#63b8ff" points="319.76,-154.09 320.46,-164.66 326.5,-155.96 319.76,-154.09"/>
</a>
</g>
</g>
<!-- Node7 -->
<g id="Node000007" class="node">
<title>Node7</title>
<g id="a_Node000007"><a xlink:href="Behaviour_8cpp.html" target="_top" xlink:title=" ">
<polygon fill="white" stroke="#666666" points="482,-129 346,-129 346,-110 482,-110 482,-129"/>
<text text-anchor="middle" x="414" y="-117" font-family="Helvetica,sans-Serif" font-size="10.00">src_agent/Behaviour.cpp</text>
</a>
</g>
</g>
<!-- Node1&#45;&gt;Node7 -->
<g id="edge7_Node000001_Node000007" class="edge">
<title>Node1&#45;&gt;Node7</title>
<g id="a_edge7_Node000001_Node000007"><a xlink:title=" ">
<path fill="none" stroke="#63b8ff" d="M342.52,-159.97C360.06,-150.28 383.17,-137.52 398.3,-129.17"/>
<polygon fill="#63b8ff" stroke="#63b8ff" points="340.49,-157.09 333.42,-164.98 343.87,-163.22 340.49,-157.09"/>
</a>
</g>
</g>
<!-- Node8 -->
<g id="Node000008" class="node">
<title>Node8</title>
<g id="a_Node000008"><a xlink:href="BehaviourFactory_8hpp.html" target="_top" xlink:title="Factory pattern for creating Behaviour instances.">
<polygon fill="white" stroke="#666666" points="671.5,-129 500.5,-129 500.5,-110 671.5,-110 671.5,-129"/>
<text text-anchor="middle" x="586" y="-117" font-family="Helvetica,sans-Serif" font-size="10.00">src_agent/BehaviourFactory.hpp</text>
</a>
</g>
</g>
<!-- Node1&#45;&gt;Node8 -->
<g id="edge8_Node000001_Node000008" class="edge">
<title>Node1&#45;&gt;Node8</title>
<g id="a_edge8_Node000001_Node000008"><a xlink:title=" ">
<path fill="none" stroke="#63b8ff" d="M371.08,-163C421.32,-153.07 495.82,-138.33 542.6,-129.08"/>
<polygon fill="#63b8ff" stroke="#63b8ff" points="370.19,-159.61 361.06,-164.98 371.55,-166.48 370.19,-159.61"/>
</a>
</g>
</g>
<!-- Node2&#45;&gt;Node1 -->
<g id="edge3_Node000002_Node000001" class="edge">
<title>Node2&#45;&gt;Node1</title>
<g id="a_edge3_Node000002_Node000001"><a xlink:title=" ">
<path fill="none" stroke="#63b8ff" d="M260.25,-134.22C277.28,-143.94 297.67,-156.69 309.3,-164.98"/>
<polygon fill="#63b8ff" stroke="#63b8ff" points="261.65,-130.99 251.22,-129.17 258.24,-137.1 261.65,-130.99"/>
</a>
</g>
</g>
<!-- Node3 -->
<g id="Node000003" class="node">
<title>Node3</title>
<g id="a_Node000003"><a xlink:href="Agent_8cpp.html" target="_top" xlink:title=" ">
<polygon fill="white" stroke="#666666" points="116,-74 0,-74 0,-55 116,-55 116,-74"/>
<text text-anchor="middle" x="58" y="-62" font-family="Helvetica,sans-Serif" font-size="10.00">src_agent/Agent.cpp</text>
</a>
</g>
</g>
<!-- Node2&#45;&gt;Node3 -->
<g id="edge2_Node000002_Node000003" class="edge">
<title>Node2&#45;&gt;Node3</title>
<g id="a_edge2_Node000002_Node000003"><a xlink:title=" ">
<path fill="none" stroke="#63b8ff" d="M194.43,-107.06C161.91,-97.15 115.6,-83.04 86.18,-74.08"/>
<polygon fill="#63b8ff" stroke="#63b8ff" points="193.46,-110.42 204.04,-109.98 195.5,-103.72 193.46,-110.42"/>
</a>
</g>
</g>
<!-- Node4 -->
<g id="Node000004" class="node">
<title>Node4</title>
<g id="a_Node000004"><a xlink:href="DFService_8hpp.html" target="_top" xlink:title=" ">
<polygon fill="white" stroke="#666666" points="271.5,-74 134.5,-74 134.5,-55 271.5,-55 271.5,-74"/>
<text text-anchor="middle" x="203" y="-62" font-family="Helvetica,sans-Serif" font-size="10.00">src_agent/DFService.hpp</text>
</a>
</g>
</g>
<!-- Node2&#45;&gt;Node4 -->
<g id="edge4_Node000002_Node000004" class="edge">
<title>Node2&#45;&gt;Node4</title>
<g id="a_edge4_Node000002_Node000004"><a xlink:title=" ">
<path fill="none" stroke="#63b8ff" d="M222.32,-100.82C217.4,-91.82 211.64,-81.29 207.7,-74.09"/>
<polygon fill="#63b8ff" stroke="#63b8ff" points="219.34,-102.66 227.21,-109.75 225.48,-99.3 219.34,-102.66"/>
</a>
</g>
</g>
<!-- Node2&#45;&gt;Node6 -->
<g id="edge6_Node000002_Node000006" class="edge">
<title>Node2&#45;&gt;Node6</title>
<g id="a_edge6_Node000002_Node000006"><a xlink:title=" ">
<path fill="none" stroke="#63b8ff" d="M259.87,-105.77C281.27,-95.99 310.24,-82.75 329.02,-74.17"/>
<polygon fill="#63b8ff" stroke="#63b8ff" points="258.28,-102.65 250.64,-109.98 261.19,-109.01 258.28,-102.65"/>
</a>
</g>
</g>
<!-- Node5 -->
<g id="Node000005" class="node">
<title>Node5</title>
<g id="a_Node000005"><a xlink:href="DFService_8cpp.html" target="_top" xlink:title=" ">
<polygon fill="white" stroke="#666666" points="271,-19 135,-19 135,0 271,0 271,-19"/>
<text text-anchor="middle" x="203" y="-7" font-family="Helvetica,sans-Serif" font-size="10.00">src_agent/DFService.cpp</text>
</a>
</g>
</g>
<!-- Node4&#45;&gt;Node5 -->
<g id="edge5_Node000004_Node000005" class="edge">
<title>Node4&#45;&gt;Node5</title>
<g id="a_edge5_Node000004_Node000005"><a xlink:title=" ">
<path fill="none" stroke="#63b8ff" d="M203,-44.66C203,-35.93 203,-25.99 203,-19.09"/>
<polygon fill="#63b8ff" stroke="#63b8ff" points="199.5,-44.75 203,-54.75 206.5,-44.75 199.5,-44.75"/>
</a>
</g>
</g>
</g>
</svg>

<g id="navigator" transform="translate(0 0)" fill="#404254">
  <rect fill="#f2f5e9" fill-opacity="0.5" stroke="#606060" stroke-width=".5" x="0" y="0" width="60" height="60"/>
  <use id="zoomplus" xlink:href="#zoomPlus" x="17" y="9" onmousedown="handleZoom(evt,'in')"/>
  <use id="zoomminus" xlink:href="#zoomMin" x="42" y="9" onmousedown="handleZoom(evt,'out')"/>
  <use id="reset" xlink:href="#resetDef" x="30" y="36" onmousedown="handleReset()"/>
   <use id="arrowup" xlink:href="#arrowUp" x="0" y="0" onmousedown="handlePan(0,-1)"/>
  <use id="arrowright" xlink:href="#arrowRight" x="0" y="0" onmousedown="handlePan(1,0)"/>
  <use id="arrowdown" xlink:href="#arrowDown" x="0" y="0" onmousedown="handlePan(0,1)"/>
  <use id="arrowleft" xlink:href="#arrowLeft" x="0" y="0" onmousedown="handlePan(-1,0)"/>
</g>
<svg viewBox="0 0 15 15" width="100%" height="30px" preserveAspectRatio="xMaxYMin meet">
 <g id="arrow_out" transform="scale(0.3 0.3)">
  <a xlink:href="Behaviour_8hpp__dep__incl_org.svg" target="_base">
   <rect id="button" ry="5" rx="5" y="6" x="6" height="38" width="38"
        fill="#f2f5e9" fill-opacity="0.5" stroke="#606060" stroke-width="1.0"/>
   <path id="arrow"
     d="M 11.500037,31.436501 C 11.940474,20.09759 22.043105,11.32322 32.158766,21.979434 L 37.068811,17.246167 C 37.068811,17.246167 37.088388,32 37.088388,32 L 22.160133,31.978069 C 22.160133,31.978069 26.997745,27.140456 26.997745,27.140456 C 18.528582,18.264221 13.291696,25.230495 11.500037,31.436501 z"
     style="fill:#404040;"/>
  </a>
 </g>
</svg>

<style type='text/css'>
<![CDATA[
[data-mouse-over-selected='false'] { opacity: 0.7; }
[data-mouse-over-selected='true']  { opacity: 1.0; }
]]>
</style>
<script type="application/ecmascript"><![CDATA[
document.addEventListener('DOMContentLoaded', (event) => {
  highlightEdges();
  highlightAdjacentNodes();
});
]]></script>
</svg>
