<?xml version="1.0" encoding="UTF-8" standalone="no"?>
<!DOCTYPE svg PUBLIC "-//W3C//DTD SVG 1.1//EN"
 "http://www.w3.org/Graphics/SVG/1.1/DTD/svg11.dtd">
<!-- Generated by graphviz version 2.42.4 (0)
 -->
<!-- Title: gagent::Agent::doDelete Pages: 1 -->
<svg width="713pt" height="76pt"
 viewBox="0.00 0.00 713.00 75.50" xmlns="http://www.w3.org/2000/svg" xmlns:xlink="http://www.w3.org/1999/xlink">
<g id="graph0" class="graph" transform="scale(1 1) rotate(0) translate(4 71.5)">
<title>gagent::Agent::doDelete</title>
<!-- Node1 -->
<g id="Node000001" class="node">
<title>Node1</title>
<g id="a_Node000001"><a xlink:title=" ">
<polygon fill="#999999" stroke="#666666" points="135,-45.5 0,-45.5 0,-26.5 135,-26.5 135,-45.5"/>
<text text-anchor="middle" x="67.5" y="-33.5" font-family="Helvetica,sans-Serif" font-size="10.00">gagent::Agent::doDelete</text>
</a>
</g>
</g>
<!-- Node2 -->
<g id="Node000002" class="node">
<title>Node2</title>
<g id="a_Node000002"><a xlink:href="classgagent_1_1Agent.html#a433c7a2f49fe92944f1567324cc8694f" target="_top" xlink:title=" ">
<polygon fill="white" stroke="#666666" points="305,-45.5 171,-45.5 171,-26.5 305,-26.5 305,-45.5"/>
<text text-anchor="middle" x="238" y="-33.5" font-family="Helvetica,sans-Serif" font-size="10.00">gagent::Agent::doAction</text>
</a>
</g>
</g>
<!-- Node1&#45;&gt;Node2 -->
<g id="edge1_Node000001_Node000002" class="edge">
<title>Node1&#45;&gt;Node2</title>
<g id="a_edge1_Node000001_Node000002"><a xlink:title=" ">
<path fill="none" stroke="#63b8ff" d="M135.1,-36C143.56,-36 152.27,-36 160.87,-36"/>
<polygon fill="#63b8ff" stroke="#63b8ff" points="160.89,-39.5 170.89,-36 160.89,-32.5 160.89,-39.5"/>
</a>
</g>
</g>
<!-- Node3 -->
<g id="Node000003" class="node">
<title>Node3</title>
<g id="a_Node000003"><a xlink:href="classgagent_1_1Agent.html#a75fe7cd3b9ae5ea318c0df53c189f429" target="_top" xlink:title=" ">
<polygon fill="white" stroke="#666666" points="513,-45.5 341,-45.5 341,-26.5 513,-26.5 513,-45.5"/>
<text text-anchor="middle" x="427" y="-33.5" font-family="Helvetica,sans-Serif" font-size="10.00">gagent::Agent::sendMsgMonitor</text>
</a>
</g>
</g>
<!-- Node2&#45;&gt;Node3 -->
<g id="edge2_Node000002_Node000003" class="edge">
<title>Node2&#45;&gt;Node3</title>
<g id="a_edge2_Node000002_Node000003"><a xlink:title=" ">
<path fill="none" stroke="#63b8ff" d="M305.19,-36C313.5,-36 322.12,-36 330.76,-36"/>
<polygon fill="#63b8ff" stroke="#63b8ff" points="330.9,-39.5 340.9,-36 330.9,-32.5 330.9,-39.5"/>
</a>
</g>
</g>
<!-- Node4 -->
<g id="Node000004" class="node">
<title>Node4</title>
<g id="a_Node000004"><a xlink:href="classgagent_1_1AgentID.html#ad7ae9a1a0cc27ee349da0c86d315b37f" target="_top" xlink:title=" ">
<polygon fill="white" stroke="#666666" points="705,-67.5 549,-67.5 549,-48.5 705,-48.5 705,-67.5"/>
<text text-anchor="middle" x="627" y="-55.5" font-family="Helvetica,sans-Serif" font-size="10.00">gagent::AgentID::getAgentID</text>
</a>
</g>
</g>
<!-- Node3&#45;&gt;Node4 -->
<g id="edge3_Node000003_Node000004" class="edge">
<title>Node3&#45;&gt;Node4</title>
<g id="a_edge3_Node000003_Node000004"><a xlink:title=" ">
<path fill="none" stroke="#63b8ff" d="M513.12,-45.46C521.63,-46.4 530.28,-47.36 538.82,-48.31"/>
<polygon fill="#63b8ff" stroke="#63b8ff" points="538.44,-51.79 548.77,-49.42 539.21,-44.84 538.44,-51.79"/>
</a>
</g>
</g>
<!-- Node5 -->
<g id="Node000005" class="node">
<title>Node5</title>
<g id="a_Node000005"><a xlink:href="classudp__client__server_1_1udp__client.html#ac296d1fb6a6006bec5f8f14a81367d0a" target="_top" xlink:title="Send a message through this UDP client.">
<polygon fill="white" stroke="#666666" points="681.5,-30 572.5,-30 572.5,0 681.5,0 681.5,-30"/>
<text text-anchor="start" x="580.5" y="-18" font-family="Helvetica,sans-Serif" font-size="10.00">udp_client_server::</text>
<text text-anchor="middle" x="627" y="-7" font-family="Helvetica,sans-Serif" font-size="10.00">udp_client::send</text>
</a>
</g>
</g>
<!-- Node3&#45;&gt;Node5 -->
<g id="edge4_Node000003_Node000005" class="edge">
<title>Node3&#45;&gt;Node5</title>
<g id="a_edge4_Node000003_Node000005"><a xlink:title=" ">
<path fill="none" stroke="#63b8ff" d="M513.12,-26.97C529.63,-25.22 546.66,-23.41 562.33,-21.75"/>
<polygon fill="#63b8ff" stroke="#63b8ff" points="562.84,-25.22 572.42,-20.68 562.1,-18.26 562.84,-25.22"/>
</a>
</g>
</g>
</g>
</svg>
