<?xml version="1.0" encoding="UTF-8" standalone="no"?>
<!DOCTYPE svg PUBLIC "-//W3C//DTD SVG 1.1//EN"
 "http://www.w3.org/Graphics/SVG/1.1/DTD/svg11.dtd">
<!-- Generated by graphviz version 2.42.4 (0)
 -->
<!-- Title: gagent::Agent::control_message Pages: 1 -->
<svg width="533pt" height="76pt"
 viewBox="0.00 0.00 533.00 75.50" xmlns="http://www.w3.org/2000/svg" xmlns:xlink="http://www.w3.org/1999/xlink">
<g id="graph0" class="graph" transform="scale(1 1) rotate(0) translate(4 71.5)">
<title>gagent::Agent::control_message</title>
<!-- Node1 -->
<g id="Node000001" class="node">
<title>Node1</title>
<g id="a_Node000001"><a xlink:title=" ">
<polygon fill="#999999" stroke="#666666" points="125,-51 0,-51 0,-21 125,-21 125,-51"/>
<text text-anchor="start" x="8" y="-39" font-family="Helvetica,sans-Serif" font-size="10.00">gagent::Agent::control</text>
<text text-anchor="middle" x="62.5" y="-28" font-family="Helvetica,sans-Serif" font-size="10.00">_message</text>
</a>
</g>
</g>
<!-- Node2 -->
<g id="Node000002" class="node">
<title>Node2</title>
<g id="a_Node000002"><a xlink:href="classgagent_1_1Agent.html#a75fe7cd3b9ae5ea318c0df53c189f429" target="_top" xlink:title=" ">
<polygon fill="white" stroke="#666666" points="333,-45.5 161,-45.5 161,-26.5 333,-26.5 333,-45.5"/>
<text text-anchor="middle" x="247" y="-33.5" font-family="Helvetica,sans-Serif" font-size="10.00">gagent::Agent::sendMsgMonitor</text>
</a>
</g>
</g>
<!-- Node1&#45;&gt;Node2 -->
<g id="edge1_Node000001_Node000002" class="edge">
<title>Node1&#45;&gt;Node2</title>
<g id="a_edge1_Node000001_Node000002"><a xlink:title=" ">
<path fill="none" stroke="#63b8ff" d="M125.03,-36C133.29,-36 141.91,-36 150.58,-36"/>
<polygon fill="#63b8ff" stroke="#63b8ff" points="150.76,-39.5 160.76,-36 150.76,-32.5 150.76,-39.5"/>
</a>
</g>
</g>
<!-- Node3 -->
<g id="Node000003" class="node">
<title>Node3</title>
<g id="a_Node000003"><a xlink:href="classgagent_1_1AgentID.html#ad7ae9a1a0cc27ee349da0c86d315b37f" target="_top" xlink:title=" ">
<polygon fill="white" stroke="#666666" points="525,-67.5 369,-67.5 369,-48.5 525,-48.5 525,-67.5"/>
<text text-anchor="middle" x="447" y="-55.5" font-family="Helvetica,sans-Serif" font-size="10.00">gagent::AgentID::getAgentID</text>
</a>
</g>
</g>
<!-- Node2&#45;&gt;Node3 -->
<g id="edge2_Node000002_Node000003" class="edge">
<title>Node2&#45;&gt;Node3</title>
<g id="a_edge2_Node000002_Node000003"><a xlink:title=" ">
<path fill="none" stroke="#63b8ff" d="M333.12,-45.46C341.63,-46.4 350.28,-47.36 358.82,-48.31"/>
<polygon fill="#63b8ff" stroke="#63b8ff" points="358.44,-51.79 368.77,-49.42 359.21,-44.84 358.44,-51.79"/>
</a>
</g>
</g>
<!-- Node4 -->
<g id="Node000004" class="node">
<title>Node4</title>
<g id="a_Node000004"><a xlink:href="classudp__client__server_1_1udp__client.html#ac296d1fb6a6006bec5f8f14a81367d0a" target="_top" xlink:title="Send a message through this UDP client.">
<polygon fill="white" stroke="#666666" points="501.5,-30 392.5,-30 392.5,0 501.5,0 501.5,-30"/>
<text text-anchor="start" x="400.5" y="-18" font-family="Helvetica,sans-Serif" font-size="10.00">udp_client_server::</text>
<text text-anchor="middle" x="447" y="-7" font-family="Helvetica,sans-Serif" font-size="10.00">udp_client::send</text>
</a>
</g>
</g>
<!-- Node2&#45;&gt;Node4 -->
<g id="edge3_Node000002_Node000004" class="edge">
<title>Node2&#45;&gt;Node4</title>
<g id="a_edge3_Node000002_Node000004"><a xlink:title=" ">
<path fill="none" stroke="#63b8ff" d="M333.12,-26.97C349.63,-25.22 366.66,-23.41 382.33,-21.75"/>
<polygon fill="#63b8ff" stroke="#63b8ff" points="382.84,-25.22 392.42,-20.68 382.1,-18.26 382.84,-25.22"/>
</a>
</g>
</g>
</g>
</svg>
