<?xml version="1.0" encoding="UTF-8" standalone="no"?>
<!DOCTYPE svg PUBLIC "-//W3C//DTD SVG 1.1//EN"
 "http://www.w3.org/Graphics/SVG/1.1/DTD/svg11.dtd">
<!-- Generated by graphviz version 2.42.4 (0)
 -->
<!-- Title: gagent::CyclicBehaviour Pages: 1 -->
<!--zoomable 512 -->

<svg id="main" version="1.1" xmlns="http://www.w3.org/2000/svg" xmlns:xlink="http://www.w3.org/1999/xlink" xml:space="preserve" onload="init(evt)">
<style type="text/css"><![CDATA[
.node, .edge {opacity: 0.7;}
.node.selected, .edge.selected {opacity: 1;}
.edge:hover path { stroke: red; }
.edge:hover polygon { stroke: red; fill: red; }
]]></style>

<defs>
  <circle id="rim" cx="0" cy="0" r="7"/>
  <circle id="rim2" cx="0" cy="0" r="3.5"/>
  <g id="zoomPlus">
    <use xlink:href="#rim" fill="#404040"><set attributeName="fill" to="#808080" begin="zoomplus.mouseover" end="zoomplus.mouseout"/></use>
    <path d="M-4,0h8M0,-4v8" fill="none" stroke="white" stroke-width="1.5" pointer-events="none"/>
  </g>
  <g id="zoomMin">
    <use xlink:href="#rim" fill="#404040"><set attributeName="fill" to="#808080" begin="zoomminus.mouseover" end="zoomminus.mouseout"/></use>
    <path d="M-4,0h8" fill="none" stroke="white" stroke-width="1.5" pointer-events="none"/>
  </g>
  <g id="arrowUp" transform="translate(30 24)">
    <use xlink:href="#rim"/>
    <path pointer-events="none" fill="none" stroke="white" stroke-width="1.5" d="M0,-3.0v7 M-2.5,-0.5L0,-3.0L2.5,-0.5"/>
  </g>
  <g id="arrowRight" transform="rotate(90) translate(36 -43)">
    <use xlink:href="#rim"/>
    <path pointer-events="none" fill="none" stroke="white" stroke-width="1.5" d="M0,-3.0v7 M-2.5,-0.5L0,-3.0L2.5,-0.5"/>
  </g>
  <g id="arrowDown" transform="rotate(180) translate(-30 -48)">
    <use xlink:href="#rim"/>
    <path pointer-events="none" fill="none" stroke="white" stroke-width="1.5" d="M0,-3.0v7 M-2.5,-0.5L0,-3.0L2.5,-0.5"/>
  </g>
  <g id="arrowLeft" transform="rotate(270) translate(-36 17)">
    <use xlink:href="#rim"/>
    <path pointer-events="none" fill="none" stroke="white" stroke-width="1.5" d="M0,-3.0v7 M-2.5,-0.5L0,-3.0L2.5,-0.5"/>
  </g>
  <g id="resetDef">
    <use xlink:href="#rim2" fill="#404040"><set attributeName="fill" to="#808080" begin="reset.mouseover" end="reset.mouseout"/></use>
  </g>
</defs>
<script type="application/ecmascript">
var viewWidth = 142;
var viewHeight = 512;
var sectionId = 'dynsection-0';
</script>
<script type="application/ecmascript" xlink:href="svg.min.js"/>
<svg id="graph" class="graph">
<g id="viewport">
<title>gagent::CyclicBehaviour</title>
<!-- Node1 -->
<g id="Node000001" class="node">
<title>Node1</title>
<g id="a_Node000001"><a xlink:title=" ">
<polygon fill="#999999" stroke="transparent" points="131.5,-109 2.5,-109 2.5,0 131.5,0 131.5,-109"/>
<text text-anchor="start" x="8" y="-96.5" font-family="Helvetica,sans-Serif" font-size="10.00">gagent::CyclicBehaviour</text>
<text text-anchor="start" x="65.5" y="-81.5" font-family="Helvetica,sans-Serif" font-size="10.00"> </text>
<text text-anchor="start" x="10" y="-66.5" font-family="Helvetica,sans-Serif" font-size="10.00">+</text>
<text text-anchor="start" x="26" y="-66.5" font-family="Helvetica,sans-Serif" font-size="10.00">CyclicBehaviour()</text>
<text text-anchor="start" x="10" y="-51.5" font-family="Helvetica,sans-Serif" font-size="10.00">+</text>
<text text-anchor="start" x="26" y="-51.5" font-family="Helvetica,sans-Serif" font-size="10.00">CyclicBehaviour()</text>
<text text-anchor="start" x="10" y="-36.5" font-family="Helvetica,sans-Serif" font-size="10.00">+</text>
<text text-anchor="start" x="26" y="-36.5" font-family="Helvetica,sans-Serif" font-size="10.00">action()</text>
<text text-anchor="start" x="10" y="-21.5" font-family="Helvetica,sans-Serif" font-size="10.00">+</text>
<text text-anchor="start" x="26" y="-21.5" font-family="Helvetica,sans-Serif" font-size="10.00">done()</text>
<text text-anchor="start" x="10" y="-6.5" font-family="Helvetica,sans-Serif" font-size="10.00">+</text>
<text text-anchor="start" x="26" y="-6.5" font-family="Helvetica,sans-Serif" font-size="10.00">~CyclicBehaviour()</text>
<polygon fill="#666666" stroke="#666666" points="3,-91.5 3,-91.5 132,-91.5 132,-91.5 3,-91.5"/>
<polygon fill="#666666" stroke="#666666" points="3,-76.5 3,-76.5 132,-76.5 132,-76.5 3,-76.5"/>
<polygon fill="none" stroke="#666666" points="2.5,0 2.5,-109 131.5,-109 131.5,0 2.5,0"/>
</a>
</g>
</g>
<!-- Node2 -->
<g id="Node000002" class="node">
<title>Node2</title>
<g id="a_Node000002"><a xlink:href="classgagent_1_1SimpleBehaviour.html" target="_top" xlink:title=" ">
<polygon fill="white" stroke="transparent" points="134,-224 0,-224 0,-145 134,-145 134,-224"/>
<text text-anchor="start" x="5" y="-211.5" font-family="Helvetica,sans-Serif" font-size="10.00">gagent::SimpleBehaviour</text>
<text text-anchor="start" x="7" y="-196.5" font-family="Helvetica,sans-Serif" font-size="10.00">+</text>
<text text-anchor="start" x="23" y="-196.5" font-family="Helvetica,sans-Serif" font-size="10.00">thisAgent</text>
<text text-anchor="start" x="7" y="-181.5" font-family="Helvetica,sans-Serif" font-size="10.00">+</text>
<text text-anchor="start" x="23" y="-181.5" font-family="Helvetica,sans-Serif" font-size="10.00">SimpleBehaviour()</text>
<text text-anchor="start" x="7" y="-166.5" font-family="Helvetica,sans-Serif" font-size="10.00">+</text>
<text text-anchor="start" x="23" y="-166.5" font-family="Helvetica,sans-Serif" font-size="10.00">SimpleBehaviour()</text>
<text text-anchor="start" x="7" y="-151.5" font-family="Helvetica,sans-Serif" font-size="10.00">+</text>
<text text-anchor="start" x="23" y="-151.5" font-family="Helvetica,sans-Serif" font-size="10.00">~SimpleBehaviour()</text>
<polygon fill="#666666" stroke="#666666" points="0,-206.5 0,-206.5 134,-206.5 134,-206.5 0,-206.5"/>
<polygon fill="#666666" stroke="#666666" points="0,-191.5 0,-191.5 21,-191.5 21,-191.5 0,-191.5"/>
<polygon fill="#666666" stroke="#666666" points="21,-191.5 21,-191.5 134,-191.5 134,-191.5 21,-191.5"/>
<polygon fill="none" stroke="#666666" points="0,-145 0,-224 134,-224 134,-145 0,-145"/>
</a>
</g>
</g>
<!-- Node2&#45;&gt;Node1 -->
<g id="edge1_Node000001_Node000002" class="edge">
<title>Node2&#45;&gt;Node1</title>
<g id="a_edge1_Node000001_Node000002"><a xlink:title=" ">
<path fill="none" stroke="#63b8ff" d="M67,-134.51C67,-126.24 67,-117.62 67,-109.23"/>
<polygon fill="none" stroke="#63b8ff" points="63.5,-134.75 67,-144.75 70.5,-134.75 63.5,-134.75"/>
</a>
</g>
</g>
<!-- Node3 -->
<g id="Node000003" class="node">
<title>Node3</title>
<g id="a_Node000003"><a xlink:href="classgagent_1_1Behaviour.html" target="_top" xlink:title=" ">
<polygon fill="white" stroke="transparent" points="117,-504 17,-504 17,-260 117,-260 117,-504"/>
<text text-anchor="start" x="22" y="-492" font-family="Helvetica,sans-Serif" font-size="10.00">gagent::Behaviour</text>
<text text-anchor="start" x="24" y="-477" font-family="Helvetica,sans-Serif" font-size="10.00">+</text>
<text text-anchor="start" x="40" y="-477" font-family="Helvetica,sans-Serif" font-size="10.00">this_agent</text>
<text text-anchor="start" x="24" y="-462" font-family="Helvetica,sans-Serif" font-size="10.00">+</text>
<text text-anchor="start" x="40" y="-462" font-family="Helvetica,sans-Serif" font-size="10.00">Behaviour()</text>
<text text-anchor="start" x="24" y="-447" font-family="Helvetica,sans-Serif" font-size="10.00">+</text>
<text text-anchor="start" x="40" y="-447" font-family="Helvetica,sans-Serif" font-size="10.00">Behaviour()</text>
<text text-anchor="start" x="24" y="-432" font-family="Helvetica,sans-Serif" font-size="10.00">+</text>
<text text-anchor="start" x="40" y="-432" font-family="Helvetica,sans-Serif" font-size="10.00">action()</text>
<text text-anchor="start" x="24" y="-417" font-family="Helvetica,sans-Serif" font-size="10.00">+</text>
<text text-anchor="start" x="40" y="-417" font-family="Helvetica,sans-Serif" font-size="10.00">done()</text>
<text text-anchor="start" x="24" y="-402" font-family="Helvetica,sans-Serif" font-size="10.00">+</text>
<text text-anchor="start" x="40" y="-402" font-family="Helvetica,sans-Serif" font-size="10.00">onStart()</text>
<text text-anchor="start" x="24" y="-387" font-family="Helvetica,sans-Serif" font-size="10.00">+</text>
<text text-anchor="start" x="40" y="-387" font-family="Helvetica,sans-Serif" font-size="10.00">onEnd()</text>
<text text-anchor="start" x="24" y="-372" font-family="Helvetica,sans-Serif" font-size="10.00">+</text>
<text text-anchor="start" x="40" y="-372" font-family="Helvetica,sans-Serif" font-size="10.00">doDelete()</text>
<text text-anchor="start" x="24" y="-357" font-family="Helvetica,sans-Serif" font-size="10.00">+</text>
<text text-anchor="start" x="40" y="-357" font-family="Helvetica,sans-Serif" font-size="10.00">doActivate()</text>
<text text-anchor="start" x="24" y="-342" font-family="Helvetica,sans-Serif" font-size="10.00">+</text>
<text text-anchor="start" x="40" y="-342" font-family="Helvetica,sans-Serif" font-size="10.00">doSuspend()</text>
<text text-anchor="start" x="24" y="-327" font-family="Helvetica,sans-Serif" font-size="10.00">+</text>
<text text-anchor="start" x="40" y="-327" font-family="Helvetica,sans-Serif" font-size="10.00">doWait()</text>
<text text-anchor="start" x="24" y="-312" font-family="Helvetica,sans-Serif" font-size="10.00">+</text>
<text text-anchor="start" x="40" y="-312" font-family="Helvetica,sans-Serif" font-size="10.00">doWake()</text>
<text text-anchor="start" x="24" y="-297" font-family="Helvetica,sans-Serif" font-size="10.00">+</text>
<text text-anchor="start" x="40" y="-297" font-family="Helvetica,sans-Serif" font-size="10.00">doMove()</text>
<text text-anchor="start" x="24" y="-282" font-family="Helvetica,sans-Serif" font-size="10.00">+</text>
<text text-anchor="start" x="40" y="-282" font-family="Helvetica,sans-Serif" font-size="10.00">doAction()</text>
<text text-anchor="start" x="24" y="-267" font-family="Helvetica,sans-Serif" font-size="10.00">+</text>
<text text-anchor="start" x="40" y="-267" font-family="Helvetica,sans-Serif" font-size="10.00">~Behaviour()</text>
<polygon fill="#666666" stroke="#666666" points="17,-487 17,-487 117,-487 117,-487 17,-487"/>
<polygon fill="#666666" stroke="#666666" points="17,-472 17,-472 38,-472 38,-472 17,-472"/>
<polygon fill="#666666" stroke="#666666" points="38,-472 38,-472 117,-472 117,-472 38,-472"/>
<polygon fill="none" stroke="#666666" points="17,-260 17,-504 117,-504 117,-260 17,-260"/>
</a>
</g>
</g>
<!-- Node3&#45;&gt;Node2 -->
<g id="edge2_Node000002_Node000003" class="edge">
<title>Node3&#45;&gt;Node2</title>
<g id="a_edge2_Node000002_Node000003"><a xlink:title=" ">
<path fill="none" stroke="#63b8ff" d="M67,-249.9C67,-240.76 67,-232.06 67,-224.19"/>
<polygon fill="none" stroke="#63b8ff" points="63.5,-249.97 67,-259.97 70.5,-249.97 63.5,-249.97"/>
</a>
</g>
</g>
</g>
</svg>

<g id="navigator" transform="translate(0 0)" fill="#404254">
  <rect fill="#f2f5e9" fill-opacity="0.5" stroke="#606060" stroke-width=".5" x="0" y="0" width="60" height="60"/>
  <use id="zoomplus" xlink:href="#zoomPlus" x="17" y="9" onmousedown="handleZoom(evt,'in')"/>
  <use id="zoomminus" xlink:href="#zoomMin" x="42" y="9" onmousedown="handleZoom(evt,'out')"/>
  <use id="reset" xlink:href="#resetDef" x="30" y="36" onmousedown="handleReset()"/>
   <use id="arrowup" xlink:href="#arrowUp" x="0" y="0" onmousedown="handlePan(0,-1)"/>
  <use id="arrowright" xlink:href="#arrowRight" x="0" y="0" onmousedown="handlePan(1,0)"/>
  <use id="arrowdown" xlink:href="#arrowDown" x="0" y="0" onmousedown="handlePan(0,1)"/>
  <use id="arrowleft" xlink:href="#arrowLeft" x="0" y="0" onmousedown="handlePan(-1,0)"/>
</g>
<svg viewBox="0 0 15 15" width="100%" height="30px" preserveAspectRatio="xMaxYMin meet">
 <g id="arrow_out" transform="scale(0.3 0.3)">
  <a xlink:href="classgagent_1_1CyclicBehaviour__inherit__graph_org.svg" target="_base">
   <rect id="button" ry="5" rx="5" y="6" x="6" height="38" width="38"
        fill="#f2f5e9" fill-opacity="0.5" stroke="#606060" stroke-width="1.0"/>
   <path id="arrow"
     d="M 11.500037,31.436501 C 11.940474,20.09759 22.043105,11.32322 32.158766,21.979434 L 37.068811,17.246167 C 37.068811,17.246167 37.088388,32 37.088388,32 L 22.160133,31.978069 C 22.160133,31.978069 26.997745,27.140456 26.997745,27.140456 C 18.528582,18.264221 13.291696,25.230495 11.500037,31.436501 z"
     style="fill:#404040;"/>
  </a>
 </g>
</svg>

<style type='text/css'>
<![CDATA[
[data-mouse-over-selected='false'] { opacity: 0.7; }
[data-mouse-over-selected='true']  { opacity: 1.0; }
]]>
</style>
<script type="application/ecmascript"><![CDATA[
document.addEventListener('DOMContentLoaded', (event) => {
  highlightEdges();
  highlightAdjacentNodes();
});
]]></script>
</svg>
