<?xml version="1.0" encoding="UTF-8" standalone="no"?>
<!DOCTYPE svg PUBLIC "-//W3C//DTD SVG 1.1//EN"
 "http://www.w3.org/Graphics/SVG/1.1/DTD/svg11.dtd">
<!-- Generated by graphviz version 2.42.4 (0)
 -->
<!-- Title: gagent::Behaviour::doDelete Pages: 1 -->
<svg width="861pt" height="76pt"
 viewBox="0.00 0.00 861.00 75.50" xmlns="http://www.w3.org/2000/svg" xmlns:xlink="http://www.w3.org/1999/xlink">
<g id="graph0" class="graph" transform="scale(1 1) rotate(0) translate(4 71.5)">
<title>gagent::Behaviour::doDelete</title>
<!-- Node1 -->
<g id="Node000001" class="node">
<title>Node1</title>
<g id="a_Node000001"><a xlink:title=" ">
<polygon fill="#999999" stroke="#666666" points="112,-51 0,-51 0,-21 112,-21 112,-51"/>
<text text-anchor="start" x="8" y="-39" font-family="Helvetica,sans-Serif" font-size="10.00">gagent::Behaviour::</text>
<text text-anchor="middle" x="56" y="-28" font-family="Helvetica,sans-Serif" font-size="10.00">doDelete</text>
</a>
</g>
</g>
<!-- Node2 -->
<g id="Node000002" class="node">
<title>Node2</title>
<g id="a_Node000002"><a xlink:href="classgagent_1_1Agent.html#a623fb6a1692d2311f6bdbbad2d6743f0" target="_top" xlink:title=" ">
<polygon fill="white" stroke="#666666" points="283,-45.5 148,-45.5 148,-26.5 283,-26.5 283,-45.5"/>
<text text-anchor="middle" x="215.5" y="-33.5" font-family="Helvetica,sans-Serif" font-size="10.00">gagent::Agent::doDelete</text>
</a>
</g>
</g>
<!-- Node1&#45;&gt;Node2 -->
<g id="edge1_Node000001_Node000002" class="edge">
<title>Node1&#45;&gt;Node2</title>
<g id="a_edge1_Node000001_Node000002"><a xlink:title=" ">
<path fill="none" stroke="#63b8ff" d="M112.09,-36C120.37,-36 129.05,-36 137.69,-36"/>
<polygon fill="#63b8ff" stroke="#63b8ff" points="137.8,-39.5 147.8,-36 137.8,-32.5 137.8,-39.5"/>
</a>
</g>
</g>
<!-- Node3 -->
<g id="Node000003" class="node">
<title>Node3</title>
<g id="a_Node000003"><a xlink:href="classgagent_1_1Agent.html#a433c7a2f49fe92944f1567324cc8694f" target="_top" xlink:title=" ">
<polygon fill="white" stroke="#666666" points="453,-45.5 319,-45.5 319,-26.5 453,-26.5 453,-45.5"/>
<text text-anchor="middle" x="386" y="-33.5" font-family="Helvetica,sans-Serif" font-size="10.00">gagent::Agent::doAction</text>
</a>
</g>
</g>
<!-- Node2&#45;&gt;Node3 -->
<g id="edge2_Node000002_Node000003" class="edge">
<title>Node2&#45;&gt;Node3</title>
<g id="a_edge2_Node000002_Node000003"><a xlink:title=" ">
<path fill="none" stroke="#63b8ff" d="M283.1,-36C291.56,-36 300.27,-36 308.87,-36"/>
<polygon fill="#63b8ff" stroke="#63b8ff" points="308.89,-39.5 318.89,-36 308.89,-32.5 308.89,-39.5"/>
</a>
</g>
</g>
<!-- Node4 -->
<g id="Node000004" class="node">
<title>Node4</title>
<g id="a_Node000004"><a xlink:href="classgagent_1_1Agent.html#a75fe7cd3b9ae5ea318c0df53c189f429" target="_top" xlink:title=" ">
<polygon fill="white" stroke="#666666" points="661,-45.5 489,-45.5 489,-26.5 661,-26.5 661,-45.5"/>
<text text-anchor="middle" x="575" y="-33.5" font-family="Helvetica,sans-Serif" font-size="10.00">gagent::Agent::sendMsgMonitor</text>
</a>
</g>
</g>
<!-- Node3&#45;&gt;Node4 -->
<g id="edge3_Node000003_Node000004" class="edge">
<title>Node3&#45;&gt;Node4</title>
<g id="a_edge3_Node000003_Node000004"><a xlink:title=" ">
<path fill="none" stroke="#63b8ff" d="M453.19,-36C461.5,-36 470.12,-36 478.76,-36"/>
<polygon fill="#63b8ff" stroke="#63b8ff" points="478.9,-39.5 488.9,-36 478.9,-32.5 478.9,-39.5"/>
</a>
</g>
</g>
<!-- Node5 -->
<g id="Node000005" class="node">
<title>Node5</title>
<g id="a_Node000005"><a xlink:href="classgagent_1_1AgentID.html#ad7ae9a1a0cc27ee349da0c86d315b37f" target="_top" xlink:title=" ">
<polygon fill="white" stroke="#666666" points="853,-67.5 697,-67.5 697,-48.5 853,-48.5 853,-67.5"/>
<text text-anchor="middle" x="775" y="-55.5" font-family="Helvetica,sans-Serif" font-size="10.00">gagent::AgentID::getAgentID</text>
</a>
</g>
</g>
<!-- Node4&#45;&gt;Node5 -->
<g id="edge4_Node000004_Node000005" class="edge">
<title>Node4&#45;&gt;Node5</title>
<g id="a_edge4_Node000004_Node000005"><a xlink:title=" ">
<path fill="none" stroke="#63b8ff" d="M661.12,-45.46C669.63,-46.4 678.28,-47.36 686.82,-48.31"/>
<polygon fill="#63b8ff" stroke="#63b8ff" points="686.44,-51.79 696.77,-49.42 687.21,-44.84 686.44,-51.79"/>
</a>
</g>
</g>
<!-- Node6 -->
<g id="Node000006" class="node">
<title>Node6</title>
<g id="a_Node000006"><a xlink:href="classudp__client__server_1_1udp__client.html#ac296d1fb6a6006bec5f8f14a81367d0a" target="_top" xlink:title="Send a message through this UDP client.">
<polygon fill="white" stroke="#666666" points="829.5,-30 720.5,-30 720.5,0 829.5,0 829.5,-30"/>
<text text-anchor="start" x="728.5" y="-18" font-family="Helvetica,sans-Serif" font-size="10.00">udp_client_server::</text>
<text text-anchor="middle" x="775" y="-7" font-family="Helvetica,sans-Serif" font-size="10.00">udp_client::send</text>
</a>
</g>
</g>
<!-- Node4&#45;&gt;Node6 -->
<g id="edge5_Node000004_Node000006" class="edge">
<title>Node4&#45;&gt;Node6</title>
<g id="a_edge5_Node000004_Node000006"><a xlink:title=" ">
<path fill="none" stroke="#63b8ff" d="M661.12,-26.97C677.63,-25.22 694.66,-23.41 710.33,-21.75"/>
<polygon fill="#63b8ff" stroke="#63b8ff" points="710.84,-25.22 720.42,-20.68 710.1,-18.26 710.84,-25.22"/>
</a>
</g>
</g>
</g>
</svg>
