<?xml version="1.0" encoding="UTF-8" standalone="no"?>
<!DOCTYPE svg PUBLIC "-//W3C//DTD SVG 1.1//EN"
 "http://www.w3.org/Graphics/SVG/1.1/DTD/svg11.dtd">
<!-- Generated by graphviz version 2.42.4 (0)
 -->
<!-- Title: gagent::AgentCore::initEnvironnementSystem Pages: 1 -->
<svg width="875pt" height="172pt"
 viewBox="0.00 0.00 875.00 171.50" xmlns="http://www.w3.org/2000/svg" xmlns:xlink="http://www.w3.org/1999/xlink">
<g id="graph0" class="graph" transform="scale(1 1) rotate(0) translate(4 167.5)">
<title>gagent::AgentCore::initEnvironnementSystem</title>
<!-- Node1 -->
<g id="Node000001" class="node">
<title>Node1</title>
<g id="a_Node000001"><a xlink:title=" ">
<polygon fill="#999999" stroke="#666666" points="143,-79.5 0,-79.5 0,-49.5 143,-49.5 143,-79.5"/>
<text text-anchor="start" x="8" y="-67.5" font-family="Helvetica,sans-Serif" font-size="10.00">gagent::AgentCore::</text>
<text text-anchor="middle" x="71.5" y="-56.5" font-family="Helvetica,sans-Serif" font-size="10.00">initEnvironnementSystem</text>
</a>
</g>
</g>
<!-- Node2 -->
<g id="Node000002" class="node">
<title>Node2</title>
<g id="a_Node000002"><a xlink:href="classgagent_1_1Environnement.html#a02dcafc7f834a9ac9f9e9b7fe62d354f" target="_top" xlink:title=" ">
<polygon fill="white" stroke="#666666" points="310,-79.5 179,-79.5 179,-49.5 310,-49.5 310,-79.5"/>
<text text-anchor="start" x="187" y="-67.5" font-family="Helvetica,sans-Serif" font-size="10.00">gagent::Environnement</text>
<text text-anchor="middle" x="244.5" y="-56.5" font-family="Helvetica,sans-Serif" font-size="10.00">::start</text>
</a>
</g>
</g>
<!-- Node1&#45;&gt;Node2 -->
<g id="edge1_Node000001_Node000002" class="edge">
<title>Node1&#45;&gt;Node2</title>
<g id="a_edge1_Node000001_Node000002"><a xlink:title=" ">
<path fill="none" stroke="#63b8ff" d="M143.04,-64.5C151.48,-64.5 160.11,-64.5 168.61,-64.5"/>
<polygon fill="#63b8ff" stroke="#63b8ff" points="168.88,-68 178.88,-64.5 168.88,-61 168.88,-68"/>
</a>
</g>
</g>
<!-- Node3 -->
<g id="Node000003" class="node">
<title>Node3</title>
<g id="a_Node000003"><a xlink:href="classgagent_1_1EnvironnementGui.html#a323f72c9a589c205ad5db2f3bc19999e" target="_top" xlink:title=" ">
<polygon fill="white" stroke="#666666" points="493,-103.5 346,-103.5 346,-73.5 493,-73.5 493,-103.5"/>
<text text-anchor="start" x="354" y="-91.5" font-family="Helvetica,sans-Serif" font-size="10.00">gagent::EnvironnementGui</text>
<text text-anchor="middle" x="419.5" y="-80.5" font-family="Helvetica,sans-Serif" font-size="10.00">::createWindow</text>
</a>
</g>
</g>
<!-- Node2&#45;&gt;Node3 -->
<g id="edge2_Node000002_Node000003" class="edge">
<title>Node2&#45;&gt;Node3</title>
<g id="a_edge2_Node000002_Node000003"><a xlink:title=" ">
<path fill="none" stroke="#63b8ff" d="M310.41,-73.5C318.75,-74.66 327.37,-75.86 335.95,-77.05"/>
<polygon fill="#63b8ff" stroke="#63b8ff" points="335.58,-80.53 345.97,-78.44 336.54,-73.6 335.58,-80.53"/>
</a>
</g>
</g>
<!-- Node11 -->
<g id="Node000011" class="node">
<title>Node11</title>
<g id="a_Node000011"><a xlink:href="classgagent_1_1EnvironnementGui.html#aad6732cc840a4babd06675ad1d0002bb" target="_top" xlink:title=" ">
<polygon fill="white" stroke="#666666" points="493,-55.5 346,-55.5 346,-25.5 493,-25.5 493,-55.5"/>
<text text-anchor="start" x="354" y="-43.5" font-family="Helvetica,sans-Serif" font-size="10.00">gagent::EnvironnementGui</text>
<text text-anchor="middle" x="419.5" y="-32.5" font-family="Helvetica,sans-Serif" font-size="10.00">::setEnvPtr</text>
</a>
</g>
</g>
<!-- Node2&#45;&gt;Node11 -->
<g id="edge10_Node000002_Node000011" class="edge">
<title>Node2&#45;&gt;Node11</title>
<g id="a_edge10_Node000002_Node000011"><a xlink:title=" ">
<path fill="none" stroke="#63b8ff" d="M310.41,-55.5C318.75,-54.34 327.37,-53.14 335.95,-51.95"/>
<polygon fill="#63b8ff" stroke="#63b8ff" points="336.54,-55.4 345.97,-50.56 335.58,-48.47 336.54,-55.4"/>
</a>
</g>
</g>
<!-- Node4 -->
<g id="Node000004" class="node">
<title>Node4</title>
<g id="a_Node000004"><a xlink:href="classgagent_1_1Environnement.html#a58c0f52451d4d32f0b256f12e9feda1b" target="_top" xlink:title=" ">
<polygon fill="white" stroke="#666666" points="674.5,-157.5 530.5,-157.5 530.5,-127.5 674.5,-127.5 674.5,-157.5"/>
<text text-anchor="start" x="538.5" y="-145.5" font-family="Helvetica,sans-Serif" font-size="10.00">gagent::Environnement</text>
<text text-anchor="middle" x="602.5" y="-134.5" font-family="Helvetica,sans-Serif" font-size="10.00">::readDataFromQueueMsg</text>
</a>
</g>
</g>
<!-- Node3&#45;&gt;Node4 -->
<g id="edge3_Node000003_Node000004" class="edge">
<title>Node3&#45;&gt;Node4</title>
<g id="a_edge3_Node000003_Node000004"><a xlink:title=" ">
<path fill="none" stroke="#63b8ff" d="M470.92,-103.54C492.79,-110.07 518.58,-117.76 541.44,-124.58"/>
<polygon fill="#63b8ff" stroke="#63b8ff" points="540.45,-127.94 551.04,-127.45 542.46,-121.23 540.45,-127.94"/>
</a>
</g>
</g>
<!-- Node6 -->
<g id="Node000006" class="node">
<title>Node6</title>
<g id="a_Node000006"><a xlink:href="classgagent_1_1EnvironnementGui.html#ab3aeb4fe7ab4bb5c76936270ac530770" target="_top" xlink:title=" ">
<polygon fill="white" stroke="#666666" points="676,-103.5 529,-103.5 529,-73.5 676,-73.5 676,-103.5"/>
<text text-anchor="start" x="537" y="-91.5" font-family="Helvetica,sans-Serif" font-size="10.00">gagent::EnvironnementGui</text>
<text text-anchor="middle" x="602.5" y="-80.5" font-family="Helvetica,sans-Serif" font-size="10.00">::refresh</text>
</a>
</g>
</g>
<!-- Node3&#45;&gt;Node6 -->
<g id="edge5_Node000003_Node000006" class="edge">
<title>Node3&#45;&gt;Node6</title>
<g id="a_edge5_Node000003_Node000006"><a xlink:title=" ">
<path fill="none" stroke="#63b8ff" d="M493.08,-88.5C501.56,-88.5 510.26,-88.5 518.87,-88.5"/>
<polygon fill="#63b8ff" stroke="#63b8ff" points="518.91,-92 528.91,-88.5 518.91,-85 518.91,-92"/>
</a>
</g>
</g>
<!-- Node9 -->
<g id="Node000009" class="node">
<title>Node9</title>
<g id="a_Node000009"><a xlink:href="classUi__guiWindow.html#a4124a0eacb71bce904d53f9b78555ae5" target="_top" xlink:title=" ">
<polygon fill="white" stroke="#666666" points="667,-43 538,-43 538,-24 667,-24 667,-43"/>
<text text-anchor="middle" x="602.5" y="-31" font-family="Helvetica,sans-Serif" font-size="10.00">Ui_guiWindow::setupUi</text>
</a>
</g>
</g>
<!-- Node3&#45;&gt;Node9 -->
<g id="edge8_Node000003_Node000009" class="edge">
<title>Node3&#45;&gt;Node9</title>
<g id="a_edge8_Node000003_Node000009"><a xlink:title=" ">
<path fill="none" stroke="#63b8ff" d="M469.96,-73.47C498.27,-64.87 533.37,-54.2 560.19,-46.05"/>
<polygon fill="#63b8ff" stroke="#63b8ff" points="561.49,-49.32 570.04,-43.06 559.45,-42.62 561.49,-49.32"/>
</a>
</g>
</g>
<!-- Node5 -->
<g id="Node000005" class="node">
<title>Node5</title>
<g id="a_Node000005"><a xlink:href="classgagent_1_1MessageParser.html#aaecfba940da1afa76f961efca4a59ca9" target="_top" xlink:title=" ">
<polygon fill="white" stroke="#666666" points="854.5,-163.5 724.5,-163.5 724.5,-133.5 854.5,-133.5 854.5,-163.5"/>
<text text-anchor="start" x="732.5" y="-151.5" font-family="Helvetica,sans-Serif" font-size="10.00">gagent::MessageParser</text>
<text text-anchor="middle" x="789.5" y="-140.5" font-family="Helvetica,sans-Serif" font-size="10.00">::parsekeyValSeq</text>
</a>
</g>
</g>
<!-- Node4&#45;&gt;Node5 -->
<g id="edge4_Node000004_Node000005" class="edge">
<title>Node4&#45;&gt;Node5</title>
<g id="a_edge4_Node000004_Node000005"><a xlink:title=" ">
<path fill="none" stroke="#63b8ff" d="M674.76,-144.81C687.61,-145.23 701.04,-145.66 713.98,-146.08"/>
<polygon fill="#63b8ff" stroke="#63b8ff" points="714.13,-149.59 724.23,-146.42 714.35,-142.59 714.13,-149.59"/>
</a>
</g>
</g>
<!-- Node7 -->
<g id="Node000007" class="node">
<title>Node7</title>
<g id="a_Node000007"><a xlink:href="classgagent_1_1Environnement.html#a4987d67f0e7ca80ec9b3aef47b437077" target="_top" xlink:title=" ">
<polygon fill="white" stroke="#666666" points="855,-115.5 724,-115.5 724,-85.5 855,-85.5 855,-115.5"/>
<text text-anchor="start" x="732" y="-103.5" font-family="Helvetica,sans-Serif" font-size="10.00">gagent::Environnement</text>
<text text-anchor="middle" x="789.5" y="-92.5" font-family="Helvetica,sans-Serif" font-size="10.00">::event_loop</text>
</a>
</g>
</g>
<!-- Node6&#45;&gt;Node7 -->
<g id="edge6_Node000006_Node000007" class="edge">
<title>Node6&#45;&gt;Node7</title>
<g id="a_edge6_Node000006_Node000007"><a xlink:title=" ">
<path fill="none" stroke="#63b8ff" d="M676.09,-93.21C688.42,-94.01 701.26,-94.84 713.65,-95.64"/>
<polygon fill="#63b8ff" stroke="#63b8ff" points="713.73,-99.16 723.94,-96.31 714.19,-92.17 713.73,-99.16"/>
</a>
</g>
</g>
<!-- Node8 -->
<g id="Node000008" class="node">
<title>Node8</title>
<g id="a_Node000008"><a xlink:href="classgagent_1_1Environnement.html#a8f5e75fdf25cc3bf7af50e26270000e8" target="_top" xlink:title=" ">
<polygon fill="white" stroke="#666666" points="855,-67.5 724,-67.5 724,-37.5 855,-37.5 855,-67.5"/>
<text text-anchor="start" x="732" y="-55.5" font-family="Helvetica,sans-Serif" font-size="10.00">gagent::Environnement</text>
<text text-anchor="middle" x="789.5" y="-44.5" font-family="Helvetica,sans-Serif" font-size="10.00">::make_agent</text>
</a>
</g>
</g>
<!-- Node6&#45;&gt;Node8 -->
<g id="edge7_Node000006_Node000008" class="edge">
<title>Node6&#45;&gt;Node8</title>
<g id="a_edge7_Node000006_Node000008"><a xlink:title=" ">
<path fill="none" stroke="#63b8ff" d="M676.09,-74.38C688.55,-71.95 701.51,-69.43 714.02,-66.99"/>
<polygon fill="#63b8ff" stroke="#63b8ff" points="714.79,-70.41 723.94,-65.06 713.45,-63.54 714.79,-70.41"/>
</a>
</g>
</g>
<!-- Node10 -->
<g id="Node000010" class="node">
<title>Node10</title>
<g id="a_Node000010"><a xlink:href="classUi__guiWindow.html#a30b67e126e4df6b05a626afb4c2665c2" target="_top" xlink:title=" ">
<polygon fill="white" stroke="#666666" points="867,-19 712,-19 712,0 867,0 867,-19"/>
<text text-anchor="middle" x="789.5" y="-7" font-family="Helvetica,sans-Serif" font-size="10.00">Ui_guiWindow::retranslateUi</text>
</a>
</g>
</g>
<!-- Node9&#45;&gt;Node10 -->
<g id="edge9_Node000009_Node000010" class="edge">
<title>Node9&#45;&gt;Node10</title>
<g id="a_edge9_Node000009_Node000010"><a xlink:title=" ">
<path fill="none" stroke="#63b8ff" d="M667.17,-25.24C679.37,-23.66 692.32,-21.98 705.04,-20.33"/>
<polygon fill="#63b8ff" stroke="#63b8ff" points="705.71,-23.77 715.18,-19.01 704.81,-16.83 705.71,-23.77"/>
</a>
</g>
</g>
</g>
</svg>
