<?xml version="1.0" encoding="UTF-8" standalone="no"?>
<!DOCTYPE svg PUBLIC "-//W3C//DTD SVG 1.1//EN"
 "http://www.w3.org/Graphics/SVG/1.1/DTD/svg11.dtd">
<!-- Generated by graphviz version 2.42.4 (0)
 -->
<!-- Title: gagent::CommunicationChannel Pages: 1 -->
<svg width="175pt" height="117pt"
 viewBox="0.00 0.00 175.00 117.00" xmlns="http://www.w3.org/2000/svg" xmlns:xlink="http://www.w3.org/1999/xlink">
<g id="graph0" class="graph" transform="scale(1 1) rotate(0) translate(4 113)">
<title>gagent::CommunicationChannel</title>
<!-- Node1 -->
<g id="Node000001" class="node">
<title>Node1</title>
<g id="a_Node000001"><a xlink:title="Abstract base for communication channels.">
<polygon fill="#999999" stroke="transparent" points="167,-109 0,-109 0,0 167,0 167,-109"/>
<text text-anchor="start" x="5.5" y="-96.5" font-family="Helvetica,sans-Serif" font-size="10.00">gagent::CommunicationChannel</text>
<text text-anchor="start" x="82" y="-81.5" font-family="Helvetica,sans-Serif" font-size="10.00"> </text>
<text text-anchor="start" x="7.5" y="-66.5" font-family="Helvetica,sans-Serif" font-size="10.00">+</text>
<text text-anchor="start" x="23.5" y="-66.5" font-family="Helvetica,sans-Serif" font-size="10.00">~CommunicationChannel()</text>
<text text-anchor="start" x="7.5" y="-51.5" font-family="Helvetica,sans-Serif" font-size="10.00">+</text>
<text text-anchor="start" x="23.5" y="-51.5" font-family="Helvetica,sans-Serif" font-size="10.00">send()</text>
<text text-anchor="start" x="7.5" y="-36.5" font-family="Helvetica,sans-Serif" font-size="10.00">+</text>
<text text-anchor="start" x="23.5" y="-36.5" font-family="Helvetica,sans-Serif" font-size="10.00">receive()</text>
<text text-anchor="start" x="7.5" y="-21.5" font-family="Helvetica,sans-Serif" font-size="10.00">+</text>
<text text-anchor="start" x="23.5" y="-21.5" font-family="Helvetica,sans-Serif" font-size="10.00">isActive()</text>
<text text-anchor="start" x="7.5" y="-6.5" font-family="Helvetica,sans-Serif" font-size="10.00">+</text>
<text text-anchor="start" x="23.5" y="-6.5" font-family="Helvetica,sans-Serif" font-size="10.00">close()</text>
<polygon fill="#666666" stroke="#666666" points="0.5,-91.5 0.5,-91.5 167.5,-91.5 167.5,-91.5 0.5,-91.5"/>
<polygon fill="#666666" stroke="#666666" points="0.5,-76.5 0.5,-76.5 167.5,-76.5 167.5,-76.5 0.5,-76.5"/>
<polygon fill="none" stroke="#666666" points="0,0 0,-109 167,-109 167,0 0,0"/>
</a>
</g>
</g>
</g>
</svg>
