<?xml version="1.0" encoding="UTF-8" standalone="no"?>
<!DOCTYPE svg PUBLIC "-//W3C//DTD SVG 1.1//EN"
 "http://www.w3.org/Graphics/SVG/1.1/DTD/svg11.dtd">
<!-- Generated by graphviz version 2.42.4 (0)
 -->
<!-- Title: gagent::Behaviour Pages: 1 -->
<svg width="592pt" height="627pt"
 viewBox="0.00 0.00 591.50 627.00" xmlns="http://www.w3.org/2000/svg" xmlns:xlink="http://www.w3.org/1999/xlink">
<g id="graph0" class="graph" transform="scale(1 1) rotate(0) translate(4 623)">
<title>gagent::Behaviour</title>
<!-- Node1 -->
<g id="Node000001" class="node">
<title>Node1</title>
<g id="a_Node000001"><a xlink:title=" ">
<polygon fill="#999999" stroke="transparent" points="343.5,-619 243.5,-619 243.5,-375 343.5,-375 343.5,-619"/>
<text text-anchor="start" x="248.5" y="-607" font-family="Helvetica,sans-Serif" font-size="10.00">gagent::Behaviour</text>
<text text-anchor="start" x="250.5" y="-592" font-family="Helvetica,sans-Serif" font-size="10.00">+</text>
<text text-anchor="start" x="266.5" y="-592" font-family="Helvetica,sans-Serif" font-size="10.00">this_agent</text>
<text text-anchor="start" x="250.5" y="-577" font-family="Helvetica,sans-Serif" font-size="10.00">+</text>
<text text-anchor="start" x="266.5" y="-577" font-family="Helvetica,sans-Serif" font-size="10.00">Behaviour()</text>
<text text-anchor="start" x="250.5" y="-562" font-family="Helvetica,sans-Serif" font-size="10.00">+</text>
<text text-anchor="start" x="266.5" y="-562" font-family="Helvetica,sans-Serif" font-size="10.00">Behaviour()</text>
<text text-anchor="start" x="250.5" y="-547" font-family="Helvetica,sans-Serif" font-size="10.00">+</text>
<text text-anchor="start" x="266.5" y="-547" font-family="Helvetica,sans-Serif" font-size="10.00">action()</text>
<text text-anchor="start" x="250.5" y="-532" font-family="Helvetica,sans-Serif" font-size="10.00">+</text>
<text text-anchor="start" x="266.5" y="-532" font-family="Helvetica,sans-Serif" font-size="10.00">done()</text>
<text text-anchor="start" x="250.5" y="-517" font-family="Helvetica,sans-Serif" font-size="10.00">+</text>
<text text-anchor="start" x="266.5" y="-517" font-family="Helvetica,sans-Serif" font-size="10.00">onStart()</text>
<text text-anchor="start" x="250.5" y="-502" font-family="Helvetica,sans-Serif" font-size="10.00">+</text>
<text text-anchor="start" x="266.5" y="-502" font-family="Helvetica,sans-Serif" font-size="10.00">onEnd()</text>
<text text-anchor="start" x="250.5" y="-487" font-family="Helvetica,sans-Serif" font-size="10.00">+</text>
<text text-anchor="start" x="266.5" y="-487" font-family="Helvetica,sans-Serif" font-size="10.00">doDelete()</text>
<text text-anchor="start" x="250.5" y="-472" font-family="Helvetica,sans-Serif" font-size="10.00">+</text>
<text text-anchor="start" x="266.5" y="-472" font-family="Helvetica,sans-Serif" font-size="10.00">doActivate()</text>
<text text-anchor="start" x="250.5" y="-457" font-family="Helvetica,sans-Serif" font-size="10.00">+</text>
<text text-anchor="start" x="266.5" y="-457" font-family="Helvetica,sans-Serif" font-size="10.00">doSuspend()</text>
<text text-anchor="start" x="250.5" y="-442" font-family="Helvetica,sans-Serif" font-size="10.00">+</text>
<text text-anchor="start" x="266.5" y="-442" font-family="Helvetica,sans-Serif" font-size="10.00">doWait()</text>
<text text-anchor="start" x="250.5" y="-427" font-family="Helvetica,sans-Serif" font-size="10.00">+</text>
<text text-anchor="start" x="266.5" y="-427" font-family="Helvetica,sans-Serif" font-size="10.00">doWake()</text>
<text text-anchor="start" x="250.5" y="-412" font-family="Helvetica,sans-Serif" font-size="10.00">+</text>
<text text-anchor="start" x="266.5" y="-412" font-family="Helvetica,sans-Serif" font-size="10.00">doMove()</text>
<text text-anchor="start" x="250.5" y="-397" font-family="Helvetica,sans-Serif" font-size="10.00">+</text>
<text text-anchor="start" x="266.5" y="-397" font-family="Helvetica,sans-Serif" font-size="10.00">doAction()</text>
<text text-anchor="start" x="250.5" y="-382" font-family="Helvetica,sans-Serif" font-size="10.00">+</text>
<text text-anchor="start" x="266.5" y="-382" font-family="Helvetica,sans-Serif" font-size="10.00">~Behaviour()</text>
<polygon fill="#666666" stroke="#666666" points="243.5,-602 243.5,-602 343.5,-602 343.5,-602 243.5,-602"/>
<polygon fill="#666666" stroke="#666666" points="243.5,-587 243.5,-587 264.5,-587 264.5,-587 243.5,-587"/>
<polygon fill="#666666" stroke="#666666" points="264.5,-587 264.5,-587 343.5,-587 343.5,-587 264.5,-587"/>
<polygon fill="none" stroke="#666666" points="243.5,-375 243.5,-619 343.5,-619 343.5,-375 243.5,-375"/>
</a>
</g>
</g>
<!-- Node2 -->
<g id="Node000002" class="node">
<title>Node2</title>
<g id="a_Node000002"><a xlink:href="classgagent_1_1SimpleBehaviour.html" target="_top" xlink:title=" ">
<polygon fill="white" stroke="transparent" points="360.5,-339 226.5,-339 226.5,-260 360.5,-260 360.5,-339"/>
<text text-anchor="start" x="231.5" y="-326.5" font-family="Helvetica,sans-Serif" font-size="10.00">gagent::SimpleBehaviour</text>
<text text-anchor="start" x="233.5" y="-311.5" font-family="Helvetica,sans-Serif" font-size="10.00">+</text>
<text text-anchor="start" x="249.5" y="-311.5" font-family="Helvetica,sans-Serif" font-size="10.00">thisAgent</text>
<text text-anchor="start" x="233.5" y="-296.5" font-family="Helvetica,sans-Serif" font-size="10.00">+</text>
<text text-anchor="start" x="249.5" y="-296.5" font-family="Helvetica,sans-Serif" font-size="10.00">SimpleBehaviour()</text>
<text text-anchor="start" x="233.5" y="-281.5" font-family="Helvetica,sans-Serif" font-size="10.00">+</text>
<text text-anchor="start" x="249.5" y="-281.5" font-family="Helvetica,sans-Serif" font-size="10.00">SimpleBehaviour()</text>
<text text-anchor="start" x="233.5" y="-266.5" font-family="Helvetica,sans-Serif" font-size="10.00">+</text>
<text text-anchor="start" x="249.5" y="-266.5" font-family="Helvetica,sans-Serif" font-size="10.00">~SimpleBehaviour()</text>
<polygon fill="#666666" stroke="#666666" points="226.5,-321.5 226.5,-321.5 360.5,-321.5 360.5,-321.5 226.5,-321.5"/>
<polygon fill="#666666" stroke="#666666" points="226.5,-306.5 226.5,-306.5 247.5,-306.5 247.5,-306.5 226.5,-306.5"/>
<polygon fill="#666666" stroke="#666666" points="247.5,-306.5 247.5,-306.5 360.5,-306.5 360.5,-306.5 247.5,-306.5"/>
<polygon fill="none" stroke="#666666" points="226.5,-260 226.5,-339 360.5,-339 360.5,-260 226.5,-260"/>
</a>
</g>
</g>
<!-- Node1&#45;&gt;Node2 -->
<g id="edge1_Node000001_Node000002" class="edge">
<title>Node1&#45;&gt;Node2</title>
<g id="a_edge1_Node000001_Node000002"><a xlink:title=" ">
<path fill="none" stroke="#63b8ff" d="M293.5,-364.9C293.5,-355.76 293.5,-347.06 293.5,-339.19"/>
<polygon fill="none" stroke="#63b8ff" points="290,-364.97 293.5,-374.97 297,-364.97 290,-364.97"/>
</a>
</g>
</g>
<!-- Node3 -->
<g id="Node000003" class="node">
<title>Node3</title>
<g id="a_Node000003"><a xlink:href="classgagent_1_1CyclicBehaviour.html" target="_top" xlink:title=" ">
<polygon fill="white" stroke="transparent" points="129,-216.5 0,-216.5 0,-107.5 129,-107.5 129,-216.5"/>
<text text-anchor="start" x="5.5" y="-204" font-family="Helvetica,sans-Serif" font-size="10.00">gagent::CyclicBehaviour</text>
<text text-anchor="start" x="63" y="-189" font-family="Helvetica,sans-Serif" font-size="10.00"> </text>
<text text-anchor="start" x="7.5" y="-174" font-family="Helvetica,sans-Serif" font-size="10.00">+</text>
<text text-anchor="start" x="23.5" y="-174" font-family="Helvetica,sans-Serif" font-size="10.00">CyclicBehaviour()</text>
<text text-anchor="start" x="7.5" y="-159" font-family="Helvetica,sans-Serif" font-size="10.00">+</text>
<text text-anchor="start" x="23.5" y="-159" font-family="Helvetica,sans-Serif" font-size="10.00">CyclicBehaviour()</text>
<text text-anchor="start" x="7.5" y="-144" font-family="Helvetica,sans-Serif" font-size="10.00">+</text>
<text text-anchor="start" x="23.5" y="-144" font-family="Helvetica,sans-Serif" font-size="10.00">action()</text>
<text text-anchor="start" x="7.5" y="-129" font-family="Helvetica,sans-Serif" font-size="10.00">+</text>
<text text-anchor="start" x="23.5" y="-129" font-family="Helvetica,sans-Serif" font-size="10.00">done()</text>
<text text-anchor="start" x="7.5" y="-114" font-family="Helvetica,sans-Serif" font-size="10.00">+</text>
<text text-anchor="start" x="23.5" y="-114" font-family="Helvetica,sans-Serif" font-size="10.00">~CyclicBehaviour()</text>
<polygon fill="#666666" stroke="#666666" points="0.5,-199 0.5,-199 129.5,-199 129.5,-199 0.5,-199"/>
<polygon fill="#666666" stroke="#666666" points="0.5,-184 0.5,-184 129.5,-184 129.5,-184 0.5,-184"/>
<polygon fill="none" stroke="#666666" points="0,-107.5 0,-216.5 129,-216.5 129,-107.5 0,-107.5"/>
</a>
</g>
</g>
<!-- Node2&#45;&gt;Node3 -->
<g id="edge2_Node000002_Node000003" class="edge">
<title>Node2&#45;&gt;Node3</title>
<g id="a_edge2_Node000002_Node000003"><a xlink:title=" ">
<path fill="none" stroke="#63b8ff" d="M217.05,-266.23C191.37,-254.23 163.03,-239.68 138.5,-224 134.85,-221.67 131.18,-219.18 127.53,-216.59"/>
<polygon fill="none" stroke="#63b8ff" points="215.83,-269.52 226.38,-270.53 218.76,-263.16 215.83,-269.52"/>
</a>
</g>
</g>
<!-- Node4 -->
<g id="Node000004" class="node">
<title>Node4</title>
<g id="a_Node000004"><a xlink:href="classgagent_1_1OneShotBehaviour.html" target="_top" xlink:title=" ">
<polygon fill="white" stroke="transparent" points="288,-216.5 147,-216.5 147,-107.5 288,-107.5 288,-216.5"/>
<text text-anchor="start" x="152.5" y="-204" font-family="Helvetica,sans-Serif" font-size="10.00">gagent::OneShotBehaviour</text>
<text text-anchor="start" x="216" y="-189" font-family="Helvetica,sans-Serif" font-size="10.00"> </text>
<text text-anchor="start" x="154.5" y="-174" font-family="Helvetica,sans-Serif" font-size="10.00">+</text>
<text text-anchor="start" x="170.5" y="-174" font-family="Helvetica,sans-Serif" font-size="10.00">OneShotBehaviour()</text>
<text text-anchor="start" x="154.5" y="-159" font-family="Helvetica,sans-Serif" font-size="10.00">+</text>
<text text-anchor="start" x="170.5" y="-159" font-family="Helvetica,sans-Serif" font-size="10.00">OneShotBehaviour()</text>
<text text-anchor="start" x="154.5" y="-144" font-family="Helvetica,sans-Serif" font-size="10.00">+</text>
<text text-anchor="start" x="170.5" y="-144" font-family="Helvetica,sans-Serif" font-size="10.00">action()</text>
<text text-anchor="start" x="154.5" y="-129" font-family="Helvetica,sans-Serif" font-size="10.00">+</text>
<text text-anchor="start" x="170.5" y="-129" font-family="Helvetica,sans-Serif" font-size="10.00">done()</text>
<text text-anchor="start" x="154.5" y="-114" font-family="Helvetica,sans-Serif" font-size="10.00">+</text>
<text text-anchor="start" x="170.5" y="-114" font-family="Helvetica,sans-Serif" font-size="10.00">~OneShotBehaviour()</text>
<polygon fill="#666666" stroke="#666666" points="147.5,-199 147.5,-199 288.5,-199 288.5,-199 147.5,-199"/>
<polygon fill="#666666" stroke="#666666" points="147.5,-184 147.5,-184 288.5,-184 288.5,-184 147.5,-184"/>
<polygon fill="none" stroke="#666666" points="147,-107.5 147,-216.5 288,-216.5 288,-107.5 147,-107.5"/>
</a>
</g>
</g>
<!-- Node2&#45;&gt;Node4 -->
<g id="edge3_Node000002_Node000004" class="edge">
<title>Node2&#45;&gt;Node4</title>
<g id="a_edge3_Node000002_Node000004"><a xlink:title=" ">
<path fill="none" stroke="#63b8ff" d="M266.67,-250.66C260.51,-239.68 253.92,-227.94 247.64,-216.73"/>
<polygon fill="none" stroke="#63b8ff" points="263.78,-252.66 271.72,-259.67 269.88,-249.24 263.78,-252.66"/>
</a>
</g>
</g>
<!-- Node5 -->
<g id="Node000005" class="node">
<title>Node5</title>
<g id="a_Node000005"><a xlink:href="classgagent_1_1TickerBehaviour.html" target="_top" xlink:title=" ">
<polygon fill="white" stroke="transparent" points="435,-224 306,-224 306,-100 435,-100 435,-224"/>
<text text-anchor="start" x="311.5" y="-212" font-family="Helvetica,sans-Serif" font-size="10.00">gagent::TickerBehaviour</text>
<text text-anchor="start" x="369" y="-197" font-family="Helvetica,sans-Serif" font-size="10.00"> </text>
<text text-anchor="start" x="313.5" y="-182" font-family="Helvetica,sans-Serif" font-size="10.00">+</text>
<text text-anchor="start" x="329.5" y="-182" font-family="Helvetica,sans-Serif" font-size="10.00">TickerBehaviour()</text>
<text text-anchor="start" x="313.5" y="-167" font-family="Helvetica,sans-Serif" font-size="10.00">+</text>
<text text-anchor="start" x="329.5" y="-167" font-family="Helvetica,sans-Serif" font-size="10.00">TickerBehaviour()</text>
<text text-anchor="start" x="313.5" y="-152" font-family="Helvetica,sans-Serif" font-size="10.00">+</text>
<text text-anchor="start" x="329.5" y="-152" font-family="Helvetica,sans-Serif" font-size="10.00">action()</text>
<text text-anchor="start" x="313.5" y="-137" font-family="Helvetica,sans-Serif" font-size="10.00">+</text>
<text text-anchor="start" x="329.5" y="-137" font-family="Helvetica,sans-Serif" font-size="10.00">done()</text>
<text text-anchor="start" x="313.5" y="-122" font-family="Helvetica,sans-Serif" font-size="10.00">+</text>
<text text-anchor="start" x="329.5" y="-122" font-family="Helvetica,sans-Serif" font-size="10.00">onTick()</text>
<text text-anchor="start" x="313.5" y="-107" font-family="Helvetica,sans-Serif" font-size="10.00">+</text>
<text text-anchor="start" x="329.5" y="-107" font-family="Helvetica,sans-Serif" font-size="10.00">~TickerBehaviour()</text>
<polygon fill="#666666" stroke="#666666" points="306.5,-207 306.5,-207 435.5,-207 435.5,-207 306.5,-207"/>
<polygon fill="#666666" stroke="#666666" points="306.5,-192 306.5,-192 435.5,-192 435.5,-192 306.5,-192"/>
<polygon fill="none" stroke="#666666" points="306,-100 306,-224 435,-224 435,-100 306,-100"/>
</a>
</g>
</g>
<!-- Node2&#45;&gt;Node5 -->
<g id="edge4_Node000002_Node000005" class="edge">
<title>Node2&#45;&gt;Node5</title>
<g id="a_edge4_Node000002_Node000005"><a xlink:title=" ">
<path fill="none" stroke="#63b8ff" d="M320.58,-250.85C325.49,-242.2 330.68,-233.07 335.78,-224.09"/>
<polygon fill="none" stroke="#63b8ff" points="317.46,-249.25 315.57,-259.67 323.55,-252.71 317.46,-249.25"/>
</a>
</g>
</g>
<!-- Node7 -->
<g id="Node000007" class="node">
<title>Node7</title>
<g id="a_Node000007"><a xlink:href="classgagent_1_1WakerBehaviour.html" target="_top" xlink:title=" ">
<polygon fill="white" stroke="transparent" points="583.5,-224 453.5,-224 453.5,-100 583.5,-100 583.5,-224"/>
<text text-anchor="start" x="458.5" y="-212" font-family="Helvetica,sans-Serif" font-size="10.00">gagent::WakerBehaviour</text>
<text text-anchor="start" x="516.5" y="-197" font-family="Helvetica,sans-Serif" font-size="10.00"> </text>
<text text-anchor="start" x="460.5" y="-182" font-family="Helvetica,sans-Serif" font-size="10.00">+</text>
<text text-anchor="start" x="476.5" y="-182" font-family="Helvetica,sans-Serif" font-size="10.00">WakerBehaviour()</text>
<text text-anchor="start" x="460.5" y="-167" font-family="Helvetica,sans-Serif" font-size="10.00">+</text>
<text text-anchor="start" x="476.5" y="-167" font-family="Helvetica,sans-Serif" font-size="10.00">WakerBehaviour()</text>
<text text-anchor="start" x="460.5" y="-152" font-family="Helvetica,sans-Serif" font-size="10.00">+</text>
<text text-anchor="start" x="476.5" y="-152" font-family="Helvetica,sans-Serif" font-size="10.00">action()</text>
<text text-anchor="start" x="460.5" y="-137" font-family="Helvetica,sans-Serif" font-size="10.00">+</text>
<text text-anchor="start" x="476.5" y="-137" font-family="Helvetica,sans-Serif" font-size="10.00">done()</text>
<text text-anchor="start" x="460.5" y="-122" font-family="Helvetica,sans-Serif" font-size="10.00">+</text>
<text text-anchor="start" x="476.5" y="-122" font-family="Helvetica,sans-Serif" font-size="10.00">onWake()</text>
<text text-anchor="start" x="460.5" y="-107" font-family="Helvetica,sans-Serif" font-size="10.00">+</text>
<text text-anchor="start" x="476.5" y="-107" font-family="Helvetica,sans-Serif" font-size="10.00">~WakerBehaviour()</text>
<polygon fill="#666666" stroke="#666666" points="453.5,-207 453.5,-207 583.5,-207 583.5,-207 453.5,-207"/>
<polygon fill="#666666" stroke="#666666" points="453.5,-192 453.5,-192 583.5,-192 583.5,-192 453.5,-192"/>
<polygon fill="none" stroke="#666666" points="453.5,-100 453.5,-224 583.5,-224 583.5,-100 453.5,-100"/>
</a>
</g>
</g>
<!-- Node2&#45;&gt;Node7 -->
<g id="edge6_Node000002_Node000007" class="edge">
<title>Node2&#45;&gt;Node7</title>
<g id="a_edge6_Node000002_Node000007"><a xlink:title=" ">
<path fill="none" stroke="#63b8ff" d="M369.97,-265.01C394.44,-253.19 421.21,-239.06 444.5,-224 447.44,-222.1 450.39,-220.1 453.34,-218.04"/>
<polygon fill="none" stroke="#63b8ff" points="368.24,-261.96 360.72,-269.42 371.25,-268.28 368.24,-261.96"/>
</a>
</g>
</g>
<!-- Node6 -->
<g id="Node000006" class="node">
<title>Node6</title>
<g id="a_Node000006"><a xlink:href="classmyTickerBehaviour.html" target="_top" xlink:title=" ">
<polygon fill="white" stroke="transparent" points="432.5,-64 308.5,-64 308.5,0 432.5,0 432.5,-64"/>
<text text-anchor="start" x="323" y="-52" font-family="Helvetica,sans-Serif" font-size="10.00">myTickerBehaviour</text>
<text text-anchor="start" x="368.5" y="-37" font-family="Helvetica,sans-Serif" font-size="10.00"> </text>
<text text-anchor="start" x="312.5" y="-22" font-family="Helvetica,sans-Serif" font-size="10.00">+</text>
<text text-anchor="start" x="325.5" y="-22" font-family="Helvetica,sans-Serif" font-size="10.00">myTickerBehaviour()</text>
<text text-anchor="start" x="312.5" y="-7" font-family="Helvetica,sans-Serif" font-size="10.00">+</text>
<text text-anchor="start" x="325.5" y="-7" font-family="Helvetica,sans-Serif" font-size="10.00">onTick()</text>
<polygon fill="#666666" stroke="#666666" points="308.5,-47 308.5,-47 432.5,-47 432.5,-47 308.5,-47"/>
<polygon fill="#666666" stroke="#666666" points="308.5,-32 308.5,-32 432.5,-32 432.5,-32 308.5,-32"/>
<polygon fill="none" stroke="#666666" points="308.5,0 308.5,-64 432.5,-64 432.5,0 308.5,0"/>
</a>
</g>
</g>
<!-- Node5&#45;&gt;Node6 -->
<g id="edge5_Node000005_Node000006" class="edge">
<title>Node5&#45;&gt;Node6</title>
<g id="a_edge5_Node000005_Node000006"><a xlink:title=" ">
<path fill="none" stroke="#63b8ff" d="M370.5,-89.86C370.5,-80.92 370.5,-72.17 370.5,-64.31"/>
<polygon fill="none" stroke="#63b8ff" points="367,-90 370.5,-100 374,-90 367,-90"/>
</a>
</g>
</g>
</g>
</svg>
