<?xml version="1.0" encoding="UTF-8" standalone="no"?>
<!DOCTYPE svg PUBLIC "-//W3C//DTD SVG 1.1//EN"
 "http://www.w3.org/Graphics/SVG/1.1/DTD/svg11.dtd">
<!-- Generated by graphviz version 2.42.4 (0)
 -->
<!-- Title: gagent::EnvironnementGui::createWindow Pages: 1 -->
<svg width="529pt" height="172pt"
 viewBox="0.00 0.00 529.00 171.50" xmlns="http://www.w3.org/2000/svg" xmlns:xlink="http://www.w3.org/1999/xlink">
<g id="graph0" class="graph" transform="scale(1 1) rotate(0) translate(4 167.5)">
<title>gagent::EnvironnementGui::createWindow</title>
<!-- Node1 -->
<g id="Node000001" class="node">
<title>Node1</title>
<g id="a_Node000001"><a xlink:title=" ">
<polygon fill="#999999" stroke="#666666" points="147,-103.5 0,-103.5 0,-73.5 147,-73.5 147,-103.5"/>
<text text-anchor="start" x="8" y="-91.5" font-family="Helvetica,sans-Serif" font-size="10.00">gagent::EnvironnementGui</text>
<text text-anchor="middle" x="73.5" y="-80.5" font-family="Helvetica,sans-Serif" font-size="10.00">::createWindow</text>
</a>
</g>
</g>
<!-- Node2 -->
<g id="Node000002" class="node">
<title>Node2</title>
<g id="a_Node000002"><a xlink:href="classgagent_1_1Environnement.html#a58c0f52451d4d32f0b256f12e9feda1b" target="_top" xlink:title=" ">
<polygon fill="white" stroke="#666666" points="328.5,-157.5 184.5,-157.5 184.5,-127.5 328.5,-127.5 328.5,-157.5"/>
<text text-anchor="start" x="192.5" y="-145.5" font-family="Helvetica,sans-Serif" font-size="10.00">gagent::Environnement</text>
<text text-anchor="middle" x="256.5" y="-134.5" font-family="Helvetica,sans-Serif" font-size="10.00">::readDataFromQueueMsg</text>
</a>
</g>
</g>
<!-- Node1&#45;&gt;Node2 -->
<g id="edge1_Node000001_Node000002" class="edge">
<title>Node1&#45;&gt;Node2</title>
<g id="a_edge1_Node000001_Node000002"><a xlink:title=" ">
<path fill="none" stroke="#63b8ff" d="M124.92,-103.54C146.79,-110.07 172.58,-117.76 195.44,-124.58"/>
<polygon fill="#63b8ff" stroke="#63b8ff" points="194.45,-127.94 205.04,-127.45 196.46,-121.23 194.45,-127.94"/>
</a>
</g>
</g>
<!-- Node4 -->
<g id="Node000004" class="node">
<title>Node4</title>
<g id="a_Node000004"><a xlink:href="classgagent_1_1EnvironnementGui.html#ab3aeb4fe7ab4bb5c76936270ac530770" target="_top" xlink:title=" ">
<polygon fill="white" stroke="#666666" points="330,-103.5 183,-103.5 183,-73.5 330,-73.5 330,-103.5"/>
<text text-anchor="start" x="191" y="-91.5" font-family="Helvetica,sans-Serif" font-size="10.00">gagent::EnvironnementGui</text>
<text text-anchor="middle" x="256.5" y="-80.5" font-family="Helvetica,sans-Serif" font-size="10.00">::refresh</text>
</a>
</g>
</g>
<!-- Node1&#45;&gt;Node4 -->
<g id="edge3_Node000001_Node000004" class="edge">
<title>Node1&#45;&gt;Node4</title>
<g id="a_edge3_Node000001_Node000004"><a xlink:title=" ">
<path fill="none" stroke="#63b8ff" d="M147.08,-88.5C155.56,-88.5 164.26,-88.5 172.87,-88.5"/>
<polygon fill="#63b8ff" stroke="#63b8ff" points="172.91,-92 182.91,-88.5 172.91,-85 172.91,-92"/>
</a>
</g>
</g>
<!-- Node7 -->
<g id="Node000007" class="node">
<title>Node7</title>
<g id="a_Node000007"><a xlink:href="classUi__guiWindow.html#a4124a0eacb71bce904d53f9b78555ae5" target="_top" xlink:title=" ">
<polygon fill="white" stroke="#666666" points="321,-43 192,-43 192,-24 321,-24 321,-43"/>
<text text-anchor="middle" x="256.5" y="-31" font-family="Helvetica,sans-Serif" font-size="10.00">Ui_guiWindow::setupUi</text>
</a>
</g>
</g>
<!-- Node1&#45;&gt;Node7 -->
<g id="edge6_Node000001_Node000007" class="edge">
<title>Node1&#45;&gt;Node7</title>
<g id="a_edge6_Node000001_Node000007"><a xlink:title=" ">
<path fill="none" stroke="#63b8ff" d="M123.96,-73.47C152.27,-64.87 187.37,-54.2 214.19,-46.05"/>
<polygon fill="#63b8ff" stroke="#63b8ff" points="215.49,-49.32 224.04,-43.06 213.45,-42.62 215.49,-49.32"/>
</a>
</g>
</g>
<!-- Node3 -->
<g id="Node000003" class="node">
<title>Node3</title>
<g id="a_Node000003"><a xlink:href="classgagent_1_1MessageParser.html#aaecfba940da1afa76f961efca4a59ca9" target="_top" xlink:title=" ">
<polygon fill="white" stroke="#666666" points="508.5,-163.5 378.5,-163.5 378.5,-133.5 508.5,-133.5 508.5,-163.5"/>
<text text-anchor="start" x="386.5" y="-151.5" font-family="Helvetica,sans-Serif" font-size="10.00">gagent::MessageParser</text>
<text text-anchor="middle" x="443.5" y="-140.5" font-family="Helvetica,sans-Serif" font-size="10.00">::parsekeyValSeq</text>
</a>
</g>
</g>
<!-- Node2&#45;&gt;Node3 -->
<g id="edge2_Node000002_Node000003" class="edge">
<title>Node2&#45;&gt;Node3</title>
<g id="a_edge2_Node000002_Node000003"><a xlink:title=" ">
<path fill="none" stroke="#63b8ff" d="M328.76,-144.81C341.61,-145.23 355.04,-145.66 367.98,-146.08"/>
<polygon fill="#63b8ff" stroke="#63b8ff" points="368.13,-149.59 378.23,-146.42 368.35,-142.59 368.13,-149.59"/>
</a>
</g>
</g>
<!-- Node5 -->
<g id="Node000005" class="node">
<title>Node5</title>
<g id="a_Node000005"><a xlink:href="classgagent_1_1Environnement.html#a4987d67f0e7ca80ec9b3aef47b437077" target="_top" xlink:title=" ">
<polygon fill="white" stroke="#666666" points="509,-115.5 378,-115.5 378,-85.5 509,-85.5 509,-115.5"/>
<text text-anchor="start" x="386" y="-103.5" font-family="Helvetica,sans-Serif" font-size="10.00">gagent::Environnement</text>
<text text-anchor="middle" x="443.5" y="-92.5" font-family="Helvetica,sans-Serif" font-size="10.00">::event_loop</text>
</a>
</g>
</g>
<!-- Node4&#45;&gt;Node5 -->
<g id="edge4_Node000004_Node000005" class="edge">
<title>Node4&#45;&gt;Node5</title>
<g id="a_edge4_Node000004_Node000005"><a xlink:title=" ">
<path fill="none" stroke="#63b8ff" d="M330.09,-93.21C342.42,-94.01 355.26,-94.84 367.65,-95.64"/>
<polygon fill="#63b8ff" stroke="#63b8ff" points="367.73,-99.16 377.94,-96.31 368.19,-92.17 367.73,-99.16"/>
</a>
</g>
</g>
<!-- Node6 -->
<g id="Node000006" class="node">
<title>Node6</title>
<g id="a_Node000006"><a xlink:href="classgagent_1_1Environnement.html#a8f5e75fdf25cc3bf7af50e26270000e8" target="_top" xlink:title=" ">
<polygon fill="white" stroke="#666666" points="509,-67.5 378,-67.5 378,-37.5 509,-37.5 509,-67.5"/>
<text text-anchor="start" x="386" y="-55.5" font-family="Helvetica,sans-Serif" font-size="10.00">gagent::Environnement</text>
<text text-anchor="middle" x="443.5" y="-44.5" font-family="Helvetica,sans-Serif" font-size="10.00">::make_agent</text>
</a>
</g>
</g>
<!-- Node4&#45;&gt;Node6 -->
<g id="edge5_Node000004_Node000006" class="edge">
<title>Node4&#45;&gt;Node6</title>
<g id="a_edge5_Node000004_Node000006"><a xlink:title=" ">
<path fill="none" stroke="#63b8ff" d="M330.09,-74.38C342.55,-71.95 355.51,-69.43 368.02,-66.99"/>
<polygon fill="#63b8ff" stroke="#63b8ff" points="368.79,-70.41 377.94,-65.06 367.45,-63.54 368.79,-70.41"/>
</a>
</g>
</g>
<!-- Node8 -->
<g id="Node000008" class="node">
<title>Node8</title>
<g id="a_Node000008"><a xlink:href="classUi__guiWindow.html#a30b67e126e4df6b05a626afb4c2665c2" target="_top" xlink:title=" ">
<polygon fill="white" stroke="#666666" points="521,-19 366,-19 366,0 521,0 521,-19"/>
<text text-anchor="middle" x="443.5" y="-7" font-family="Helvetica,sans-Serif" font-size="10.00">Ui_guiWindow::retranslateUi</text>
</a>
</g>
</g>
<!-- Node7&#45;&gt;Node8 -->
<g id="edge7_Node000007_Node000008" class="edge">
<title>Node7&#45;&gt;Node8</title>
<g id="a_edge7_Node000007_Node000008"><a xlink:title=" ">
<path fill="none" stroke="#63b8ff" d="M321.17,-25.24C333.37,-23.66 346.32,-21.98 359.04,-20.33"/>
<polygon fill="#63b8ff" stroke="#63b8ff" points="359.71,-23.77 369.18,-19.01 358.81,-16.83 359.71,-23.77"/>
</a>
</g>
</g>
</g>
</svg>
