<?xml version="1.0" encoding="UTF-8" standalone="no"?>
<!DOCTYPE svg PUBLIC "-//W3C//DTD SVG 1.1//EN"
 "http://www.w3.org/Graphics/SVG/1.1/DTD/svg11.dtd">
<!-- Generated by graphviz version 2.42.4 (0)
 -->
<!-- Title: udp_client_server::udp_client_server_runtime_error Pages: 1 -->
<svg width="177pt" height="164pt"
 viewBox="0.00 0.00 177.00 164.00" xmlns="http://www.w3.org/2000/svg" xmlns:xlink="http://www.w3.org/1999/xlink">

<svg id="main" version="1.1" xmlns="http://www.w3.org/2000/svg" xmlns:xlink="http://www.w3.org/1999/xlink" xml:space="preserve" onload="init(evt)">
<style type="text/css"><![CDATA[
.node, .edge {opacity: 0.7;}
.node.selected, .edge.selected {opacity: 1;}
.edge:hover path { stroke: red; }
.edge:hover polygon { stroke: red; fill: red; }
]]></style>
<script type="application/ecmascript" xlink:href="svg.min.js"/>
<svg id="graph" class="graph">
<g id="graph0" class="graph" transform="scale(1 1) rotate(0) translate(4 160)">
<title>udp_client_server::udp_client_server_runtime_error</title>
<!-- Node1 -->
<g id="Node000001" class="node">
<title>Node1</title>
<g id="a_Node000001"><a xlink:title=" ">
<polygon fill="#999999" stroke="transparent" points="169,-71 0,-71 0,0 169,0 169,-71"/>
<text text-anchor="start" x="5.5" y="-58.5" font-family="Helvetica,sans-Serif" font-size="10.00">udp_client_server::</text>
<text text-anchor="start" x="5.5" y="-47.5" font-family="Helvetica,sans-Serif" font-size="10.00">udp_client_server_runtime_error</text>
<text text-anchor="start" x="83" y="-32.5" font-family="Helvetica,sans-Serif" font-size="10.00"> </text>
<text text-anchor="start" x="9" y="-17.5" font-family="Helvetica,sans-Serif" font-size="10.00">+</text>
<text text-anchor="start" x="26.5" y="-17.5" font-family="Helvetica,sans-Serif" font-size="10.00">udp_client_server_runtime</text>
<text text-anchor="start" x="26.5" y="-6.5" font-family="Helvetica,sans-Serif" font-size="10.00">_error()</text>
<polygon fill="#666666" stroke="#666666" points="0.5,-42.5 0.5,-42.5 169.5,-42.5 169.5,-42.5 0.5,-42.5"/>
<polygon fill="#666666" stroke="#666666" points="0.5,-27.5 0.5,-27.5 169.5,-27.5 169.5,-27.5 0.5,-27.5"/>
<polygon fill="none" stroke="#666666" points="0,0 0,-71 169,-71 169,0 0,0"/>
</a>
</g>
</g>
<!-- Node2 -->
<g id="Node000002" class="node">
<title>Node2</title>
<g id="a_Node000002"><a xlink:title=" ">
<polygon fill="white" stroke="transparent" points="133.5,-156 35.5,-156 35.5,-107 133.5,-107 133.5,-156"/>
<text text-anchor="start" x="40.5" y="-143.5" font-family="Helvetica,sans-Serif" font-size="10.00">std::runtime_error</text>
<text text-anchor="start" x="82.5" y="-128.5" font-family="Helvetica,sans-Serif" font-size="10.00"> </text>
<text text-anchor="start" x="82.5" y="-113.5" font-family="Helvetica,sans-Serif" font-size="10.00"> </text>
<polygon fill="#666666" stroke="#666666" points="35.5,-138.5 35.5,-138.5 133.5,-138.5 133.5,-138.5 35.5,-138.5"/>
<polygon fill="#666666" stroke="#666666" points="35.5,-123.5 35.5,-123.5 133.5,-123.5 133.5,-123.5 35.5,-123.5"/>
<polygon fill="none" stroke="#666666" points="35.5,-107 35.5,-156 133.5,-156 133.5,-107 35.5,-107"/>
</a>
</g>
</g>
<!-- Node2&#45;&gt;Node1 -->
<g id="edge1_Node000001_Node000002" class="edge">
<title>Node2&#45;&gt;Node1</title>
<g id="a_edge1_Node000001_Node000002"><a xlink:title=" ">
<path fill="none" stroke="#63b8ff" d="M84.5,-96.7C84.5,-88.42 84.5,-79.55 84.5,-71.23"/>
<polygon fill="none" stroke="#63b8ff" points="81,-96.78 84.5,-106.78 88,-96.78 81,-96.78"/>
</a>
</g>
</g>
</g>
</svg>
</svg>

<style type='text/css'>
<![CDATA[
[data-mouse-over-selected='false'] { opacity: 0.7; }
[data-mouse-over-selected='true']  { opacity: 1.0; }
]]>
</style>
<script type="application/ecmascript"><![CDATA[
document.addEventListener('DOMContentLoaded', (event) => {
  highlightEdges();
  highlightAdjacentNodes();
});
]]></script>
</svg>
