<?xml version="1.0" encoding="UTF-8" standalone="no"?>
<!DOCTYPE svg PUBLIC "-//W3C//DTD SVG 1.1//EN"
 "http://www.w3.org/Graphics/SVG/1.1/DTD/svg11.dtd">
<!-- Generated by graphviz version 2.42.4 (0)
 -->
<!-- Title: gagent::CyclicBehaviour Pages: 1 -->
<svg width="236pt" height="936pt"
 viewBox="0.00 0.00 235.50 936.00" xmlns="http://www.w3.org/2000/svg" xmlns:xlink="http://www.w3.org/1999/xlink">
<g id="graph0" class="graph" transform="scale(1 1) rotate(0) translate(4 932)">
<title>gagent::CyclicBehaviour</title>
<!-- Node1 -->
<g id="Node000001" class="node">
<title>Node1</title>
<g id="a_Node000001"><a xlink:title=" ">
<polygon fill="#999999" stroke="transparent" points="153,-109 24,-109 24,0 153,0 153,-109"/>
<text text-anchor="start" x="29.5" y="-96.5" font-family="Helvetica,sans-Serif" font-size="10.00">gagent::CyclicBehaviour</text>
<text text-anchor="start" x="87" y="-81.5" font-family="Helvetica,sans-Serif" font-size="10.00"> </text>
<text text-anchor="start" x="31.5" y="-66.5" font-family="Helvetica,sans-Serif" font-size="10.00">+</text>
<text text-anchor="start" x="47.5" y="-66.5" font-family="Helvetica,sans-Serif" font-size="10.00">CyclicBehaviour()</text>
<text text-anchor="start" x="31.5" y="-51.5" font-family="Helvetica,sans-Serif" font-size="10.00">+</text>
<text text-anchor="start" x="47.5" y="-51.5" font-family="Helvetica,sans-Serif" font-size="10.00">CyclicBehaviour()</text>
<text text-anchor="start" x="31.5" y="-36.5" font-family="Helvetica,sans-Serif" font-size="10.00">+</text>
<text text-anchor="start" x="47.5" y="-36.5" font-family="Helvetica,sans-Serif" font-size="10.00">action()</text>
<text text-anchor="start" x="31.5" y="-21.5" font-family="Helvetica,sans-Serif" font-size="10.00">+</text>
<text text-anchor="start" x="47.5" y="-21.5" font-family="Helvetica,sans-Serif" font-size="10.00">done()</text>
<text text-anchor="start" x="31.5" y="-6.5" font-family="Helvetica,sans-Serif" font-size="10.00">+</text>
<text text-anchor="start" x="47.5" y="-6.5" font-family="Helvetica,sans-Serif" font-size="10.00">~CyclicBehaviour()</text>
<polygon fill="#666666" stroke="#666666" points="24.5,-91.5 24.5,-91.5 153.5,-91.5 153.5,-91.5 24.5,-91.5"/>
<polygon fill="#666666" stroke="#666666" points="24.5,-76.5 24.5,-76.5 153.5,-76.5 153.5,-76.5 24.5,-76.5"/>
<polygon fill="none" stroke="#666666" points="24,0 24,-109 153,-109 153,0 24,0"/>
</a>
</g>
</g>
<!-- Node2 -->
<g id="Node000002" class="node">
<title>Node2</title>
<g id="a_Node000002"><a xlink:href="classgagent_1_1SimpleBehaviour.html" target="_top" xlink:title=" ">
<polygon fill="white" stroke="transparent" points="155.5,-225 21.5,-225 21.5,-146 155.5,-146 155.5,-225"/>
<text text-anchor="start" x="26.5" y="-212.5" font-family="Helvetica,sans-Serif" font-size="10.00">gagent::SimpleBehaviour</text>
<text text-anchor="start" x="86.5" y="-197.5" font-family="Helvetica,sans-Serif" font-size="10.00"> </text>
<text text-anchor="start" x="28.5" y="-182.5" font-family="Helvetica,sans-Serif" font-size="10.00">+</text>
<text text-anchor="start" x="44.5" y="-182.5" font-family="Helvetica,sans-Serif" font-size="10.00">SimpleBehaviour()</text>
<text text-anchor="start" x="28.5" y="-167.5" font-family="Helvetica,sans-Serif" font-size="10.00">+</text>
<text text-anchor="start" x="44.5" y="-167.5" font-family="Helvetica,sans-Serif" font-size="10.00">SimpleBehaviour()</text>
<text text-anchor="start" x="28.5" y="-152.5" font-family="Helvetica,sans-Serif" font-size="10.00">+</text>
<text text-anchor="start" x="44.5" y="-152.5" font-family="Helvetica,sans-Serif" font-size="10.00">~SimpleBehaviour()</text>
<polygon fill="#666666" stroke="#666666" points="21.5,-207.5 21.5,-207.5 155.5,-207.5 155.5,-207.5 21.5,-207.5"/>
<polygon fill="#666666" stroke="#666666" points="21.5,-192.5 21.5,-192.5 155.5,-192.5 155.5,-192.5 21.5,-192.5"/>
<polygon fill="none" stroke="#666666" points="21.5,-146 21.5,-225 155.5,-225 155.5,-146 21.5,-146"/>
</a>
</g>
</g>
<!-- Node2&#45;&gt;Node1 -->
<g id="edge1_Node000001_Node000002" class="edge">
<title>Node2&#45;&gt;Node1</title>
<g id="a_edge1_Node000001_Node000002"><a xlink:title=" ">
<path fill="none" stroke="#63b8ff" d="M88.5,-135.6C88.5,-127.05 88.5,-118.12 88.5,-109.44"/>
<polygon fill="none" stroke="#63b8ff" points="85,-135.8 88.5,-145.8 92,-135.8 85,-135.8"/>
</a>
</g>
</g>
<!-- Node3 -->
<g id="Node000003" class="node">
<title>Node3</title>
<g id="a_Node000003"><a xlink:href="classgagent_1_1Behaviour.html" target="_top" xlink:title=" ">
<polygon fill="white" stroke="transparent" points="227.5,-506 127.5,-506 127.5,-262 227.5,-262 227.5,-506"/>
<text text-anchor="start" x="132.5" y="-494" font-family="Helvetica,sans-Serif" font-size="10.00">gagent::Behaviour</text>
<text text-anchor="start" x="175.5" y="-479" font-family="Helvetica,sans-Serif" font-size="10.00"> </text>
<text text-anchor="start" x="134.5" y="-464" font-family="Helvetica,sans-Serif" font-size="10.00">+</text>
<text text-anchor="start" x="150.5" y="-464" font-family="Helvetica,sans-Serif" font-size="10.00">Behaviour()</text>
<text text-anchor="start" x="134.5" y="-449" font-family="Helvetica,sans-Serif" font-size="10.00">+</text>
<text text-anchor="start" x="150.5" y="-449" font-family="Helvetica,sans-Serif" font-size="10.00">Behaviour()</text>
<text text-anchor="start" x="134.5" y="-434" font-family="Helvetica,sans-Serif" font-size="10.00">+</text>
<text text-anchor="start" x="150.5" y="-434" font-family="Helvetica,sans-Serif" font-size="10.00">action()</text>
<text text-anchor="start" x="134.5" y="-419" font-family="Helvetica,sans-Serif" font-size="10.00">+</text>
<text text-anchor="start" x="150.5" y="-419" font-family="Helvetica,sans-Serif" font-size="10.00">done()</text>
<text text-anchor="start" x="134.5" y="-404" font-family="Helvetica,sans-Serif" font-size="10.00">+</text>
<text text-anchor="start" x="150.5" y="-404" font-family="Helvetica,sans-Serif" font-size="10.00">onStart()</text>
<text text-anchor="start" x="134.5" y="-389" font-family="Helvetica,sans-Serif" font-size="10.00">+</text>
<text text-anchor="start" x="150.5" y="-389" font-family="Helvetica,sans-Serif" font-size="10.00">onEnd()</text>
<text text-anchor="start" x="134.5" y="-374" font-family="Helvetica,sans-Serif" font-size="10.00">+</text>
<text text-anchor="start" x="150.5" y="-374" font-family="Helvetica,sans-Serif" font-size="10.00">doDelete()</text>
<text text-anchor="start" x="134.5" y="-359" font-family="Helvetica,sans-Serif" font-size="10.00">+</text>
<text text-anchor="start" x="150.5" y="-359" font-family="Helvetica,sans-Serif" font-size="10.00">doActivate()</text>
<text text-anchor="start" x="134.5" y="-344" font-family="Helvetica,sans-Serif" font-size="10.00">+</text>
<text text-anchor="start" x="150.5" y="-344" font-family="Helvetica,sans-Serif" font-size="10.00">doSuspend()</text>
<text text-anchor="start" x="134.5" y="-329" font-family="Helvetica,sans-Serif" font-size="10.00">+</text>
<text text-anchor="start" x="150.5" y="-329" font-family="Helvetica,sans-Serif" font-size="10.00">doWait()</text>
<text text-anchor="start" x="134.5" y="-314" font-family="Helvetica,sans-Serif" font-size="10.00">+</text>
<text text-anchor="start" x="150.5" y="-314" font-family="Helvetica,sans-Serif" font-size="10.00">doWake()</text>
<text text-anchor="start" x="134.5" y="-299" font-family="Helvetica,sans-Serif" font-size="10.00">+</text>
<text text-anchor="start" x="150.5" y="-299" font-family="Helvetica,sans-Serif" font-size="10.00">doMove()</text>
<text text-anchor="start" x="134.5" y="-284" font-family="Helvetica,sans-Serif" font-size="10.00">+</text>
<text text-anchor="start" x="150.5" y="-284" font-family="Helvetica,sans-Serif" font-size="10.00">doAction()</text>
<text text-anchor="start" x="134.5" y="-269" font-family="Helvetica,sans-Serif" font-size="10.00">+</text>
<text text-anchor="start" x="150.5" y="-269" font-family="Helvetica,sans-Serif" font-size="10.00">~Behaviour()</text>
<polygon fill="#666666" stroke="#666666" points="127.5,-489 127.5,-489 227.5,-489 227.5,-489 127.5,-489"/>
<polygon fill="#666666" stroke="#666666" points="127.5,-474 127.5,-474 227.5,-474 227.5,-474 127.5,-474"/>
<polygon fill="none" stroke="#666666" points="127.5,-262 127.5,-506 227.5,-506 227.5,-262 127.5,-262"/>
</a>
</g>
</g>
<!-- Node3&#45;&gt;Node2 -->
<g id="edge2_Node000002_Node000003" class="edge">
<title>Node3&#45;&gt;Node2</title>
<g id="a_edge2_Node000002_Node000003"><a xlink:title=" ">
<path fill="none" stroke="#63b8ff" d="M123.12,-262.94C116.99,-249.4 111.12,-236.44 106.01,-225.16"/>
<polygon fill="none" stroke="#63b8ff" points="120.09,-264.74 127.41,-272.4 126.47,-261.85 120.09,-264.74"/>
</a>
</g>
</g>
<!-- Node4 -->
<g id="Node000004" class="node">
<title>Node4</title>
<g id="a_Node000004"><a xlink:href="classgagent_1_1Agent.html" target="_top" xlink:title=" ">
<polygon fill="white" stroke="transparent" points="135,-928 0,-928 0,-553 135,-553 135,-928"/>
<text text-anchor="start" x="33.5" y="-915.5" font-family="Helvetica,sans-Serif" font-size="10.00">gagent::Agent</text>
<text text-anchor="start" x="4.5" y="-900.5" font-family="Helvetica,sans-Serif" font-size="10.00">+</text>
<text text-anchor="start" x="17.5" y="-900.5" font-family="Helvetica,sans-Serif" font-size="10.00">agentStatus</text>
<text text-anchor="start" x="4.5" y="-885.5" font-family="Helvetica,sans-Serif" font-size="10.00">+</text>
<text text-anchor="start" x="17.5" y="-885.5" font-family="Helvetica,sans-Serif" font-size="10.00">chldpid</text>
<text text-anchor="start" x="4.5" y="-870.5" font-family="Helvetica,sans-Serif" font-size="10.00">+</text>
<text text-anchor="start" x="17.5" y="-870.5" font-family="Helvetica,sans-Serif" font-size="10.00">ppid</text>
<text text-anchor="start" x="4.5" y="-855.5" font-family="Helvetica,sans-Serif" font-size="10.00">+</text>
<text text-anchor="start" x="17.5" y="-855.5" font-family="Helvetica,sans-Serif" font-size="10.00">AGENT_UNKNOWN</text>
<text text-anchor="start" x="4.5" y="-840.5" font-family="Helvetica,sans-Serif" font-size="10.00">+</text>
<text text-anchor="start" x="17.5" y="-840.5" font-family="Helvetica,sans-Serif" font-size="10.00">AGENT_CREATED</text>
<text text-anchor="start" x="4.5" y="-825.5" font-family="Helvetica,sans-Serif" font-size="10.00">+</text>
<text text-anchor="start" x="17.5" y="-825.5" font-family="Helvetica,sans-Serif" font-size="10.00">AGENT_INITED</text>
<text text-anchor="start" x="4.5" y="-810.5" font-family="Helvetica,sans-Serif" font-size="10.00">+</text>
<text text-anchor="start" x="17.5" y="-810.5" font-family="Helvetica,sans-Serif" font-size="10.00">AGENT_ACTIVE</text>
<text text-anchor="start" x="4.5" y="-795.5" font-family="Helvetica,sans-Serif" font-size="10.00">+</text>
<text text-anchor="start" x="17.5" y="-795.5" font-family="Helvetica,sans-Serif" font-size="10.00">AGENT_SUSPENDED</text>
<text text-anchor="start" x="4.5" y="-780.5" font-family="Helvetica,sans-Serif" font-size="10.00">+</text>
<text text-anchor="start" x="17.5" y="-780.5" font-family="Helvetica,sans-Serif" font-size="10.00">AGENT_TRANSIT</text>
<text text-anchor="start" x="4.5" y="-765.5" font-family="Helvetica,sans-Serif" font-size="10.00">+</text>
<text text-anchor="start" x="17.5" y="-765.5" font-family="Helvetica,sans-Serif" font-size="10.00">AGENT_WAITING</text>
<text text-anchor="start" x="4.5" y="-750.5" font-family="Helvetica,sans-Serif" font-size="10.00">+</text>
<text text-anchor="start" x="17.5" y="-750.5" font-family="Helvetica,sans-Serif" font-size="10.00">AGENT_DELETED</text>
<text text-anchor="start" x="4.5" y="-735.5" font-family="Helvetica,sans-Serif" font-size="10.00">+</text>
<text text-anchor="start" x="17.5" y="-735.5" font-family="Helvetica,sans-Serif" font-size="10.00">AGENT_WAKING</text>
<text text-anchor="start" x="4.5" y="-720.5" font-family="Helvetica,sans-Serif" font-size="10.00">+</text>
<text text-anchor="start" x="17.5" y="-720.5" font-family="Helvetica,sans-Serif" font-size="10.00">Agent()</text>
<text text-anchor="start" x="4.5" y="-705.5" font-family="Helvetica,sans-Serif" font-size="10.00">+</text>
<text text-anchor="start" x="17.5" y="-705.5" font-family="Helvetica,sans-Serif" font-size="10.00">~Agent()</text>
<text text-anchor="start" x="4.5" y="-690.5" font-family="Helvetica,sans-Serif" font-size="10.00">+</text>
<text text-anchor="start" x="17.5" y="-690.5" font-family="Helvetica,sans-Serif" font-size="10.00">is_notification()</text>
<text text-anchor="start" x="4.5" y="-675.5" font-family="Helvetica,sans-Serif" font-size="10.00">+</text>
<text text-anchor="start" x="17.5" y="-675.5" font-family="Helvetica,sans-Serif" font-size="10.00">scheduler()</text>
<text text-anchor="start" x="4.5" y="-660.5" font-family="Helvetica,sans-Serif" font-size="10.00">+</text>
<text text-anchor="start" x="17.5" y="-660.5" font-family="Helvetica,sans-Serif" font-size="10.00">exthread()</text>
<text text-anchor="start" x="4.5" y="-645.5" font-family="Helvetica,sans-Serif" font-size="10.00">+</text>
<text text-anchor="start" x="17.5" y="-645.5" font-family="Helvetica,sans-Serif" font-size="10.00">control_Thread()</text>
<text text-anchor="start" x="4.5" y="-630.5" font-family="Helvetica,sans-Serif" font-size="10.00">+</text>
<text text-anchor="start" x="17.5" y="-630.5" font-family="Helvetica,sans-Serif" font-size="10.00">listener_extern_signals</text>
<text text-anchor="start" x="17.5" y="-619.5" font-family="Helvetica,sans-Serif" font-size="10.00">_Thread()</text>
<text text-anchor="start" x="4.5" y="-604.5" font-family="Helvetica,sans-Serif" font-size="10.00">+</text>
<text text-anchor="start" x="17.5" y="-604.5" font-family="Helvetica,sans-Serif" font-size="10.00">control_message()</text>
<text text-anchor="start" x="4.5" y="-589.5" font-family="Helvetica,sans-Serif" font-size="10.00">+</text>
<text text-anchor="start" x="17.5" y="-589.5" font-family="Helvetica,sans-Serif" font-size="10.00">init()</text>
<text text-anchor="start" x="4.5" y="-574.5" font-family="Helvetica,sans-Serif" font-size="10.00">+</text>
<text text-anchor="start" x="17.5" y="-574.5" font-family="Helvetica,sans-Serif" font-size="10.00">_init()</text>
<text text-anchor="start" x="17.5" y="-559.5" font-family="Helvetica,sans-Serif" font-size="10.00">and 19 more...</text>
<polygon fill="#666666" stroke="#666666" points="0.5,-910.5 0.5,-910.5 135.5,-910.5 135.5,-910.5 0.5,-910.5"/>
<polygon fill="#666666" stroke="#666666" points="0.5,-730.5 0.5,-730.5 15.5,-730.5 15.5,-730.5 0.5,-730.5"/>
<polygon fill="#666666" stroke="#666666" points="15.5,-730.5 15.5,-730.5 135.5,-730.5 135.5,-730.5 15.5,-730.5"/>
<polygon fill="none" stroke="#666666" points="0,-553 0,-928 135,-928 135,-553 0,-553"/>
</a>
</g>
</g>
<!-- Node4&#45;&gt;Node2 -->
<g id="edge5_Node000002_Node000004" class="edge">
<title>Node4&#45;&gt;Node2</title>
<g id="a_edge5_Node000002_Node000004"><a xlink:title=" ">
<path fill="none" stroke="#63b8ff" d="M48.3,-552.78C43.36,-464.04 43.48,-356.87 60.5,-262 61.99,-253.68 64.35,-245.07 67.07,-236.78"/>
<polygon fill="none" stroke="#63b8ff" points="67.11,-236.65 65.34,-229.66 71.11,-225.33 72.88,-232.32 67.11,-236.65"/>
</a>
</g>
<text text-anchor="middle" x="89.5" y="-381.5" font-family="Helvetica,sans-Serif" font-size="10.00" fill="grey"> +thisAgent</text>
</g>
<!-- Node4&#45;&gt;Node3 -->
<g id="edge3_Node000003_Node000004" class="edge">
<title>Node4&#45;&gt;Node3</title>
<g id="a_edge3_Node000003_Node000004"><a xlink:title=" ">
<path fill="none" stroke="#63b8ff" d="M125.4,-552.91C129.05,-541.15 132.68,-529.44 136.23,-518"/>
<polygon fill="none" stroke="#63b8ff" points="136.34,-517.64 134.3,-510.72 139.9,-506.18 141.94,-513.09 136.34,-517.64"/>
</a>
</g>
<text text-anchor="middle" x="163" y="-527" font-family="Helvetica,sans-Serif" font-size="10.00" fill="grey"> +this_agent</text>
</g>
<!-- Node4&#45;&gt;Node4 -->
<g id="edge4_Node000004_Node000004" class="edge">
<title>Node4&#45;&gt;Node4</title>
<g id="a_edge4_Node000004_Node000004"><a xlink:title=" ">
<path fill="none" stroke="#63b8ff" d="M135.23,-776.58C145.8,-771.19 153,-759.16 153,-740.5 153,-728.25 149.9,-718.86 144.78,-712.33"/>
<polygon fill="none" stroke="#63b8ff" points="144.47,-712.07 137.3,-711.32 135.23,-704.42 142.41,-705.17 144.47,-712.07"/>
</a>
</g>
<text text-anchor="middle" x="184.5" y="-738" font-family="Helvetica,sans-Serif" font-size="10.00" fill="grey"> +this_agent</text>
</g>
</g>
</svg>
