<?xml version="1.0" encoding="UTF-8" standalone="no"?>
<!DOCTYPE svg PUBLIC "-//W3C//DTD SVG 1.1//EN"
 "http://www.w3.org/Graphics/SVG/1.1/DTD/svg11.dtd">
<!-- Generated by graphviz version 2.42.4 (0)
 -->
<!-- Title: myAgent::setup Pages: 1 -->
<svg width="306pt" height="138pt"
 viewBox="0.00 0.00 306.00 138.00" xmlns="http://www.w3.org/2000/svg" xmlns:xlink="http://www.w3.org/1999/xlink">
<g id="graph0" class="graph" transform="scale(1 1) rotate(0) translate(4 134)">
<title>myAgent::setup</title>
<!-- Node1 -->
<g id="Node000001" class="node">
<title>Node1</title>
<g id="a_Node000001"><a xlink:title=" ">
<polygon fill="#999999" stroke="#666666" points="94,-74 0,-74 0,-55 94,-55 94,-74"/>
<text text-anchor="middle" x="47" y="-62" font-family="Helvetica,sans-Serif" font-size="10.00">myAgent::setup</text>
</a>
</g>
</g>
<!-- Node2 -->
<g id="Node000002" class="node">
<title>Node2</title>
<g id="a_Node000002"><a xlink:href="classgagent_1_1Agent.html#a41628f5aaf943aec395ea634f7eefc5c" target="_top" xlink:title=" ">
<polygon fill="white" stroke="#666666" points="287,-130 141,-130 141,-111 287,-111 287,-130"/>
<text text-anchor="middle" x="214" y="-118" font-family="Helvetica,sans-Serif" font-size="10.00">gagent::Agent::addAttribut</text>
</a>
</g>
</g>
<!-- Node1&#45;&gt;Node2 -->
<g id="edge1_Node000001_Node000002" class="edge">
<title>Node1&#45;&gt;Node2</title>
<g id="a_edge1_Node000001_Node000002"><a xlink:title=" ">
<path fill="none" stroke="#63b8ff" d="M65.77,-74.13C82.07,-82.62 107.09,-94.81 130,-102.5 136.48,-104.67 143.34,-106.65 150.22,-108.43"/>
<polygon fill="#63b8ff" stroke="#63b8ff" points="149.73,-111.92 160.28,-110.9 151.4,-105.12 149.73,-111.92"/>
</a>
</g>
</g>
<!-- Node3 -->
<g id="Node000003" class="node">
<title>Node3</title>
<g id="a_Node000003"><a xlink:href="classgagent_1_1Agent.html#a40551d854a1e0e7532600c7c388e6334" target="_top" xlink:title=" ">
<polygon fill="white" stroke="#666666" points="293,-93 135,-93 135,-74 293,-74 293,-93"/>
<text text-anchor="middle" x="214" y="-81" font-family="Helvetica,sans-Serif" font-size="10.00">gagent::Agent::addBehaviour</text>
</a>
</g>
</g>
<!-- Node1&#45;&gt;Node3 -->
<g id="edge2_Node000001_Node000003" class="edge">
<title>Node1&#45;&gt;Node3</title>
<g id="a_edge2_Node000001_Node000003"><a xlink:title=" ">
<path fill="none" stroke="#63b8ff" d="M94.4,-69.84C103.94,-70.94 114.27,-72.13 124.73,-73.34"/>
<polygon fill="#63b8ff" stroke="#63b8ff" points="124.44,-76.83 134.78,-74.49 125.24,-69.87 124.44,-76.83"/>
</a>
</g>
</g>
<!-- Node4 -->
<g id="Node000004" class="node">
<title>Node4</title>
<g id="a_Node000004"><a xlink:href="classgagent_1_1Agent.html#a2fb5f94c03b55f39b255f65e8992c537" target="_top" xlink:title=" ">
<polygon fill="white" stroke="#666666" points="298,-56 130,-56 130,-37 298,-37 298,-56"/>
<text text-anchor="middle" x="214" y="-44" font-family="Helvetica,sans-Serif" font-size="10.00">gagent::Agent::attributUpdated</text>
</a>
</g>
</g>
<!-- Node1&#45;&gt;Node4 -->
<g id="edge3_Node000001_Node000004" class="edge">
<title>Node1&#45;&gt;Node4</title>
<g id="a_edge3_Node000001_Node000004"><a xlink:title=" ">
<path fill="none" stroke="#63b8ff" d="M94.4,-59.44C102.43,-58.56 111.04,-57.62 119.8,-56.67"/>
<polygon fill="#63b8ff" stroke="#63b8ff" points="120.19,-60.15 129.75,-55.58 119.43,-53.19 120.19,-60.15"/>
</a>
</g>
</g>
<!-- Node5 -->
<g id="Node000005" class="node">
<title>Node5</title>
<g id="a_Node000005"><a xlink:href="classgagent_1_1Agent.html#a7f4cced0b2267f56270a2ff7a99cb12a" target="_top" xlink:title=" ">
<polygon fill="white" stroke="#666666" points="285.5,-19 142.5,-19 142.5,0 285.5,0 285.5,-19"/>
<text text-anchor="middle" x="214" y="-7" font-family="Helvetica,sans-Serif" font-size="10.00">gagent::Agent::setAttribut</text>
</a>
</g>
</g>
<!-- Node1&#45;&gt;Node5 -->
<g id="edge4_Node000001_Node000005" class="edge">
<title>Node1&#45;&gt;Node5</title>
<g id="a_edge4_Node000001_Node000005"><a xlink:title=" ">
<path fill="none" stroke="#63b8ff" d="M67.15,-54.86C83.51,-46.92 107.86,-35.82 130,-28.5 137.78,-25.93 146.09,-23.58 154.33,-21.47"/>
<polygon fill="#63b8ff" stroke="#63b8ff" points="155.42,-24.81 164.3,-19.03 153.75,-18.01 155.42,-24.81"/>
</a>
</g>
</g>
</g>
</svg>
