<?xml version="1.0" encoding="UTF-8" standalone="no"?>
<!DOCTYPE svg PUBLIC "-//W3C//DTD SVG 1.1//EN"
 "http://www.w3.org/Graphics/SVG/1.1/DTD/svg11.dtd">
<!-- Generated by graphviz version 2.42.4 (0)
 -->
<!-- Title: gagent::AgentException Pages: 1 -->
<!--zoomable 227 -->

<svg id="main" version="1.1" xmlns="http://www.w3.org/2000/svg" xmlns:xlink="http://www.w3.org/1999/xlink" xml:space="preserve" onload="init(evt)">
<style type="text/css"><![CDATA[
.node, .edge {opacity: 0.7;}
.node.selected, .edge.selected {opacity: 1;}
.edge:hover path { stroke: red; }
.edge:hover polygon { stroke: red; fill: red; }
]]></style>

<defs>
  <circle id="rim" cx="0" cy="0" r="7"/>
  <circle id="rim2" cx="0" cy="0" r="3.5"/>
  <g id="zoomPlus">
    <use xlink:href="#rim" fill="#404040"><set attributeName="fill" to="#808080" begin="zoomplus.mouseover" end="zoomplus.mouseout"/></use>
    <path d="M-4,0h8M0,-4v8" fill="none" stroke="white" stroke-width="1.5" pointer-events="none"/>
  </g>
  <g id="zoomMin">
    <use xlink:href="#rim" fill="#404040"><set attributeName="fill" to="#808080" begin="zoomminus.mouseover" end="zoomminus.mouseout"/></use>
    <path d="M-4,0h8" fill="none" stroke="white" stroke-width="1.5" pointer-events="none"/>
  </g>
  <g id="arrowUp" transform="translate(30 24)">
    <use xlink:href="#rim"/>
    <path pointer-events="none" fill="none" stroke="white" stroke-width="1.5" d="M0,-3.0v7 M-2.5,-0.5L0,-3.0L2.5,-0.5"/>
  </g>
  <g id="arrowRight" transform="rotate(90) translate(36 -43)">
    <use xlink:href="#rim"/>
    <path pointer-events="none" fill="none" stroke="white" stroke-width="1.5" d="M0,-3.0v7 M-2.5,-0.5L0,-3.0L2.5,-0.5"/>
  </g>
  <g id="arrowDown" transform="rotate(180) translate(-30 -48)">
    <use xlink:href="#rim"/>
    <path pointer-events="none" fill="none" stroke="white" stroke-width="1.5" d="M0,-3.0v7 M-2.5,-0.5L0,-3.0L2.5,-0.5"/>
  </g>
  <g id="arrowLeft" transform="rotate(270) translate(-36 17)">
    <use xlink:href="#rim"/>
    <path pointer-events="none" fill="none" stroke="white" stroke-width="1.5" d="M0,-3.0v7 M-2.5,-0.5L0,-3.0L2.5,-0.5"/>
  </g>
  <g id="resetDef">
    <use xlink:href="#rim2" fill="#404040"><set attributeName="fill" to="#808080" begin="reset.mouseover" end="reset.mouseout"/></use>
  </g>
</defs>
<script type="application/ecmascript">
var viewWidth = 883;
var viewHeight = 227;
var sectionId = 'dynsection-0';
</script>
<script type="application/ecmascript" xlink:href="svg.min.js"/>
<svg id="graph" class="graph">
<g id="viewport">
<title>gagent::AgentException</title>
<!-- Node1 -->
<g id="Node000001" class="node">
<title>Node1</title>
<g id="a_Node000001"><a xlink:title="Base exception class for gAgent errors.">
<polygon fill="#999999" stroke="transparent" points="502.5,-134 375.5,-134 375.5,-85 502.5,-85 502.5,-134"/>
<text text-anchor="start" x="381" y="-121.5" font-family="Helvetica,sans-Serif" font-size="10.00">gagent::AgentException</text>
<text text-anchor="start" x="437.5" y="-106.5" font-family="Helvetica,sans-Serif" font-size="10.00"> </text>
<text text-anchor="start" x="385" y="-91.5" font-family="Helvetica,sans-Serif" font-size="10.00">+</text>
<text text-anchor="start" x="403" y="-91.5" font-family="Helvetica,sans-Serif" font-size="10.00">AgentException()</text>
<polygon fill="#666666" stroke="#666666" points="376,-116.5 376,-116.5 503,-116.5 503,-116.5 376,-116.5"/>
<polygon fill="#666666" stroke="#666666" points="376,-101.5 376,-101.5 503,-101.5 503,-101.5 376,-101.5"/>
<polygon fill="none" stroke="#666666" points="375.5,-85 375.5,-134 502.5,-134 502.5,-85 375.5,-85"/>
</a>
</g>
</g>
<!-- Node3 -->
<g id="Node000003" class="node">
<title>Node3</title>
<g id="a_Node000003"><a xlink:href="classgagent_1_1BehaviourException.html" target="_top" xlink:title="Exception for behavior errors.">
<polygon fill="white" stroke="transparent" points="148,-49 0,-49 0,0 148,0 148,-49"/>
<text text-anchor="start" x="5" y="-36.5" font-family="Helvetica,sans-Serif" font-size="10.00">gagent::BehaviourException</text>
<text text-anchor="start" x="72" y="-21.5" font-family="Helvetica,sans-Serif" font-size="10.00"> </text>
<text text-anchor="start" x="9" y="-6.5" font-family="Helvetica,sans-Serif" font-size="10.00">+</text>
<text text-anchor="start" x="27" y="-6.5" font-family="Helvetica,sans-Serif" font-size="10.00">BehaviourException()</text>
<polygon fill="#666666" stroke="#666666" points="0,-31.5 0,-31.5 148,-31.5 148,-31.5 0,-31.5"/>
<polygon fill="#666666" stroke="#666666" points="0,-16.5 0,-16.5 148,-16.5 148,-16.5 0,-16.5"/>
<polygon fill="none" stroke="#666666" points="0,0 0,-49 148,-49 148,0 0,0"/>
</a>
</g>
</g>
<!-- Node1&#45;&gt;Node3 -->
<g id="edge2_Node000001_Node000003" class="edge">
<title>Node1&#45;&gt;Node3</title>
<g id="a_edge2_Node000001_Node000003"><a xlink:title=" ">
<path fill="none" stroke="#63b8ff" d="M365.42,-94.4C308.34,-83.12 227.35,-66.36 157,-49 154.09,-48.28 151.13,-47.53 148.15,-46.76"/>
<polygon fill="none" stroke="#63b8ff" points="364.95,-97.87 375.44,-96.37 366.3,-91.01 364.95,-97.87"/>
</a>
</g>
</g>
<!-- Node4 -->
<g id="Node000004" class="node">
<title>Node4</title>
<g id="a_Node000004"><a xlink:href="classgagent_1_1CommunicationException.html" target="_top" xlink:title="Exception for communication errors.">
<polygon fill="white" stroke="transparent" points="342,-49 166,-49 166,0 342,0 342,-49"/>
<text text-anchor="start" x="171" y="-36.5" font-family="Helvetica,sans-Serif" font-size="10.00">gagent::CommunicationException</text>
<text text-anchor="start" x="252" y="-21.5" font-family="Helvetica,sans-Serif" font-size="10.00"> </text>
<text text-anchor="start" x="175.5" y="-6.5" font-family="Helvetica,sans-Serif" font-size="10.00">+</text>
<text text-anchor="start" x="194" y="-6.5" font-family="Helvetica,sans-Serif" font-size="10.00">CommunicationException()</text>
<polygon fill="#666666" stroke="#666666" points="166,-31.5 166,-31.5 342,-31.5 342,-31.5 166,-31.5"/>
<polygon fill="#666666" stroke="#666666" points="166,-16.5 166,-16.5 342,-16.5 342,-16.5 166,-16.5"/>
<polygon fill="none" stroke="#666666" points="166,0 166,-49 342,-49 342,0 166,0"/>
</a>
</g>
</g>
<!-- Node1&#45;&gt;Node4 -->
<g id="edge3_Node000001_Node000004" class="edge">
<title>Node1&#45;&gt;Node4</title>
<g id="a_edge3_Node000001_Node000004"><a xlink:title=" ">
<path fill="none" stroke="#63b8ff" d="M377.21,-80.78C354.33,-70.51 328.63,-58.98 306.65,-49.12"/>
<polygon fill="none" stroke="#63b8ff" points="375.92,-84.04 386.48,-84.94 378.79,-77.65 375.92,-84.04"/>
</a>
</g>
</g>
<!-- Node5 -->
<g id="Node000005" class="node">
<title>Node5</title>
<g id="a_Node000005"><a xlink:href="classgagent_1_1InitializationException.html" target="_top" xlink:title="Exception for initialization failures.">
<polygon fill="white" stroke="transparent" points="518.5,-49 359.5,-49 359.5,0 518.5,0 518.5,-49"/>
<text text-anchor="start" x="365" y="-36.5" font-family="Helvetica,sans-Serif" font-size="10.00">gagent::InitializationException</text>
<text text-anchor="start" x="437.5" y="-21.5" font-family="Helvetica,sans-Serif" font-size="10.00"> </text>
<text text-anchor="start" x="369" y="-6.5" font-family="Helvetica,sans-Serif" font-size="10.00">+</text>
<text text-anchor="start" x="387" y="-6.5" font-family="Helvetica,sans-Serif" font-size="10.00">InitializationException()</text>
<polygon fill="#666666" stroke="#666666" points="360,-31.5 360,-31.5 519,-31.5 519,-31.5 360,-31.5"/>
<polygon fill="#666666" stroke="#666666" points="360,-16.5 360,-16.5 519,-16.5 519,-16.5 360,-16.5"/>
<polygon fill="none" stroke="#666666" points="359.5,0 359.5,-49 518.5,-49 518.5,0 359.5,0"/>
</a>
</g>
</g>
<!-- Node1&#45;&gt;Node5 -->
<g id="edge4_Node000001_Node000005" class="edge">
<title>Node1&#45;&gt;Node5</title>
<g id="a_edge4_Node000001_Node000005"><a xlink:title=" ">
<path fill="none" stroke="#63b8ff" d="M439,-74.77C439,-66.17 439,-57.1 439,-49.12"/>
<polygon fill="none" stroke="#63b8ff" points="435.5,-74.94 439,-84.94 442.5,-74.94 435.5,-74.94"/>
</a>
</g>
</g>
<!-- Node6 -->
<g id="Node000006" class="node">
<title>Node6</title>
<g id="a_Node000006"><a xlink:href="classgagent_1_1LifecycleException.html" target="_top" xlink:title="Exception for lifecycle management errors.">
<polygon fill="white" stroke="transparent" points="679,-49 537,-49 537,0 679,0 679,-49"/>
<text text-anchor="start" x="542" y="-36.5" font-family="Helvetica,sans-Serif" font-size="10.00">gagent::LifecycleException</text>
<text text-anchor="start" x="606" y="-21.5" font-family="Helvetica,sans-Serif" font-size="10.00"> </text>
<text text-anchor="start" x="546" y="-6.5" font-family="Helvetica,sans-Serif" font-size="10.00">+</text>
<text text-anchor="start" x="564" y="-6.5" font-family="Helvetica,sans-Serif" font-size="10.00">LifecycleException()</text>
<polygon fill="#666666" stroke="#666666" points="537,-31.5 537,-31.5 679,-31.5 679,-31.5 537,-31.5"/>
<polygon fill="#666666" stroke="#666666" points="537,-16.5 537,-16.5 679,-16.5 679,-16.5 537,-16.5"/>
<polygon fill="none" stroke="#666666" points="537,0 537,-49 679,-49 679,0 537,0"/>
</a>
</g>
</g>
<!-- Node1&#45;&gt;Node6 -->
<g id="edge5_Node000001_Node000006" class="edge">
<title>Node1&#45;&gt;Node6</title>
<g id="a_edge5_Node000001_Node000006"><a xlink:title=" ">
<path fill="none" stroke="#63b8ff" d="M496.01,-80.5C516.76,-70.31 540,-58.9 559.9,-49.12"/>
<polygon fill="none" stroke="#63b8ff" points="494.41,-77.39 486.98,-84.94 497.5,-83.67 494.41,-77.39"/>
</a>
</g>
</g>
<!-- Node7 -->
<g id="Node000007" class="node">
<title>Node7</title>
<g id="a_Node000007"><a xlink:href="classgagent_1_1MessageParsingException.html" target="_top" xlink:title="Exception for message parsing errors.">
<polygon fill="white" stroke="transparent" points="874.5,-49 697.5,-49 697.5,0 874.5,0 874.5,-49"/>
<text text-anchor="start" x="703" y="-36.5" font-family="Helvetica,sans-Serif" font-size="10.00">gagent::MessageParsingException</text>
<text text-anchor="start" x="784.5" y="-21.5" font-family="Helvetica,sans-Serif" font-size="10.00"> </text>
<text text-anchor="start" x="707" y="-6.5" font-family="Helvetica,sans-Serif" font-size="10.00">+</text>
<text text-anchor="start" x="725" y="-6.5" font-family="Helvetica,sans-Serif" font-size="10.00">MessageParsingException()</text>
<polygon fill="#666666" stroke="#666666" points="698,-31.5 698,-31.5 875,-31.5 875,-31.5 698,-31.5"/>
<polygon fill="#666666" stroke="#666666" points="698,-16.5 698,-16.5 875,-16.5 875,-16.5 698,-16.5"/>
<polygon fill="none" stroke="#666666" points="697.5,0 697.5,-49 874.5,-49 874.5,0 697.5,0"/>
</a>
</g>
</g>
<!-- Node1&#45;&gt;Node7 -->
<g id="edge6_Node000001_Node000007" class="edge">
<title>Node1&#45;&gt;Node7</title>
<g id="a_edge6_Node000001_Node000007"><a xlink:title=" ">
<path fill="none" stroke="#63b8ff" d="M512.7,-90.9C562.26,-79.07 629.06,-63.11 688,-49 691.06,-48.27 694.18,-47.52 697.33,-46.77"/>
<polygon fill="none" stroke="#63b8ff" points="511.63,-87.56 502.71,-93.29 513.25,-94.37 511.63,-87.56"/>
</a>
</g>
</g>
<!-- Node2 -->
<g id="Node000002" class="node">
<title>Node2</title>
<g id="a_Node000002"><a xlink:title=" ">
<polygon fill="white" stroke="transparent" points="488,-219 390,-219 390,-170 488,-170 488,-219"/>
<text text-anchor="start" x="395" y="-206.5" font-family="Helvetica,sans-Serif" font-size="10.00">std::runtime_error</text>
<text text-anchor="start" x="437" y="-191.5" font-family="Helvetica,sans-Serif" font-size="10.00"> </text>
<text text-anchor="start" x="437" y="-176.5" font-family="Helvetica,sans-Serif" font-size="10.00"> </text>
<polygon fill="#666666" stroke="#666666" points="390,-201.5 390,-201.5 488,-201.5 488,-201.5 390,-201.5"/>
<polygon fill="#666666" stroke="#666666" points="390,-186.5 390,-186.5 488,-186.5 488,-186.5 390,-186.5"/>
<polygon fill="none" stroke="#666666" points="390,-170 390,-219 488,-219 488,-170 390,-170"/>
</a>
</g>
</g>
<!-- Node2&#45;&gt;Node1 -->
<g id="edge1_Node000001_Node000002" class="edge">
<title>Node2&#45;&gt;Node1</title>
<g id="a_edge1_Node000001_Node000002"><a xlink:title=" ">
<path fill="none" stroke="#63b8ff" d="M439,-159.77C439,-151.17 439,-142.1 439,-134.12"/>
<polygon fill="none" stroke="#63b8ff" points="435.5,-159.94 439,-169.94 442.5,-159.94 435.5,-159.94"/>
</a>
</g>
</g>
</g>
</svg>

<g id="navigator" transform="translate(0 0)" fill="#404254">
  <rect fill="#f2f5e9" fill-opacity="0.5" stroke="#606060" stroke-width=".5" x="0" y="0" width="60" height="60"/>
  <use id="zoomplus" xlink:href="#zoomPlus" x="17" y="9" onmousedown="handleZoom(evt,'in')"/>
  <use id="zoomminus" xlink:href="#zoomMin" x="42" y="9" onmousedown="handleZoom(evt,'out')"/>
  <use id="reset" xlink:href="#resetDef" x="30" y="36" onmousedown="handleReset()"/>
   <use id="arrowup" xlink:href="#arrowUp" x="0" y="0" onmousedown="handlePan(0,-1)"/>
  <use id="arrowright" xlink:href="#arrowRight" x="0" y="0" onmousedown="handlePan(1,0)"/>
  <use id="arrowdown" xlink:href="#arrowDown" x="0" y="0" onmousedown="handlePan(0,1)"/>
  <use id="arrowleft" xlink:href="#arrowLeft" x="0" y="0" onmousedown="handlePan(-1,0)"/>
</g>
<svg viewBox="0 0 15 15" width="100%" height="30px" preserveAspectRatio="xMaxYMin meet">
 <g id="arrow_out" transform="scale(0.3 0.3)">
  <a xlink:href="classgagent_1_1AgentException__inherit__graph_org.svg" target="_base">
   <rect id="button" ry="5" rx="5" y="6" x="6" height="38" width="38"
        fill="#f2f5e9" fill-opacity="0.5" stroke="#606060" stroke-width="1.0"/>
   <path id="arrow"
     d="M 11.500037,31.436501 C 11.940474,20.09759 22.043105,11.32322 32.158766,21.979434 L 37.068811,17.246167 C 37.068811,17.246167 37.088388,32 37.088388,32 L 22.160133,31.978069 C 22.160133,31.978069 26.997745,27.140456 26.997745,27.140456 C 18.528582,18.264221 13.291696,25.230495 11.500037,31.436501 z"
     style="fill:#404040;"/>
  </a>
 </g>
</svg>

<style type='text/css'>
<![CDATA[
[data-mouse-over-selected='false'] { opacity: 0.7; }
[data-mouse-over-selected='true']  { opacity: 1.0; }
]]>
</style>
<script type="application/ecmascript"><![CDATA[
document.addEventListener('DOMContentLoaded', (event) => {
  highlightEdges();
  highlightAdjacentNodes();
});
]]></script>
</svg>
