<?xml version="1.0" encoding="UTF-8" standalone="no"?>
<!DOCTYPE svg PUBLIC "-//W3C//DTD SVG 1.1//EN"
 "http://www.w3.org/Graphics/SVG/1.1/DTD/svg11.dtd">
<!-- Generated by graphviz version 2.42.4 (0)
 -->
<!-- Title: gagent::TickerBehaviour Pages: 1 -->
<svg width="142pt" height="627pt"
 viewBox="0.00 0.00 142.00 627.00" xmlns="http://www.w3.org/2000/svg" xmlns:xlink="http://www.w3.org/1999/xlink">
<g id="graph0" class="graph" transform="scale(1 1) rotate(0) translate(4 623)">
<title>gagent::TickerBehaviour</title>
<!-- Node1 -->
<g id="Node000001" class="node">
<title>Node1</title>
<g id="a_Node000001"><a xlink:title=" ">
<polygon fill="#999999" stroke="transparent" points="131.5,-224 2.5,-224 2.5,-100 131.5,-100 131.5,-224"/>
<text text-anchor="start" x="8" y="-212" font-family="Helvetica,sans-Serif" font-size="10.00">gagent::TickerBehaviour</text>
<text text-anchor="start" x="65.5" y="-197" font-family="Helvetica,sans-Serif" font-size="10.00"> </text>
<text text-anchor="start" x="10" y="-182" font-family="Helvetica,sans-Serif" font-size="10.00">+</text>
<text text-anchor="start" x="26" y="-182" font-family="Helvetica,sans-Serif" font-size="10.00">TickerBehaviour()</text>
<text text-anchor="start" x="10" y="-167" font-family="Helvetica,sans-Serif" font-size="10.00">+</text>
<text text-anchor="start" x="26" y="-167" font-family="Helvetica,sans-Serif" font-size="10.00">TickerBehaviour()</text>
<text text-anchor="start" x="10" y="-152" font-family="Helvetica,sans-Serif" font-size="10.00">+</text>
<text text-anchor="start" x="26" y="-152" font-family="Helvetica,sans-Serif" font-size="10.00">action()</text>
<text text-anchor="start" x="10" y="-137" font-family="Helvetica,sans-Serif" font-size="10.00">+</text>
<text text-anchor="start" x="26" y="-137" font-family="Helvetica,sans-Serif" font-size="10.00">done()</text>
<text text-anchor="start" x="10" y="-122" font-family="Helvetica,sans-Serif" font-size="10.00">+</text>
<text text-anchor="start" x="26" y="-122" font-family="Helvetica,sans-Serif" font-size="10.00">onTick()</text>
<text text-anchor="start" x="10" y="-107" font-family="Helvetica,sans-Serif" font-size="10.00">+</text>
<text text-anchor="start" x="26" y="-107" font-family="Helvetica,sans-Serif" font-size="10.00">~TickerBehaviour()</text>
<polygon fill="#666666" stroke="#666666" points="3,-207 3,-207 132,-207 132,-207 3,-207"/>
<polygon fill="#666666" stroke="#666666" points="3,-192 3,-192 132,-192 132,-192 3,-192"/>
<polygon fill="none" stroke="#666666" points="2.5,-100 2.5,-224 131.5,-224 131.5,-100 2.5,-100"/>
</a>
</g>
</g>
<!-- Node4 -->
<g id="Node000004" class="node">
<title>Node4</title>
<g id="a_Node000004"><a xlink:href="classmyTickerBehaviour.html" target="_top" xlink:title=" ">
<polygon fill="white" stroke="transparent" points="129,-64 5,-64 5,0 129,0 129,-64"/>
<text text-anchor="start" x="19.5" y="-52" font-family="Helvetica,sans-Serif" font-size="10.00">myTickerBehaviour</text>
<text text-anchor="start" x="65" y="-37" font-family="Helvetica,sans-Serif" font-size="10.00"> </text>
<text text-anchor="start" x="9" y="-22" font-family="Helvetica,sans-Serif" font-size="10.00">+</text>
<text text-anchor="start" x="22" y="-22" font-family="Helvetica,sans-Serif" font-size="10.00">myTickerBehaviour()</text>
<text text-anchor="start" x="9" y="-7" font-family="Helvetica,sans-Serif" font-size="10.00">+</text>
<text text-anchor="start" x="22" y="-7" font-family="Helvetica,sans-Serif" font-size="10.00">onTick()</text>
<polygon fill="#666666" stroke="#666666" points="5,-47 5,-47 129,-47 129,-47 5,-47"/>
<polygon fill="#666666" stroke="#666666" points="5,-32 5,-32 129,-32 129,-32 5,-32"/>
<polygon fill="none" stroke="#666666" points="5,0 5,-64 129,-64 129,0 5,0"/>
</a>
</g>
</g>
<!-- Node1&#45;&gt;Node4 -->
<g id="edge3_Node000001_Node000004" class="edge">
<title>Node1&#45;&gt;Node4</title>
<g id="a_edge3_Node000001_Node000004"><a xlink:title=" ">
<path fill="none" stroke="#63b8ff" d="M67,-89.86C67,-80.92 67,-72.17 67,-64.31"/>
<polygon fill="none" stroke="#63b8ff" points="63.5,-90 67,-100 70.5,-90 63.5,-90"/>
</a>
</g>
</g>
<!-- Node2 -->
<g id="Node000002" class="node">
<title>Node2</title>
<g id="a_Node000002"><a xlink:href="classgagent_1_1SimpleBehaviour.html" target="_top" xlink:title=" ">
<polygon fill="white" stroke="transparent" points="134,-339 0,-339 0,-260 134,-260 134,-339"/>
<text text-anchor="start" x="5" y="-326.5" font-family="Helvetica,sans-Serif" font-size="10.00">gagent::SimpleBehaviour</text>
<text text-anchor="start" x="7" y="-311.5" font-family="Helvetica,sans-Serif" font-size="10.00">+</text>
<text text-anchor="start" x="23" y="-311.5" font-family="Helvetica,sans-Serif" font-size="10.00">thisAgent</text>
<text text-anchor="start" x="7" y="-296.5" font-family="Helvetica,sans-Serif" font-size="10.00">+</text>
<text text-anchor="start" x="23" y="-296.5" font-family="Helvetica,sans-Serif" font-size="10.00">SimpleBehaviour()</text>
<text text-anchor="start" x="7" y="-281.5" font-family="Helvetica,sans-Serif" font-size="10.00">+</text>
<text text-anchor="start" x="23" y="-281.5" font-family="Helvetica,sans-Serif" font-size="10.00">SimpleBehaviour()</text>
<text text-anchor="start" x="7" y="-266.5" font-family="Helvetica,sans-Serif" font-size="10.00">+</text>
<text text-anchor="start" x="23" y="-266.5" font-family="Helvetica,sans-Serif" font-size="10.00">~SimpleBehaviour()</text>
<polygon fill="#666666" stroke="#666666" points="0,-321.5 0,-321.5 134,-321.5 134,-321.5 0,-321.5"/>
<polygon fill="#666666" stroke="#666666" points="0,-306.5 0,-306.5 21,-306.5 21,-306.5 0,-306.5"/>
<polygon fill="#666666" stroke="#666666" points="21,-306.5 21,-306.5 134,-306.5 134,-306.5 21,-306.5"/>
<polygon fill="none" stroke="#666666" points="0,-260 0,-339 134,-339 134,-260 0,-260"/>
</a>
</g>
</g>
<!-- Node2&#45;&gt;Node1 -->
<g id="edge1_Node000001_Node000002" class="edge">
<title>Node2&#45;&gt;Node1</title>
<g id="a_edge1_Node000001_Node000002"><a xlink:title=" ">
<path fill="none" stroke="#63b8ff" d="M67,-249.48C67,-241.24 67,-232.59 67,-224.09"/>
<polygon fill="none" stroke="#63b8ff" points="63.5,-249.67 67,-259.67 70.5,-249.67 63.5,-249.67"/>
</a>
</g>
</g>
<!-- Node3 -->
<g id="Node000003" class="node">
<title>Node3</title>
<g id="a_Node000003"><a xlink:href="classgagent_1_1Behaviour.html" target="_top" xlink:title=" ">
<polygon fill="white" stroke="transparent" points="117,-619 17,-619 17,-375 117,-375 117,-619"/>
<text text-anchor="start" x="22" y="-607" font-family="Helvetica,sans-Serif" font-size="10.00">gagent::Behaviour</text>
<text text-anchor="start" x="24" y="-592" font-family="Helvetica,sans-Serif" font-size="10.00">+</text>
<text text-anchor="start" x="40" y="-592" font-family="Helvetica,sans-Serif" font-size="10.00">this_agent</text>
<text text-anchor="start" x="24" y="-577" font-family="Helvetica,sans-Serif" font-size="10.00">+</text>
<text text-anchor="start" x="40" y="-577" font-family="Helvetica,sans-Serif" font-size="10.00">Behaviour()</text>
<text text-anchor="start" x="24" y="-562" font-family="Helvetica,sans-Serif" font-size="10.00">+</text>
<text text-anchor="start" x="40" y="-562" font-family="Helvetica,sans-Serif" font-size="10.00">Behaviour()</text>
<text text-anchor="start" x="24" y="-547" font-family="Helvetica,sans-Serif" font-size="10.00">+</text>
<text text-anchor="start" x="40" y="-547" font-family="Helvetica,sans-Serif" font-size="10.00">action()</text>
<text text-anchor="start" x="24" y="-532" font-family="Helvetica,sans-Serif" font-size="10.00">+</text>
<text text-anchor="start" x="40" y="-532" font-family="Helvetica,sans-Serif" font-size="10.00">done()</text>
<text text-anchor="start" x="24" y="-517" font-family="Helvetica,sans-Serif" font-size="10.00">+</text>
<text text-anchor="start" x="40" y="-517" font-family="Helvetica,sans-Serif" font-size="10.00">onStart()</text>
<text text-anchor="start" x="24" y="-502" font-family="Helvetica,sans-Serif" font-size="10.00">+</text>
<text text-anchor="start" x="40" y="-502" font-family="Helvetica,sans-Serif" font-size="10.00">onEnd()</text>
<text text-anchor="start" x="24" y="-487" font-family="Helvetica,sans-Serif" font-size="10.00">+</text>
<text text-anchor="start" x="40" y="-487" font-family="Helvetica,sans-Serif" font-size="10.00">doDelete()</text>
<text text-anchor="start" x="24" y="-472" font-family="Helvetica,sans-Serif" font-size="10.00">+</text>
<text text-anchor="start" x="40" y="-472" font-family="Helvetica,sans-Serif" font-size="10.00">doActivate()</text>
<text text-anchor="start" x="24" y="-457" font-family="Helvetica,sans-Serif" font-size="10.00">+</text>
<text text-anchor="start" x="40" y="-457" font-family="Helvetica,sans-Serif" font-size="10.00">doSuspend()</text>
<text text-anchor="start" x="24" y="-442" font-family="Helvetica,sans-Serif" font-size="10.00">+</text>
<text text-anchor="start" x="40" y="-442" font-family="Helvetica,sans-Serif" font-size="10.00">doWait()</text>
<text text-anchor="start" x="24" y="-427" font-family="Helvetica,sans-Serif" font-size="10.00">+</text>
<text text-anchor="start" x="40" y="-427" font-family="Helvetica,sans-Serif" font-size="10.00">doWake()</text>
<text text-anchor="start" x="24" y="-412" font-family="Helvetica,sans-Serif" font-size="10.00">+</text>
<text text-anchor="start" x="40" y="-412" font-family="Helvetica,sans-Serif" font-size="10.00">doMove()</text>
<text text-anchor="start" x="24" y="-397" font-family="Helvetica,sans-Serif" font-size="10.00">+</text>
<text text-anchor="start" x="40" y="-397" font-family="Helvetica,sans-Serif" font-size="10.00">doAction()</text>
<text text-anchor="start" x="24" y="-382" font-family="Helvetica,sans-Serif" font-size="10.00">+</text>
<text text-anchor="start" x="40" y="-382" font-family="Helvetica,sans-Serif" font-size="10.00">~Behaviour()</text>
<polygon fill="#666666" stroke="#666666" points="17,-602 17,-602 117,-602 117,-602 17,-602"/>
<polygon fill="#666666" stroke="#666666" points="17,-587 17,-587 38,-587 38,-587 17,-587"/>
<polygon fill="#666666" stroke="#666666" points="38,-587 38,-587 117,-587 117,-587 38,-587"/>
<polygon fill="none" stroke="#666666" points="17,-375 17,-619 117,-619 117,-375 17,-375"/>
</a>
</g>
</g>
<!-- Node3&#45;&gt;Node2 -->
<g id="edge2_Node000002_Node000003" class="edge">
<title>Node3&#45;&gt;Node2</title>
<g id="a_edge2_Node000002_Node000003"><a xlink:title=" ">
<path fill="none" stroke="#63b8ff" d="M67,-364.9C67,-355.76 67,-347.06 67,-339.19"/>
<polygon fill="none" stroke="#63b8ff" points="63.5,-364.97 67,-374.97 70.5,-364.97 63.5,-364.97"/>
</a>
</g>
</g>
</g>
</svg>
