<?xml version="1.0" encoding="UTF-8" standalone="no"?>
<!DOCTYPE svg PUBLIC "-//W3C//DTD SVG 1.1//EN"
 "http://www.w3.org/Graphics/SVG/1.1/DTD/svg11.dtd">
<!-- Generated by graphviz version 2.42.4 (0)
 -->
<!-- Title: gagent::CommunicationException Pages: 1 -->
<svg width="184pt" height="227pt"
 viewBox="0.00 0.00 184.00 227.00" xmlns="http://www.w3.org/2000/svg" xmlns:xlink="http://www.w3.org/1999/xlink">

<svg id="main" version="1.1" xmlns="http://www.w3.org/2000/svg" xmlns:xlink="http://www.w3.org/1999/xlink" xml:space="preserve" onload="init(evt)">
<style type="text/css"><![CDATA[
.node, .edge {opacity: 0.7;}
.node.selected, .edge.selected {opacity: 1;}
.edge:hover path { stroke: red; }
.edge:hover polygon { stroke: red; fill: red; }
]]></style>
<script type="application/ecmascript" xlink:href="svg.min.js"/>
<svg id="graph" class="graph">
<g id="graph0" class="graph" transform="scale(1 1) rotate(0) translate(4 223)">
<title>gagent::CommunicationException</title>
<!-- Node1 -->
<g id="Node000001" class="node">
<title>Node1</title>
<g id="a_Node000001"><a xlink:title="Exception for communication errors.">
<polygon fill="#999999" stroke="transparent" points="176,-49 0,-49 0,0 176,0 176,-49"/>
<text text-anchor="start" x="5" y="-36.5" font-family="Helvetica,sans-Serif" font-size="10.00">gagent::CommunicationException</text>
<text text-anchor="start" x="86" y="-21.5" font-family="Helvetica,sans-Serif" font-size="10.00"> </text>
<text text-anchor="start" x="9.5" y="-6.5" font-family="Helvetica,sans-Serif" font-size="10.00">+</text>
<text text-anchor="start" x="28" y="-6.5" font-family="Helvetica,sans-Serif" font-size="10.00">CommunicationException()</text>
<polygon fill="#666666" stroke="#666666" points="0,-31.5 0,-31.5 176,-31.5 176,-31.5 0,-31.5"/>
<polygon fill="#666666" stroke="#666666" points="0,-16.5 0,-16.5 176,-16.5 176,-16.5 0,-16.5"/>
<polygon fill="none" stroke="#666666" points="0,0 0,-49 176,-49 176,0 0,0"/>
</a>
</g>
</g>
<!-- Node2 -->
<g id="Node000002" class="node">
<title>Node2</title>
<g id="a_Node000002"><a xlink:href="classgagent_1_1AgentException.html" target="_top" xlink:title="Base exception class for gAgent errors.">
<polygon fill="white" stroke="transparent" points="151.5,-134 24.5,-134 24.5,-85 151.5,-85 151.5,-134"/>
<text text-anchor="start" x="30" y="-121.5" font-family="Helvetica,sans-Serif" font-size="10.00">gagent::AgentException</text>
<text text-anchor="start" x="86.5" y="-106.5" font-family="Helvetica,sans-Serif" font-size="10.00"> </text>
<text text-anchor="start" x="34" y="-91.5" font-family="Helvetica,sans-Serif" font-size="10.00">+</text>
<text text-anchor="start" x="52" y="-91.5" font-family="Helvetica,sans-Serif" font-size="10.00">AgentException()</text>
<polygon fill="#666666" stroke="#666666" points="25,-116.5 25,-116.5 152,-116.5 152,-116.5 25,-116.5"/>
<polygon fill="#666666" stroke="#666666" points="25,-101.5 25,-101.5 152,-101.5 152,-101.5 25,-101.5"/>
<polygon fill="none" stroke="#666666" points="24.5,-85 24.5,-134 151.5,-134 151.5,-85 24.5,-85"/>
</a>
</g>
</g>
<!-- Node2&#45;&gt;Node1 -->
<g id="edge1_Node000001_Node000002" class="edge">
<title>Node2&#45;&gt;Node1</title>
<g id="a_edge1_Node000001_Node000002"><a xlink:title=" ">
<path fill="none" stroke="#63b8ff" d="M88,-74.77C88,-66.17 88,-57.1 88,-49.12"/>
<polygon fill="none" stroke="#63b8ff" points="84.5,-74.94 88,-84.94 91.5,-74.94 84.5,-74.94"/>
</a>
</g>
</g>
<!-- Node3 -->
<g id="Node000003" class="node">
<title>Node3</title>
<g id="a_Node000003"><a xlink:title=" ">
<polygon fill="white" stroke="transparent" points="137,-219 39,-219 39,-170 137,-170 137,-219"/>
<text text-anchor="start" x="44" y="-206.5" font-family="Helvetica,sans-Serif" font-size="10.00">std::runtime_error</text>
<text text-anchor="start" x="86" y="-191.5" font-family="Helvetica,sans-Serif" font-size="10.00"> </text>
<text text-anchor="start" x="86" y="-176.5" font-family="Helvetica,sans-Serif" font-size="10.00"> </text>
<polygon fill="#666666" stroke="#666666" points="39,-201.5 39,-201.5 137,-201.5 137,-201.5 39,-201.5"/>
<polygon fill="#666666" stroke="#666666" points="39,-186.5 39,-186.5 137,-186.5 137,-186.5 39,-186.5"/>
<polygon fill="none" stroke="#666666" points="39,-170 39,-219 137,-219 137,-170 39,-170"/>
</a>
</g>
</g>
<!-- Node3&#45;&gt;Node2 -->
<g id="edge2_Node000002_Node000003" class="edge">
<title>Node3&#45;&gt;Node2</title>
<g id="a_edge2_Node000002_Node000003"><a xlink:title=" ">
<path fill="none" stroke="#63b8ff" d="M88,-159.77C88,-151.17 88,-142.1 88,-134.12"/>
<polygon fill="none" stroke="#63b8ff" points="84.5,-159.94 88,-169.94 91.5,-159.94 84.5,-159.94"/>
</a>
</g>
</g>
</g>
</svg>
</svg>

<style type='text/css'>
<![CDATA[
[data-mouse-over-selected='false'] { opacity: 0.7; }
[data-mouse-over-selected='true']  { opacity: 1.0; }
]]>
</style>
<script type="application/ecmascript"><![CDATA[
document.addEventListener('DOMContentLoaded', (event) => {
  highlightEdges();
  highlightAdjacentNodes();
});
]]></script>
</svg>
