<?xml version="1.0" encoding="UTF-8" standalone="no"?>
<!DOCTYPE svg PUBLIC "-//W3C//DTD SVG 1.1//EN"
 "http://www.w3.org/Graphics/SVG/1.1/DTD/svg11.dtd">
<!-- Generated by graphviz version 2.42.4 (0)
 -->
<!-- Title: src_agent/DFAgentDescription.cpp Pages: 1 -->
<svg width="363pt" height="192pt"
 viewBox="0.00 0.00 362.50 192.00" xmlns="http://www.w3.org/2000/svg" xmlns:xlink="http://www.w3.org/1999/xlink">
<g id="graph0" class="graph" transform="scale(1 1) rotate(0) translate(4 188)">
<title>src_agent/DFAgentDescription.cpp</title>
<!-- Node1 -->
<g id="Node000001" class="node">
<title>Node1</title>
<g id="a_Node000001"><a xlink:title=" ">
<polygon fill="#999999" stroke="#666666" points="243,-184 60,-184 60,-165 243,-165 243,-184"/>
<text text-anchor="middle" x="151.5" y="-172" font-family="Helvetica,sans-Serif" font-size="10.00">src_agent/DFAgentDescription.cpp</text>
</a>
</g>
</g>
<!-- Node2 -->
<g id="Node000002" class="node">
<title>Node2</title>
<g id="a_Node000002"><a xlink:href="DFAgentDescription_8hpp.html" target="_top" xlink:title=" ">
<polygon fill="white" stroke="#666666" points="218.5,-129 84.5,-129 84.5,-110 218.5,-110 218.5,-129"/>
<text text-anchor="middle" x="151.5" y="-117" font-family="Helvetica,sans-Serif" font-size="10.00">DFAgentDescription.hpp</text>
</a>
</g>
</g>
<!-- Node1&#45;&gt;Node2 -->
<g id="edge1_Node000001_Node000002" class="edge">
<title>Node1&#45;&gt;Node2</title>
<g id="a_edge1_Node000001_Node000002"><a xlink:title=" ">
<path fill="none" stroke="#63b8ff" d="M151.5,-164.75C151.5,-157.8 151.5,-147.85 151.5,-139.13"/>
<polygon fill="#63b8ff" stroke="#63b8ff" points="155,-139.09 151.5,-129.09 148,-139.09 155,-139.09"/>
</a>
</g>
</g>
<!-- Node3 -->
<g id="Node000003" class="node">
<title>Node3</title>
<g id="a_Node000003"><a xlink:title=" ">
<polygon fill="#e0e0e0" stroke="#999999" points="43,-74 0,-74 0,-55 43,-55 43,-74"/>
<text text-anchor="middle" x="21.5" y="-62" font-family="Helvetica,sans-Serif" font-size="10.00">stack</text>
</a>
</g>
</g>
<!-- Node2&#45;&gt;Node3 -->
<g id="edge2_Node000002_Node000003" class="edge">
<title>Node2&#45;&gt;Node3</title>
<g id="a_edge2_Node000002_Node000003"><a xlink:title=" ">
<path fill="none" stroke="#63b8ff" d="M130.61,-109.98C109.42,-101.34 76.37,-87.87 52.2,-78.02"/>
<polygon fill="#63b8ff" stroke="#63b8ff" points="53.35,-74.7 42.77,-74.17 50.71,-81.19 53.35,-74.7"/>
</a>
</g>
</g>
<!-- Node4 -->
<g id="Node000004" class="node">
<title>Node4</title>
<g id="a_Node000004"><a xlink:title=" ">
<polygon fill="#e0e0e0" stroke="#999999" points="213.5,-19 169.5,-19 169.5,0 213.5,0 213.5,-19"/>
<text text-anchor="middle" x="191.5" y="-7" font-family="Helvetica,sans-Serif" font-size="10.00">string</text>
</a>
</g>
</g>
<!-- Node2&#45;&gt;Node4 -->
<g id="edge3_Node000002_Node000004" class="edge">
<title>Node2&#45;&gt;Node4</title>
<g id="a_edge3_Node000002_Node000004"><a xlink:title=" ">
<path fill="none" stroke="#63b8ff" d="M156.08,-109.8C160.63,-100.96 167.61,-86.76 172.5,-74 178.17,-59.21 183.23,-41.96 186.71,-29.18"/>
<polygon fill="#63b8ff" stroke="#63b8ff" points="190.15,-29.83 189.32,-19.27 183.39,-28.04 190.15,-29.83"/>
</a>
</g>
</g>
<!-- Node5 -->
<g id="Node000005" class="node">
<title>Node5</title>
<g id="a_Node000005"><a xlink:href="AgentService_8hpp.html" target="_top" xlink:title=" ">
<polygon fill="white" stroke="#666666" points="163.5,-74 61.5,-74 61.5,-55 163.5,-55 163.5,-74"/>
<text text-anchor="middle" x="112.5" y="-62" font-family="Helvetica,sans-Serif" font-size="10.00">AgentService.hpp</text>
</a>
</g>
</g>
<!-- Node2&#45;&gt;Node5 -->
<g id="edge4_Node000002_Node000005" class="edge">
<title>Node2&#45;&gt;Node5</title>
<g id="a_edge4_Node000002_Node000005"><a xlink:title=" ">
<path fill="none" stroke="#63b8ff" d="M145.06,-109.75C139.61,-102.34 131.64,-91.5 124.94,-82.41"/>
<polygon fill="#63b8ff" stroke="#63b8ff" points="127.57,-80.07 118.82,-74.09 121.93,-84.22 127.57,-80.07"/>
</a>
</g>
</g>
<!-- Node7 -->
<g id="Node000007" class="node">
<title>Node7</title>
<g id="a_Node000007"><a xlink:href="AgentID_8hpp.html" target="_top" xlink:title=" ">
<polygon fill="white" stroke="#666666" points="297,-74 220,-74 220,-55 297,-55 297,-74"/>
<text text-anchor="middle" x="258.5" y="-62" font-family="Helvetica,sans-Serif" font-size="10.00">AgentID.hpp</text>
</a>
</g>
</g>
<!-- Node2&#45;&gt;Node7 -->
<g id="edge7_Node000002_Node000007" class="edge">
<title>Node2&#45;&gt;Node7</title>
<g id="a_edge7_Node000002_Node000007"><a xlink:title=" ">
<path fill="none" stroke="#63b8ff" d="M168.69,-109.98C185.75,-101.54 212.13,-88.47 231.9,-78.68"/>
<polygon fill="#63b8ff" stroke="#63b8ff" points="233.59,-81.75 241,-74.17 230.48,-75.47 233.59,-81.75"/>
</a>
</g>
</g>
<!-- Node5&#45;&gt;Node4 -->
<g id="edge5_Node000005_Node000004" class="edge">
<title>Node5&#45;&gt;Node4</title>
<g id="a_edge5_Node000005_Node000004"><a xlink:title=" ">
<path fill="none" stroke="#63b8ff" d="M125.19,-54.98C137.33,-46.84 155.86,-34.41 170.25,-24.76"/>
<polygon fill="#63b8ff" stroke="#63b8ff" points="172.22,-27.65 178.58,-19.17 168.32,-21.84 172.22,-27.65"/>
</a>
</g>
</g>
<!-- Node6 -->
<g id="Node000006" class="node">
<title>Node6</title>
<g id="a_Node000006"><a xlink:title=" ">
<polygon fill="#e0e0e0" stroke="#999999" points="131.5,-19 93.5,-19 93.5,0 131.5,0 131.5,-19"/>
<text text-anchor="middle" x="112.5" y="-7" font-family="Helvetica,sans-Serif" font-size="10.00">map</text>
</a>
</g>
</g>
<!-- Node5&#45;&gt;Node6 -->
<g id="edge6_Node000005_Node000006" class="edge">
<title>Node5&#45;&gt;Node6</title>
<g id="a_edge6_Node000005_Node000006"><a xlink:title=" ">
<path fill="none" stroke="#63b8ff" d="M112.5,-54.75C112.5,-47.8 112.5,-37.85 112.5,-29.13"/>
<polygon fill="#63b8ff" stroke="#63b8ff" points="116,-29.09 112.5,-19.09 109,-29.09 116,-29.09"/>
</a>
</g>
</g>
<!-- Node7&#45;&gt;Node4 -->
<g id="edge10_Node000007_Node000004" class="edge">
<title>Node7&#45;&gt;Node4</title>
<g id="a_edge10_Node000007_Node000004"><a xlink:title=" ">
<path fill="none" stroke="#63b8ff" d="M247.74,-54.98C237.73,-47.07 222.61,-35.11 210.57,-25.58"/>
<polygon fill="#63b8ff" stroke="#63b8ff" points="212.47,-22.63 202.46,-19.17 208.13,-28.12 212.47,-22.63"/>
</a>
</g>
</g>
<!-- Node8 -->
<g id="Node000008" class="node">
<title>Node8</title>
<g id="a_Node000008"><a xlink:title=" ">
<polygon fill="#e0e0e0" stroke="#999999" points="282.5,-19 232.5,-19 232.5,0 282.5,0 282.5,-19"/>
<text text-anchor="middle" x="257.5" y="-7" font-family="Helvetica,sans-Serif" font-size="10.00">chrono</text>
</a>
</g>
</g>
<!-- Node7&#45;&gt;Node8 -->
<g id="edge8_Node000007_Node000008" class="edge">
<title>Node7&#45;&gt;Node8</title>
<g id="a_edge8_Node000007_Node000008"><a xlink:title=" ">
<path fill="none" stroke="#63b8ff" d="M258.33,-54.75C258.2,-47.8 258.02,-37.85 257.85,-29.13"/>
<polygon fill="#63b8ff" stroke="#63b8ff" points="261.35,-29.02 257.66,-19.09 254.35,-29.15 261.35,-29.02"/>
</a>
</g>
</g>
<!-- Node9 -->
<g id="Node000009" class="node">
<title>Node9</title>
<g id="a_Node000009"><a xlink:title=" ">
<polygon fill="#e0e0e0" stroke="#999999" points="354.5,-19 300.5,-19 300.5,0 354.5,0 354.5,-19"/>
<text text-anchor="middle" x="327.5" y="-7" font-family="Helvetica,sans-Serif" font-size="10.00">random</text>
</a>
</g>
</g>
<!-- Node7&#45;&gt;Node9 -->
<g id="edge9_Node000007_Node000009" class="edge">
<title>Node7&#45;&gt;Node9</title>
<g id="a_edge9_Node000007_Node000009"><a xlink:title=" ">
<path fill="none" stroke="#63b8ff" d="M269.59,-54.98C279.99,-47 295.76,-34.88 308.22,-25.31"/>
<polygon fill="#63b8ff" stroke="#63b8ff" points="310.41,-28.04 316.21,-19.17 306.15,-22.49 310.41,-28.04"/>
</a>
</g>
</g>
</g>
</svg>
