<?xml version="1.0" encoding="UTF-8" standalone="no"?>
<!DOCTYPE svg PUBLIC "-//W3C//DTD SVG 1.1//EN"
 "http://www.w3.org/Graphics/SVG/1.1/DTD/svg11.dtd">
<!-- Generated by graphviz version 2.42.4 (0)
 -->
<!-- Title: src_agent/Environnement.cpp Pages: 1 -->
<svg width="4089pt" height="258pt"
 viewBox="0.00 0.00 4088.50 258.00" xmlns="http://www.w3.org/2000/svg" xmlns:xlink="http://www.w3.org/1999/xlink">
<g id="graph0" class="graph" transform="scale(1 1) rotate(0) translate(4 254)">
<title>src_agent/Environnement.cpp</title>
<!-- Node1 -->
<g id="Node000001" class="node">
<title>Node1</title>
<g id="a_Node000001"><a xlink:title=" ">
<polygon fill="#999999" stroke="#666666" points="3134.5,-250 2973.5,-250 2973.5,-231 3134.5,-231 3134.5,-250"/>
<text text-anchor="middle" x="3054" y="-238" font-family="Helvetica,sans-Serif" font-size="10.00">src_agent/Environnement.cpp</text>
</a>
</g>
</g>
<!-- Node2 -->
<g id="Node000002" class="node">
<title>Node2</title>
<g id="a_Node000002"><a xlink:href="Environnement_8hpp.html" target="_top" xlink:title=" ">
<polygon fill="white" stroke="#666666" points="3110,-195 2998,-195 2998,-176 3110,-176 3110,-195"/>
<text text-anchor="middle" x="3054" y="-183" font-family="Helvetica,sans-Serif" font-size="10.00">Environnement.hpp</text>
</a>
</g>
</g>
<!-- Node1&#45;&gt;Node2 -->
<g id="edge1_Node000001_Node000002" class="edge">
<title>Node1&#45;&gt;Node2</title>
<g id="a_edge1_Node000001_Node000002"><a xlink:title=" ">
<path fill="none" stroke="#63b8ff" d="M3054,-230.75C3054,-223.8 3054,-213.85 3054,-205.13"/>
<polygon fill="#63b8ff" stroke="#63b8ff" points="3057.5,-205.09 3054,-195.09 3050.5,-205.09 3057.5,-205.09"/>
</a>
</g>
</g>
<!-- Node3 -->
<g id="Node000003" class="node">
<title>Node3</title>
<g id="a_Node000003"><a xlink:title=" ">
<polygon fill="#e0e0e0" stroke="#999999" points="3209,-79.5 3171,-79.5 3171,-60.5 3209,-60.5 3209,-79.5"/>
<text text-anchor="middle" x="3190" y="-67.5" font-family="Helvetica,sans-Serif" font-size="10.00">map</text>
</a>
</g>
</g>
<!-- Node2&#45;&gt;Node3 -->
<g id="edge2_Node000002_Node000003" class="edge">
<title>Node2&#45;&gt;Node3</title>
<g id="a_edge2_Node000002_Node000003"><a xlink:title=" ">
<path fill="none" stroke="#63b8ff" d="M3057.41,-175.65C3062.92,-162.33 3074.92,-136.97 3092,-121 3093.47,-119.63 3135.22,-98.52 3163.74,-84.18"/>
<polygon fill="#63b8ff" stroke="#63b8ff" points="3165.47,-87.22 3172.83,-79.61 3162.33,-80.97 3165.47,-87.22"/>
</a>
</g>
</g>
<!-- Node4 -->
<g id="Node000004" class="node">
<title>Node4</title>
<g id="a_Node000004"><a xlink:title=" ">
<polygon fill="#e0e0e0" stroke="#999999" points="44,-79.5 0,-79.5 0,-60.5 44,-60.5 44,-79.5"/>
<text text-anchor="middle" x="22" y="-67.5" font-family="Helvetica,sans-Serif" font-size="10.00">string</text>
</a>
</g>
</g>
<!-- Node2&#45;&gt;Node4 -->
<g id="edge3_Node000002_Node000004" class="edge">
<title>Node2&#45;&gt;Node4</title>
<g id="a_edge3_Node000002_Node000004"><a xlink:title=" ">
<path fill="none" stroke="#63b8ff" d="M2997.73,-184.6C2589.93,-185.21 101.77,-187.01 41,-140 25.97,-128.38 22.12,-106.03 21.45,-89.91"/>
<polygon fill="#63b8ff" stroke="#63b8ff" points="24.95,-89.5 21.41,-79.51 17.95,-89.53 24.95,-89.5"/>
</a>
</g>
</g>
<!-- Node5 -->
<g id="Node000005" class="node">
<title>Node5</title>
<g id="a_Node000005"><a xlink:title=" ">
<polygon fill="#e0e0e0" stroke="#999999" points="3282.5,-140 3229.5,-140 3229.5,-121 3282.5,-121 3282.5,-140"/>
<text text-anchor="middle" x="3256" y="-128" font-family="Helvetica,sans-Serif" font-size="10.00">iterator</text>
</a>
</g>
</g>
<!-- Node2&#45;&gt;Node5 -->
<g id="edge4_Node000002_Node000005" class="edge">
<title>Node2&#45;&gt;Node5</title>
<g id="a_edge4_Node000002_Node000005"><a xlink:title=" ">
<path fill="none" stroke="#63b8ff" d="M3086.45,-175.98C3122.75,-166.46 3181.39,-151.08 3219.32,-141.12"/>
<polygon fill="#63b8ff" stroke="#63b8ff" points="3220.65,-144.39 3229.43,-138.47 3218.87,-137.62 3220.65,-144.39"/>
</a>
</g>
</g>
<!-- Node6 -->
<g id="Node000006" class="node">
<title>Node6</title>
<g id="a_Node000006"><a xlink:title=" ">
<polygon fill="#e0e0e0" stroke="#999999" points="3153,-79.5 3093,-79.5 3093,-60.5 3153,-60.5 3153,-79.5"/>
<text text-anchor="middle" x="3123" y="-67.5" font-family="Helvetica,sans-Serif" font-size="10.00">iostream</text>
</a>
</g>
</g>
<!-- Node2&#45;&gt;Node6 -->
<g id="edge5_Node000002_Node000006" class="edge">
<title>Node2&#45;&gt;Node6</title>
<g id="a_edge5_Node000002_Node000006"><a xlink:title=" ">
<path fill="none" stroke="#63b8ff" d="M3052.57,-175.67C3050.93,-162.8 3049.58,-138.53 3059,-121 3067.3,-105.56 3082.63,-93.33 3096.2,-84.82"/>
<polygon fill="#63b8ff" stroke="#63b8ff" points="3098.36,-87.62 3105.21,-79.54 3094.82,-81.58 3098.36,-87.62"/>
</a>
</g>
</g>
<!-- Node7 -->
<g id="Node000007" class="node">
<title>Node7</title>
<g id="a_Node000007"><a xlink:title=" ">
<polygon fill="#e0e0e0" stroke="#999999" points="109.5,-79.5 62.5,-79.5 62.5,-60.5 109.5,-60.5 109.5,-79.5"/>
<text text-anchor="middle" x="86" y="-67.5" font-family="Helvetica,sans-Serif" font-size="10.00">vector</text>
</a>
</g>
</g>
<!-- Node2&#45;&gt;Node7 -->
<g id="edge6_Node000002_Node000007" class="edge">
<title>Node2&#45;&gt;Node7</title>
<g id="a_edge6_Node000002_Node000007"><a xlink:title=" ">
<path fill="none" stroke="#63b8ff" d="M2997.93,-183.83C2616.55,-179.13 409.92,-149.31 119,-85 116.78,-84.51 114.52,-83.87 112.28,-83.14"/>
<polygon fill="#63b8ff" stroke="#63b8ff" points="113.32,-79.8 102.73,-79.5 110.83,-86.34 113.32,-79.8"/>
</a>
</g>
</g>
<!-- Node8 -->
<g id="Node000008" class="node">
<title>Node8</title>
<g id="a_Node000008"><a xlink:title=" ">
<polygon fill="#e0e0e0" stroke="#999999" points="3365.5,-140 3300.5,-140 3300.5,-121 3365.5,-121 3365.5,-140"/>
<text text-anchor="middle" x="3333" y="-128" font-family="Helvetica,sans-Serif" font-size="10.00">mqueue.h</text>
</a>
</g>
</g>
<!-- Node2&#45;&gt;Node8 -->
<g id="edge7_Node000002_Node000008" class="edge">
<title>Node2&#45;&gt;Node8</title>
<g id="a_edge7_Node000002_Node000008"><a xlink:title=" ">
<path fill="none" stroke="#63b8ff" d="M3100.36,-176C3146.01,-167.57 3218.01,-154.18 3290.26,-140.12"/>
<polygon fill="#63b8ff" stroke="#63b8ff" points="3291.3,-143.48 3300.45,-138.13 3289.96,-136.61 3291.3,-143.48"/>
</a>
</g>
</g>
<!-- Node9 -->
<g id="Node000009" class="node">
<title>Node9</title>
<g id="a_Node000009"><a xlink:title=" ">
<polygon fill="#e0e0e0" stroke="#999999" points="3432,-140 3384,-140 3384,-121 3432,-121 3432,-140"/>
<text text-anchor="middle" x="3408" y="-128" font-family="Helvetica,sans-Serif" font-size="10.00">thread</text>
</a>
</g>
</g>
<!-- Node2&#45;&gt;Node9 -->
<g id="edge8_Node000002_Node000009" class="edge">
<title>Node2&#45;&gt;Node9</title>
<g id="a_edge8_Node000002_Node000009"><a xlink:title=" ">
<path fill="none" stroke="#63b8ff" d="M3110.08,-178.54C3174.21,-171.3 3282.18,-157.81 3374,-140 3374.1,-139.98 3374.2,-139.96 3374.3,-139.94"/>
<polygon fill="#63b8ff" stroke="#63b8ff" points="3374.89,-143.39 3383.92,-137.86 3373.41,-136.55 3374.89,-143.39"/>
</a>
</g>
</g>
<!-- Node10 -->
<g id="Node000010" class="node">
<title>Node10</title>
<g id="a_Node000010"><a xlink:href="EnvironnementGui_8hpp.html" target="_top" xlink:title=" ">
<polygon fill="white" stroke="#666666" points="1970,-140 1842,-140 1842,-121 1970,-121 1970,-140"/>
<text text-anchor="middle" x="1906" y="-128" font-family="Helvetica,sans-Serif" font-size="10.00">EnvironnementGui.hpp</text>
</a>
</g>
</g>
<!-- Node2&#45;&gt;Node10 -->
<g id="edge9_Node000002_Node000010" class="edge">
<title>Node2&#45;&gt;Node10</title>
<g id="a_edge9_Node000002_Node000010"><a xlink:title=" ">
<path fill="none" stroke="#63b8ff" d="M2997.88,-182.05C2808.64,-173.53 2194.31,-145.18 1980.29,-135.1"/>
<polygon fill="#63b8ff" stroke="#63b8ff" points="1980.26,-131.59 1970.1,-134.62 1979.93,-138.58 1980.26,-131.59"/>
</a>
</g>
</g>
<!-- Node40 -->
<g id="Node000040" class="node">
<title>Node40</title>
<g id="a_Node000040"><a xlink:href="VisualAgent_8hpp.html" target="_top" xlink:title=" ">
<polygon fill="white" stroke="#666666" points="146,-140 50,-140 50,-121 146,-121 146,-140"/>
<text text-anchor="middle" x="98" y="-128" font-family="Helvetica,sans-Serif" font-size="10.00">VisualAgent.hpp</text>
</a>
</g>
</g>
<!-- Node2&#45;&gt;Node40 -->
<g id="edge40_Node000002_Node000040" class="edge">
<title>Node2&#45;&gt;Node40</title>
<g id="a_edge40_Node000002_Node000040"><a xlink:title=" ">
<path fill="none" stroke="#63b8ff" d="M2997.92,-183.49C2627.26,-176.85 533.36,-139.31 156.2,-132.54"/>
<polygon fill="#63b8ff" stroke="#63b8ff" points="156.12,-129.04 146.06,-132.36 156,-136.04 156.12,-129.04"/>
</a>
</g>
</g>
<!-- Node41 -->
<g id="Node000041" class="node">
<title>Node41</title>
<g id="a_Node000041"><a xlink:href="MessageParser_8hpp.html" target="_top" xlink:title=" ">
<polygon fill="white" stroke="#666666" points="3211,-140 3101,-140 3101,-121 3211,-121 3211,-140"/>
<text text-anchor="middle" x="3156" y="-128" font-family="Helvetica,sans-Serif" font-size="10.00">MessageParser.hpp</text>
</a>
</g>
</g>
<!-- Node2&#45;&gt;Node41 -->
<g id="edge43_Node000002_Node000041" class="edge">
<title>Node2&#45;&gt;Node41</title>
<g id="a_edge43_Node000002_Node000041"><a xlink:title=" ">
<path fill="none" stroke="#63b8ff" d="M3070.39,-175.98C3086.57,-167.57 3111.57,-154.59 3130.38,-144.81"/>
<polygon fill="#63b8ff" stroke="#63b8ff" points="3132.05,-147.89 3139.31,-140.17 3128.83,-141.68 3132.05,-147.89"/>
</a>
</g>
</g>
<!-- Node45 -->
<g id="Node000045" class="node">
<title>Node45</title>
<g id="a_Node000045"><a xlink:href="udp__client__server_8hpp.html" target="_top" xlink:title=" ">
<polygon fill="white" stroke="#666666" points="3896.5,-140 3773.5,-140 3773.5,-121 3896.5,-121 3896.5,-140"/>
<text text-anchor="middle" x="3835" y="-128" font-family="Helvetica,sans-Serif" font-size="10.00">udp_client_server.hpp</text>
</a>
</g>
</g>
<!-- Node2&#45;&gt;Node45 -->
<g id="edge50_Node000002_Node000045" class="edge">
<title>Node2&#45;&gt;Node45</title>
<g id="a_edge50_Node000002_Node000045"><a xlink:title=" ">
<path fill="none" stroke="#63b8ff" d="M3110.17,-180.69C3249.15,-171.26 3609,-146.84 3763.17,-136.37"/>
<polygon fill="#63b8ff" stroke="#63b8ff" points="3763.73,-139.84 3773.47,-135.68 3763.25,-132.86 3763.73,-139.84"/>
</a>
</g>
</g>
<!-- Node10&#45;&gt;Node2 -->
<g id="edge30_Node000010_Node000002" class="edge">
<title>Node10&#45;&gt;Node2</title>
<g id="a_edge30_Node000010_Node000002"><a xlink:title=" ">
<path fill="none" stroke="#63b8ff" d="M1970.27,-134.32C2170.95,-143.37 2784.19,-171.68 2987.66,-181.28"/>
<polygon fill="#63b8ff" stroke="#63b8ff" points="2987.75,-184.79 2997.9,-181.76 2988.08,-177.79 2987.75,-184.79"/>
</a>
</g>
</g>
<!-- Node10&#45;&gt;Node6 -->
<g id="edge29_Node000010_Node000006" class="edge">
<title>Node10&#45;&gt;Node6</title>
<g id="a_edge29_Node000010_Node000006"><a xlink:title=" ">
<path fill="none" stroke="#63b8ff" d="M1970.35,-129.66C2183.92,-129.78 2868,-126.81 3084,-85 3087.01,-84.42 3090.1,-83.64 3093.16,-82.75"/>
<polygon fill="#63b8ff" stroke="#63b8ff" points="3094.28,-86.07 3102.69,-79.62 3092.09,-79.42 3094.28,-86.07"/>
</a>
</g>
</g>
<!-- Node11 -->
<g id="Node000011" class="node">
<title>Node11</title>
<g id="a_Node000011"><a xlink:title=" ">
<polygon fill="#e0e0e0" stroke="#999999" points="1953,-79.5 1859,-79.5 1859,-60.5 1953,-60.5 1953,-79.5"/>
<text text-anchor="middle" x="1906" y="-67.5" font-family="Helvetica,sans-Serif" font-size="10.00">qt5/QtGui/QtGui</text>
</a>
</g>
</g>
<!-- Node10&#45;&gt;Node11 -->
<g id="edge10_Node000010_Node000011" class="edge">
<title>Node10&#45;&gt;Node11</title>
<g id="a_edge10_Node000010_Node000011"><a xlink:title=" ">
<path fill="none" stroke="#63b8ff" d="M1906,-120.87C1906,-112.75 1906,-100.31 1906,-89.89"/>
<polygon fill="#63b8ff" stroke="#63b8ff" points="1909.5,-89.67 1906,-79.67 1902.5,-89.67 1909.5,-89.67"/>
</a>
</g>
</g>
<!-- Node12 -->
<g id="Node000012" class="node">
<title>Node12</title>
<g id="a_Node000012"><a xlink:title=" ">
<polygon fill="#e0e0e0" stroke="#999999" points="2024.5,-79.5 1971.5,-79.5 1971.5,-60.5 2024.5,-60.5 2024.5,-79.5"/>
<text text-anchor="middle" x="1998" y="-67.5" font-family="Helvetica,sans-Serif" font-size="10.00">QTimer</text>
</a>
</g>
</g>
<!-- Node10&#45;&gt;Node12 -->
<g id="edge11_Node000010_Node000012" class="edge">
<title>Node10&#45;&gt;Node12</title>
<g id="a_edge11_Node000010_Node000012"><a xlink:title=" ">
<path fill="none" stroke="#63b8ff" d="M1919.57,-120.87C1934.39,-111.45 1958.33,-96.23 1975.86,-85.08"/>
<polygon fill="#63b8ff" stroke="#63b8ff" points="1977.81,-87.99 1984.37,-79.67 1974.05,-82.08 1977.81,-87.99"/>
</a>
</g>
</g>
<!-- Node13 -->
<g id="Node000013" class="node">
<title>Node13</title>
<g id="a_Node000013"><a xlink:title=" ">
<polygon fill="#e0e0e0" stroke="#999999" points="2099,-79.5 2043,-79.5 2043,-60.5 2099,-60.5 2099,-79.5"/>
<text text-anchor="middle" x="2071" y="-67.5" font-family="Helvetica,sans-Serif" font-size="10.00">QObject</text>
</a>
</g>
</g>
<!-- Node10&#45;&gt;Node13 -->
<g id="edge12_Node000010_Node000013" class="edge">
<title>Node10&#45;&gt;Node13</title>
<g id="a_edge12_Node000010_Node000013"><a xlink:title=" ">
<path fill="none" stroke="#63b8ff" d="M1930.86,-120.92C1956.5,-112.04 1997.6,-97.72 2033,-85 2034.64,-84.41 2036.31,-83.81 2038.01,-83.19"/>
<polygon fill="#63b8ff" stroke="#63b8ff" points="2039.52,-86.37 2047.71,-79.65 2037.12,-79.79 2039.52,-86.37"/>
</a>
</g>
</g>
<!-- Node14 -->
<g id="Node000014" class="node">
<title>Node14</title>
<g id="a_Node000014"><a xlink:title=" ">
<polygon fill="#e0e0e0" stroke="#999999" points="2269,-79.5 2117,-79.5 2117,-60.5 2269,-60.5 2269,-79.5"/>
<text text-anchor="middle" x="2193" y="-67.5" font-family="Helvetica,sans-Serif" font-size="10.00">qt5/QtWidgets/QPushButton</text>
</a>
</g>
</g>
<!-- Node10&#45;&gt;Node14 -->
<g id="edge13_Node000010_Node000014" class="edge">
<title>Node10&#45;&gt;Node14</title>
<g id="a_edge13_Node000010_Node000014"><a xlink:title=" ">
<path fill="none" stroke="#63b8ff" d="M1947.73,-120.99C1998.96,-110.55 2085.83,-92.85 2141.25,-81.55"/>
<polygon fill="#63b8ff" stroke="#63b8ff" points="2142.12,-84.94 2151.22,-79.52 2140.72,-78.08 2142.12,-84.94"/>
</a>
</g>
</g>
<!-- Node15 -->
<g id="Node000015" class="node">
<title>Node15</title>
<g id="a_Node000015"><a xlink:title=" ">
<polygon fill="#e0e0e0" stroke="#999999" points="2401,-79.5 2287,-79.5 2287,-60.5 2401,-60.5 2401,-79.5"/>
<text text-anchor="middle" x="2344" y="-67.5" font-family="Helvetica,sans-Serif" font-size="10.00">qt5/QtCore/QVariant</text>
</a>
</g>
</g>
<!-- Node10&#45;&gt;Node15 -->
<g id="edge14_Node000010_Node000015" class="edge">
<title>Node10&#45;&gt;Node15</title>
<g id="a_edge14_Node000010_Node000015"><a xlink:title=" ">
<path fill="none" stroke="#63b8ff" d="M1970.1,-123.6C2044.43,-116.35 2170.51,-102.79 2278,-85 2284.14,-83.98 2290.58,-82.79 2296.92,-81.52"/>
<polygon fill="#63b8ff" stroke="#63b8ff" points="2297.67,-84.95 2306.76,-79.51 2296.26,-78.09 2297.67,-84.95"/>
</a>
</g>
</g>
<!-- Node16 -->
<g id="Node000016" class="node">
<title>Node16</title>
<g id="a_Node000016"><a xlink:title=" ">
<polygon fill="#e0e0e0" stroke="#999999" points="2547,-79.5 2419,-79.5 2419,-60.5 2547,-60.5 2547,-79.5"/>
<text text-anchor="middle" x="2483" y="-67.5" font-family="Helvetica,sans-Serif" font-size="10.00">qt5/QtWidgets/QAction</text>
</a>
</g>
</g>
<!-- Node10&#45;&gt;Node16 -->
<g id="edge15_Node000010_Node000016" class="edge">
<title>Node10&#45;&gt;Node16</title>
<g id="a_edge15_Node000010_Node000016"><a xlink:title=" ">
<path fill="none" stroke="#63b8ff" d="M1970.28,-125.92C2066.31,-120.1 2252.75,-106.96 2410,-85 2417.38,-83.97 2425.14,-82.69 2432.73,-81.33"/>
<polygon fill="#63b8ff" stroke="#63b8ff" points="2433.38,-84.77 2442.58,-79.51 2432.11,-77.89 2433.38,-84.77"/>
</a>
</g>
</g>
<!-- Node17 -->
<g id="Node000017" class="node">
<title>Node17</title>
<g id="a_Node000017"><a xlink:title=" ">
<polygon fill="#e0e0e0" stroke="#999999" points="2717,-79.5 2565,-79.5 2565,-60.5 2717,-60.5 2717,-79.5"/>
<text text-anchor="middle" x="2641" y="-67.5" font-family="Helvetica,sans-Serif" font-size="10.00">qt5/QtWidgets/QApplication</text>
</a>
</g>
</g>
<!-- Node10&#45;&gt;Node17 -->
<g id="edge16_Node000010_Node000017" class="edge">
<title>Node10&#45;&gt;Node17</title>
<g id="a_edge16_Node000010_Node000017"><a xlink:title=" ">
<path fill="none" stroke="#63b8ff" d="M1970.31,-127.12C2087.21,-122.35 2342.25,-109.86 2556,-85 2565.16,-83.93 2574.85,-82.57 2584.27,-81.11"/>
<polygon fill="#63b8ff" stroke="#63b8ff" points="2585.03,-84.53 2594.35,-79.5 2583.92,-77.62 2585.03,-84.53"/>
</a>
</g>
</g>
<!-- Node18 -->
<g id="Node000018" class="node">
<title>Node18</title>
<g id="a_Node000018"><a xlink:title=" ">
<polygon fill="#e0e0e0" stroke="#999999" points="2893,-79.5 2735,-79.5 2735,-60.5 2893,-60.5 2893,-79.5"/>
<text text-anchor="middle" x="2814" y="-67.5" font-family="Helvetica,sans-Serif" font-size="10.00">qt5/QtWidgets/QButtonGroup</text>
</a>
</g>
</g>
<!-- Node10&#45;&gt;Node18 -->
<g id="edge17_Node000010_Node000018" class="edge">
<title>Node10&#45;&gt;Node18</title>
<g id="a_edge17_Node000010_Node000018"><a xlink:title=" ">
<path fill="none" stroke="#63b8ff" d="M1970.24,-128.28C2108.7,-125.14 2445.47,-114.85 2726,-85 2735.81,-83.96 2746.19,-82.56 2756.25,-81.06"/>
<polygon fill="#63b8ff" stroke="#63b8ff" points="2756.82,-84.52 2766.16,-79.53 2755.75,-77.6 2756.82,-84.52"/>
</a>
</g>
</g>
<!-- Node19 -->
<g id="Node000019" class="node">
<title>Node19</title>
<g id="a_Node000019"><a xlink:title=" ">
<polygon fill="#e0e0e0" stroke="#999999" points="3075,-79.5 2911,-79.5 2911,-60.5 3075,-60.5 3075,-79.5"/>
<text text-anchor="middle" x="2993" y="-67.5" font-family="Helvetica,sans-Serif" font-size="10.00">qt5/QtWidgets/QGraphicsView</text>
</a>
</g>
</g>
<!-- Node10&#45;&gt;Node19 -->
<g id="edge18_Node000010_Node000019" class="edge">
<title>Node10&#45;&gt;Node19</title>
<g id="a_edge18_Node000010_Node000019"><a xlink:title=" ">
<path fill="none" stroke="#63b8ff" d="M1970.26,-129.03C2128.86,-127.35 2551.48,-119.69 2902,-85 2912.37,-83.97 2923.35,-82.56 2933.97,-81.03"/>
<polygon fill="#63b8ff" stroke="#63b8ff" points="2934.63,-84.47 2944.01,-79.53 2933.6,-77.55 2934.63,-84.47"/>
</a>
</g>
</g>
<!-- Node20 -->
<g id="Node000020" class="node">
<title>Node20</title>
<g id="a_Node000020"><a xlink:title=" ">
<polygon fill="#e0e0e0" stroke="#999999" points="284,-79.5 128,-79.5 128,-60.5 284,-60.5 284,-79.5"/>
<text text-anchor="middle" x="206" y="-67.5" font-family="Helvetica,sans-Serif" font-size="10.00">qt5/QtWidgets/QHeaderView</text>
</a>
</g>
</g>
<!-- Node10&#45;&gt;Node20 -->
<g id="edge19_Node000010_Node000020" class="edge">
<title>Node10&#45;&gt;Node20</title>
<g id="a_edge19_Node000010_Node000020"><a xlink:title=" ">
<path fill="none" stroke="#63b8ff" d="M1841.96,-128.86C1581.58,-126.1 601.55,-113.95 293,-85 282.95,-84.06 272.3,-82.67 262.02,-81.13"/>
<polygon fill="#63b8ff" stroke="#63b8ff" points="262.33,-77.64 251.91,-79.55 261.25,-84.55 262.33,-77.64"/>
</a>
</g>
</g>
<!-- Node21 -->
<g id="Node000021" class="node">
<title>Node21</title>
<g id="a_Node000021"><a xlink:title=" ">
<polygon fill="#e0e0e0" stroke="#999999" points="462,-79.5 302,-79.5 302,-60.5 462,-60.5 462,-79.5"/>
<text text-anchor="middle" x="382" y="-67.5" font-family="Helvetica,sans-Serif" font-size="10.00">qt5/QtWidgets/QMainWindow</text>
</a>
</g>
</g>
<!-- Node10&#45;&gt;Node21 -->
<g id="edge20_Node000010_Node000021" class="edge">
<title>Node10&#45;&gt;Node21</title>
<g id="a_edge20_Node000010_Node000021"><a xlink:title=" ">
<path fill="none" stroke="#63b8ff" d="M1841.77,-128.58C1599.72,-124.93 742.74,-110.49 471,-85 460.61,-84.03 449.6,-82.61 438.99,-81.05"/>
<polygon fill="#63b8ff" stroke="#63b8ff" points="439.39,-77.57 428.97,-79.51 438.33,-84.49 439.39,-77.57"/>
</a>
</g>
</g>
<!-- Node22 -->
<g id="Node000022" class="node">
<title>Node22</title>
<g id="a_Node000022"><a xlink:title=" ">
<polygon fill="#e0e0e0" stroke="#999999" points="1733,-79.5 1609,-79.5 1609,-60.5 1733,-60.5 1733,-79.5"/>
<text text-anchor="middle" x="1671" y="-67.5" font-family="Helvetica,sans-Serif" font-size="10.00">qt5/QtWidgets/QMenu</text>
</a>
</g>
</g>
<!-- Node10&#45;&gt;Node22 -->
<g id="edge21_Node000010_Node000022" class="edge">
<title>Node10&#45;&gt;Node22</title>
<g id="a_edge21_Node000010_Node000022"><a xlink:title=" ">
<path fill="none" stroke="#63b8ff" d="M1871.83,-120.99C1830.41,-110.68 1760.52,-93.28 1715.08,-81.97"/>
<polygon fill="#63b8ff" stroke="#63b8ff" points="1715.76,-78.54 1705.21,-79.52 1714.07,-85.33 1715.76,-78.54"/>
</a>
</g>
</g>
<!-- Node23 -->
<g id="Node000023" class="node">
<title>Node23</title>
<g id="a_Node000023"><a xlink:title=" ">
<polygon fill="#e0e0e0" stroke="#999999" points="620,-79.5 480,-79.5 480,-60.5 620,-60.5 620,-79.5"/>
<text text-anchor="middle" x="550" y="-67.5" font-family="Helvetica,sans-Serif" font-size="10.00">qt5/QtWidgets/QMenuBar</text>
</a>
</g>
</g>
<!-- Node10&#45;&gt;Node23 -->
<g id="edge22_Node000010_Node000023" class="edge">
<title>Node10&#45;&gt;Node23</title>
<g id="a_edge22_Node000010_Node000023"><a xlink:title=" ">
<path fill="none" stroke="#63b8ff" d="M1841.62,-128.45C1616.89,-124.62 867.95,-110.21 629,-85 620.14,-84.07 610.78,-82.72 601.72,-81.24"/>
<polygon fill="#63b8ff" stroke="#63b8ff" points="602.11,-77.75 591.66,-79.51 600.93,-84.65 602.11,-77.75"/>
</a>
</g>
</g>
<!-- Node24 -->
<g id="Node000024" class="node">
<title>Node24</title>
<g id="a_Node000024"><a xlink:title=" ">
<polygon fill="#e0e0e0" stroke="#999999" points="782,-79.5 638,-79.5 638,-60.5 782,-60.5 782,-79.5"/>
<text text-anchor="middle" x="710" y="-67.5" font-family="Helvetica,sans-Serif" font-size="10.00">qt5/QtWidgets/QStatusBar</text>
</a>
</g>
</g>
<!-- Node10&#45;&gt;Node24 -->
<g id="edge23_Node000010_Node000024" class="edge">
<title>Node10&#45;&gt;Node24</title>
<g id="a_edge23_Node000010_Node000024"><a xlink:title=" ">
<path fill="none" stroke="#63b8ff" d="M1841.99,-129.88C1670.93,-130.25 1189.07,-127.16 791,-85 781.93,-84.04 772.35,-82.69 763.06,-81.2"/>
<polygon fill="#63b8ff" stroke="#63b8ff" points="763.59,-77.74 753.15,-79.54 762.44,-84.64 763.59,-77.74"/>
</a>
</g>
</g>
<!-- Node25 -->
<g id="Node000025" class="node">
<title>Node25</title>
<g id="a_Node000025"><a xlink:title=" ">
<polygon fill="#e0e0e0" stroke="#999999" points="931.5,-79.5 800.5,-79.5 800.5,-60.5 931.5,-60.5 931.5,-79.5"/>
<text text-anchor="middle" x="866" y="-67.5" font-family="Helvetica,sans-Serif" font-size="10.00">qt5/QtWidgets/QWidget</text>
</a>
</g>
</g>
<!-- Node10&#45;&gt;Node25 -->
<g id="edge24_Node000010_Node000025" class="edge">
<title>Node10&#45;&gt;Node25</title>
<g id="a_edge24_Node000010_Node000025"><a xlink:title=" ">
<path fill="none" stroke="#63b8ff" d="M1841.88,-129.66C1686.57,-129.37 1278.08,-124.57 940,-85 931.97,-84.06 923.5,-82.76 915.27,-81.32"/>
<polygon fill="#63b8ff" stroke="#63b8ff" points="915.86,-77.87 905.4,-79.52 914.61,-84.76 915.86,-77.87"/>
</a>
</g>
</g>
<!-- Node26 -->
<g id="Node000026" class="node">
<title>Node26</title>
<g id="a_Node000026"><a xlink:title=" ">
<polygon fill="#e0e0e0" stroke="#999999" points="1118.5,-79.5 949.5,-79.5 949.5,-60.5 1118.5,-60.5 1118.5,-79.5"/>
<text text-anchor="middle" x="1034" y="-67.5" font-family="Helvetica,sans-Serif" font-size="10.00">qt5/QtWidgets/QGraphicsScene</text>
</a>
</g>
</g>
<!-- Node10&#45;&gt;Node26 -->
<g id="edge25_Node000010_Node000026" class="edge">
<title>Node10&#45;&gt;Node26</title>
<g id="a_edge25_Node000010_Node000026"><a xlink:title=" ">
<path fill="none" stroke="#63b8ff" d="M1841.8,-127.8C1708.5,-123.83 1392.11,-112.16 1128,-85 1117.55,-83.93 1106.49,-82.52 1095.76,-81.01"/>
<polygon fill="#63b8ff" stroke="#63b8ff" points="1096.01,-77.51 1085.61,-79.55 1095.01,-84.44 1096.01,-77.51"/>
</a>
</g>
</g>
<!-- Node27 -->
<g id="Node000027" class="node">
<title>Node27</title>
<g id="a_Node000027"><a xlink:title=" ">
<polygon fill="#e0e0e0" stroke="#999999" points="1321,-79.5 1137,-79.5 1137,-60.5 1321,-60.5 1321,-79.5"/>
<text text-anchor="middle" x="1229" y="-67.5" font-family="Helvetica,sans-Serif" font-size="10.00">qt5/QtWidgets/QGraphicsRectItem</text>
</a>
</g>
</g>
<!-- Node10&#45;&gt;Node27 -->
<g id="edge26_Node000010_Node000027" class="edge">
<title>Node10&#45;&gt;Node27</title>
<g id="a_edge26_Node000010_Node000027"><a xlink:title=" ">
<path fill="none" stroke="#63b8ff" d="M1841.96,-125.82C1735.5,-119.43 1515.48,-105 1330,-85 1319.09,-83.82 1307.53,-82.39 1296.29,-80.91"/>
<polygon fill="#63b8ff" stroke="#63b8ff" points="1296.46,-77.4 1286.08,-79.53 1295.52,-84.33 1296.46,-77.4"/>
</a>
</g>
</g>
<!-- Node28 -->
<g id="Node000028" class="node">
<title>Node28</title>
<g id="a_Node000028"><a xlink:title=" ">
<polygon fill="#e0e0e0" stroke="#999999" points="1473,-79.5 1339,-79.5 1339,-60.5 1473,-60.5 1473,-79.5"/>
<text text-anchor="middle" x="1406" y="-67.5" font-family="Helvetica,sans-Serif" font-size="10.00">qt5/QtCore/qtypetraits.h</text>
</a>
</g>
</g>
<!-- Node10&#45;&gt;Node28 -->
<g id="edge27_Node000010_Node000028" class="edge">
<title>Node10&#45;&gt;Node28</title>
<g id="a_edge27_Node000010_Node000028"><a xlink:title=" ">
<path fill="none" stroke="#63b8ff" d="M1841.88,-124.33C1758.67,-117.27 1609.1,-103.35 1482,-85 1474.52,-83.92 1466.65,-82.64 1458.93,-81.29"/>
<polygon fill="#63b8ff" stroke="#63b8ff" points="1459.37,-77.82 1448.91,-79.51 1458.14,-84.71 1459.37,-77.82"/>
</a>
</g>
</g>
<!-- Node29 -->
<g id="Node000029" class="node">
<title>Node29</title>
<g id="a_Node000029"><a xlink:title=" ">
<polygon fill="#e0e0e0" stroke="#999999" points="1590.5,-79.5 1491.5,-79.5 1491.5,-60.5 1590.5,-60.5 1590.5,-79.5"/>
<text text-anchor="middle" x="1541" y="-67.5" font-family="Helvetica,sans-Serif" font-size="10.00">qt5/QtGui/QColor</text>
</a>
</g>
</g>
<!-- Node10&#45;&gt;Node29 -->
<g id="edge28_Node000010_Node000029" class="edge">
<title>Node10&#45;&gt;Node29</title>
<g id="a_edge28_Node000010_Node000029"><a xlink:title=" ">
<path fill="none" stroke="#63b8ff" d="M1841.84,-121.85C1779.74,-114.05 1683.05,-100.86 1600,-85 1594.96,-84.04 1589.7,-82.93 1584.48,-81.78"/>
<polygon fill="#63b8ff" stroke="#63b8ff" points="1585.11,-78.33 1574.59,-79.51 1583.55,-85.15 1585.11,-78.33"/>
</a>
</g>
</g>
<!-- Node30 -->
<g id="Node000030" class="node">
<title>Node30</title>
<g id="a_Node000030"><a xlink:href="gAgentGui_8hpp.html" target="_top" xlink:title=" ">
<polygon fill="#fff0f0" stroke="red" points="1840.5,-79.5 1751.5,-79.5 1751.5,-60.5 1840.5,-60.5 1840.5,-79.5"/>
<text text-anchor="middle" x="1796" y="-67.5" font-family="Helvetica,sans-Serif" font-size="10.00">gAgentGui.hpp</text>
</a>
</g>
</g>
<!-- Node10&#45;&gt;Node30 -->
<g id="edge31_Node000010_Node000030" class="edge">
<title>Node10&#45;&gt;Node30</title>
<g id="a_edge31_Node000010_Node000030"><a xlink:title=" ">
<path fill="none" stroke="#63b8ff" d="M1889.77,-120.87C1871.73,-111.28 1842.38,-95.67 1821.32,-84.47"/>
<polygon fill="#63b8ff" stroke="#63b8ff" points="1822.77,-81.27 1812.3,-79.67 1819.48,-87.45 1822.77,-81.27"/>
</a>
</g>
</g>
<!-- Node31 -->
<g id="Node000031" class="node">
<title>Node31</title>
<g id="a_Node000031"><a xlink:title=" ">
<polygon fill="#e0e0e0" stroke="#999999" points="1348.5,-19 1253.5,-19 1253.5,0 1348.5,0 1348.5,-19"/>
<text text-anchor="middle" x="1301" y="-7" font-family="Helvetica,sans-Serif" font-size="10.00">QtCore/QVariant</text>
</a>
</g>
</g>
<!-- Node30&#45;&gt;Node31 -->
<g id="edge32_Node000030_Node000031" class="edge">
<title>Node30&#45;&gt;Node31</title>
<g id="a_edge32_Node000030_Node000031"><a xlink:title=" ">
<path fill="none" stroke="#63b8ff" d="M1766.48,-60.43C1758.58,-58.39 1750.01,-56.4 1742,-55 1575.94,-25.9 1529.35,-39.37 1358.71,-19.14"/>
<polygon fill="#63b8ff" stroke="#63b8ff" points="1358.98,-15.64 1348.63,-17.92 1358.14,-22.59 1358.98,-15.64"/>
</a>
</g>
</g>
<!-- Node32 -->
<g id="Node000032" class="node">
<title>Node32</title>
<g id="a_Node000032"><a xlink:title=" ">
<polygon fill="#e0e0e0" stroke="#999999" points="1475.5,-19 1366.5,-19 1366.5,0 1475.5,0 1475.5,-19"/>
<text text-anchor="middle" x="1421" y="-7" font-family="Helvetica,sans-Serif" font-size="10.00">QtWidgets/QAction</text>
</a>
</g>
</g>
<!-- Node30&#45;&gt;Node32 -->
<g id="edge33_Node000030_Node000032" class="edge">
<title>Node30&#45;&gt;Node32</title>
<g id="a_edge33_Node000030_Node000032"><a xlink:title=" ">
<path fill="none" stroke="#63b8ff" d="M1765.58,-60.46C1757.93,-58.49 1749.7,-56.53 1742,-55 1729.58,-52.54 1575.83,-31.52 1485.7,-19.27"/>
<polygon fill="#63b8ff" stroke="#63b8ff" points="1485.96,-15.78 1475.58,-17.9 1485.01,-22.71 1485.96,-15.78"/>
</a>
</g>
</g>
<!-- Node33 -->
<g id="Node000033" class="node">
<title>Node33</title>
<g id="a_Node000033"><a xlink:title=" ">
<polygon fill="#e0e0e0" stroke="#999999" points="1626.5,-19 1493.5,-19 1493.5,0 1626.5,0 1626.5,-19"/>
<text text-anchor="middle" x="1560" y="-7" font-family="Helvetica,sans-Serif" font-size="10.00">QtWidgets/QApplication</text>
</a>
</g>
</g>
<!-- Node30&#45;&gt;Node33 -->
<g id="edge34_Node000030_Node000033" class="edge">
<title>Node30&#45;&gt;Node33</title>
<g id="a_edge34_Node000030_Node000033"><a xlink:title=" ">
<path fill="none" stroke="#63b8ff" d="M1763.47,-60.49C1756.39,-58.66 1748.95,-56.75 1742,-55 1695.58,-43.31 1642.39,-30.35 1605.55,-21.45"/>
<polygon fill="#63b8ff" stroke="#63b8ff" points="1606.15,-18 1595.61,-19.05 1604.51,-24.8 1606.15,-18"/>
</a>
</g>
</g>
<!-- Node34 -->
<g id="Node000034" class="node">
<title>Node34</title>
<g id="a_Node000034"><a xlink:title=" ">
<polygon fill="#e0e0e0" stroke="#999999" points="1785,-19 1645,-19 1645,0 1785,0 1785,-19"/>
<text text-anchor="middle" x="1715" y="-7" font-family="Helvetica,sans-Serif" font-size="10.00">QtWidgets/QButtonGroup</text>
</a>
</g>
</g>
<!-- Node30&#45;&gt;Node34 -->
<g id="edge35_Node000030_Node000034" class="edge">
<title>Node30&#45;&gt;Node34</title>
<g id="a_edge35_Node000030_Node000034"><a xlink:title=" ">
<path fill="none" stroke="#63b8ff" d="M1784.05,-60.37C1771.25,-51.12 1750.7,-36.28 1735.35,-25.19"/>
<polygon fill="#63b8ff" stroke="#63b8ff" points="1737.16,-22.18 1727,-19.17 1733.06,-27.86 1737.16,-22.18"/>
</a>
</g>
</g>
<!-- Node35 -->
<g id="Node000035" class="node">
<title>Node35</title>
<g id="a_Node000035"><a xlink:title=" ">
<polygon fill="#e0e0e0" stroke="#999999" points="1948.5,-19 1803.5,-19 1803.5,0 1948.5,0 1948.5,-19"/>
<text text-anchor="middle" x="1876" y="-7" font-family="Helvetica,sans-Serif" font-size="10.00">QtWidgets/QGraphicsView</text>
</a>
</g>
</g>
<!-- Node30&#45;&gt;Node35 -->
<g id="edge36_Node000030_Node000035" class="edge">
<title>Node30&#45;&gt;Node35</title>
<g id="a_edge36_Node000030_Node000035"><a xlink:title=" ">
<path fill="none" stroke="#63b8ff" d="M1807.8,-60.37C1820.45,-51.12 1840.74,-36.28 1855.91,-25.19"/>
<polygon fill="#63b8ff" stroke="#63b8ff" points="1858.14,-27.9 1864.15,-19.17 1854.01,-22.24 1858.14,-27.9"/>
</a>
</g>
</g>
<!-- Node36 -->
<g id="Node000036" class="node">
<title>Node36</title>
<g id="a_Node000036"><a xlink:title=" ">
<polygon fill="#e0e0e0" stroke="#999999" points="2103.5,-19 1966.5,-19 1966.5,0 2103.5,0 2103.5,-19"/>
<text text-anchor="middle" x="2035" y="-7" font-family="Helvetica,sans-Serif" font-size="10.00">QtWidgets/QHeaderView</text>
</a>
</g>
</g>
<!-- Node30&#45;&gt;Node36 -->
<g id="edge37_Node000030_Node000036" class="edge">
<title>Node30&#45;&gt;Node36</title>
<g id="a_edge37_Node000030_Node000036"><a xlink:title=" ">
<path fill="none" stroke="#63b8ff" d="M1828.53,-60.47C1835.6,-58.64 1843.05,-56.74 1850,-55 1897.16,-43.21 1951.24,-30.27 1988.69,-21.4"/>
<polygon fill="#63b8ff" stroke="#63b8ff" points="1989.87,-24.72 1998.8,-19.01 1988.26,-17.91 1989.87,-24.72"/>
</a>
</g>
</g>
<!-- Node37 -->
<g id="Node000037" class="node">
<title>Node37</title>
<g id="a_Node000037"><a xlink:title=" ">
<polygon fill="#e0e0e0" stroke="#999999" points="2262.5,-19 2121.5,-19 2121.5,0 2262.5,0 2262.5,-19"/>
<text text-anchor="middle" x="2192" y="-7" font-family="Helvetica,sans-Serif" font-size="10.00">QtWidgets/QMainWindow</text>
</a>
</g>
</g>
<!-- Node30&#45;&gt;Node37 -->
<g id="edge38_Node000030_Node000037" class="edge">
<title>Node30&#45;&gt;Node37</title>
<g id="a_edge38_Node000030_Node000037"><a xlink:title=" ">
<path fill="none" stroke="#63b8ff" d="M1826.12,-60.48C1833.86,-58.49 1842.2,-56.51 1850,-55 1898.44,-45.61 2026.24,-29.87 2111.15,-19.84"/>
<polygon fill="#63b8ff" stroke="#63b8ff" points="2111.77,-23.3 2121.29,-18.65 2110.95,-16.34 2111.77,-23.3"/>
</a>
</g>
</g>
<!-- Node38 -->
<g id="Node000038" class="node">
<title>Node38</title>
<g id="a_Node000038"><a xlink:title=" ">
<polygon fill="#e0e0e0" stroke="#999999" points="2405.5,-19 2280.5,-19 2280.5,0 2405.5,0 2405.5,-19"/>
<text text-anchor="middle" x="2343" y="-7" font-family="Helvetica,sans-Serif" font-size="10.00">QtWidgets/QStatusBar</text>
</a>
</g>
</g>
<!-- Node30&#45;&gt;Node38 -->
<g id="edge39_Node000030_Node000038" class="edge">
<title>Node30&#45;&gt;Node38</title>
<g id="a_edge39_Node000030_Node000038"><a xlink:title=" ">
<path fill="none" stroke="#63b8ff" d="M1825.23,-60.46C1833.21,-58.4 1841.89,-56.39 1850,-55 2031.85,-23.88 2082.4,-37.51 2269.98,-19.06"/>
<polygon fill="#63b8ff" stroke="#63b8ff" points="2270.58,-22.52 2280.18,-18.04 2269.89,-15.55 2270.58,-22.52"/>
</a>
</g>
</g>
<!-- Node40&#45;&gt;Node4 -->
<g id="edge41_Node000040_Node000004" class="edge">
<title>Node40&#45;&gt;Node4</title>
<g id="a_edge41_Node000040_Node000004"><a xlink:title=" ">
<path fill="none" stroke="#63b8ff" d="M86.79,-120.87C74.89,-111.71 55.86,-97.06 41.49,-86.01"/>
<polygon fill="#63b8ff" stroke="#63b8ff" points="43.32,-82.99 33.26,-79.67 39.05,-88.54 43.32,-82.99"/>
</a>
</g>
</g>
<!-- Node40&#45;&gt;Node7 -->
<g id="edge42_Node000040_Node000007" class="edge">
<title>Node40&#45;&gt;Node7</title>
<g id="a_edge42_Node000040_Node000007"><a xlink:title=" ">
<path fill="none" stroke="#63b8ff" d="M96.23,-120.87C94.55,-112.66 91.96,-100.04 89.81,-89.55"/>
<polygon fill="#63b8ff" stroke="#63b8ff" points="93.22,-88.76 87.78,-79.67 86.36,-90.17 93.22,-88.76"/>
</a>
</g>
</g>
<!-- Node41&#45;&gt;Node3 -->
<g id="edge45_Node000041_Node000003" class="edge">
<title>Node41&#45;&gt;Node3</title>
<g id="a_edge45_Node000041_Node000003"><a xlink:title=" ">
<path fill="none" stroke="#63b8ff" d="M3161.02,-120.87C3165.94,-112.4 3173.59,-99.24 3179.79,-88.57"/>
<polygon fill="#63b8ff" stroke="#63b8ff" points="3182.96,-90.07 3184.96,-79.67 3176.91,-86.55 3182.96,-90.07"/>
</a>
</g>
</g>
<!-- Node41&#45;&gt;Node4 -->
<g id="edge44_Node000041_Node000004" class="edge">
<title>Node41&#45;&gt;Node4</title>
<g id="a_edge44_Node000041_Node000004"><a xlink:title=" ">
<path fill="none" stroke="#63b8ff" d="M3100.98,-129.02C2691.33,-125.42 130.4,-102.25 53,-85 51.05,-84.57 49.08,-84 47.13,-83.35"/>
<polygon fill="#63b8ff" stroke="#63b8ff" points="48.24,-80.03 37.66,-79.57 45.64,-86.53 48.24,-80.03"/>
</a>
</g>
</g>
<!-- Node41&#45;&gt;Node6 -->
<g id="edge48_Node000041_Node000006" class="edge">
<title>Node41&#45;&gt;Node6</title>
<g id="a_edge48_Node000041_Node000006"><a xlink:title=" ">
<path fill="none" stroke="#63b8ff" d="M3151.13,-120.87C3146.35,-112.4 3138.93,-99.24 3132.91,-88.57"/>
<polygon fill="#63b8ff" stroke="#63b8ff" points="3135.85,-86.66 3127.89,-79.67 3129.75,-90.1 3135.85,-86.66"/>
</a>
</g>
</g>
<!-- Node42 -->
<g id="Node000042" class="node">
<title>Node42</title>
<g id="a_Node000042"><a xlink:title=" ">
<polygon fill="#e0e0e0" stroke="#999999" points="3342.5,-85 3227.5,-85 3227.5,-55 3342.5,-55 3342.5,-85"/>
<text text-anchor="start" x="3235.5" y="-73" font-family="Helvetica,sans-Serif" font-size="10.00">boost/fusion/include</text>
<text text-anchor="middle" x="3285" y="-62" font-family="Helvetica,sans-Serif" font-size="10.00">/io.hpp</text>
</a>
</g>
</g>
<!-- Node41&#45;&gt;Node42 -->
<g id="edge46_Node000041_Node000042" class="edge">
<title>Node41&#45;&gt;Node42</title>
<g id="a_edge46_Node000041_Node000042"><a xlink:title=" ">
<path fill="none" stroke="#63b8ff" d="M3174.76,-120.99C3192.94,-112.75 3221.1,-99.98 3244.42,-89.4"/>
<polygon fill="#63b8ff" stroke="#63b8ff" points="3246.07,-92.5 3253.74,-85.18 3243.18,-86.12 3246.07,-92.5"/>
</a>
</g>
</g>
<!-- Node43 -->
<g id="Node000043" class="node">
<title>Node43</title>
<g id="a_Node000043"><a xlink:title=" ">
<polygon fill="#e0e0e0" stroke="#999999" points="3471,-85 3361,-85 3361,-55 3471,-55 3471,-85"/>
<text text-anchor="start" x="3369" y="-73" font-family="Helvetica,sans-Serif" font-size="10.00">boost/spirit/include</text>
<text text-anchor="middle" x="3416" y="-62" font-family="Helvetica,sans-Serif" font-size="10.00">/qi.hpp</text>
</a>
</g>
</g>
<!-- Node41&#45;&gt;Node43 -->
<g id="edge47_Node000041_Node000043" class="edge">
<title>Node41&#45;&gt;Node43</title>
<g id="a_edge47_Node000041_Node000043"><a xlink:title=" ">
<path fill="none" stroke="#63b8ff" d="M3193.81,-120.99C3234.92,-111.74 3301.37,-96.79 3350.91,-85.65"/>
<polygon fill="#63b8ff" stroke="#63b8ff" points="3351.9,-89.01 3360.89,-83.4 3350.37,-82.18 3351.9,-89.01"/>
</a>
</g>
</g>
<!-- Node44 -->
<g id="Node000044" class="node">
<title>Node44</title>
<g id="a_Node000044"><a xlink:title=" ">
<polygon fill="#e0e0e0" stroke="#999999" points="3604.5,-85 3489.5,-85 3489.5,-55 3604.5,-55 3604.5,-85"/>
<text text-anchor="start" x="3497.5" y="-73" font-family="Helvetica,sans-Serif" font-size="10.00">boost/fusion/include</text>
<text text-anchor="middle" x="3547" y="-62" font-family="Helvetica,sans-Serif" font-size="10.00">/std_pair.hpp</text>
</a>
</g>
</g>
<!-- Node41&#45;&gt;Node44 -->
<g id="edge49_Node000041_Node000044" class="edge">
<title>Node41&#45;&gt;Node44</title>
<g id="a_edge49_Node000041_Node000044"><a xlink:title=" ">
<path fill="none" stroke="#63b8ff" d="M3211.32,-122.12C3290.35,-111.54 3430.61,-92.64 3479.23,-84.98"/>
<polygon fill="#63b8ff" stroke="#63b8ff" points="3480.01,-88.4 3489.31,-83.32 3478.87,-81.49 3480.01,-88.4"/>
</a>
</g>
</g>
<!-- Node46 -->
<g id="Node000046" class="node">
<title>Node46</title>
<g id="a_Node000046"><a xlink:title=" ">
<polygon fill="#e0e0e0" stroke="#999999" points="3695,-79.5 3623,-79.5 3623,-60.5 3695,-60.5 3695,-79.5"/>
<text text-anchor="middle" x="3659" y="-67.5" font-family="Helvetica,sans-Serif" font-size="10.00">sys/types.h</text>
</a>
</g>
</g>
<!-- Node45&#45;&gt;Node46 -->
<g id="edge51_Node000045_Node000046" class="edge">
<title>Node45&#45;&gt;Node46</title>
<g id="a_edge51_Node000045_Node000046"><a xlink:title=" ">
<path fill="none" stroke="#63b8ff" d="M3809.41,-120.99C3779.04,-110.9 3728.24,-94.01 3694.18,-82.69"/>
<polygon fill="#63b8ff" stroke="#63b8ff" points="3695.22,-79.35 3684.62,-79.52 3693.01,-85.99 3695.22,-79.35"/>
</a>
</g>
</g>
<!-- Node47 -->
<g id="Node000047" class="node">
<title>Node47</title>
<g id="a_Node000047"><a xlink:title=" ">
<polygon fill="#e0e0e0" stroke="#999999" points="3790.5,-79.5 3713.5,-79.5 3713.5,-60.5 3790.5,-60.5 3790.5,-79.5"/>
<text text-anchor="middle" x="3752" y="-67.5" font-family="Helvetica,sans-Serif" font-size="10.00">sys/socket.h</text>
</a>
</g>
</g>
<!-- Node45&#45;&gt;Node47 -->
<g id="edge52_Node000045_Node000047" class="edge">
<title>Node45&#45;&gt;Node47</title>
<g id="a_edge52_Node000045_Node000047"><a xlink:title=" ">
<path fill="none" stroke="#63b8ff" d="M3822.75,-120.87C3809.64,-111.62 3788.58,-96.78 3772.85,-85.69"/>
<polygon fill="#63b8ff" stroke="#63b8ff" points="3774.49,-82.57 3764.3,-79.67 3770.45,-88.29 3774.49,-82.57"/>
</a>
</g>
</g>
<!-- Node48 -->
<g id="Node000048" class="node">
<title>Node48</title>
<g id="a_Node000048"><a xlink:title=" ">
<polygon fill="#e0e0e0" stroke="#999999" points="3861.5,-79.5 3808.5,-79.5 3808.5,-60.5 3861.5,-60.5 3861.5,-79.5"/>
<text text-anchor="middle" x="3835" y="-67.5" font-family="Helvetica,sans-Serif" font-size="10.00">netdb.h</text>
</a>
</g>
</g>
<!-- Node45&#45;&gt;Node48 -->
<g id="edge53_Node000045_Node000048" class="edge">
<title>Node45&#45;&gt;Node48</title>
<g id="a_edge53_Node000045_Node000048"><a xlink:title=" ">
<path fill="none" stroke="#63b8ff" d="M3835,-120.87C3835,-112.75 3835,-100.31 3835,-89.89"/>
<polygon fill="#63b8ff" stroke="#63b8ff" points="3838.5,-89.67 3835,-79.67 3831.5,-89.67 3838.5,-89.67"/>
</a>
</g>
</g>
<!-- Node49 -->
<g id="Node000049" class="node">
<title>Node49</title>
<g id="a_Node000049"><a xlink:title=" ">
<polygon fill="#e0e0e0" stroke="#999999" points="3944.5,-79.5 3879.5,-79.5 3879.5,-60.5 3944.5,-60.5 3944.5,-79.5"/>
<text text-anchor="middle" x="3912" y="-67.5" font-family="Helvetica,sans-Serif" font-size="10.00">stdexcept</text>
</a>
</g>
</g>
<!-- Node45&#45;&gt;Node49 -->
<g id="edge54_Node000045_Node000049" class="edge">
<title>Node45&#45;&gt;Node49</title>
<g id="a_edge54_Node000045_Node000049"><a xlink:title=" ">
<path fill="none" stroke="#63b8ff" d="M3846.36,-120.87C3858.42,-111.71 3877.7,-97.06 3892.25,-86.01"/>
<polygon fill="#63b8ff" stroke="#63b8ff" points="3894.75,-88.5 3900.59,-79.67 3890.51,-82.93 3894.75,-88.5"/>
</a>
</g>
</g>
<!-- Node50 -->
<g id="Node000050" class="node">
<title>Node50</title>
<g id="a_Node000050"><a xlink:title=" ">
<polygon fill="#e0e0e0" stroke="#999999" points="4011,-79.5 3963,-79.5 3963,-60.5 4011,-60.5 4011,-79.5"/>
<text text-anchor="middle" x="3987" y="-67.5" font-family="Helvetica,sans-Serif" font-size="10.00">error.h</text>
</a>
</g>
</g>
<!-- Node45&#45;&gt;Node50 -->
<g id="edge55_Node000045_Node000050" class="edge">
<title>Node45&#45;&gt;Node50</title>
<g id="a_edge55_Node000045_Node000050"><a xlink:title=" ">
<path fill="none" stroke="#63b8ff" d="M3858.82,-120.94C3882.93,-112.19 3921.22,-98.08 3954,-85 3955.2,-84.52 3956.43,-84.03 3957.67,-83.52"/>
<polygon fill="#63b8ff" stroke="#63b8ff" points="3959.27,-86.65 3967.16,-79.58 3956.59,-80.18 3959.27,-86.65"/>
</a>
</g>
</g>
<!-- Node51 -->
<g id="Node000051" class="node">
<title>Node51</title>
<g id="a_Node000051"><a xlink:title=" ">
<polygon fill="#e0e0e0" stroke="#999999" points="4080.5,-79.5 4029.5,-79.5 4029.5,-60.5 4080.5,-60.5 4080.5,-79.5"/>
<text text-anchor="middle" x="4055" y="-67.5" font-family="Helvetica,sans-Serif" font-size="10.00">errno.h</text>
</a>
</g>
</g>
<!-- Node45&#45;&gt;Node51 -->
<g id="edge56_Node000045_Node000051" class="edge">
<title>Node45&#45;&gt;Node51</title>
<g id="a_edge56_Node000045_Node000051"><a xlink:title=" ">
<path fill="none" stroke="#63b8ff" d="M3878.1,-120.98C3915.91,-113.07 3972.16,-100.24 4020,-85 4021.87,-84.4 4023.78,-83.76 4025.7,-83.08"/>
<polygon fill="#63b8ff" stroke="#63b8ff" points="4027.07,-86.3 4035.19,-79.5 4024.6,-79.75 4027.07,-86.3"/>
</a>
</g>
</g>
</g>
</svg>
