<?xml version="1.0" encoding="UTF-8" standalone="no"?>
<!DOCTYPE svg PUBLIC "-//W3C//DTD SVG 1.1//EN"
 "http://www.w3.org/Graphics/SVG/1.1/DTD/svg11.dtd">
<!-- Generated by graphviz version 2.42.4 (0)
 -->
<!-- Title: src_agent/gAgentGui.hpp Pages: 1 -->
<svg width="683pt" height="280pt"
 viewBox="0.00 0.00 683.00 280.00" xmlns="http://www.w3.org/2000/svg" xmlns:xlink="http://www.w3.org/1999/xlink">
<g id="graph0" class="graph" transform="scale(1 1) rotate(0) translate(4 276)">
<title>src_agent/gAgentGui.hpp</title>
<!-- Node1 -->
<g id="Node000001" class="node">
<title>Node1</title>
<g id="a_Node000001"><a xlink:title=" ">
<polygon fill="#999999" stroke="#666666" points="377.5,-272 238.5,-272 238.5,-253 377.5,-253 377.5,-272"/>
<text text-anchor="middle" x="308" y="-260" font-family="Helvetica,sans-Serif" font-size="10.00">src_agent/gAgentGui.hpp</text>
</a>
</g>
</g>
<!-- Node2 -->
<g id="Node000002" class="node">
<title>Node2</title>
<g id="a_Node000002"><a xlink:href="EnvironnementGui_8hpp.html" target="_top" xlink:title=" ">
<polygon fill="white" stroke="#666666" points="397.5,-217 218.5,-217 218.5,-198 397.5,-198 397.5,-217"/>
<text text-anchor="middle" x="308" y="-205" font-family="Helvetica,sans-Serif" font-size="10.00">src_agent/EnvironnementGui.hpp</text>
</a>
</g>
</g>
<!-- Node1&#45;&gt;Node2 -->
<g id="edge1_Node000001_Node000002" class="edge">
<title>Node1&#45;&gt;Node2</title>
<g id="a_edge1_Node000001_Node000002"><a xlink:title=" ">
<path fill="none" stroke="#63b8ff" d="M308,-242.66C308,-233.93 308,-223.99 308,-217.09"/>
<polygon fill="#63b8ff" stroke="#63b8ff" points="304.5,-242.75 308,-252.75 311.5,-242.75 304.5,-242.75"/>
</a>
</g>
</g>
<!-- Node3 -->
<g id="Node000003" class="node">
<title>Node3</title>
<g id="a_Node000003"><a xlink:href="Environnement_8hpp.html" target="_top" xlink:title=" ">
<polygon fill="white" stroke="#666666" points="295,-151 133,-151 133,-132 295,-132 295,-151"/>
<text text-anchor="middle" x="214" y="-139" font-family="Helvetica,sans-Serif" font-size="10.00">src_agent/Environnement.hpp</text>
</a>
</g>
</g>
<!-- Node2&#45;&gt;Node3 -->
<g id="edge2_Node000002_Node000003" class="edge">
<title>Node2&#45;&gt;Node3</title>
<g id="a_edge2_Node000002_Node000003"><a xlink:title=" ">
<path fill="none" stroke="#63b8ff" d="M281.78,-192.52C261.62,-179.93 235.32,-161.82 221.97,-151.2"/>
<polygon fill="#63b8ff" stroke="#63b8ff" points="280.18,-195.64 290.53,-197.87 283.82,-189.67 280.18,-195.64"/>
</a>
</g>
</g>
<!-- Node8 -->
<g id="Node000008" class="node">
<title>Node8</title>
<g id="a_Node000008"><a xlink:href="EnvironnementGui_8cpp.html" target="_top" xlink:title=" ">
<polygon fill="white" stroke="#666666" points="491,-151 313,-151 313,-132 491,-132 491,-151"/>
<text text-anchor="middle" x="402" y="-139" font-family="Helvetica,sans-Serif" font-size="10.00">src_agent/EnvironnementGui.cpp</text>
</a>
</g>
</g>
<!-- Node2&#45;&gt;Node8 -->
<g id="edge9_Node000002_Node000008" class="edge">
<title>Node2&#45;&gt;Node8</title>
<g id="a_edge9_Node000002_Node000008"><a xlink:title=" ">
<path fill="none" stroke="#63b8ff" d="M329.03,-192.18C347.5,-179.61 373.76,-161.73 389.22,-151.2"/>
<polygon fill="#63b8ff" stroke="#63b8ff" points="326.97,-189.35 320.68,-197.87 330.91,-195.13 326.97,-189.35"/>
</a>
</g>
</g>
<!-- Node9 -->
<g id="Node000009" class="node">
<title>Node9</title>
<g id="a_Node000009"><a xlink:href="moc__EnvironnementGui_8cpp.html" target="_top" xlink:title=" ">
<polygon fill="white" stroke="#666666" points="667.5,-162 508.5,-162 508.5,-121 667.5,-121 667.5,-162"/>
<text text-anchor="start" x="516.5" y="-150" font-family="Helvetica,sans-Serif" font-size="10.00">src_agent/build/gagent</text>
<text text-anchor="start" x="516.5" y="-139" font-family="Helvetica,sans-Serif" font-size="10.00">_autogen/EWIEGA46WW/moc</text>
<text text-anchor="middle" x="588" y="-128" font-family="Helvetica,sans-Serif" font-size="10.00">_EnvironnementGui.cpp</text>
</a>
</g>
</g>
<!-- Node2&#45;&gt;Node9 -->
<g id="edge10_Node000002_Node000009" class="edge">
<title>Node2&#45;&gt;Node9</title>
<g id="a_edge10_Node000002_Node000009"><a xlink:title=" ">
<path fill="none" stroke="#63b8ff" d="M355.38,-195.67C397.16,-186.12 458.91,-172.01 508.29,-160.72"/>
<polygon fill="#63b8ff" stroke="#63b8ff" points="354.44,-192.29 345.47,-197.94 356,-199.12 354.44,-192.29"/>
</a>
</g>
</g>
<!-- Node3&#45;&gt;Node2 -->
<g id="edge7_Node000003_Node000002" class="edge">
<title>Node3&#45;&gt;Node2</title>
<g id="a_edge7_Node000003_Node000002"><a xlink:title=" ">
<path fill="none" stroke="#63b8ff" d="M240.35,-156.56C260.53,-169.17 286.82,-187.28 300.11,-197.87"/>
<polygon fill="#63b8ff" stroke="#63b8ff" points="241.94,-153.43 231.58,-151.2 238.29,-159.4 241.94,-153.43"/>
</a>
</g>
</g>
<!-- Node4 -->
<g id="Node000004" class="node">
<title>Node4</title>
<g id="a_Node000004"><a xlink:href="AgentCore_8hpp.html" target="_top" xlink:title=" ">
<polygon fill="white" stroke="#666666" points="185.5,-79.5 46.5,-79.5 46.5,-60.5 185.5,-60.5 185.5,-79.5"/>
<text text-anchor="middle" x="116" y="-67.5" font-family="Helvetica,sans-Serif" font-size="10.00">src_agent/AgentCore.hpp</text>
</a>
</g>
</g>
<!-- Node3&#45;&gt;Node4 -->
<g id="edge3_Node000003_Node000004" class="edge">
<title>Node3&#45;&gt;Node4</title>
<g id="a_edge3_Node000003_Node000004"><a xlink:title=" ">
<path fill="none" stroke="#63b8ff" d="M193.65,-126.07C173.87,-112.04 144.48,-91.2 128.12,-79.59"/>
<polygon fill="#63b8ff" stroke="#63b8ff" points="191.8,-129.05 201.98,-131.98 195.85,-123.34 191.8,-129.05"/>
</a>
</g>
</g>
<!-- Node6 -->
<g id="Node000006" class="node">
<title>Node6</title>
<g id="a_Node000006"><a xlink:href="main_8cpp.html" target="_top" xlink:title=" ">
<polygon fill="white" stroke="#666666" points="272,-19 156,-19 156,0 272,0 272,-19"/>
<text text-anchor="middle" x="214" y="-7" font-family="Helvetica,sans-Serif" font-size="10.00">test_agent/main.cpp</text>
</a>
</g>
</g>
<!-- Node3&#45;&gt;Node6 -->
<g id="edge8_Node000003_Node000006" class="edge">
<title>Node3&#45;&gt;Node6</title>
<g id="a_edge8_Node000003_Node000006"><a xlink:title=" ">
<path fill="none" stroke="#63b8ff" d="M214,-121.73C214,-93.22 214,-40.09 214,-19.23"/>
<polygon fill="#63b8ff" stroke="#63b8ff" points="210.5,-121.97 214,-131.97 217.5,-121.97 210.5,-121.97"/>
</a>
</g>
</g>
<!-- Node7 -->
<g id="Node000007" class="node">
<title>Node7</title>
<g id="a_Node000007"><a xlink:href="Environnement_8cpp.html" target="_top" xlink:title=" ">
<polygon fill="white" stroke="#666666" points="403.5,-79.5 242.5,-79.5 242.5,-60.5 403.5,-60.5 403.5,-79.5"/>
<text text-anchor="middle" x="323" y="-67.5" font-family="Helvetica,sans-Serif" font-size="10.00">src_agent/Environnement.cpp</text>
</a>
</g>
</g>
<!-- Node3&#45;&gt;Node7 -->
<g id="edge6_Node000003_Node000007" class="edge">
<title>Node3&#45;&gt;Node7</title>
<g id="a_edge6_Node000003_Node000007"><a xlink:title=" ">
<path fill="none" stroke="#63b8ff" d="M236.04,-126.45C258.05,-112.41 291.16,-91.3 309.53,-79.59"/>
<polygon fill="#63b8ff" stroke="#63b8ff" points="233.92,-123.65 227.37,-131.98 237.68,-129.55 233.92,-123.65"/>
</a>
</g>
</g>
<!-- Node5 -->
<g id="Node000005" class="node">
<title>Node5</title>
<g id="a_Node000005"><a xlink:href="AgentCore_8cpp.html" target="_top" xlink:title=" ">
<polygon fill="white" stroke="#666666" points="138,-19 0,-19 0,0 138,0 138,-19"/>
<text text-anchor="middle" x="69" y="-7" font-family="Helvetica,sans-Serif" font-size="10.00">src_agent/AgentCore.cpp</text>
</a>
</g>
</g>
<!-- Node4&#45;&gt;Node5 -->
<g id="edge4_Node000004_Node000005" class="edge">
<title>Node4&#45;&gt;Node5</title>
<g id="a_edge4_Node000004_Node000005"><a xlink:title=" ">
<path fill="none" stroke="#63b8ff" d="M102.7,-52.45C94,-41.62 82.99,-27.91 75.96,-19.17"/>
<polygon fill="#63b8ff" stroke="#63b8ff" points="100.07,-54.76 109.06,-60.37 105.53,-50.38 100.07,-54.76"/>
</a>
</g>
</g>
<!-- Node4&#45;&gt;Node6 -->
<g id="edge5_Node000004_Node000006" class="edge">
<title>Node4&#45;&gt;Node6</title>
<g id="a_edge5_Node000004_Node000006"><a xlink:title=" ">
<path fill="none" stroke="#63b8ff" d="M139.25,-55.12C157.94,-43.96 183.61,-28.64 199.48,-19.17"/>
<polygon fill="#63b8ff" stroke="#63b8ff" points="137.25,-52.24 130.46,-60.37 140.84,-58.25 137.25,-52.24"/>
</a>
</g>
</g>
<!-- Node10 -->
<g id="Node000010" class="node">
<title>Node10</title>
<g id="a_Node000010"><a xlink:href="mocs__compilation_8cpp.html" target="_top" xlink:title=" ">
<polygon fill="white" stroke="#666666" points="675,-85 501,-85 501,-55 675,-55 675,-85"/>
<text text-anchor="start" x="509" y="-73" font-family="Helvetica,sans-Serif" font-size="10.00">src_agent/build/gagent</text>
<text text-anchor="middle" x="588" y="-62" font-family="Helvetica,sans-Serif" font-size="10.00">_autogen/mocs_compilation.cpp</text>
</a>
</g>
</g>
<!-- Node9&#45;&gt;Node10 -->
<g id="edge11_Node000009_Node000010" class="edge">
<title>Node9&#45;&gt;Node10</title>
<g id="a_edge11_Node000009_Node000010"><a xlink:title=" ">
<path fill="none" stroke="#63b8ff" d="M588,-110.66C588,-101.76 588,-92.42 588,-85.04"/>
<polygon fill="#63b8ff" stroke="#63b8ff" points="584.5,-110.77 588,-120.77 591.5,-110.77 584.5,-110.77"/>
</a>
</g>
</g>
</g>
</svg>
