<?xml version="1.0" encoding="UTF-8" standalone="no"?>
<!DOCTYPE svg PUBLIC "-//W3C//DTD SVG 1.1//EN"
 "http://www.w3.org/Graphics/SVG/1.1/DTD/svg11.dtd">
<!-- Generated by graphviz version 2.42.4 (0)
 -->
<!-- Title: Graphical Class Hierarchy Pages: 1 -->
<svg width="542pt" height="175pt"
 viewBox="0.00 0.00 542.00 175.00" xmlns="http://www.w3.org/2000/svg" xmlns:xlink="http://www.w3.org/1999/xlink">
<g id="graph0" class="graph" transform="scale(1 1) rotate(0) translate(4 171)">
<title>Graphical Class Hierarchy</title>
<!-- Node0 -->
<g id="Node000000" class="node">
<title>Node0</title>
<g id="a_Node000000"><a xlink:title=" ">
<polygon fill="#e0e0e0" stroke="#999999" points="104,-71 0,-71 0,-52 104,-52 104,-71"/>
<text text-anchor="middle" x="52" y="-59" font-family="Helvetica,sans-Serif" font-size="10.00">std::runtime_error</text>
</a>
</g>
</g>
<!-- Node1 -->
<g id="Node000001" class="node">
<title>Node1</title>
<g id="a_Node000001"><a xlink:href="classgagent_1_1AgentException.html" target="_top" xlink:title="Base exception class for gAgent errors.">
<polygon fill="white" stroke="#666666" points="294,-93 161,-93 161,-74 294,-74 294,-93"/>
<text text-anchor="middle" x="227.5" y="-81" font-family="Helvetica,sans-Serif" font-size="10.00">gagent::AgentException</text>
</a>
</g>
</g>
<!-- Node0&#45;&gt;Node1 -->
<g id="edge14_Node000000_Node000001" class="edge">
<title>Node0&#45;&gt;Node1</title>
<g id="a_edge14_Node000000_Node000001"><a xlink:title=" ">
<path fill="none" stroke="#63b8ff" d="M114.36,-69.28C129.44,-71.19 145.65,-73.25 160.92,-75.18"/>
<polygon fill="#63b8ff" stroke="#63b8ff" points="114.48,-65.77 104.12,-67.98 113.6,-72.71 114.48,-65.77"/>
</a>
</g>
</g>
<!-- Node7 -->
<g id="Node000007" class="node">
<title>Node7</title>
<g id="a_Node000007"><a xlink:href="classudp__client__server_1_1udp__client__server__runtime__error.html" target="_top" xlink:title=" ">
<polygon fill="white" stroke="#666666" points="315,-55.5 140,-55.5 140,-25.5 315,-25.5 315,-55.5"/>
<text text-anchor="start" x="148" y="-43.5" font-family="Helvetica,sans-Serif" font-size="10.00">udp_client_server::</text>
<text text-anchor="middle" x="227.5" y="-32.5" font-family="Helvetica,sans-Serif" font-size="10.00">udp_client_server_runtime_error</text>
</a>
</g>
</g>
<!-- Node0&#45;&gt;Node7 -->
<g id="edge20_Node000000_Node000007" class="edge">
<title>Node0&#45;&gt;Node7</title>
<g id="a_edge20_Node000000_Node000007"><a xlink:title=" ">
<path fill="none" stroke="#63b8ff" d="M114.13,-54.1C122.51,-53.09 131.23,-52.03 139.95,-50.98"/>
<polygon fill="#63b8ff" stroke="#63b8ff" points="113.62,-50.64 104.12,-55.31 114.47,-57.59 113.62,-50.64"/>
</a>
</g>
</g>
<!-- Node2 -->
<g id="Node000002" class="node">
<title>Node2</title>
<g id="a_Node000002"><a xlink:href="classgagent_1_1BehaviourException.html" target="_top" xlink:title="Exception for behavior errors.">
<polygon fill="white" stroke="#666666" points="519.5,-167 365.5,-167 365.5,-148 519.5,-148 519.5,-167"/>
<text text-anchor="middle" x="442.5" y="-155" font-family="Helvetica,sans-Serif" font-size="10.00">gagent::BehaviourException</text>
</a>
</g>
</g>
<!-- Node1&#45;&gt;Node2 -->
<g id="edge15_Node000001_Node000002" class="edge">
<title>Node1&#45;&gt;Node2</title>
<g id="a_edge15_Node000001_Node000002"><a xlink:title=" ">
<path fill="none" stroke="#63b8ff" d="M255.21,-97.91C279.55,-110.5 316.82,-128.45 351,-139.5 361.21,-142.8 372.28,-145.61 383.05,-147.95"/>
<polygon fill="#63b8ff" stroke="#63b8ff" points="256.72,-94.75 246.24,-93.21 253.47,-100.95 256.72,-94.75"/>
</a>
</g>
</g>
<!-- Node3 -->
<g id="Node000003" class="node">
<title>Node3</title>
<g id="a_Node000003"><a xlink:href="classgagent_1_1CommunicationException.html" target="_top" xlink:title="Exception for communication errors.">
<polygon fill="white" stroke="#666666" points="533.5,-130 351.5,-130 351.5,-111 533.5,-111 533.5,-130"/>
<text text-anchor="middle" x="442.5" y="-118" font-family="Helvetica,sans-Serif" font-size="10.00">gagent::CommunicationException</text>
</a>
</g>
</g>
<!-- Node1&#45;&gt;Node3 -->
<g id="edge16_Node000001_Node000003" class="edge">
<title>Node1&#45;&gt;Node3</title>
<g id="a_edge16_Node000001_Node000003"><a xlink:title=" ">
<path fill="none" stroke="#63b8ff" d="M293.24,-94.75C323.02,-99.92 357.97,-105.99 386.46,-110.94"/>
<polygon fill="#63b8ff" stroke="#63b8ff" points="293.8,-91.29 283.35,-93.03 292.61,-98.19 293.8,-91.29"/>
</a>
</g>
</g>
<!-- Node4 -->
<g id="Node000004" class="node">
<title>Node4</title>
<g id="a_Node000004"><a xlink:href="classgagent_1_1InitializationException.html" target="_top" xlink:title="Exception for initialization failures.">
<polygon fill="white" stroke="#666666" points="525,-93 360,-93 360,-74 525,-74 525,-93"/>
<text text-anchor="middle" x="442.5" y="-81" font-family="Helvetica,sans-Serif" font-size="10.00">gagent::InitializationException</text>
</a>
</g>
</g>
<!-- Node1&#45;&gt;Node4 -->
<g id="edge17_Node000001_Node000004" class="edge">
<title>Node1&#45;&gt;Node4</title>
<g id="a_edge17_Node000001_Node000004"><a xlink:title=" ">
<path fill="none" stroke="#63b8ff" d="M304.3,-83.5C322.33,-83.5 341.64,-83.5 359.91,-83.5"/>
<polygon fill="#63b8ff" stroke="#63b8ff" points="304.15,-80 294.15,-83.5 304.15,-87 304.15,-80"/>
</a>
</g>
</g>
<!-- Node5 -->
<g id="Node000005" class="node">
<title>Node5</title>
<g id="a_Node000005"><a xlink:href="classgagent_1_1LifecycleException.html" target="_top" xlink:title="Exception for lifecycle management errors.">
<polygon fill="white" stroke="#666666" points="516.5,-56 368.5,-56 368.5,-37 516.5,-37 516.5,-56"/>
<text text-anchor="middle" x="442.5" y="-44" font-family="Helvetica,sans-Serif" font-size="10.00">gagent::LifecycleException</text>
</a>
</g>
</g>
<!-- Node1&#45;&gt;Node5 -->
<g id="edge18_Node000001_Node000005" class="edge">
<title>Node1&#45;&gt;Node5</title>
<g id="a_edge18_Node000001_Node000005"><a xlink:title=" ">
<path fill="none" stroke="#63b8ff" d="M293.24,-72.25C323.02,-67.08 357.97,-61.01 386.46,-56.06"/>
<polygon fill="#63b8ff" stroke="#63b8ff" points="292.61,-68.81 283.35,-73.97 293.8,-75.71 292.61,-68.81"/>
</a>
</g>
</g>
<!-- Node6 -->
<g id="Node000006" class="node">
<title>Node6</title>
<g id="a_Node000006"><a xlink:href="classgagent_1_1MessageParsingException.html" target="_top" xlink:title="Exception for message parsing errors.">
<polygon fill="white" stroke="#666666" points="534,-19 351,-19 351,0 534,0 534,-19"/>
<text text-anchor="middle" x="442.5" y="-7" font-family="Helvetica,sans-Serif" font-size="10.00">gagent::MessageParsingException</text>
</a>
</g>
</g>
<!-- Node1&#45;&gt;Node6 -->
<g id="edge19_Node000001_Node000006" class="edge">
<title>Node1&#45;&gt;Node6</title>
<g id="a_edge19_Node000001_Node000006"><a xlink:title=" ">
<path fill="none" stroke="#63b8ff" d="M301.9,-70.62C306.45,-68.84 310.85,-66.81 315,-64.5 335.05,-53.35 330.84,-38.45 351,-27.5 357.33,-24.06 364.24,-21.27 371.32,-19.01"/>
<polygon fill="#63b8ff" stroke="#63b8ff" points="300.71,-67.33 292.43,-73.94 303.03,-73.93 300.71,-67.33"/>
</a>
</g>
</g>
</g>
</svg>
