<?xml version="1.0" encoding="UTF-8" standalone="no"?>
<!DOCTYPE svg PUBLIC "-//W3C//DTD SVG 1.1//EN"
 "http://www.w3.org/Graphics/SVG/1.1/DTD/svg11.dtd">
<!-- Generated by graphviz version 2.42.4 (0)
 -->
<!-- Title: src_agent/Logger.hpp Pages: 1 -->
<svg width="500pt" height="82pt"
 viewBox="0.00 0.00 500.00 82.00" xmlns="http://www.w3.org/2000/svg" xmlns:xlink="http://www.w3.org/1999/xlink">
<g id="graph0" class="graph" transform="scale(1 1) rotate(0) translate(4 78)">
<title>src_agent/Logger.hpp</title>
<!-- Node1 -->
<g id="Node000001" class="node">
<title>Node1</title>
<g id="a_Node000001"><a xlink:title="Centralized logging system for gAgent platform.">
<polygon fill="#999999" stroke="#666666" points="310,-74 190,-74 190,-55 310,-55 310,-74"/>
<text text-anchor="middle" x="250" y="-62" font-family="Helvetica,sans-Serif" font-size="10.00">src_agent/Logger.hpp</text>
</a>
</g>
</g>
<!-- Node2 -->
<g id="Node000002" class="node">
<title>Node2</title>
<g id="a_Node000002"><a xlink:title=" ">
<polygon fill="#e0e0e0" stroke="#999999" points="60,-19 0,-19 0,0 60,0 60,-19"/>
<text text-anchor="middle" x="30" y="-7" font-family="Helvetica,sans-Serif" font-size="10.00">iostream</text>
</a>
</g>
</g>
<!-- Node1&#45;&gt;Node2 -->
<g id="edge1_Node000001_Node000002" class="edge">
<title>Node1&#45;&gt;Node2</title>
<g id="a_edge1_Node000001_Node000002"><a xlink:title=" ">
<path fill="none" stroke="#63b8ff" d="M214.65,-54.98C175.16,-45.47 111.34,-30.1 70.03,-20.14"/>
<polygon fill="#63b8ff" stroke="#63b8ff" points="70.84,-16.74 60.3,-17.8 69.2,-23.54 70.84,-16.74"/>
</a>
</g>
</g>
<!-- Node3 -->
<g id="Node000003" class="node">
<title>Node3</title>
<g id="a_Node000003"><a xlink:title=" ">
<polygon fill="#e0e0e0" stroke="#999999" points="133.5,-19 78.5,-19 78.5,0 133.5,0 133.5,-19"/>
<text text-anchor="middle" x="106" y="-7" font-family="Helvetica,sans-Serif" font-size="10.00">fstream</text>
</a>
</g>
</g>
<!-- Node1&#45;&gt;Node3 -->
<g id="edge2_Node000001_Node000003" class="edge">
<title>Node1&#45;&gt;Node3</title>
<g id="a_edge2_Node000001_Node000003"><a xlink:title=" ">
<path fill="none" stroke="#63b8ff" d="M226.86,-54.98C203.18,-46.27 166.13,-32.63 139.29,-22.75"/>
<polygon fill="#63b8ff" stroke="#63b8ff" points="140.15,-19.34 129.56,-19.17 137.73,-25.91 140.15,-19.34"/>
</a>
</g>
</g>
<!-- Node4 -->
<g id="Node000004" class="node">
<title>Node4</title>
<g id="a_Node000004"><a xlink:title=" ">
<polygon fill="#e0e0e0" stroke="#999999" points="208,-19 152,-19 152,0 208,0 208,-19"/>
<text text-anchor="middle" x="180" y="-7" font-family="Helvetica,sans-Serif" font-size="10.00">sstream</text>
</a>
</g>
</g>
<!-- Node1&#45;&gt;Node4 -->
<g id="edge3_Node000001_Node000004" class="edge">
<title>Node1&#45;&gt;Node4</title>
<g id="a_edge3_Node000001_Node000004"><a xlink:title=" ">
<path fill="none" stroke="#63b8ff" d="M238.75,-54.98C228.2,-47 212.2,-34.88 199.56,-25.31"/>
<polygon fill="#63b8ff" stroke="#63b8ff" points="201.54,-22.42 191.45,-19.17 197.31,-28 201.54,-22.42"/>
</a>
</g>
</g>
<!-- Node5 -->
<g id="Node000005" class="node">
<title>Node5</title>
<g id="a_Node000005"><a xlink:title=" ">
<polygon fill="#e0e0e0" stroke="#999999" points="274,-19 226,-19 226,0 274,0 274,-19"/>
<text text-anchor="middle" x="250" y="-7" font-family="Helvetica,sans-Serif" font-size="10.00">mutex</text>
</a>
</g>
</g>
<!-- Node1&#45;&gt;Node5 -->
<g id="edge4_Node000001_Node000005" class="edge">
<title>Node1&#45;&gt;Node5</title>
<g id="a_edge4_Node000001_Node000005"><a xlink:title=" ">
<path fill="none" stroke="#63b8ff" d="M250,-54.75C250,-47.8 250,-37.85 250,-29.13"/>
<polygon fill="#63b8ff" stroke="#63b8ff" points="253.5,-29.09 250,-19.09 246.5,-29.09 253.5,-29.09"/>
</a>
</g>
</g>
<!-- Node6 -->
<g id="Node000006" class="node">
<title>Node6</title>
<g id="a_Node000006"><a xlink:title=" ">
<polygon fill="#e0e0e0" stroke="#999999" points="350,-19 292,-19 292,0 350,0 350,-19"/>
<text text-anchor="middle" x="321" y="-7" font-family="Helvetica,sans-Serif" font-size="10.00">memory</text>
</a>
</g>
</g>
<!-- Node1&#45;&gt;Node6 -->
<g id="edge5_Node000001_Node000006" class="edge">
<title>Node1&#45;&gt;Node6</title>
<g id="a_edge5_Node000001_Node000006"><a xlink:title=" ">
<path fill="none" stroke="#63b8ff" d="M261.41,-54.98C272.11,-47 288.34,-34.88 301.16,-25.31"/>
<polygon fill="#63b8ff" stroke="#63b8ff" points="303.47,-27.96 309.39,-19.17 299.28,-22.35 303.47,-27.96"/>
</a>
</g>
</g>
<!-- Node7 -->
<g id="Node000007" class="node">
<title>Node7</title>
<g id="a_Node000007"><a xlink:title=" ">
<polygon fill="#e0e0e0" stroke="#999999" points="418,-19 368,-19 368,0 418,0 418,-19"/>
<text text-anchor="middle" x="393" y="-7" font-family="Helvetica,sans-Serif" font-size="10.00">chrono</text>
</a>
</g>
</g>
<!-- Node1&#45;&gt;Node7 -->
<g id="edge6_Node000001_Node000007" class="edge">
<title>Node1&#45;&gt;Node7</title>
<g id="a_edge6_Node000001_Node000007"><a xlink:title=" ">
<path fill="none" stroke="#63b8ff" d="M272.98,-54.98C296.5,-46.27 333.29,-32.63 359.94,-22.75"/>
<polygon fill="#63b8ff" stroke="#63b8ff" points="361.45,-25.93 369.61,-19.17 359.01,-19.36 361.45,-25.93"/>
</a>
</g>
</g>
<!-- Node8 -->
<g id="Node000008" class="node">
<title>Node8</title>
<g id="a_Node000008"><a xlink:title=" ">
<polygon fill="#e0e0e0" stroke="#999999" points="492,-19 436,-19 436,0 492,0 492,-19"/>
<text text-anchor="middle" x="464" y="-7" font-family="Helvetica,sans-Serif" font-size="10.00">iomanip</text>
</a>
</g>
</g>
<!-- Node1&#45;&gt;Node8 -->
<g id="edge7_Node000001_Node000008" class="edge">
<title>Node1&#45;&gt;Node8</title>
<g id="a_edge7_Node000001_Node000008"><a xlink:title=" ">
<path fill="none" stroke="#63b8ff" d="M284.38,-54.98C323.08,-45.4 385.76,-29.88 425.91,-19.93"/>
<polygon fill="#63b8ff" stroke="#63b8ff" points="426.99,-23.27 435.85,-17.47 425.3,-16.48 426.99,-23.27"/>
</a>
</g>
</g>
</g>
</svg>
