<?xml version="1.0" encoding="UTF-8" standalone="no"?>
<!DOCTYPE svg PUBLIC "-//W3C//DTD SVG 1.1//EN"
 "http://www.w3.org/Graphics/SVG/1.1/DTD/svg11.dtd">
<!-- Generated by graphviz version 2.42.4 (0)
 -->
<!-- Title: src_agent/build/gagent_autogen/EWIEGA46WW/moc_EnvironnementGui.cpp Pages: 1 -->
<svg width="4943pt" height="280pt"
 viewBox="0.00 0.00 4942.50 280.00" xmlns="http://www.w3.org/2000/svg" xmlns:xlink="http://www.w3.org/1999/xlink">
<g id="graph0" class="graph" transform="scale(1 1) rotate(0) translate(4 276)">
<title>src_agent/build/gagent_autogen/EWIEGA46WW/moc_EnvironnementGui.cpp</title>
<!-- Node1 -->
<g id="Node000001" class="node">
<title>Node1</title>
<g id="a_Node000001"><a xlink:title=" ">
<polygon fill="#999999" stroke="#666666" points="1803.5,-272 1644.5,-272 1644.5,-231 1803.5,-231 1803.5,-272"/>
<text text-anchor="start" x="1652.5" y="-260" font-family="Helvetica,sans-Serif" font-size="10.00">src_agent/build/gagent</text>
<text text-anchor="start" x="1652.5" y="-249" font-family="Helvetica,sans-Serif" font-size="10.00">_autogen/EWIEGA46WW/moc</text>
<text text-anchor="middle" x="1724" y="-238" font-family="Helvetica,sans-Serif" font-size="10.00">_EnvironnementGui.cpp</text>
</a>
</g>
</g>
<!-- Node2 -->
<g id="Node000002" class="node">
<title>Node2</title>
<g id="a_Node000002"><a xlink:title=" ">
<polygon fill="#e0e0e0" stroke="#999999" points="1552,-195 1494,-195 1494,-176 1552,-176 1552,-195"/>
<text text-anchor="middle" x="1523" y="-183" font-family="Helvetica,sans-Serif" font-size="10.00">memory</text>
</a>
</g>
</g>
<!-- Node1&#45;&gt;Node2 -->
<g id="edge1_Node000001_Node000002" class="edge">
<title>Node1&#45;&gt;Node2</title>
<g id="a_edge1_Node000001_Node000002"><a xlink:title=" ">
<path fill="none" stroke="#63b8ff" d="M1662.6,-230.95C1628.83,-220.2 1588.08,-207.22 1559.35,-198.07"/>
<polygon fill="#63b8ff" stroke="#63b8ff" points="1560.31,-194.71 1549.72,-195.01 1558.19,-201.38 1560.31,-194.71"/>
</a>
</g>
</g>
<!-- Node3 -->
<g id="Node000003" class="node">
<title>Node3</title>
<g id="a_Node000003"><a xlink:href="EnvironnementGui_8hpp.html" target="_top" xlink:title=" ">
<polygon fill="white" stroke="#666666" points="1725.5,-195 1570.5,-195 1570.5,-176 1725.5,-176 1725.5,-195"/>
<text text-anchor="middle" x="1648" y="-183" font-family="Helvetica,sans-Serif" font-size="10.00">../../../EnvironnementGui.hpp</text>
</a>
</g>
</g>
<!-- Node1&#45;&gt;Node3 -->
<g id="edge2_Node000001_Node000003" class="edge">
<title>Node1&#45;&gt;Node3</title>
<g id="a_edge2_Node000001_Node000003"><a xlink:title=" ">
<path fill="none" stroke="#63b8ff" d="M1700.78,-230.95C1689.62,-221.55 1676.45,-210.46 1666.05,-201.7"/>
<polygon fill="#63b8ff" stroke="#63b8ff" points="1668.31,-199.02 1658.4,-195.26 1663.8,-204.38 1668.31,-199.02"/>
</a>
</g>
</g>
<!-- Node53 -->
<g id="Node000053" class="node">
<title>Node53</title>
<g id="a_Node000053"><a xlink:title=" ">
<polygon fill="#e0e0e0" stroke="#999999" points="1858,-195 1744,-195 1744,-176 1858,-176 1858,-195"/>
<text text-anchor="middle" x="1801" y="-183" font-family="Helvetica,sans-Serif" font-size="10.00">QtCore/qbytearray.h</text>
</a>
</g>
</g>
<!-- Node1&#45;&gt;Node53 -->
<g id="edge55_Node000001_Node000053" class="edge">
<title>Node1&#45;&gt;Node53</title>
<g id="a_edge55_Node000001_Node000053"><a xlink:title=" ">
<path fill="none" stroke="#63b8ff" d="M1747.52,-230.95C1758.83,-221.55 1772.18,-210.46 1782.71,-201.7"/>
<polygon fill="#63b8ff" stroke="#63b8ff" points="1785.01,-204.34 1790.46,-195.26 1780.53,-198.96 1785.01,-204.34"/>
</a>
</g>
</g>
<!-- Node54 -->
<g id="Node000054" class="node">
<title>Node54</title>
<g id="a_Node000054"><a xlink:title=" ">
<polygon fill="#e0e0e0" stroke="#999999" points="1992,-195 1876,-195 1876,-176 1992,-176 1992,-195"/>
<text text-anchor="middle" x="1934" y="-183" font-family="Helvetica,sans-Serif" font-size="10.00">QtCore/qmetatype.h</text>
</a>
</g>
</g>
<!-- Node1&#45;&gt;Node54 -->
<g id="edge56_Node000001_Node000054" class="edge">
<title>Node1&#45;&gt;Node54</title>
<g id="a_edge56_Node000001_Node000054"><a xlink:title=" ">
<path fill="none" stroke="#63b8ff" d="M1788.15,-230.95C1823.58,-220.15 1866.38,-207.11 1896.41,-197.95"/>
<polygon fill="#63b8ff" stroke="#63b8ff" points="1897.54,-201.27 1906.08,-195.01 1895.5,-194.58 1897.54,-201.27"/>
</a>
</g>
</g>
<!-- Node4 -->
<g id="Node000004" class="node">
<title>Node4</title>
<g id="a_Node000004"><a xlink:title=" ">
<polygon fill="#e0e0e0" stroke="#999999" points="94,-140 0,-140 0,-121 94,-121 94,-140"/>
<text text-anchor="middle" x="47" y="-128" font-family="Helvetica,sans-Serif" font-size="10.00">qt5/QtGui/QtGui</text>
</a>
</g>
</g>
<!-- Node3&#45;&gt;Node4 -->
<g id="edge3_Node000003_Node000004" class="edge">
<title>Node3&#45;&gt;Node4</title>
<g id="a_edge3_Node000003_Node000004"><a xlink:title=" ">
<path fill="none" stroke="#63b8ff" d="M1570.23,-176.62C1567.12,-176.39 1564.03,-176.19 1561,-176 917.33,-136.66 750.42,-196.13 104.03,-139.95"/>
<polygon fill="#63b8ff" stroke="#63b8ff" points="104.27,-136.46 94,-139.07 103.66,-143.43 104.27,-136.46"/>
</a>
</g>
</g>
<!-- Node5 -->
<g id="Node000005" class="node">
<title>Node5</title>
<g id="a_Node000005"><a xlink:title=" ">
<polygon fill="#e0e0e0" stroke="#999999" points="165.5,-140 112.5,-140 112.5,-121 165.5,-121 165.5,-140"/>
<text text-anchor="middle" x="139" y="-128" font-family="Helvetica,sans-Serif" font-size="10.00">QTimer</text>
</a>
</g>
</g>
<!-- Node3&#45;&gt;Node5 -->
<g id="edge4_Node000003_Node000005" class="edge">
<title>Node3&#45;&gt;Node5</title>
<g id="a_edge4_Node000003_Node000005"><a xlink:title=" ">
<path fill="none" stroke="#63b8ff" d="M1570.23,-176.62C1567.12,-176.4 1564.03,-176.19 1561,-176 1256.79,-157.21 497.1,-179.13 175.93,-139.74"/>
<polygon fill="#63b8ff" stroke="#63b8ff" points="175.98,-136.21 165.62,-138.43 175.1,-143.16 175.98,-136.21"/>
</a>
</g>
</g>
<!-- Node6 -->
<g id="Node000006" class="node">
<title>Node6</title>
<g id="a_Node000006"><a xlink:title=" ">
<polygon fill="#e0e0e0" stroke="#999999" points="240,-140 184,-140 184,-121 240,-121 240,-140"/>
<text text-anchor="middle" x="212" y="-128" font-family="Helvetica,sans-Serif" font-size="10.00">QObject</text>
</a>
</g>
</g>
<!-- Node3&#45;&gt;Node6 -->
<g id="edge5_Node000003_Node000006" class="edge">
<title>Node3&#45;&gt;Node6</title>
<g id="a_edge5_Node000003_Node000006"><a xlink:title=" ">
<path fill="none" stroke="#63b8ff" d="M1570.23,-176.63C1567.12,-176.4 1564.03,-176.19 1561,-176 982.22,-139.83 829.45,-212.8 250.46,-139.88"/>
<polygon fill="#63b8ff" stroke="#63b8ff" points="250.54,-136.37 240.18,-138.58 249.66,-143.31 250.54,-136.37"/>
</a>
</g>
</g>
<!-- Node7 -->
<g id="Node000007" class="node">
<title>Node7</title>
<g id="a_Node000007"><a xlink:title=" ">
<polygon fill="#e0e0e0" stroke="#999999" points="410,-140 258,-140 258,-121 410,-121 410,-140"/>
<text text-anchor="middle" x="334" y="-128" font-family="Helvetica,sans-Serif" font-size="10.00">qt5/QtWidgets/QPushButton</text>
</a>
</g>
</g>
<!-- Node3&#45;&gt;Node7 -->
<g id="edge6_Node000003_Node000007" class="edge">
<title>Node3&#45;&gt;Node7</title>
<g id="a_edge6_Node000003_Node000007"><a xlink:title=" ">
<path fill="none" stroke="#63b8ff" d="M1570.23,-176.65C1567.12,-176.41 1564.03,-176.2 1561,-176 1057.59,-143.51 927.43,-172.89 420.57,-140.05"/>
<polygon fill="#63b8ff" stroke="#63b8ff" points="420.64,-136.55 410.44,-139.39 420.19,-143.54 420.64,-136.55"/>
</a>
</g>
</g>
<!-- Node8 -->
<g id="Node000008" class="node">
<title>Node8</title>
<g id="a_Node000008"><a xlink:title=" ">
<polygon fill="#e0e0e0" stroke="#999999" points="542,-140 428,-140 428,-121 542,-121 542,-140"/>
<text text-anchor="middle" x="485" y="-128" font-family="Helvetica,sans-Serif" font-size="10.00">qt5/QtCore/QVariant</text>
</a>
</g>
</g>
<!-- Node3&#45;&gt;Node8 -->
<g id="edge7_Node000003_Node000008" class="edge">
<title>Node3&#45;&gt;Node8</title>
<g id="a_edge7_Node000003_Node000008"><a xlink:title=" ">
<path fill="none" stroke="#63b8ff" d="M1570.23,-176.66C1567.11,-176.42 1564.03,-176.2 1561,-176 1116.1,-146.37 1000.36,-176.28 552.18,-140.01"/>
<polygon fill="#63b8ff" stroke="#63b8ff" points="552.45,-136.52 542.2,-139.2 551.89,-143.5 552.45,-136.52"/>
</a>
</g>
</g>
<!-- Node9 -->
<g id="Node000009" class="node">
<title>Node9</title>
<g id="a_Node000009"><a xlink:title=" ">
<polygon fill="#e0e0e0" stroke="#999999" points="688,-140 560,-140 560,-121 688,-121 688,-140"/>
<text text-anchor="middle" x="624" y="-128" font-family="Helvetica,sans-Serif" font-size="10.00">qt5/QtWidgets/QAction</text>
</a>
</g>
</g>
<!-- Node3&#45;&gt;Node9 -->
<g id="edge8_Node000003_Node000009" class="edge">
<title>Node3&#45;&gt;Node9</title>
<g id="a_edge8_Node000003_Node000009"><a xlink:title=" ">
<path fill="none" stroke="#63b8ff" d="M1570.23,-176.69C1567.11,-176.44 1564.03,-176.21 1561,-176 1180.87,-149.53 1081.83,-169.89 698.05,-140.02"/>
<polygon fill="#63b8ff" stroke="#63b8ff" points="698.31,-136.53 688.07,-139.23 697.76,-143.5 698.31,-136.53"/>
</a>
</g>
</g>
<!-- Node10 -->
<g id="Node000010" class="node">
<title>Node10</title>
<g id="a_Node000010"><a xlink:title=" ">
<polygon fill="#e0e0e0" stroke="#999999" points="858,-140 706,-140 706,-121 858,-121 858,-140"/>
<text text-anchor="middle" x="782" y="-128" font-family="Helvetica,sans-Serif" font-size="10.00">qt5/QtWidgets/QApplication</text>
</a>
</g>
</g>
<!-- Node3&#45;&gt;Node10 -->
<g id="edge9_Node000003_Node000010" class="edge">
<title>Node3&#45;&gt;Node10</title>
<g id="a_edge9_Node000003_Node000010"><a xlink:title=" ">
<path fill="none" stroke="#63b8ff" d="M1570.23,-176.72C1567.11,-176.47 1564.03,-176.23 1561,-176 1256.31,-153.22 1176.68,-163.15 868.56,-140.08"/>
<polygon fill="#63b8ff" stroke="#63b8ff" points="868.68,-136.58 858.44,-139.32 868.15,-143.56 868.68,-136.58"/>
</a>
</g>
</g>
<!-- Node11 -->
<g id="Node000011" class="node">
<title>Node11</title>
<g id="a_Node000011"><a xlink:title=" ">
<polygon fill="#e0e0e0" stroke="#999999" points="1034,-140 876,-140 876,-121 1034,-121 1034,-140"/>
<text text-anchor="middle" x="955" y="-128" font-family="Helvetica,sans-Serif" font-size="10.00">qt5/QtWidgets/QButtonGroup</text>
</a>
</g>
</g>
<!-- Node3&#45;&gt;Node11 -->
<g id="edge10_Node000003_Node000011" class="edge">
<title>Node3&#45;&gt;Node11</title>
<g id="a_edge10_Node000003_Node000011"><a xlink:title=" ">
<path fill="none" stroke="#63b8ff" d="M1570.22,-176.79C1567.11,-176.52 1564.02,-176.25 1561,-176 1334.28,-157.05 1274.66,-159.03 1044.18,-140.08"/>
<polygon fill="#63b8ff" stroke="#63b8ff" points="1044.4,-136.58 1034.15,-139.25 1043.82,-143.56 1044.4,-136.58"/>
</a>
</g>
</g>
<!-- Node12 -->
<g id="Node000012" class="node">
<title>Node12</title>
<g id="a_Node000012"><a xlink:title=" ">
<polygon fill="#e0e0e0" stroke="#999999" points="1216,-140 1052,-140 1052,-121 1216,-121 1216,-140"/>
<text text-anchor="middle" x="1134" y="-128" font-family="Helvetica,sans-Serif" font-size="10.00">qt5/QtWidgets/QGraphicsView</text>
</a>
</g>
</g>
<!-- Node3&#45;&gt;Node12 -->
<g id="edge11_Node000003_Node000012" class="edge">
<title>Node3&#45;&gt;Node12</title>
<g id="a_edge11_Node000003_Node000012"><a xlink:title=" ">
<path fill="none" stroke="#63b8ff" d="M1570.49,-176.51C1478.4,-167.01 1324.89,-151.18 1226.62,-141.05"/>
<polygon fill="#63b8ff" stroke="#63b8ff" points="1226.71,-137.54 1216.4,-140 1225.99,-144.5 1226.71,-137.54"/>
</a>
</g>
</g>
<!-- Node13 -->
<g id="Node000013" class="node">
<title>Node13</title>
<g id="a_Node000013"><a xlink:title=" ">
<polygon fill="#e0e0e0" stroke="#999999" points="1390,-140 1234,-140 1234,-121 1390,-121 1390,-140"/>
<text text-anchor="middle" x="1312" y="-128" font-family="Helvetica,sans-Serif" font-size="10.00">qt5/QtWidgets/QHeaderView</text>
</a>
</g>
</g>
<!-- Node3&#45;&gt;Node13 -->
<g id="edge12_Node000003_Node000013" class="edge">
<title>Node3&#45;&gt;Node13</title>
<g id="a_edge12_Node000003_Node000013"><a xlink:title=" ">
<path fill="none" stroke="#63b8ff" d="M1594.02,-175.98C1534.71,-166.63 1439.51,-151.61 1376.36,-141.65"/>
<polygon fill="#63b8ff" stroke="#63b8ff" points="1376.55,-138.14 1366.13,-140.04 1375.46,-145.05 1376.55,-138.14"/>
</a>
</g>
</g>
<!-- Node14 -->
<g id="Node000014" class="node">
<title>Node14</title>
<g id="a_Node000014"><a xlink:title=" ">
<polygon fill="#e0e0e0" stroke="#999999" points="1568,-140 1408,-140 1408,-121 1568,-121 1568,-140"/>
<text text-anchor="middle" x="1488" y="-128" font-family="Helvetica,sans-Serif" font-size="10.00">qt5/QtWidgets/QMainWindow</text>
</a>
</g>
</g>
<!-- Node3&#45;&gt;Node14 -->
<g id="edge13_Node000003_Node000014" class="edge">
<title>Node3&#45;&gt;Node14</title>
<g id="a_edge13_Node000003_Node000014"><a xlink:title=" ">
<path fill="none" stroke="#63b8ff" d="M1622.29,-175.98C1595.55,-167.13 1553.47,-153.19 1523.55,-143.28"/>
<polygon fill="#63b8ff" stroke="#63b8ff" points="1524.5,-139.9 1513.91,-140.08 1522.3,-146.55 1524.5,-139.9"/>
</a>
</g>
</g>
<!-- Node15 -->
<g id="Node000015" class="node">
<title>Node15</title>
<g id="a_Node000015"><a xlink:title=" ">
<polygon fill="#e0e0e0" stroke="#999999" points="1710,-140 1586,-140 1586,-121 1710,-121 1710,-140"/>
<text text-anchor="middle" x="1648" y="-128" font-family="Helvetica,sans-Serif" font-size="10.00">qt5/QtWidgets/QMenu</text>
</a>
</g>
</g>
<!-- Node3&#45;&gt;Node15 -->
<g id="edge14_Node000003_Node000015" class="edge">
<title>Node3&#45;&gt;Node15</title>
<g id="a_edge14_Node000003_Node000015"><a xlink:title=" ">
<path fill="none" stroke="#63b8ff" d="M1648,-175.75C1648,-168.8 1648,-158.85 1648,-150.13"/>
<polygon fill="#63b8ff" stroke="#63b8ff" points="1651.5,-150.09 1648,-140.09 1644.5,-150.09 1651.5,-150.09"/>
</a>
</g>
</g>
<!-- Node16 -->
<g id="Node000016" class="node">
<title>Node16</title>
<g id="a_Node000016"><a xlink:title=" ">
<polygon fill="#e0e0e0" stroke="#999999" points="1868,-140 1728,-140 1728,-121 1868,-121 1868,-140"/>
<text text-anchor="middle" x="1798" y="-128" font-family="Helvetica,sans-Serif" font-size="10.00">qt5/QtWidgets/QMenuBar</text>
</a>
</g>
</g>
<!-- Node3&#45;&gt;Node16 -->
<g id="edge15_Node000003_Node000016" class="edge">
<title>Node3&#45;&gt;Node16</title>
<g id="a_edge15_Node000003_Node000016"><a xlink:title=" ">
<path fill="none" stroke="#63b8ff" d="M1672.1,-175.98C1696.88,-167.23 1735.7,-153.51 1763.69,-143.62"/>
<polygon fill="#63b8ff" stroke="#63b8ff" points="1765.2,-146.8 1773.46,-140.17 1762.87,-140.2 1765.2,-146.8"/>
</a>
</g>
</g>
<!-- Node17 -->
<g id="Node000017" class="node">
<title>Node17</title>
<g id="a_Node000017"><a xlink:title=" ">
<polygon fill="#e0e0e0" stroke="#999999" points="2030,-140 1886,-140 1886,-121 2030,-121 2030,-140"/>
<text text-anchor="middle" x="1958" y="-128" font-family="Helvetica,sans-Serif" font-size="10.00">qt5/QtWidgets/QStatusBar</text>
</a>
</g>
</g>
<!-- Node3&#45;&gt;Node17 -->
<g id="edge16_Node000003_Node000017" class="edge">
<title>Node3&#45;&gt;Node17</title>
<g id="a_edge16_Node000003_Node000017"><a xlink:title=" ">
<path fill="none" stroke="#63b8ff" d="M1697.81,-175.98C1752.3,-166.67 1839.63,-151.74 1897.89,-141.78"/>
<polygon fill="#63b8ff" stroke="#63b8ff" points="1898.79,-145.17 1908.06,-140.04 1897.61,-138.27 1898.79,-145.17"/>
</a>
</g>
</g>
<!-- Node18 -->
<g id="Node000018" class="node">
<title>Node18</title>
<g id="a_Node000018"><a xlink:title=" ">
<polygon fill="#e0e0e0" stroke="#999999" points="2179.5,-140 2048.5,-140 2048.5,-121 2179.5,-121 2179.5,-140"/>
<text text-anchor="middle" x="2114" y="-128" font-family="Helvetica,sans-Serif" font-size="10.00">qt5/QtWidgets/QWidget</text>
</a>
</g>
</g>
<!-- Node3&#45;&gt;Node18 -->
<g id="edge17_Node000003_Node000018" class="edge">
<title>Node3&#45;&gt;Node18</title>
<g id="a_edge17_Node000003_Node000018"><a xlink:title=" ">
<path fill="none" stroke="#63b8ff" d="M1722.87,-175.98C1809.49,-166.13 1951.31,-150 2038.29,-140.11"/>
<polygon fill="#63b8ff" stroke="#63b8ff" points="2038.81,-143.57 2048.35,-138.97 2038.02,-136.62 2038.81,-143.57"/>
</a>
</g>
</g>
<!-- Node19 -->
<g id="Node000019" class="node">
<title>Node19</title>
<g id="a_Node000019"><a xlink:title=" ">
<polygon fill="#e0e0e0" stroke="#999999" points="2366.5,-140 2197.5,-140 2197.5,-121 2366.5,-121 2366.5,-140"/>
<text text-anchor="middle" x="2282" y="-128" font-family="Helvetica,sans-Serif" font-size="10.00">qt5/QtWidgets/QGraphicsScene</text>
</a>
</g>
</g>
<!-- Node3&#45;&gt;Node19 -->
<g id="edge18_Node000003_Node000019" class="edge">
<title>Node3&#45;&gt;Node19</title>
<g id="a_edge18_Node000003_Node000019"><a xlink:title=" ">
<path fill="none" stroke="#63b8ff" d="M1725.78,-176.83C1728.89,-176.55 1731.98,-176.27 1735,-176 1932.94,-158.47 1985.09,-157.13 2187.39,-140.04"/>
<polygon fill="#63b8ff" stroke="#63b8ff" points="2187.78,-143.52 2197.45,-139.19 2187.19,-136.55 2187.78,-143.52"/>
</a>
</g>
</g>
<!-- Node20 -->
<g id="Node000020" class="node">
<title>Node20</title>
<g id="a_Node000020"><a xlink:title=" ">
<polygon fill="#e0e0e0" stroke="#999999" points="2569,-140 2385,-140 2385,-121 2569,-121 2569,-140"/>
<text text-anchor="middle" x="2477" y="-128" font-family="Helvetica,sans-Serif" font-size="10.00">qt5/QtWidgets/QGraphicsRectItem</text>
</a>
</g>
</g>
<!-- Node3&#45;&gt;Node20 -->
<g id="edge19_Node000003_Node000020" class="edge">
<title>Node3&#45;&gt;Node20</title>
<g id="a_edge19_Node000003_Node000020"><a xlink:title=" ">
<path fill="none" stroke="#63b8ff" d="M1725.77,-176.74C1728.89,-176.48 1731.97,-176.23 1735,-176 2019.05,-154.14 2090.8,-159.83 2375,-140 2375.1,-139.99 2375.21,-139.99 2375.31,-139.98"/>
<polygon fill="#63b8ff" stroke="#63b8ff" points="2375.27,-143.49 2384.99,-139.28 2374.76,-136.51 2375.27,-143.49"/>
</a>
</g>
</g>
<!-- Node21 -->
<g id="Node000021" class="node">
<title>Node21</title>
<g id="a_Node000021"><a xlink:title=" ">
<polygon fill="#e0e0e0" stroke="#999999" points="2721,-140 2587,-140 2587,-121 2721,-121 2721,-140"/>
<text text-anchor="middle" x="2654" y="-128" font-family="Helvetica,sans-Serif" font-size="10.00">qt5/QtCore/qtypetraits.h</text>
</a>
</g>
</g>
<!-- Node3&#45;&gt;Node21 -->
<g id="edge20_Node000003_Node000021" class="edge">
<title>Node3&#45;&gt;Node21</title>
<g id="a_edge20_Node000003_Node000021"><a xlink:title=" ">
<path fill="none" stroke="#63b8ff" d="M1725.77,-176.69C1728.89,-176.44 1731.97,-176.21 1735,-176 2105.8,-149.99 2202.41,-168.53 2576.86,-140.03"/>
<polygon fill="#63b8ff" stroke="#63b8ff" points="2577.18,-143.51 2586.89,-139.26 2576.65,-136.53 2577.18,-143.51"/>
</a>
</g>
</g>
<!-- Node22 -->
<g id="Node000022" class="node">
<title>Node22</title>
<g id="a_Node000022"><a xlink:title=" ">
<polygon fill="#e0e0e0" stroke="#999999" points="2838.5,-140 2739.5,-140 2739.5,-121 2838.5,-121 2838.5,-140"/>
<text text-anchor="middle" x="2789" y="-128" font-family="Helvetica,sans-Serif" font-size="10.00">qt5/QtGui/QColor</text>
</a>
</g>
</g>
<!-- Node3&#45;&gt;Node22 -->
<g id="edge21_Node000003_Node000022" class="edge">
<title>Node3&#45;&gt;Node22</title>
<g id="a_edge21_Node000003_Node000022"><a xlink:title=" ">
<path fill="none" stroke="#63b8ff" d="M1725.77,-176.66C1728.89,-176.43 1731.97,-176.2 1735,-176 2173.18,-146.7 2287.54,-179.11 2729.31,-139.94"/>
<polygon fill="#63b8ff" stroke="#63b8ff" points="2729.82,-143.4 2739.47,-139.03 2729.2,-136.43 2729.82,-143.4"/>
</a>
</g>
</g>
<!-- Node23 -->
<g id="Node000023" class="node">
<title>Node23</title>
<g id="a_Node000023"><a xlink:title=" ">
<polygon fill="#e0e0e0" stroke="#999999" points="2763,-24.5 2703,-24.5 2703,-5.5 2763,-5.5 2763,-24.5"/>
<text text-anchor="middle" x="2733" y="-12.5" font-family="Helvetica,sans-Serif" font-size="10.00">iostream</text>
</a>
</g>
</g>
<!-- Node3&#45;&gt;Node23 -->
<g id="edge22_Node000003_Node000023" class="edge">
<title>Node3&#45;&gt;Node23</title>
<g id="a_edge22_Node000003_Node000023"><a xlink:title=" ">
<path fill="none" stroke="#63b8ff" d="M1725.77,-176.65C1728.88,-176.41 1731.97,-176.2 1735,-176 1796.68,-171.99 2804.01,-184.41 2847,-140 2885.36,-100.38 2805.34,-51.84 2760.53,-29.03"/>
<polygon fill="#63b8ff" stroke="#63b8ff" points="2762.07,-25.88 2751.56,-24.56 2758.95,-32.15 2762.07,-25.88"/>
</a>
</g>
</g>
<!-- Node24 -->
<g id="Node000024" class="node">
<title>Node24</title>
<g id="a_Node000024"><a xlink:href="Environnement_8hpp.html" target="_top" xlink:title=" ">
<polygon fill="white" stroke="#666666" points="3203,-140 3091,-140 3091,-121 3203,-121 3203,-140"/>
<text text-anchor="middle" x="3147" y="-128" font-family="Helvetica,sans-Serif" font-size="10.00">Environnement.hpp</text>
</a>
</g>
</g>
<!-- Node3&#45;&gt;Node24 -->
<g id="edge23_Node000003_Node000024" class="edge">
<title>Node3&#45;&gt;Node24</title>
<g id="a_edge23_Node000003_Node000024"><a xlink:title=" ">
<path fill="none" stroke="#63b8ff" d="M1725.55,-176.03C1725.7,-176.02 1725.85,-176.01 1726,-176 2234.53,-143.21 2362.67,-156.14 2872,-140 2943.08,-137.75 3024.85,-135.13 3080.71,-133.4"/>
<polygon fill="#63b8ff" stroke="#63b8ff" points="3080.94,-136.9 3090.83,-133.09 3080.73,-129.9 3080.94,-136.9"/>
</a>
</g>
</g>
<!-- Node43 -->
<g id="Node000043" class="node">
<title>Node43</title>
<g id="a_Node000043"><a xlink:href="gAgentGui_8hpp.html" target="_top" xlink:title=" ">
<polygon fill="white" stroke="#666666" points="4236.5,-140 4147.5,-140 4147.5,-121 4236.5,-121 4236.5,-140"/>
<text text-anchor="middle" x="4192" y="-128" font-family="Helvetica,sans-Serif" font-size="10.00">gAgentGui.hpp</text>
</a>
</g>
</g>
<!-- Node3&#45;&gt;Node43 -->
<g id="edge45_Node000003_Node000043" class="edge">
<title>Node3&#45;&gt;Node43</title>
<g id="a_edge45_Node000003_Node000043"><a xlink:title=" ">
<path fill="none" stroke="#63b8ff" d="M1725.76,-176.59C1728.88,-176.37 1731.97,-176.18 1735,-176 2225.1,-147.66 3819.64,-134.31 4136.84,-131.9"/>
<polygon fill="#63b8ff" stroke="#63b8ff" points="4137.17,-135.4 4147.15,-131.83 4137.12,-128.4 4137.17,-135.4"/>
</a>
</g>
</g>
<!-- Node24&#45;&gt;Node3 -->
<g id="edge31_Node000024_Node000003" class="edge">
<title>Node24&#45;&gt;Node3</title>
<g id="a_edge31_Node000024_Node000003"><a xlink:title=" ">
<path fill="none" stroke="#63b8ff" d="M3090.77,-133.54C3038.69,-135.26 2959.27,-137.81 2890,-140 2380.67,-156.14 2252.53,-143.21 1744,-176 1741.32,-176.17 1738.6,-176.36 1735.85,-176.56"/>
<polygon fill="#63b8ff" stroke="#63b8ff" points="1735.49,-173.08 1725.79,-177.35 1736.04,-180.06 1735.49,-173.08"/>
</a>
</g>
</g>
<!-- Node24&#45;&gt;Node23 -->
<g id="edge27_Node000024_Node000023" class="edge">
<title>Node24&#45;&gt;Node23</title>
<g id="a_edge27_Node000024_Node000023"><a xlink:title=" ">
<path fill="none" stroke="#63b8ff" d="M3090.62,-122.83C3043.79,-116.27 2975.88,-104.37 2919,-85 2901.13,-78.91 2898.45,-73.2 2881,-66 2833.84,-46.54 2820.24,-46.62 2772,-30 2770.11,-29.35 2768.18,-28.68 2766.22,-27.99"/>
<polygon fill="#63b8ff" stroke="#63b8ff" points="2767.07,-24.58 2756.48,-24.54 2764.73,-31.18 2767.07,-24.58"/>
</a>
</g>
</g>
<!-- Node25 -->
<g id="Node000025" class="node">
<title>Node25</title>
<g id="a_Node000025"><a xlink:title=" ">
<polygon fill="#e0e0e0" stroke="#999999" points="2819,-24.5 2781,-24.5 2781,-5.5 2819,-5.5 2819,-24.5"/>
<text text-anchor="middle" x="2800" y="-12.5" font-family="Helvetica,sans-Serif" font-size="10.00">map</text>
</a>
</g>
</g>
<!-- Node24&#45;&gt;Node25 -->
<g id="edge24_Node000024_Node000025" class="edge">
<title>Node24&#45;&gt;Node25</title>
<g id="a_edge24_Node000024_Node000025"><a xlink:title=" ">
<path fill="none" stroke="#63b8ff" d="M3101.5,-120.94C3063.65,-113.25 3008.63,-100.77 2962,-85 2942.21,-78.31 2938.27,-74.07 2919,-66 2878.88,-49.21 2867.71,-47.74 2828,-30 2827.18,-29.63 2826.34,-29.25 2825.5,-28.86"/>
<polygon fill="#63b8ff" stroke="#63b8ff" points="2827,-25.7 2816.47,-24.53 2823.97,-32.01 2827,-25.7"/>
</a>
</g>
</g>
<!-- Node26 -->
<g id="Node000026" class="node">
<title>Node26</title>
<g id="a_Node000026"><a xlink:title=" ">
<polygon fill="#e0e0e0" stroke="#999999" points="3277,-24.5 3233,-24.5 3233,-5.5 3277,-5.5 3277,-24.5"/>
<text text-anchor="middle" x="3255" y="-12.5" font-family="Helvetica,sans-Serif" font-size="10.00">string</text>
</a>
</g>
</g>
<!-- Node24&#45;&gt;Node26 -->
<g id="edge25_Node000024_Node000026" class="edge">
<title>Node24&#45;&gt;Node26</title>
<g id="a_edge25_Node000024_Node000026"><a xlink:title=" ">
<path fill="none" stroke="#63b8ff" d="M3140.17,-120.97C3130.72,-108.06 3116.1,-83.23 3128,-66 3153.65,-28.84 3181.19,-47.05 3223,-30 3224.17,-29.52 3225.36,-29.03 3226.56,-28.53"/>
<polygon fill="#63b8ff" stroke="#63b8ff" points="3227.95,-31.74 3235.78,-24.6 3225.2,-25.3 3227.95,-31.74"/>
</a>
</g>
</g>
<!-- Node27 -->
<g id="Node000027" class="node">
<title>Node27</title>
<g id="a_Node000027"><a xlink:title=" ">
<polygon fill="#e0e0e0" stroke="#999999" points="3342.5,-85 3289.5,-85 3289.5,-66 3342.5,-66 3342.5,-85"/>
<text text-anchor="middle" x="3316" y="-73" font-family="Helvetica,sans-Serif" font-size="10.00">iterator</text>
</a>
</g>
</g>
<!-- Node24&#45;&gt;Node27 -->
<g id="edge26_Node000024_Node000027" class="edge">
<title>Node24&#45;&gt;Node27</title>
<g id="a_edge26_Node000024_Node000027"><a xlink:title=" ">
<path fill="none" stroke="#63b8ff" d="M3174.15,-120.98C3202.78,-112.01 3248.03,-97.82 3279.7,-87.88"/>
<polygon fill="#63b8ff" stroke="#63b8ff" points="3280.98,-91.15 3289.47,-84.82 3278.88,-84.47 3280.98,-91.15"/>
</a>
</g>
</g>
<!-- Node28 -->
<g id="Node000028" class="node">
<title>Node28</title>
<g id="a_Node000028"><a xlink:title=" ">
<polygon fill="#e0e0e0" stroke="#999999" points="3342.5,-24.5 3295.5,-24.5 3295.5,-5.5 3342.5,-5.5 3342.5,-24.5"/>
<text text-anchor="middle" x="3319" y="-12.5" font-family="Helvetica,sans-Serif" font-size="10.00">vector</text>
</a>
</g>
</g>
<!-- Node24&#45;&gt;Node28 -->
<g id="edge28_Node000024_Node000028" class="edge">
<title>Node24&#45;&gt;Node28</title>
<g id="a_edge28_Node000024_Node000028"><a xlink:title=" ">
<path fill="none" stroke="#63b8ff" d="M3169.87,-121C3189.75,-113.1 3218.91,-100.27 3242,-85 3265.5,-69.46 3289.12,-47.04 3303.89,-32.02"/>
<polygon fill="#63b8ff" stroke="#63b8ff" points="3306.7,-34.15 3311.12,-24.52 3301.66,-29.29 3306.7,-34.15"/>
</a>
</g>
</g>
<!-- Node29 -->
<g id="Node000029" class="node">
<title>Node29</title>
<g id="a_Node000029"><a xlink:title=" ">
<polygon fill="#e0e0e0" stroke="#999999" points="3425.5,-85 3360.5,-85 3360.5,-66 3425.5,-66 3425.5,-85"/>
<text text-anchor="middle" x="3393" y="-73" font-family="Helvetica,sans-Serif" font-size="10.00">mqueue.h</text>
</a>
</g>
</g>
<!-- Node24&#45;&gt;Node29 -->
<g id="edge29_Node000024_Node000029" class="edge">
<title>Node24&#45;&gt;Node29</title>
<g id="a_edge29_Node000024_Node000029"><a xlink:title=" ">
<path fill="none" stroke="#63b8ff" d="M3186.52,-120.98C3231.35,-111.33 3304.18,-95.64 3350.29,-85.7"/>
<polygon fill="#63b8ff" stroke="#63b8ff" points="3351.23,-89.08 3360.26,-83.55 3349.75,-82.24 3351.23,-89.08"/>
</a>
</g>
</g>
<!-- Node30 -->
<g id="Node000030" class="node">
<title>Node30</title>
<g id="a_Node000030"><a xlink:title=" ">
<polygon fill="#e0e0e0" stroke="#999999" points="3492,-85 3444,-85 3444,-66 3492,-66 3492,-85"/>
<text text-anchor="middle" x="3468" y="-73" font-family="Helvetica,sans-Serif" font-size="10.00">thread</text>
</a>
</g>
</g>
<!-- Node24&#45;&gt;Node30 -->
<g id="edge30_Node000024_Node000030" class="edge">
<title>Node24&#45;&gt;Node30</title>
<g id="a_edge30_Node000024_Node000030"><a xlink:title=" ">
<path fill="none" stroke="#63b8ff" d="M3203.09,-122.34C3261.14,-114.58 3354.31,-101.11 3434,-85 3434.1,-84.98 3434.2,-84.96 3434.3,-84.94"/>
<polygon fill="#63b8ff" stroke="#63b8ff" points="3434.91,-88.39 3443.92,-82.81 3433.4,-81.55 3434.91,-88.39"/>
</a>
</g>
</g>
<!-- Node31 -->
<g id="Node000031" class="node">
<title>Node31</title>
<g id="a_Node000031"><a xlink:href="VisualAgent_8hpp.html" target="_top" xlink:title=" ">
<polygon fill="white" stroke="#666666" points="3233,-85 3137,-85 3137,-66 3233,-66 3233,-85"/>
<text text-anchor="middle" x="3185" y="-73" font-family="Helvetica,sans-Serif" font-size="10.00">VisualAgent.hpp</text>
</a>
</g>
</g>
<!-- Node24&#45;&gt;Node31 -->
<g id="edge32_Node000024_Node000031" class="edge">
<title>Node24&#45;&gt;Node31</title>
<g id="a_edge32_Node000024_Node000031"><a xlink:title=" ">
<path fill="none" stroke="#63b8ff" d="M3153.27,-120.75C3158.59,-113.34 3166.36,-102.5 3172.88,-93.41"/>
<polygon fill="#63b8ff" stroke="#63b8ff" points="3175.86,-95.26 3178.84,-85.09 3170.17,-91.18 3175.86,-95.26"/>
</a>
</g>
</g>
<!-- Node32 -->
<g id="Node000032" class="node">
<title>Node32</title>
<g id="a_Node000032"><a xlink:href="MessageParser_8hpp.html" target="_top" xlink:title=" ">
<polygon fill="white" stroke="#666666" points="3081,-85 2971,-85 2971,-66 3081,-66 3081,-85"/>
<text text-anchor="middle" x="3026" y="-73" font-family="Helvetica,sans-Serif" font-size="10.00">MessageParser.hpp</text>
</a>
</g>
</g>
<!-- Node24&#45;&gt;Node32 -->
<g id="edge35_Node000024_Node000032" class="edge">
<title>Node24&#45;&gt;Node32</title>
<g id="a_edge35_Node000024_Node000032"><a xlink:title=" ">
<path fill="none" stroke="#63b8ff" d="M3127.56,-120.98C3108.01,-112.42 3077.62,-99.11 3055.18,-89.28"/>
<polygon fill="#63b8ff" stroke="#63b8ff" points="3056.36,-85.98 3045.79,-85.17 3053.55,-92.39 3056.36,-85.98"/>
</a>
</g>
</g>
<!-- Node36 -->
<g id="Node000036" class="node">
<title>Node36</title>
<g id="a_Node000036"><a xlink:href="udp__client__server_8hpp.html" target="_top" xlink:title=" ">
<polygon fill="#fff0f0" stroke="red" points="3633.5,-85 3510.5,-85 3510.5,-66 3633.5,-66 3633.5,-85"/>
<text text-anchor="middle" x="3572" y="-73" font-family="Helvetica,sans-Serif" font-size="10.00">udp_client_server.hpp</text>
</a>
</g>
</g>
<!-- Node24&#45;&gt;Node36 -->
<g id="edge42_Node000024_Node000036" class="edge">
<title>Node24&#45;&gt;Node36</title>
<g id="a_edge42_Node000024_Node000036"><a xlink:title=" ">
<path fill="none" stroke="#63b8ff" d="M3203.44,-122.46C3279.92,-112.92 3416.52,-95.89 3500.22,-85.45"/>
<polygon fill="#63b8ff" stroke="#63b8ff" points="3500.66,-88.92 3510.15,-84.21 3499.8,-81.98 3500.66,-88.92"/>
</a>
</g>
</g>
<!-- Node31&#45;&gt;Node26 -->
<g id="edge33_Node000031_Node000026" class="edge">
<title>Node31&#45;&gt;Node26</title>
<g id="a_edge33_Node000031_Node000026"><a xlink:title=" ">
<path fill="none" stroke="#63b8ff" d="M3195.33,-65.87C3206.19,-56.8 3223.49,-42.34 3236.67,-31.32"/>
<polygon fill="#63b8ff" stroke="#63b8ff" points="3239.2,-33.77 3244.63,-24.67 3234.71,-28.39 3239.2,-33.77"/>
</a>
</g>
</g>
<!-- Node31&#45;&gt;Node28 -->
<g id="edge34_Node000031_Node000028" class="edge">
<title>Node31&#45;&gt;Node28</title>
<g id="a_edge34_Node000031_Node000028"><a xlink:title=" ">
<path fill="none" stroke="#63b8ff" d="M3204.48,-65.99C3227.01,-56.16 3264.31,-39.88 3290.19,-28.58"/>
<polygon fill="#63b8ff" stroke="#63b8ff" points="3291.73,-31.73 3299.49,-24.52 3288.93,-25.31 3291.73,-31.73"/>
</a>
</g>
</g>
<!-- Node32&#45;&gt;Node23 -->
<g id="edge40_Node000032_Node000023" class="edge">
<title>Node32&#45;&gt;Node23</title>
<g id="a_edge40_Node000032_Node000023"><a xlink:title=" ">
<path fill="none" stroke="#63b8ff" d="M2970.91,-67.62C2919.06,-60.5 2839.51,-47.89 2772,-30 2769.51,-29.34 2766.94,-28.59 2764.38,-27.79"/>
<polygon fill="#63b8ff" stroke="#63b8ff" points="2765.25,-24.38 2754.66,-24.52 2763.02,-31.02 2765.25,-24.38"/>
</a>
</g>
</g>
<!-- Node32&#45;&gt;Node25 -->
<g id="edge37_Node000032_Node000025" class="edge">
<title>Node32&#45;&gt;Node25</title>
<g id="a_edge37_Node000032_Node000025"><a xlink:title=" ">
<path fill="none" stroke="#63b8ff" d="M2971.64,-65.95C2931.29,-58.73 2875.29,-46.85 2828,-30 2826.95,-29.63 2825.89,-29.22 2824.83,-28.8"/>
<polygon fill="#63b8ff" stroke="#63b8ff" points="2825.96,-25.47 2815.4,-24.54 2823.08,-31.85 2825.96,-25.47"/>
</a>
</g>
</g>
<!-- Node32&#45;&gt;Node26 -->
<g id="edge36_Node000032_Node000026" class="edge">
<title>Node32&#45;&gt;Node26</title>
<g id="a_edge36_Node000032_Node000026"><a xlink:title=" ">
<path fill="none" stroke="#63b8ff" d="M3075.69,-65.99C3115.95,-58.45 3173.86,-46.14 3223,-30 3224.44,-29.53 3225.9,-29.01 3227.37,-28.47"/>
<polygon fill="#63b8ff" stroke="#63b8ff" points="3228.99,-31.59 3236.96,-24.61 3226.37,-25.1 3228.99,-31.59"/>
</a>
</g>
</g>
<!-- Node33 -->
<g id="Node000033" class="node">
<title>Node33</title>
<g id="a_Node000033"><a xlink:title=" ">
<polygon fill="#e0e0e0" stroke="#999999" points="2952.5,-30 2837.5,-30 2837.5,0 2952.5,0 2952.5,-30"/>
<text text-anchor="start" x="2845.5" y="-18" font-family="Helvetica,sans-Serif" font-size="10.00">boost/fusion/include</text>
<text text-anchor="middle" x="2895" y="-7" font-family="Helvetica,sans-Serif" font-size="10.00">/io.hpp</text>
</a>
</g>
</g>
<!-- Node32&#45;&gt;Node33 -->
<g id="edge38_Node000032_Node000033" class="edge">
<title>Node32&#45;&gt;Node33</title>
<g id="a_edge38_Node000032_Node000033"><a xlink:title=" ">
<path fill="none" stroke="#63b8ff" d="M3006.95,-65.99C2988.35,-57.68 2959.44,-44.78 2935.66,-34.16"/>
<polygon fill="#63b8ff" stroke="#63b8ff" points="2937.05,-30.95 2926.49,-30.06 2934.2,-37.34 2937.05,-30.95"/>
</a>
</g>
</g>
<!-- Node34 -->
<g id="Node000034" class="node">
<title>Node34</title>
<g id="a_Node000034"><a xlink:title=" ">
<polygon fill="#e0e0e0" stroke="#999999" points="3081,-30 2971,-30 2971,0 3081,0 3081,-30"/>
<text text-anchor="start" x="2979" y="-18" font-family="Helvetica,sans-Serif" font-size="10.00">boost/spirit/include</text>
<text text-anchor="middle" x="3026" y="-7" font-family="Helvetica,sans-Serif" font-size="10.00">/qi.hpp</text>
</a>
</g>
</g>
<!-- Node32&#45;&gt;Node34 -->
<g id="edge39_Node000032_Node000034" class="edge">
<title>Node32&#45;&gt;Node34</title>
<g id="a_edge39_Node000032_Node000034"><a xlink:title=" ">
<path fill="none" stroke="#63b8ff" d="M3026,-65.87C3026,-59.11 3026,-49.35 3026,-40.26"/>
<polygon fill="#63b8ff" stroke="#63b8ff" points="3029.5,-40.11 3026,-30.11 3022.5,-40.11 3029.5,-40.11"/>
</a>
</g>
</g>
<!-- Node35 -->
<g id="Node000035" class="node">
<title>Node35</title>
<g id="a_Node000035"><a xlink:title=" ">
<polygon fill="#e0e0e0" stroke="#999999" points="3214.5,-30 3099.5,-30 3099.5,0 3214.5,0 3214.5,-30"/>
<text text-anchor="start" x="3107.5" y="-18" font-family="Helvetica,sans-Serif" font-size="10.00">boost/fusion/include</text>
<text text-anchor="middle" x="3157" y="-7" font-family="Helvetica,sans-Serif" font-size="10.00">/std_pair.hpp</text>
</a>
</g>
</g>
<!-- Node32&#45;&gt;Node35 -->
<g id="edge41_Node000032_Node000035" class="edge">
<title>Node32&#45;&gt;Node35</title>
<g id="a_edge41_Node000032_Node000035"><a xlink:title=" ">
<path fill="none" stroke="#63b8ff" d="M3045.05,-65.99C3063.65,-57.68 3092.56,-44.78 3116.34,-34.16"/>
<polygon fill="#63b8ff" stroke="#63b8ff" points="3117.8,-37.34 3125.51,-30.06 3114.95,-30.95 3117.8,-37.34"/>
</a>
</g>
</g>
<!-- Node37 -->
<g id="Node000037" class="node">
<title>Node37</title>
<g id="a_Node000037"><a xlink:title=" ">
<polygon fill="#e0e0e0" stroke="#999999" points="3654,-24.5 3582,-24.5 3582,-5.5 3654,-5.5 3654,-24.5"/>
<text text-anchor="middle" x="3618" y="-12.5" font-family="Helvetica,sans-Serif" font-size="10.00">sys/types.h</text>
</a>
</g>
</g>
<!-- Node36&#45;&gt;Node37 -->
<g id="edge43_Node000036_Node000037" class="edge">
<title>Node36&#45;&gt;Node37</title>
<g id="a_edge43_Node000036_Node000037"><a xlink:title=" ">
<path fill="none" stroke="#63b8ff" d="M3578.79,-65.87C3585.65,-57.14 3596.43,-43.43 3604.95,-32.59"/>
<polygon fill="#63b8ff" stroke="#63b8ff" points="3607.75,-34.69 3611.18,-24.67 3602.25,-30.36 3607.75,-34.69"/>
</a>
</g>
</g>
<!-- Node38 -->
<g id="Node000038" class="node">
<title>Node38</title>
<g id="a_Node000038"><a xlink:title=" ">
<polygon fill="#e0e0e0" stroke="#999999" points="3563.5,-24.5 3486.5,-24.5 3486.5,-5.5 3563.5,-5.5 3563.5,-24.5"/>
<text text-anchor="middle" x="3525" y="-12.5" font-family="Helvetica,sans-Serif" font-size="10.00">sys/socket.h</text>
</a>
</g>
</g>
<!-- Node36&#45;&gt;Node38 -->
<g id="edge44_Node000036_Node000038" class="edge">
<title>Node36&#45;&gt;Node38</title>
<g id="a_edge44_Node000036_Node000038"><a xlink:title=" ">
<path fill="none" stroke="#63b8ff" d="M3565.06,-65.87C3558.05,-57.14 3547.04,-43.43 3538.33,-32.59"/>
<polygon fill="#63b8ff" stroke="#63b8ff" points="3540.96,-30.27 3531.96,-24.67 3535.5,-34.66 3540.96,-30.27"/>
</a>
</g>
</g>
<!-- Node44 -->
<g id="Node000044" class="node">
<title>Node44</title>
<g id="a_Node000044"><a xlink:title=" ">
<polygon fill="#e0e0e0" stroke="#999999" points="4179.5,-85 4084.5,-85 4084.5,-66 4179.5,-66 4179.5,-85"/>
<text text-anchor="middle" x="4132" y="-73" font-family="Helvetica,sans-Serif" font-size="10.00">QtCore/QVariant</text>
</a>
</g>
</g>
<!-- Node43&#45;&gt;Node44 -->
<g id="edge46_Node000043_Node000044" class="edge">
<title>Node43&#45;&gt;Node44</title>
<g id="a_edge46_Node000043_Node000044"><a xlink:title=" ">
<path fill="none" stroke="#63b8ff" d="M4182.36,-120.98C4173.49,-113.15 4160.13,-101.34 4149.39,-91.86"/>
<polygon fill="#63b8ff" stroke="#63b8ff" points="4151.63,-89.17 4141.82,-85.17 4146.99,-94.41 4151.63,-89.17"/>
</a>
</g>
</g>
<!-- Node45 -->
<g id="Node000045" class="node">
<title>Node45</title>
<g id="a_Node000045"><a xlink:title=" ">
<polygon fill="#e0e0e0" stroke="#999999" points="4306.5,-85 4197.5,-85 4197.5,-66 4306.5,-66 4306.5,-85"/>
<text text-anchor="middle" x="4252" y="-73" font-family="Helvetica,sans-Serif" font-size="10.00">QtWidgets/QAction</text>
</a>
</g>
</g>
<!-- Node43&#45;&gt;Node45 -->
<g id="edge47_Node000043_Node000045" class="edge">
<title>Node43&#45;&gt;Node45</title>
<g id="a_edge47_Node000043_Node000045"><a xlink:title=" ">
<path fill="none" stroke="#63b8ff" d="M4201.64,-120.98C4210.51,-113.15 4223.87,-101.34 4234.61,-91.86"/>
<polygon fill="#63b8ff" stroke="#63b8ff" points="4237.01,-94.41 4242.18,-85.17 4232.37,-89.17 4237.01,-94.41"/>
</a>
</g>
</g>
<!-- Node46 -->
<g id="Node000046" class="node">
<title>Node46</title>
<g id="a_Node000046"><a xlink:title=" ">
<polygon fill="#e0e0e0" stroke="#999999" points="4457.5,-85 4324.5,-85 4324.5,-66 4457.5,-66 4457.5,-85"/>
<text text-anchor="middle" x="4391" y="-73" font-family="Helvetica,sans-Serif" font-size="10.00">QtWidgets/QApplication</text>
</a>
</g>
</g>
<!-- Node43&#45;&gt;Node46 -->
<g id="edge48_Node000043_Node000046" class="edge">
<title>Node43&#45;&gt;Node46</title>
<g id="a_edge48_Node000043_Node000046"><a xlink:title=" ">
<path fill="none" stroke="#63b8ff" d="M4223.97,-120.98C4257.82,-111.97 4311.4,-97.7 4348.71,-87.76"/>
<polygon fill="#63b8ff" stroke="#63b8ff" points="4350.01,-91.04 4358.78,-85.08 4348.21,-84.27 4350.01,-91.04"/>
</a>
</g>
</g>
<!-- Node47 -->
<g id="Node000047" class="node">
<title>Node47</title>
<g id="a_Node000047"><a xlink:title=" ">
<polygon fill="#e0e0e0" stroke="#999999" points="4616,-85 4476,-85 4476,-66 4616,-66 4616,-85"/>
<text text-anchor="middle" x="4546" y="-73" font-family="Helvetica,sans-Serif" font-size="10.00">QtWidgets/QButtonGroup</text>
</a>
</g>
</g>
<!-- Node43&#45;&gt;Node47 -->
<g id="edge49_Node000043_Node000047" class="edge">
<title>Node43&#45;&gt;Node47</title>
<g id="a_edge49_Node000043_Node000047"><a xlink:title=" ">
<path fill="none" stroke="#63b8ff" d="M4236.83,-122.79C4297.92,-113.64 4407.81,-97.19 4478.78,-86.56"/>
<polygon fill="#63b8ff" stroke="#63b8ff" points="4479.59,-89.98 4488.96,-85.04 4478.55,-83.06 4479.59,-89.98"/>
</a>
</g>
</g>
<!-- Node48 -->
<g id="Node000048" class="node">
<title>Node48</title>
<g id="a_Node000048"><a xlink:title=" ">
<polygon fill="#e0e0e0" stroke="#999999" points="4779.5,-85 4634.5,-85 4634.5,-66 4779.5,-66 4779.5,-85"/>
<text text-anchor="middle" x="4707" y="-73" font-family="Helvetica,sans-Serif" font-size="10.00">QtWidgets/QGraphicsView</text>
</a>
</g>
</g>
<!-- Node43&#45;&gt;Node48 -->
<g id="edge50_Node000043_Node000048" class="edge">
<title>Node43&#45;&gt;Node48</title>
<g id="a_edge50_Node000043_Node000048"><a xlink:title=" ">
<path fill="none" stroke="#63b8ff" d="M4236.57,-124.93C4313.31,-117.07 4475.61,-100.41 4623.92,-85.11"/>
<polygon fill="#63b8ff" stroke="#63b8ff" points="4624.54,-88.57 4634.12,-84.06 4623.82,-81.6 4624.54,-88.57"/>
</a>
</g>
</g>
<!-- Node49 -->
<g id="Node000049" class="node">
<title>Node49</title>
<g id="a_Node000049"><a xlink:title=" ">
<polygon fill="#e0e0e0" stroke="#999999" points="4934.5,-85 4797.5,-85 4797.5,-66 4934.5,-66 4934.5,-85"/>
<text text-anchor="middle" x="4866" y="-73" font-family="Helvetica,sans-Serif" font-size="10.00">QtWidgets/QHeaderView</text>
</a>
</g>
</g>
<!-- Node43&#45;&gt;Node49 -->
<g id="edge51_Node000043_Node000049" class="edge">
<title>Node43&#45;&gt;Node49</title>
<g id="a_edge51_Node000043_Node000049"><a xlink:title=" ">
<path fill="none" stroke="#63b8ff" d="M4236.61,-126.72C4334.37,-120.51 4575.11,-104.57 4787.09,-85.15"/>
<polygon fill="#63b8ff" stroke="#63b8ff" points="4787.53,-88.62 4797.17,-84.22 4786.89,-81.65 4787.53,-88.62"/>
</a>
</g>
</g>
<!-- Node50 -->
<g id="Node000050" class="node">
<title>Node50</title>
<g id="a_Node000050"><a xlink:title=" ">
<polygon fill="#e0e0e0" stroke="#999999" points="3792.5,-85 3651.5,-85 3651.5,-66 3792.5,-66 3792.5,-85"/>
<text text-anchor="middle" x="3722" y="-73" font-family="Helvetica,sans-Serif" font-size="10.00">QtWidgets/QMainWindow</text>
</a>
</g>
</g>
<!-- Node43&#45;&gt;Node50 -->
<g id="edge52_Node000043_Node000050" class="edge">
<title>Node43&#45;&gt;Node50</title>
<g id="a_edge52_Node000043_Node000050"><a xlink:title=" ">
<path fill="none" stroke="#63b8ff" d="M4147.36,-124.47C4068.27,-115.55 3902.52,-96.86 3802.88,-85.62"/>
<polygon fill="#63b8ff" stroke="#63b8ff" points="3803.18,-82.13 3792.86,-84.49 3802.4,-89.09 3803.18,-82.13"/>
</a>
</g>
</g>
<!-- Node51 -->
<g id="Node000051" class="node">
<title>Node51</title>
<g id="a_Node000051"><a xlink:title=" ">
<polygon fill="#e0e0e0" stroke="#999999" points="3935.5,-85 3810.5,-85 3810.5,-66 3935.5,-66 3935.5,-85"/>
<text text-anchor="middle" x="3873" y="-73" font-family="Helvetica,sans-Serif" font-size="10.00">QtWidgets/QStatusBar</text>
</a>
</g>
</g>
<!-- Node43&#45;&gt;Node51 -->
<g id="edge53_Node000043_Node000051" class="edge">
<title>Node43&#45;&gt;Node51</title>
<g id="a_edge53_Node000043_Node000051"><a xlink:title=" ">
<path fill="none" stroke="#63b8ff" d="M4147.31,-122.07C4091.76,-112.85 3996.68,-97.05 3934.34,-86.69"/>
<polygon fill="#63b8ff" stroke="#63b8ff" points="3934.68,-83.2 3924.25,-85.01 3933.54,-90.11 3934.68,-83.2"/>
</a>
</g>
</g>
<!-- Node52 -->
<g id="Node000052" class="node">
<title>Node52</title>
<g id="a_Node000052"><a xlink:title=" ">
<polygon fill="#e0e0e0" stroke="#999999" points="4066.5,-85 3953.5,-85 3953.5,-66 4066.5,-66 4066.5,-85"/>
<text text-anchor="middle" x="4010" y="-73" font-family="Helvetica,sans-Serif" font-size="10.00">QtWidgets/QWidget</text>
</a>
</g>
</g>
<!-- Node43&#45;&gt;Node52 -->
<g id="edge54_Node000043_Node000052" class="edge">
<title>Node43&#45;&gt;Node52</title>
<g id="a_edge54_Node000043_Node000052"><a xlink:title=" ">
<path fill="none" stroke="#63b8ff" d="M4162.76,-120.98C4131.94,-112.01 4083.22,-97.82 4049.11,-87.89"/>
<polygon fill="#63b8ff" stroke="#63b8ff" points="4050.05,-84.52 4039.47,-85.08 4048.09,-91.24 4050.05,-84.52"/>
</a>
</g>
</g>
</g>
</svg>
